<?xml version="1.0" encoding="UTF-8"?>
<svg id="Layer_1" xmlns="http://www.w3.org/2000/svg" width="1.267in" height="1.555in" version="1.1" viewBox="0 0 91.21 111.989">
  <!-- Generator: Adobe Illustrator 30.5.1, SVG Export Plug-In . SVG Version: 2.1.4 Build 3)  -->
  <defs>
    <style>
      .st0 {
        fill: #eaa87d;
      }

      .st1 {
        fill: #eea16c;
      }

      .st2 {
        fill: #fcd895;
      }

      .st3 {
        fill: #fbdf9a;
      }

      .st4 {
        fill: #fdde9b;
      }

      .st5 {
        fill: #fcecab;
      }

      .st6 {
        fill: #fce39e;
      }

      .st7 {
        fill: #0b0a08;
      }

      .st8 {
        fill: #0f0c0a;
      }

      .st9 {
        fill: #fcdf9b;
      }

      .st10 {
        fill: #e1986b;
      }

      .st11 {
        fill: #fcc89d;
      }

      .st12 {
        fill: #fce9a4;
      }

      .st13 {
        fill: #fbdc99;
      }

      .st14 {
        fill: #fddb99;
      }

      .st15 {
        fill: #fce09c;
      }

      .st16 {
        fill: #fed5b3;
      }

      .st17 {
        fill: #fcdf9c;
      }

      .st18 {
        fill: #fbe7a7;
      }

      .st19 {
        fill: #fdeba6;
      }

      .st20 {
        fill: #a16143;
      }

      .st21 {
        fill: #050403;
      }

      .st22 {
        fill: #080605;
      }

      .st23 {
        fill: #d18a60;
      }

      .st24 {
        fill: #fdd0aa;
      }

      .st25 {
        fill: #fcdc9a;
      }

      .st26 {
        fill: #ffdc98;
      }

      .st27 {
        fill: #e7a377;
      }

      .st28 {
        fill: #fef5d0;
      }

      .st29 {
        fill: #fcdc98;
      }

      .st30 {
        fill: #e6a176;
      }

      .st31 {
        fill: #090706;
      }

      .st32 {
        fill: #fde09c;
      }

      .st33 {
        fill: #fdeca9;
      }

      .st34 {
        fill: #0a0707;
      }

      .st35 {
        fill: #fee49e;
      }

      .st36 {
        fill: #fceaa6;
      }

      .st37 {
        fill: #0d0c0a;
      }

      .st38 {
        fill: #fbeaa8;
      }

      .st39 {
        fill: #fbbe8f;
      }

      .st40 {
        fill: #fcdc97;
      }

      .st41 {
        fill: #eea56e;
      }

      .st42 {
        fill: #fbdd9a;
      }

      .st43 {
        fill: #fad996;
      }

      .st44 {
        fill: #fde09e;
      }

      .st45 {
        fill: #0c0a09;
      }

      .st46 {
        fill: #0b0a09;
      }

      .st47 {
        fill: #fbde9a;
      }

      .st48 {
        fill: #fcdd9c;
      }

      .st49 {
        fill: #fceaa4;
      }

      .st50 {
        fill: #b36f4b;
      }

      .st51 {
        fill: #f3a871;
      }

      .st52 {
        fill: #fef5cb;
      }

      .st53 {
        fill: #fcde98;
      }

      .st54 {
        fill: #fcde99;
      }

      .st55 {
        fill: #fdeca5;
      }

      .st56 {
        fill: #fcdd9a;
      }

      .st57 {
        fill: #fef7d3;
      }

      .st58 {
        fill: #f9bd8d;
      }

      .st59 {
        fill: #fcdf9a;
      }

      .st60 {
        fill: #fef5d1;
      }

      .st61 {
        fill: #fce1a1;
      }

      .st62 {
        fill: #fef5cf;
      }

      .st63 {
        fill: #fdedab;
      }

      .st64 {
        fill: #d28e63;
      }

      .st65 {
        fill: #fcf7d9;
      }

      .st66 {
        fill: #fddc98;
      }

      .st67 {
        fill: #fdde9c;
      }

      .st68 {
        fill: #fcdb99;
      }

      .st69 {
        fill: #fcda97;
      }

      .st70 {
        fill: #fce9a2;
      }

      .st71 {
        fill: #050404;
      }

      .st72 {
        fill: #fbdc9a;
      }

      .st73 {
        fill: #070505;
      }

      .st74 {
        fill: #fcdb98;
      }

      .st75 {
        fill: #fce9a5;
      }

      .st76 {
        fill: #ee9e68;
      }

      .st77 {
        fill: #0b0908;
      }

      .st78 {
        fill: #fce9a3;
      }

      .st79 {
        fill: #d06b3b;
      }

      .st80 {
        fill: #fdf8d4;
      }

      .st81 {
        fill: #fbe8a3;
      }

      .st82 {
        fill: #0e0c0b;
      }

      .st83 {
        fill: #fddf9d;
      }

      .st84 {
        fill: #fce39d;
      }

      .st85 {
        fill: #060504;
      }

      .st86 {
        fill: #edaa7e;
      }

      .st87 {
        fill: #fce09e;
      }

      .st88 {
        fill: #fceca4;
      }

      .st89 {
        fill: #fcdd98;
      }

      .st90 {
        fill: #fbdf99;
      }

      .st91 {
        fill: #f2a66f;
      }

      .st92 {
        fill: #e7a275;
      }

      .st93 {
        fill: #040303;
      }

      .st94 {
        fill: #fce09d;
      }

      .st95 {
        fill: #040403;
      }

      .st96 {
        fill: #fcdd99;
      }

      .st97 {
        fill: #fcd896;
      }

      .st98 {
        fill: #fde99f;
      }

      .st99 {
        fill: #fce4a6;
      }

      .st100 {
        fill: #e8a579;
      }

      .st101 {
        fill: #ac6a48;
      }

      .st102 {
        fill: #feda96;
      }

      .st103 {
        fill: #efac7f;
      }

      .st104 {
        fill: #130e0c;
      }

      .st105 {
        fill: #f4b688;
      }

      .st106 {
        fill: #eca87c;
      }

      .st107 {
        fill: #fbde99;
      }

      .st108 {
        fill: #fcfadd;
      }

      .st109 {
        fill: #fddc9a;
      }

      .st110 {
        fill: #fdfad8;
      }

      .st111 {
        fill: #fedf9e;
      }

      .st112 {
        fill: #b16f4c;
      }

      .st113 {
        fill: #fceaa5;
      }

      .st114 {
        fill: #fddc99;
      }

      .st115 {
        fill: #fce29d;
      }

      .st116 {
        fill: #f9bd8e;
      }

      .st117 {
        fill: #fdeba3;
      }

      .st118 {
        fill: #eea069;
      }

      .st119 {
        fill: #fdd997;
      }

      .st120 {
        fill: #feefa7;
      }

      .st121 {
        fill: #fbdc97;
      }

      .st122 {
        fill: #0a0706;
      }

      .st123 {
        fill: #feeaa5;
      }

      .st124 {
        fill: #fdeca4;
      }

      .st125 {
        fill: #fceaa3;
      }

      .st126 {
        fill: #fcdb95;
      }

      .st127 {
        fill: #fee19f;
      }

      .st128 {
        fill: #fcde9b;
      }

      .st129 {
        fill: #fdf9d8;
      }

      .st130 {
        fill: #ec9e69;
      }

      .st131 {
        fill: #060404;
      }

      .st132 {
        fill: #feedad;
      }

      .st133 {
        fill: #fbd995;
      }

      .st134 {
        fill: #fdf9d6;
      }
    </style>
  </defs>
  <g id="Generative_Object">
    <path class="st37" d="M61.399,105.738c-5.544,6.646-16.553,7.557-24.609,4.774-2.733-.944-5.086-2.532-7.015-4.708l-2.396-2.952c-.6-.739-1.429-1.168-2.376-1.242l-3.02-.236c-3.368-.263-6.634-.953-9.727-2.197-5.95-2.393-10.28-7.024-11.69-13.274-1.137-5.038-.536-10.235,1.564-14.876,2.229-4.925,5.877-8.849,10.183-12.45,5.077-4.246,8.875-9.509,11.333-15.482,1.7-4.129,2.932-8.415,3.819-12.869l1.619-8.129,1.036-4.312c1.087-4.522,3.471-10.063,6.719-13.569,3.449-3.723,8.348-5.43,13.071-3.26,1.754.806,3.193,1.936,4.511,3.389,4.211,4.645,6.09,11.248,7.382,17.322l1.993,9.367c.991,4.656,2.441,9.093,4.381,13.355,2.454,5.391,5.969,10.203,10.589,14.12l2.231,1.99c4.338,3.87,7.485,8.053,9.189,13.418,2.415,7.602.509,16.086-5.207,21.48-4.48,4.227-10.925,5.7-17.023,6.085l-1.752.111c-.904.057-1.678.396-2.264,1.098l-2.542,3.047ZM41.279,3.121c-.226.052-.44.261-.645.373-.535.293-.965.72-1.433,1.091-.354.28-.684.614-1.014,1.004l-.744.879c-.921,1.089-1.682,2.307-2.317,3.574l-.943,1.881-.404.965-.657,1.66-.825,2.41-.252.923-1.03,4.061-.451,2.095-.941,4.871-.568,2.789-.425,1.929-.876,3.403-.233.819-1.412,4.167c-.122.359-.353.701-.324,1.046-.114.002-.13.104-.171.196l-1.062,2.432c-1.626,3.725-3.947,7.145-6.694,10.212l-3.274,3.245-3.571,3.153c-1.742,1.538-3.261,3.242-4.53,5.097-.142.056-.185.241-.255.345l-.453.677c-.076.114-.174.269-.238.373l-.697,1.132-.764,1.457c-.089.169-.149.298-.076.472-.145-.028-.162.079-.209.185-.965,2.189-1.522,4.493-1.736,6.919l-.002,3.985c0,1.033.571,3.981,1.143,4.661-.089.179-.011.399.088.595l.973,1.935c.508,1.01,1.222,1.904,1.962,2.757.356.41.721.88,1.238,1.156,1.199,1.276,2.859,2.167,4.453,2.904,2.996,1.386,6.235,2.103,9.586,2.45l1.127.117,1.927.107c1.042.058,2.065.249,2.943.822.09.059.215.215.355.184l1.483,1.557,1.712,2.081,1.268,1.314c.053.055.134.058.213.058.957,1.006,2.237,1.777,3.513,2.344l.805.357,1.702.63c.03.011.089,0,.119,0l1.657.417,1.977.347,1.17.12,4.679-.009c3.309-.242,6.465-1.206,9.135-3.024,1.238-.843,2.311-1.894,3.286-3.09l1.512-1.853c.592-.725,1.319-1.195,1.985-1.725.175.044.965-.429,2.627-.521l2.067-.114,1.576-.15,2.553-.381c.04.02.097.01.12-.023,2.088-.403,4.167-.994,6.089-1.882,1.603-.74,3.154-1.643,4.403-2.89l1.189-1.186c.866-.865,1.629-2.008,2.16-3.097.945-1.729,1.665-3.585,2.034-5.55l.205-1.091.117-.92-.012-3.747c-.298-3.179-1.359-6.11-2.91-8.794-.975-1.688-2.063-3.341-3.465-4.742l-3.267-3.263-1.096-.983-.927-.826-1.535-1.386c-3.19-2.88-5.687-6.279-7.681-9.903l-1.978-3.938-.963-2.22c-.003-.167-.094-.368-.154-.519-1.418-3.536-2.472-7.2-3.276-10.99l-1.434-6.3c.112.018.109-.096.062-.122l-.803-3.595-.646-2.599c-.772-3.107-1.841-6.103-3.37-8.907l-.45-.741-1.489-2.188-.535-.661-1.728-1.73c-.181-.181-.386-.305-.558-.405-.222-.129-.438-.364-.687-.424-2.327-1.543-5.72-1.933-8.33-.601-.211.108-.553.112-.697.36Z"/>
    <path class="st39" d="M50.307,3.361c.249.06.465.294.687.424-.013.251.273.35.444.522l1.608,1.612c.255.256.421.581.769.663l1.489,2.188c-.076.364.247.667.402.975l.788,1.562c1.271,2.813,2.181,5.715,2.872,8.735l.994,4.342c.014.063-.018.196.059.224.045.016.11.01.153.005.047.027.05.14-.062.122.036.825.253,1.659.449,2.542l1.095,4.92c.735,3.302,1.66,6.488,2.909,9.617.027.068.038.174.095.199.044.02.113.013.161.012.061.152.152.352.154.519.002.1-.055.227.007.373l.693,1.649,1.905,3.873c.073.148.124.319.336.262,1.994,3.624,4.491,7.022,7.681,9.903l1.535,1.386.927.826,1.096.983,3.053,3.225c.075.076.116.094.214.039,1.402,1.401,2.49,3.054,3.465,4.742-.077.146-.033.255.056.415,1.975,3.553,3.046,7.561,2.749,11.712l-.199,1.529c-.039.303-.235.663-.006.895-.369,1.965-1.089,3.821-2.034,5.55-.022-.124-.003-.266.078-.427.801-1.597,1.437-3.198,1.736-4.993-1.101,2.11-3.208,4.205-5.556,4.878-.687.187-1.443.108-1.965-.337-.294-.735-.076-1.387.121-2.112,1.128-4.148-.64-8.509-4.186-10.887-1.227-.823-2.427-1.377-3.883-1.592-2.226-.328-4.501-.21-6.581.397-.115-.098-.36.008-.589.055,1.72-5.584.228-10.397-2.354-15.05-.103-.186-.26-.206-.326-.298l-1.052-1.464c-.345-.48-.62-.984-1.166-1.32.848,1.343,1.57,2.631,2.191,4.002-.127.277.047.485.16.756,1.236,2.955,2.027,6.086,1.828,9.333l-.125,1.292-.094.629c-.04.27-.193.617.026.812-.238,1.582-.834,3.041-1.446,4.476-.125-.199-.023-.334.054-.525.506-1.261,1.051-2.438,1.136-3.918-2.105,3.797-4.902,6.277-8.746,7.959-.083-.156-.236-.046-.17.104-3.842,1.52-7.969,2.112-12.149,1.17l-.646-.92c-.188.134-.333.306-.426.674-.507-.162-1.219-.212-1.641-.65-.289-.3-.205-.848-.453-1.273-.341.156-.464.547-.552.903-1.064-.207-1.892-.704-2.797-1.166-4.924-2.514-8.346-7.515-8.706-12.971-.096-1.457.186-2.741.705-4.078.9-2.318,2.158-4.409,3.698-6.372l2.097-2.675,1.269-1.602c-1.224.934-2.365,1.969-3.39,3.197l-2.538,3.039c-.226.271-.401.6-.856.623.256-1.364.844-2.46,1.441-3.635.725-1.427,1.617-2.644,2.545-3.947l1.979-2.781c.371-.521.724-.986.855-1.652-.465.321-.815.62-1.144,1l-2.802,3.237c-.167-.381-.043-.728.086-1.081.735-2.016,1.75-3.847,2.892-5.677.628-1.007,1.854-3.125,1.342-3.015-.039.009-.103.097-.143.149l-3.013,3.936c-.047.062-.172.157-.217.189s-.176-.116-.147-.164c.022-.035.034-.109.048-.186.246-1.418.833-2.667,1.392-3.972.831-1.941,1.773-3.747,2.943-5.52.316-.478.57-.949.607-1.557-.491.019-.741.37-1,.688l-.722.886c.006.023.073.088.207.152-.704.725-1.235,1.552-1.846,2.402-.128.178-.321.391-.511.233.267-1.721.952-3.243,1.634-4.782l1.668-3.763c-1.122,1.079-1.686,2.403-2.606,3.604-.007-1.391.401-2.608.981-3.778l1.685-3.396c.348-.702.979-1.242,1.002-2.051-1.023.955-1.634,2.061-2.35,3.14-.18.271-.316.573-.7.669l.273-1.932c.586-2.535,1.5-4.92,2.709-7.229.205-.391.355-.757.471-1.196-1.266,1.317-1.845,3.325-2.933,4.927-.228-.168-.246-.509-.211-.857.386-3.878,1.007-7.655,1.944-11.391.654-2.604,1.599-5.016,2.793-7.422.097-.033.177-.16.109-.182-.056-.018-.111.079-.183-.125.205-.112.419-.321.645-.373.098.014.28.016.423-.06,2.601-1.38,5.664-1.259,8.217.207.152.088.258.101.387.093ZM52.414,30.215c1.004.036,1.475-1.326,1.6-2.088.214-1.304.023-2.499-.102-3.803-.289-3.016-.76-5.975-1.733-8.803-.111-.322-.297-.572-.601-.613-1.057-.141-1.4,1.966-1.449,3.432-.094,2.819-.19,11.785,2.284,11.875ZM56.325,21.26l.56,3.072c-.126.061-.156.198-.126.218l.207.137.335,2.046,1.557,9.706.938,5.69.698,3.712.83,3.576c.514,2.214,1.279,4.285,2.413,6.279.099.174.133.286.342.244-.035.114.111.16.131.029.045.007.108.098.224.063-.858-2.5-1.515-4.985-2.022-7.608l-2.873-14.857-.223-1.071-1.403-6.486-1.03-4.189c-.014-.057.022-.196-.059-.224-.044-.015-.112-.009-.158-.01-.047-.192-.023-.404-.222-.58.014.122-.001.223-.119.254ZM41.052,32.068c.128-.262.145-.498.005-.704-.068-.099-.114-.227-.441-.211-.35.27-.857,1.07-.665,1.547.403.278.929-.279,1.101-.632ZM38.911,40.628c.65-.663,1.255-1.896.546-2.082-.755.366-1.396,1.217-1.48,2.05-.024.235.382.329.502.261.097-.055.287-.083.431-.23ZM58.771,51.63c.286-.422.24-.714-.057-.981-.197.368-.17.778.057.981ZM58.055,66.061c.224-.669.502-1.318.437-2-.203-2.149-1.139-4.158-2.663-5.647-1.606-1.569-3.868-1.744-5.483-.429-1.876,1.527-1.021,6.747,2.686,8.745,1.988,1.071,4.613.557,5.023-.669ZM70.553,58.185c.316.137.454-.191.438-.341-.023-.217-.326-.439-.497-.251-.094.103-.066.538.059.592ZM34.344,61.668c-1.313-.232-2.144,1.532-1.724,1.888.447.378,1.648-.792,1.724-1.888ZM80.899,70.835c.145-.637.024-1.199-.169-1.731-.51-1.404-1.214-2.662-2.243-3.79-1.27-1.39-2.731-2.517-4.537-3.001-.636-.17-1.225-.174-1.722.188-.478.348-.662.906-.619,1.571.258,3.988,5.454,6.819,9.29,6.762ZM36.682,65.744c-.369-.261-1.144.2-1.441,1.069-.059.172-.019.555.165.618.913-.362,1.758-1.346,1.276-1.687ZM34.388,73.003c.059-.162-.086-.338-.196-.348-.361-.034-1.191,1.403-1.281,2.266.485.39,1.123-.939,1.477-1.917ZM34.927,77.405c.445-.99,1.303-1.397,1.498-2.032.043-.14-.303-.536-.422-.428-.622.562-.99,1.305-1.39,1.991-.079.136.022.284.035.356.014.079.239.202.279.113ZM38.642,77.051c.058-.123-.223-.208-.263-.111l-.111.271c-.045-.083-.205-.246-.339-.247-.566.308-.98.916-1.041,1.638.016.075.334-.054.315-.128.109.412,1.008-.51,1.44-1.423Z"/>
    <path class="st10" d="M63.668,78.053c-.604,1.418-1.418,2.721-2.283,4.12.864-.672,1.399-1.596,2.069-2.344.105.027.169-.04.221-.1.07-.08.076-.176.019-.277l1.236-2.204c.133.092.232-.012.221-.15.472-.753.604-1.782.882-2.084.137-.149.397-.128.584-.182,2.08-.607,4.355-.725,6.581-.397,1.455.215,2.655.769,3.883,1.592,3.546,2.378,5.314,6.739,4.186,10.887-.197.725-.415,1.378-.121,2.112.522.445,1.278.524,1.965.337,2.348-.673,4.456-2.768,5.556-4.878-.298,1.795-.934,3.395-1.736,4.993-.081.162-.1.304-.078.427-.532,1.089-1.294,2.232-2.16,3.097-.112-.058-.155-.038-.224.036l-.965,1.15c-1.249,1.247-2.8,2.15-4.403,2.89-.174-.1-.279-.049-.441.026-1.753.801-3.604,1.272-5.529,1.672-.144.03-.153.104-.119.184-.023.033-.08.043-.12.023-.189-.224-.543-.065-.8-.029l-2.482.344-1.672.094-1.702.115c-.784.053-1.565.163-2.167.642-.168-.036-.338.044-.529.222-.223-1.521-1.58-2.565-3.189-2.674-1.792-.121-3.339.825-4.371,2.237-.542.742-1.165,1.293-1.882,1.85-3.054,2.369-7.028,3.72-10.907,4.009-.532.04-1.021.082-1.475.298-.037-.107.018-.152.024-.19.007-.045-.034-.085-.102-.1.306-.139.595-.494.935-.536.245-.03.429-.118.501-.389.068-.256,1.238-.834,1.518-1.603l-1.606,1.327-2.252,1.547c.049.104-.028.223-.096.239-.587.144-.541.633-.657,1.015-.179.592-1.235,1.13-.991,1.454-.114-.038-.3-.03-.323.113-.03,0-.089.011-.119,0,.033-.098.013-.177-.111-.222l-1.641-.593c-.255-.092-.483-.325-.755-.173-1.276-.567-2.556-1.338-3.513-2.344l-1.271-1.337c-.064-.068-.087-.101-.21-.035l-1.712-2.081.076-.2-1.341-1.341c-.06-.06-.171-.027-.218-.016-.14.032-.265-.125-.355-.184.045-.214-.145-.254-.279-.325-1.202-.632-2.516-.614-3.81-.723l-1.477-.125-1.088-.088-.722-.128c-2.576-.31-5.051-.921-7.443-1.937-.269-.114-.497-.277-.764-.169-1.594-.737-3.255-1.628-4.453-2.904l-1.044-1.111c-.049-.047-.07-.117-.194-.045-.741-.852-1.454-1.746-1.962-2.757.06-.079.069-.173.022-.271l-1.083-2.259c-.572-1.702-.96-3.481-1.022-5.336-.129-.882-.078-1.747-.013-2.631.179-2.454.637-4.818,1.576-7.1.103-.249.286-.446.262-.683l.786-1.525c.075-.146.148-.247.055-.403l.697-1.132c.131.056.188-.032.234-.084.075-.086.067-.197.004-.289l.453-.677c.122.062.173,0,.236-.073.062-.071.092-.163.019-.272,1.269-1.854,2.787-3.558,4.53-5.097l3.571-3.153.203.074,3.076-3.075c.052-.052.052-.172-.005-.244,2.747-3.067,5.068-6.487,6.694-10.212.147.082.224-.029.215-.153l.801-1.777c.112-.248.238-.452.217-.698.11.002.12-.099.153-.196l1.225-3.398.601-1.984.115-.275c.032-.077-.003-.175-.125-.178l.876-3.403.425-1.929c.073.03.171.014.197-.114l.489-2.446c.025-.123-.022-.227-.118-.229l.941-4.871c.07.031.172.016.198-.113l.484-2.328.808-3.26.119-.276c.033-.077-.003-.175-.127-.178l.252-.923.154.016.721-2.138.696-1.756c.068-.073.047-.195-.089-.192l.404-.965c.141.085.229-.028.212-.152l.679-1.326c.075-.146.15-.248.052-.403.635-1.266,1.395-2.485,2.317-3.574.343-.168.593-.48.869-.771l.85-.899c.07-.074.092-.11.038-.212.468-.371.898-.798,1.433-1.091.072.204.127.106.183.125.068.023-.012.15-.109.182-1.194,2.405-2.139,4.818-2.793,7.422-.938,3.736-1.559,7.514-1.944,11.391-.035.348-.017.689.211.857,1.089-1.602,1.667-3.61,2.933-4.927-.115.439-.266.805-.471,1.196-1.209,2.309-2.123,4.694-2.709,7.229l-.273,1.932c.384-.096.52-.398.7-.669.717-1.079,1.327-2.185,2.35-3.14-.022.809-.653,1.349-1.002,2.051l-1.685,3.396c-.58,1.17-.988,2.386-.981,3.778.92-1.201,1.484-2.525,2.606-3.604l-1.668,3.763c-.682,1.539-1.367,3.062-1.634,4.782.19.158.383-.055.511-.233.611-.849,1.142-1.677,1.846-2.402-.134-.064-.201-.129-.207-.152l.722-.886c.259-.318.509-.669,1-.688-.037.608-.291,1.078-.607,1.557-1.17,1.773-2.113,3.579-2.943,5.52-.558,1.305-1.145,2.554-1.392,3.972-.013.077-.026.151-.048.186-.03.048.101.197.147.164s.17-.128.217-.189l3.013-3.936c.039-.052.103-.14.143-.149.512-.111-.714,2.007-1.342,3.015-1.141,1.831-2.156,3.661-2.892,5.677-.129.353-.253.699-.086,1.081l2.802-3.237c.329-.38.678-.679,1.144-1-.131.666-.484,1.131-.855,1.652l-1.979,2.781c-.928,1.303-1.82,2.52-2.545,3.947-.597,1.175-1.185,2.272-1.441,3.635.455-.023.63-.353.856-.623l2.538-3.039c1.025-1.228,2.166-2.263,3.39-3.197l-1.269,1.602-2.097,2.675c-1.539,1.963-2.798,4.054-3.698,6.372-.519,1.337-.801,2.621-.705,4.078.36,5.456,3.782,10.457,8.706,12.971.905.462,1.733.959,2.797,1.166.088-.356.21-.747.552-.903.248.425.164.974.453,1.273.422.438,1.134.488,1.641.65.093-.369.238-.541.426-.674l.646.92c4.181.942,8.307.349,12.149-1.17-.067-.15.087-.26.17-.104,3.844-1.682,6.641-4.162,8.746-7.959-.085,1.48-.63,2.657-1.136,3.918-.077.191-.179.326-.054.525ZM35.345,12.286c.124.038.195-.025.251-.091.079-.093.061-.203.013-.296l1.198-2.159c.041-.075.08-.127.116-.158.038-.032.032-.144-.056-.164-.067-.015-.12.154-.165.226l-2.658,4.286.168.009,1.133-1.653ZM35.234,15.058c.131.071.183-.01.243-.075.071-.077.06-.184.034-.266l.845-1.41-.091-.079-2.966,4.032c.046.044.089.049.141-.015l1.794-2.186ZM32.816,20.243c-.115-.072-.181-.021-.248.069-.063.085-.06.137-.043.275.004.153-.309.286-.22.561.907-.849,1.612-1.808,2.351-2.723.118.063.177,0,.239-.078.063-.078.072-.149.049-.246-.016-.064.033-.111.053-.149.122.074.186.009.247-.07.074-.095.062-.171.029-.287-.004-.098.207-.206.106-.431l-.515.516-2.048,2.561ZM33.441,23.79c.588-.769,1.221-1.491,1.5-2.459l-2.235,3.197c.052.027.082.059.105.087l.63-.825ZM33.767,27.969c-.026-.007-.126-.021-.158.012-.085.088-.568,2.288-.592,3.121.103-.018.105.099.051.121-.026-.009-.117-.021-.153.007-.075.058-.062.226-.083.334l-1.143,5.923c-.025.132.019.229.119.234l-.943,4.871c-.041-.002-.108-.008-.152.008.046-.017-.582,2.259-.601,3.122.108-.006.095.083.073.122-.08-.038-.212-.023-.224.114-.074.796-.472,1.472-.426,2.201.103-.012.099.089.059.12-.032-.008-.125-.021-.16.009-.075.063-.076.225-.094.298l-.328,1.337-.105.271c-.03.078.002.174.132.179-.353,1.33-.92,2.597-1.092,4.101,1.05-1.436,1.628-3.094,2.119-4.661-.139,0-.112-.103-.1-.137.098.032.182.017.223-.112l.586-1.857.475-1.867.111-.282c.039-.1.034-.259-.123-.291l.138-.575c.035.002.116.009.158-.011.086-.041.054-.252.071-.329l.35-1.644.104-.283c.036-.099.038-.257-.116-.289l.567-2.901.262-1.505c.086.033.168.013.19-.117l.743-4.526.142-1.008.671-4.801c.061-.44.199-.912-.015-1.271.067-.539.236-1.073.2-1.623-.018-.007-.077-.005-.102.057l-.829,3.532ZM23.829,51.413c.186-.336.496-.676.363-1.087-.882,1.778-1.965,3.247-2.967,4.932,1.21-1.061,1.843-2.471,2.604-3.844ZM25.5,51.624l-.571.761c-.127-.076-.19-.008-.253.071-.07.087-.087.186-.005.297l-2.633,3.981c.557-.264.761-.829,1.13-1.169.111.035.173-.02.241-.082.104-.094.025-.21.043-.275.079-.254.352-.604.538-.795.089.004.186-.036.237-.097.096-.116.028-.236.006-.305.1-.163.189-.413.36-.516.1-.002.17-.062.215-.114.077-.088.042-.234.005-.307l.687-1.452c.139-.004.379-.157.237-.293-.101-.036-.178.214-.237.293ZM25.621,60.043c-.144-.089-.235.031-.206.153-.309.472-.461.951-.64,1.459-.23.655-.55,1.279-.58,1.932.101-.005.107.099.083.132-.055-.016-.147-.027-.185.002-.062.048-.075.225-.093.301l-.319,1.338c-.061.257-.23.614-.01.796.024.016.037.075.033.116-.067-.013-.144-.021-.186-.002,0,0-.231.944-.231,1.48l-.003,3.579c0,1.318.427,2.56.809,3.779l.159-.016c.491,1.49,1.22,2.883,2.037,4.228-.071.072-.055.225.002.283.045.046.116.106.21.106-.024.093-.033.181.03.254.062.072.125.124.229.09.577.653,1.059,1.426,1.817,2.012l-.866-1.606c-.528-.979-1.136-1.871-1.517-2.869.113-.192.016-.331-.055-.528l-.595-1.635c-.045-.125-.124-.144-.218-.115-.019-.037-.038-.119.065-.12l-.412-2.073-.134-.704.009-.281c.002-.069-.144-.108-.229-.048-.008-.041-.021-.114-.009-.141.202-.374.121-.86.06-1.322-.083-.631-.039-1.352.01-1.992l.105-1.384.08-.765c.037-.349.231-.747.013-1.039-.044.004-.063-.095.006-.104.03.005.094.011.141-.005.085-.029.032-.176.042-.236.341-2.062.986-3.944,1.66-5.902.07-.204.15-.358.035-.543.195-.545.438-1.066.618-1.71-.759.974-1.242,2.049-1.765,3.097ZM9.247,81.344c.487-2.784,2.086-5.133,4.54-6.542,1.443-.829,2.999-1.427,4.685-1.554l1.27-.096c.575-.043.848-.247,1.022-.78.905-2.771,1.362-5.724,1.245-8.686-.037-.928-.143-1.855-.636-2.644-1.044-1.671-3.984-.23-5.692.796-1.92,1.153-3.368,2.666-4.773,4.426-3.321,4.16-5.51,8.702-3.868,14.098.259.852.953,2.201,1.83,2.4.197-.447.287-.907.377-1.419ZM25.666,72.3c-.014-.007-.086-.002-.131.035.108,1.134.477,2.19.892,3.26.047.122.075.219.24.149.73,1.588,1.669,3.083,2.765,4.473.194-.227-.084-.305-.134-.389l-1.26-2.14c.111-.142.033-.242-.041-.39l-1.023-2.019c.013-.13-.078-.239-.216-.151l-.282-.736c.074.011.103-.025.123-.064.04-.08-.061-.157-.074-.202l-.507-1.711c-.041-.139-.144-.147-.217-.123-.072-.223.016-.489-.226-.707-.096.334.058.49.091.716ZM67.593,79.445l-1.831,1.017c-.088-.049-.21-.062-.294.013-.052.046-.165.11-.072.252-3.392,2.352-5.48,5.487-7.164,9.19-1.019,2.24-2.26,4.325-3.796,6.255l-.521.526c-.086-.046-.129-.02-.197.052l-.982,1.134c-.078.053-.141.177-.27.175-.25-.005-.491.27-.538.523-.661.538-1.367,1.018-2.136,1.405.122.001.223-.008.261.135,1.206-.293,2.388-.861,3.561-1.482.055-.029.045-.134-.025-.175,2.082-1.229,3.803-2.991,5.062-5.167.983.636,1.991,1.129,3.02,1.563-.077.135.023.225.16.22,1.204.457,2.396.78,3.677.96l2.635.058c.095.002.15-.103.134-.216,1.234-.044,2.357-.372,3.464-.67l.108-.05c-.028.031.023.159.118.131.989-.296,1.888-.678,2.767-1.188.046-.027.043-.124-.011-.158.18-.11.472-.426.686-.401.341.04.366-.241.498-.392l1.433-1.641c.03.082.138.087.174.035.649-.965,1.112-1.983,1.422-3.118.035-.127-.022-.231-.125-.235-.004-.038.008-.076.017-.111.037.005.124.015.167-.001.227-.087.368-3.519-.389-4.917.018-.126-.077-.24-.211-.153-.228-.577-.561-1.094-.896-1.613.024-.028.061-.118.062-.186l-1.335-1.345c-.073-.073-.206-.012-.257.006-.129.003-.227-.145-.324-.203.061-.114.006-.199-.08-.239l-.198-.094c-2.926-1.388-4.591-1.182-7.617-.149-.136.047-.218.115-.157.254ZM18.119,78.676c-2.129.305-3.997,1.659-5.036,3.502-.312-.04-.807,1.263-.896,1.843l-.103.289c-.036.099-.038.257.118.289-.178,1.03-.161,2.107-.006,3.134-.32.633.474,1.899.477,2.147,0,.062.131.077.175.03,1.233,2.644,3.688,4.597,6.524,5.319,1.123.337,2.299.636,3.501.641,0,.047-.011.125.034.22l2.604-.052c1.414-.193,2.732-.607,4.028-1.173.128-.051.216-.081.162-.232.7-.37,1.422-.702,2.148-1.25.408.801.818,1.562,1.41,2.177l-.08.207,1.745,1.74c.082-.012.151-.038.183-.061.775.593,1.577,1.135,2.435,1.592-.064.033-.065.128-.013.152.987.454,1.978.896,2.987,1.035.122-.132.084-.154.06-.201-.066-.131-.233-.083-.284-.107-.939-.447-1.739-1.044-2.486-1.674.058-.096.039-.143-.034-.215l-1.594-1.432c-.024-.032-.081-.076-.07-.147.042-.264-.187-.401-.387-.478-.175-.067-.408-.361-.432-.549-.01-.081.053-.172-.047-.269-.054-.052-.105-.146-.234-.081-.675-.893-1.235-1.873-1.736-2.866.097-.155.021-.258-.053-.404l-.679-1.326c.018-.128-.076-.24-.214-.148l-.871-2.011c-1.632-3.767-4.61-6.938-8.26-8.754.084-.068.039-.197-.067-.182-1.458-.744-2.989-1.064-4.653-.916-.089.008-.291-.067-.345.038-.021.041-.012.122-.009.17ZM3.506,81.584c-.024-.01-.081-.006-.108.023l.037,1.457c.214,1.485.654,2.889,1.3,4.243.035.073.147.1.211.066.265.433.592,1.08,1.016,1.392-.019.108.046.363.173.344.13-.183-.106-.282-.173-.344l-.162-.41c.067-.15-.007-.236-.089-.39-1.088-2.051-1.721-4.252-1.873-6.606-.01-.148-.115-.164-.216-.116v-.297c-.026-.042-.064-.06-.074-.061-.084.229-.049.47-.041.699ZM37.311,85.461c-.078.155.018.192.147.23l1.449.454c.212.066.534.201.723-.02.269.048.523.206.783.042l-.698-.194c.003-.031.014-.122-.014-.158-.021-.027-1.708-.486-3.013-1.223-.153-.087-.271-.148-.421-.048-1.199-.688-2.296-1.535-3.439-2.326,1.313,1.449,2.867,2.491,4.483,3.244ZM8.735,89.374c-.816-.873-1.403-1.779-2.106-2.709.385,1.128,1,2.223,2.106,2.709ZM35.669,88.143c1.552.514,3.261.665,4.979.414-.068-.216-.26-.123-.357-.126.033-.123-.544-.138-1.216-.187l-1.301-.094-1.138-.129c-.341-.039-.712-.048-1.082-.195-.061.161.111.17.145.142.029-.024.144.129-.031.175ZM36.568,90.286c.037.06.196.166.048.277l.742.09c.438.228.787.021,1.175.01.751-.022,1.398-.058,2.107-.243l1.658-.433c.118-.041.223-.061.161-.23l.655-.243c.104-.045.066-.172-.029-.148-.006-.025-.011-.082-.046-.124-2.006.566-4.067.913-6.225.945-.125-.052-.235-.019-.248.099ZM53.745,89.935c-.04-.026-.087-.011-.118-.008-.042.004-.138-.024-.196.035l-1.729,1.89-1.673,1.339c-.132.106-.277.271-.423.244-.092-.017-.168-.048-.268.036-.049.041-.12.119-.1.226-.314.239-.74.541-1.135.665-.101.032-.233.004-.394.09l-1.465.791c.104.123.157.176.253.152l.301-.074c.501-.123,1.015-.348,1.533-.591.148.006.244-.096.154-.232,2.033-1.099,4.073-2.543,5.261-4.564.153-.062.229-.178.225-.183-.047-.065-.139-.065-.171-.043-.066.047-.099.144-.055.225ZM49.426,91.216l-2.33,1.334c-.157-.105-.264-.031-.417.047l-1.325.68c-.121-.015-.235.066-.156.209l-.786.334c-.375-.11-.734.176-1.101.275l-1.864.502-.282-.018c-.066-.004-.104.141-.075.227-.132.023-.384-.087-.448.125-.022.058-.131.114-.095.253,2.022-.176,3.94-.797,5.751-1.679.058-.028.054-.116-.017-.154,1.083-.535,2.126-1.173,3.095-1.979.081-.058.105-.098.05-.157.143-.082.513-.036.444-.409-.253.146-.366.27-.444.409ZM45.852,91.102l-3.009.8-2.095.37c-1.2.212-1.871-.051-1.738.34l-1.258.018c-.037.006.033.145.102.099-.005.053-.025.112.018.233l2.362-.055c.772-.018,1.26-.069,1.1-.269,1.764-.243,3.465-.739,5.148-1.563-.209-.114-.449-.02-.63.028ZM50.945,95.1c-.075.068-.329.098-.297.272.097.084.321-.097.297-.272,1.285-.682,2.475-1.672,3.269-2.928l-1.586,1.421-1.683,1.507ZM12.925,93.674c-.766-.335-1.218-.931-1.923-1.387.251,1.644,2.181,2.12,2.018,1.656l-.095-.269ZM29.038,97.502c-.838.327-1.961.475-1.999.715-.063.405,1.198.025,1.999-.715ZM31.509,98.914c.354-.233.733-.561.872-.937-.026-.108-.358-.234-.467-.159-.978.677-1.884,1.405-2.744,2.242-.055.054.091.234.156.209l.292-.111,1.892-1.245ZM31.109,100.903c-.075.071-.336.127-.32.248.164.148.267-.091.32-.248.976-.528,1.837-1.379,2.539-2.266l-1.733,1.502-.806.763ZM37.397,99.675l-4.631,3.248c1.787-.835,3.231-1.978,4.631-3.248ZM38.313,101.844l-3.455,2.27c-.247.24-.583.347-.711.697,1.482-.922,2.942-1.758,4.166-2.967.11.108.358-.051.321-.146-.097-.111-.295.044-.321.146ZM41.695,102.665c-.367-.12-.415.187-.558.307-1.413,1.185-2.903,2.089-4.448,3.208,1.866-.749,3.489-2.143,5.006-3.515Z"/>
    <path class="st58" d="M64.069,100.146c-.666.53-1.393,1-1.985,1.725l-1.512,1.853c-.976,1.196-2.048,2.247-3.286,3.09-.268-.1-.457.115-.674.251-2.36,1.48-4.992,2.238-7.757,2.551l-1.871.111c-2.533.151-5.843-.153-7.993-.876-.245-.324.811-.862.991-1.454.116-.383.07-.871.657-1.015.068-.017.145-.135.096-.239l.904-.345c.068.014.109.055.102.1-.006.039-.061.083-.024.19.454-.216.943-.259,1.475-.298,3.879-.289,7.853-1.64,10.907-4.009.717-.556,1.34-1.108,1.882-1.85,1.031-1.412,2.579-2.358,4.371-2.237,1.609.109,2.966,1.153,3.189,2.674.192-.178.362-.258.529-.222ZM56.075,102.676c-.706.603-1.332,1.218-1.567,2.156.922.029,1.885-1.342,1.567-2.156ZM44.979,106.394c-.361-.165-1.421.612-1.23,1.685,1.074-.355,1.576-1.527,1.23-1.685Z"/>
    <path class="st52" d="M57.285,106.814c-2.67,1.818-5.826,2.782-9.135,3.024l-4.679.009-1.17-.12-1.977-.347-1.657-.417c.023-.143.209-.151.323-.113,2.149.723,5.46,1.026,7.993.876l1.871-.111c2.765-.313,5.397-1.071,7.757-2.551.217-.136.406-.351.674-.251Z"/>
    <path class="st57" d="M65.221,42.023c-.048,0-.117.008-.161-.012-.057-.026-.068-.131-.095-.199-1.249-3.129-2.174-6.315-2.909-9.617l-1.095-4.92c-.196-.882-.414-1.717-.449-2.542l1.434,6.3c.805,3.789,1.858,7.453,3.276,10.99Z"/>
    <path class="st80" d="M60.572,24.611c-.043.006-.108.011-.153-.005-.077-.028-.045-.161-.059-.224l-.994-4.342c-.691-3.02-1.601-5.922-2.872-8.735l-.788-1.562c-.155-.308-.478-.611-.402-.975l.45.741c1.529,2.804,2.598,5.8,3.37,8.907l.646,2.599.803,3.595Z"/>
    <path class="st29" d="M27.497,100.44c-.878-.573-1.901-.765-2.943-.822l-1.927-.107-1.127-.117c-3.351-.347-6.59-1.064-9.586-2.45.267-.108.496.055.764.169,2.392,1.016,4.867,1.626,7.443,1.937l.722.128,1.088.088,1.477.125c1.294.11,2.608.091,3.81.723.134.07.324.111.279.325Z"/>
    <path class="st94" d="M3.199,87.597c-.572-.68-1.144-3.628-1.143-4.661l.002-3.985c.214-2.425.771-4.729,1.736-6.919.047-.106.064-.213.209-.185.023.237-.16.434-.262.683-.94,2.282-1.398,4.646-1.576,7.1-.064.884-.115,1.749.013,2.631.062,1.855.45,3.634,1.022,5.336Z"/>
    <path class="st62" d="M88.886,84.355c-.228-.233-.033-.593.006-.895l.199-1.529c.297-4.15-.774-8.159-2.749-11.712-.089-.16-.133-.268-.056-.415,1.55,2.684,2.611,5.614,2.91,8.794l.012,3.747-.117.92-.205,1.091Z"/>
    <path class="st108" d="M50.307,3.361c-.13.008-.235-.006-.387-.093-2.553-1.466-5.616-1.587-8.217-.207-.143.076-.326.074-.423.06.144-.249.486-.253.697-.36,2.61-1.332,6.003-.942,8.33.601Z"/>
    <path class="st74" d="M72.892,98.981l-2.553.381-1.576.15-2.067.114c-1.661.092-2.451.565-2.627.521.602-.479,1.382-.589,2.167-.642l1.702-.115,1.672-.094,2.482-.344c.258-.036.611-.195.8.029Z"/>
    <path class="st129" d="M68.316,48.7c-.212.057-.263-.114-.336-.262l-1.905-3.873-.693-1.649c-.062-.146-.005-.273-.007-.373l.963,2.22,1.978,3.938Z"/>
    <path class="st126" d="M79.101,97.077c-1.922.887-4.001,1.479-6.089,1.882-.034-.081-.025-.155.119-.184,1.925-.4,3.775-.871,5.529-1.672.162-.074.267-.126.441-.026Z"/>
    <path class="st17" d="M25.787,43.057c-.029-.345.202-.687.324-1.046l1.412-4.167.233-.819c.122.003.157.101.125.178l-.115.275-.601,1.984-1.225,3.398c-.033.097-.043.198-.153.196Z"/>
    <path class="st14" d="M30.566,24.034l.451-2.095,1.03-4.061c.124.004.16.102.127.178l-.119.276-.808,3.26-.484,2.328c-.027.129-.129.145-.198.113Z"/>
    <path class="st61" d="M14.586,59.142l3.274-3.245c.056.072.057.192.005.244l-3.076,3.075-.203-.074Z"/>
    <path class="st110" d="M82.821,65.062c-.098.056-.138.038-.214-.039l-3.053-3.225,3.267,3.263Z"/>
    <path class="st14" d="M32.3,16.956l.825-2.41.657-1.66c.137-.004.157.119.089.192l-.696,1.756-.721,2.138-.154-.016Z"/>
    <path class="st134" d="M53.814,6.581c-.347-.082-.513-.407-.769-.663l-1.608-1.612c-.172-.172-.457-.271-.444-.522.173.101.378.224.558.405l1.728,1.73.535.661Z"/>
    <path class="st83" d="M24.555,45.686l1.062-2.432c.04-.092.056-.194.171-.196.021.246-.105.45-.217.698l-.801,1.777c.009.124-.068.235-.215.153Z"/>
    <path class="st66" d="M29.057,31.694l.568-2.789c.096.001.143.105.118.229l-.489,2.446c-.026.128-.124.144-.197.114Z"/>
    <path class="st40" d="M4.26,90.127l-.973-1.935c-.099-.196-.177-.416-.088-.595l1.083,2.259c.047.098.038.192-.022.271Z"/>
    <path class="st99" d="M39.201,4.584c.054.102.033.138-.038.212l-.85.899c-.276.292-.526.604-.869.771l.744-.879c.33-.39.66-.724,1.014-1.004Z"/>
    <path class="st102" d="M38.548,108.964l-1.702-.63-.805-.357c.271-.152.499.081.755.173l1.641.593c.124.045.144.124.111.222Z"/>
    <path class="st6" d="M29.335,102.18l-1.483-1.557c.047-.011.158-.044.218.016l1.341,1.341-.076.2Z"/>
    <path class="st94" d="M4.003,71.847c-.073-.174-.013-.303.076-.472l.764-1.457c.093.156.02.257-.055.403l-.786,1.525Z"/>
    <path class="st55" d="M32.529,105.633c-.079,0-.16-.002-.213-.058l-1.268-1.314c.123-.066.146-.032.21.035l1.271,1.337Z"/>
    <path class="st18" d="M34.185,11.922l.943-1.881c.098.155.022.257-.052.403l-.679,1.326c.016.124-.071.238-.212.152Z"/>
    <path class="st49" d="M83.504,94.187l.965-1.15c.069-.074.112-.094.224-.036l-1.189,1.186Z"/>
    <path class="st120" d="M7.46,94.04c-.517-.277-.882-.747-1.238-1.156.124-.071.145-.002.194.045l1.044,1.111Z"/>
    <path class="st123" d="M5.54,68.787c.064-.104.162-.26.238-.373.063.092.071.203-.004.289-.045.052-.102.14-.234.084Z"/>
    <path class="st81" d="M6.23,67.736c.07-.104.113-.289.255-.345.073.109.042.201-.019.272-.063.073-.114.135-.236.073Z"/>
    <path class="st11" d="M58.055,66.061c-.41,1.226-3.035,1.741-5.023.669-3.707-1.998-4.562-7.218-2.686-8.745,1.615-1.315,3.877-1.14,5.483.429,1.524,1.489,2.46,3.498,2.663,5.647.064.682-.213,1.331-.437,2Z"/>
    <path class="st16" d="M80.899,70.835c-3.836.057-9.032-2.774-9.29-6.762-.043-.666.141-1.223.619-1.571.497-.362,1.086-.358,1.722-.188,1.806.484,3.267,1.611,4.537,3.001,1.03,1.127,1.734,2.386,2.243,3.79.193.531.314,1.094.169,1.731Z"/>
    <path class="st24" d="M52.414,30.215c-2.474-.09-2.378-9.056-2.284-11.875.049-1.465.392-3.572,1.449-3.432.304.04.49.291.601.613.973,2.828,1.445,5.787,1.733,8.803.125,1.304.315,2.499.102,3.803-.125.762-.596,2.124-1.6,2.088Z"/>
    <path class="st46" d="M56.666,21.585l.83,3.347,1.08,4.814.699,3.379,2.998,15.457.775,3.298,1.164,4.088c-.02.131-.166.085-.131-.029-.963-1.559-1.629-3.23-2.164-5.025-1.06-3.554-1.717-7.137-2.304-10.833l-1.81-11.399-.566-3.268-.909-4.155c.118-.031.133-.132.119-.254.198.176.174.388.222.58Z"/>
    <path class="st46" d="M63.347,59.538c1.442,2.518,2.59,5.186,3.067,8.101l.153,1.597c.24,2.505-.544,6.061-1.637,8.012l-1.236,2.204c-.116.081-.227.225-.24.377-.67.748-1.205,1.672-2.069,2.344.865-1.399,1.679-2.702,2.283-4.12.611-1.436,1.208-2.894,1.446-4.476l.304-2.019.007-3.27-.072-.638c-.278-2.453-1.056-4.738-2.033-6.895-.62-1.371-1.342-2.659-2.191-4.002.546.336.821.841,1.166,1.32l1.052,1.464Z"/>
    <path class="st65" d="M64.079,55.94c-.209.042-.243-.069-.342-.244-1.134-1.994-1.899-4.065-2.413-6.279l-.83-3.576-.698-3.712-.938-5.69-1.557-9.706-.335-2.046-.207-.137c-.03-.02,0-.157.126-.218l-.56-3.072.909,4.155.566,3.268,1.81,11.399c.587,3.696,1.244,7.279,2.304,10.833.535,1.795,1.201,3.466,2.164,5.025Z"/>
    <path class="st65" d="M64.21,55.968l-1.164-4.088-.775-3.298-2.998-15.457-.699-3.379-1.08-4.814-.83-3.347c.046,0,.114-.006.158.01.081.028.045.167.059.224l1.03,4.189,1.403,6.486.223,1.071,2.873,14.857c.507,2.623,1.164,5.108,2.022,7.608-.116.035-.179-.056-.224-.063Z"/>
    <path class="st60" d="M66.617,74.831c-.186.054-.447.033-.584.182-.278.303-.41,1.331-.882,2.084.011.138-.088.242-.221.15,1.094-1.951,1.877-5.507,1.637-8.012l-.153-1.597c-.477-2.915-1.625-5.583-3.067-8.101.066.092.223.112.326.298,2.582,4.653,4.074,9.467,2.354,15.05.229-.047.474-.153.589-.055Z"/>
    <path class="st0" d="M38.911,40.628c-.144.146-.334.175-.431.23-.121.068-.526-.026-.502-.261.084-.833.724-1.684,1.48-2.05.709.185.104,1.419-.546,2.082Z"/>
    <path class="st27" d="M34.344,61.668c-.077,1.095-1.277,2.265-1.724,1.888-.42-.355.411-2.12,1.724-1.888Z"/>
    <path class="st28" d="M65.114,73.577c-.219-.195-.066-.542-.026-.812l.094-.629.125-1.292c.199-3.247-.592-6.378-1.828-9.333-.113-.271-.287-.479-.16-.756.976,2.157,1.754,4.442,2.033,6.895l.072.638-.007,3.27-.304,2.019Z"/>
    <path class="st30" d="M36.682,65.744c.482.341-.363,1.325-1.276,1.687-.184-.063-.223-.447-.165-.618.297-.868,1.072-1.33,1.441-1.069Z"/>
    <path class="st106" d="M34.927,77.405c-.04.089-.265-.034-.279-.113-.013-.072-.114-.22-.035-.356.399-.686.768-1.43,1.39-1.991.119-.108.465.288.422.428-.195.635-1.053,1.042-1.498,2.032Z"/>
    <path class="st86" d="M34.388,73.003c-.354.978-.993,2.307-1.477,1.917.09-.863.92-2.299,1.281-2.266.11.01.255.186.196.348Z"/>
    <path class="st105" d="M38.642,77.051c-.432.914-1.33,1.836-1.44,1.423.02.074-.299.203-.315.128.061-.722.475-1.33,1.041-1.638.135,0,.295.164.339.247l.111-.271c.04-.097.321-.012.263.111Z"/>
    <path class="st100" d="M41.052,32.068c-.172.353-.698.909-1.101.632-.192-.477.315-1.276.665-1.547.327-.016.374.112.441.211.141.206.123.442-.005.704Z"/>
    <path class="st92" d="M70.553,58.185c-.125-.054-.153-.489-.059-.592.171-.188.474.034.497.251.016.15-.122.478-.438.341Z"/>
    <path class="st79" d="M58.771,51.63c-.227-.203-.254-.612-.057-.981.298.267.343.559.057.981Z"/>
    <path class="st82" d="M75.644,79.673c.097.058.195.206.324.203l1.53,1.525c.335.519.668,1.036.896,1.613.669,1.592.868,3.383.434,5.071-.009.035-.021.073-.017.111-.242,1.199-.795,2.304-1.471,3.317l-1.433,1.641c-.218.04-.373.212-.498.392-.214-.025-.506.291-.686.401-.921.5-1.867.944-2.874,1.215l-.108.05c-.039-.149.088-.198.173-.225,2.159-.705,3.828-2.254,4.756-4.282.965-2.11,1.06-4.608.11-6.758-.179-.404-.411-.781-.688-1.125-.397-.495-.819-.96-1.456-1.276.991,1.952.59,3.973-.1,5.851l-.536,1.117c-1.156,1.96-2.899,3.5-4.974,4.383-1.862.792-3.977,1.201-6.059.945l-1.587-.195c1.631,1.501,4.242,2.187,6.407,2.054.06.009.127.091.119.162-.729.256-1.518.069-2.322.006-1.402-.11-2.665-.547-3.913-1.009-1.029-.433-2.037-.927-3.02-1.563-1.258,2.175-2.979,3.938-5.062,5.167-1.116.659-2.335,1.132-3.536,1.658-.038-.142-.139-.133-.261-.135.769-.387,1.475-.867,2.136-1.405.18-.147.446-.265.538-.523.129.002.191-.122.27-.175.453-.305.863-.739,1.179-1.185l.521-.526c1.535-1.93,2.777-4.015,3.796-6.255,1.684-3.703,3.772-6.838,7.164-9.19.127-.055.256-.164.366-.265l1.831-1.017c2.686-1.188,5.503-1.281,8.052.228Z"/>
    <path class="st82" d="M23.194,79.566c3.651,1.816,6.628,4.987,8.26,8.754l.871,2.011.947,1.878c.501.993,1.061,1.973,1.736,2.866.037.14.146.276.28.35.024.188.257.482.432.549.047.219.214.379.387.478-.011.071.046.115.07.147.456.599,1.042,1.153,1.628,1.647.747.629,1.547,1.226,2.486,1.674.051.024.218-.024.284.107.024.047.062.07-.06.201l-1.583-.587-1.391-.6c-.858-.457-1.66-.998-2.435-1.592l-1.848-1.886c-.592-.615-1.002-1.376-1.41-2.177-.726.549-1.448.881-2.148,1.25-2.042.941-4.274,1.475-6.587,1.327l-.003-.226c2.014.136,4.019-.469,5.623-1.556.16.006.449-.274.414-.483-2.926.521-5.905-.05-8.307-1.505-2.344-1.421-4.022-3.678-4.61-6.306-.314-1.407-.311-2.881.257-4.334-.616.306-1.435,1.059-1.378,1.303-.166.145-.371.309-.505.561-1.291,2.43-1.189,5.391.093,7.749.983,1.807,2.515,3.18,4.519,3.835.113.037.219.064.153.23-2.836-.722-5.291-2.675-6.524-5.319-.325-.7-.538-1.418-.652-2.177-.155-1.028-.172-2.104.006-3.134.146-.845.472-1.651.881-2.422,1.039-1.842,2.906-3.197,5.036-3.502.041-.006.106-.054.159-.087,1.727-.158,3.415.23,4.916.977Z"/>
    <path class="st116" d="M9.247,81.344c-.09.512-.18.973-.377,1.419-.877-.199-1.571-1.547-1.83-2.4-1.642-5.396.548-9.938,3.868-14.098,1.405-1.76,2.852-3.273,4.773-4.426,1.708-1.026,4.647-2.467,5.692-.796.493.789.599,1.715.636,2.644.117,2.962-.34,5.915-1.245,8.686-.174.532-.447.737-1.022.78l-1.27.096c-1.687.127-3.242.725-4.685,1.554-2.454,1.409-4.053,3.758-4.54,6.542ZM14.04,71.499c-.41.119-.778-.144-.98-.104-.424.083-.614.695-.553,1.052.689.211,1.449-.19,1.533-.948ZM7.62,76.424l.614-1.481c.056-.135.022-.354-.118-.409-.48.282-.712.817-.888,1.369-.252.791-.616,1.569-.403,2.432.536-.584.544-1.305.796-1.911Z"/>
    <path class="st50" d="M16.232,85.886c.587,2.628,2.265,4.885,4.61,6.306-.092.179.045.207.19.293,1.384.819,2.848,1.252,4.447,1.462l3.096.048c.076.001.143.06.159.187-1.762.943-3.726,1.545-5.841,1.442-.011.138.127.167.219.114l.003.226-.241-.091c-1.202-.005-2.377-.305-3.501-.641.065-.165-.04-.193-.153-.23-2.004-.656-3.536-2.028-4.519-3.835.124-.168.01-.253-.053-.402-.591-1.39-.963-2.854-.763-4.33.158-1.168.36-2.306,1.089-3.247.095-.122.166-.18.139-.331l1.079-.945c-.249.932-.464,2.048-.292,2.818.097.434-.056,1.207.334,1.158ZM16.042,88.642c-.492-1.382-.763-2.541-.814-3.966-.456,1.461-.054,2.814.814,3.966Z"/>
    <path class="st50" d="M76.093,82.819c.276.344.509.721.688,1.125-.105.174-.049.355.033.542.285.649.353,1.275.438,1.942.167,1.323-.106,2.666-.603,3.893-.056.137-.056.254.022.381-.928,2.028-2.597,3.577-4.756,4.282-.085.028-.212.076-.173.225-1.107.298-2.23.626-3.464.67.016.113-.04.218-.134.216-.002-.036.093-.148.06-.182-.053-.056-.214-.081-.297-.052.008-.071-.059-.154-.119-.162l-.972-.14-1.083-.089c-1.357-.301-2.664-.716-3.774-1.525.256-.243.539.042.696.04l3.005-.036c1.065-.013,2.056-.359,3.059-.757l.229-.056c.079-.02.137-.12.078-.242,2.075-.883,3.818-2.422,4.974-4.383.03.051.149.064.17.022.669-1.277,1.138-2.618,1.208-4.116.021-.441-.069-1.168-.078-1.653-.002-.127-.283-.464.069-.489.193.11.434.564.723.542ZM75.464,88.078c.796-.8,1.033-1.836,1.036-2.899,0-.221.011-.387-.256-.468.091.64-.02,1.17-.219,1.746l-.561,1.621Z"/>
    <path class="st7" d="M34.498,26.003l-.434,3.51-.519,3.569-.777,4.644-.262,1.505-.567,2.901-.566,2.557-.138.575-.698,2.669-.574,1.741c-.011.034-.039.137.1.137-.603,1.553-1.302,3.045-2.119,4.661.173-1.504.74-2.772,1.092-4.101l.555-2.094c.04-.031.044-.132-.059-.12l.65-2.315c.022-.039.035-.127-.073-.122l.753-3.131.943-4.871,1.26-6.497c.054-.022.052-.139-.051-.121l.751-3.133.829-3.532c.025-.061.084-.064.102-.057.037.55-.133,1.083-.2,1.623Z"/>
    <path class="st45" d="M26.768,58.656l-.648,1.815c-.574,1.608-.996,3.221-1.23,4.87-.069.009-.05.108-.006.104l-.212,1.324-.109,1.172-.016,3.267c-.001.215.149.545.069.738-.011.027.001.1.009.141l.419,2.093.348,1.013c-.102.001-.083.083-.065.12l.868,2.277c.38.998.989,1.89,1.517,2.869l.866,1.606c-.758-.586-1.24-1.359-1.817-2.012.021-.195-.199-.248-.259-.344-.062-.098-.054-.308-.212-.389-.817-1.346-1.546-2.738-2.037-4.228-.699-2.12-1.108-4.452-.849-6.744l.135-1.2c.033-.292-.05-.639.166-.876.005-.041-.009-.1-.033-.116l.438-2.013c.037-.172.079-.3.168-.425.024-.033.018-.137-.083-.132.453-1.199.858-2.408,1.425-3.544.523-1.048,1.006-2.123,1.765-3.097-.18.645-.424,1.165-.618,1.71Z"/>
    <path class="st71" d="M48.484,94.5l-1.687.823-.301.074c-.096.024-.149-.029-.253-.152l1.276-.511c.217-.102.454-.186.582-.37.396-.124.822-.425,1.135-.665.151-.019.291-.129.368-.262.147.027.291-.138.423-.244l1.673-1.339,1.925-1.925c.032-.003.079-.018.118.008-1.188,2.021-3.228,3.466-5.261,4.564Z"/>
    <path class="st85" d="M49.426,91.216c.055.059.031.099-.05.157-.969.806-2.012,1.444-3.095,1.979-1.422.703-2.919,1.209-4.52,1.532l-1.12.047c.064-.213.316-.103.448-.125,1.161-.198,2.255-.532,3.321-.986l.786-.334,1.898-.936,2.33-1.334Z"/>
    <path class="st95" d="M25.8,72.292l.675,2.1.282.736,1.28,2.56,1.26,2.14c.049.084.328.162.134.389-1.095-1.39-2.034-2.885-2.765-4.473-.5-1.088-.829-2.258-1-3.444-.033-.226-.187-.382-.091-.716.242.218.154.485.226.707Z"/>
    <path class="st21" d="M36.268,84.544c1.085.623,2.239,1.093,3.448,1.429l.698.194c-.26.164-.513.005-.783-.042-.814-.145-1.6-.329-2.319-.663-1.615-.752-3.17-1.795-4.483-3.244,1.143.791,2.24,1.638,3.439,2.326Z"/>
    <path class="st95" d="M41.335,92.636c-.52.072-1.023.086-1.64.112-.378.015-.79.23-1.195.015-.179-.095-.466-.032-.645-.035-.069.047-.139-.093-.102-.099l1.258-.018c.216-.003.385-.055.638-.075l1.069-.083,1.885-.339,3.055-.843c.098-.027.196-.066.195-.169.182-.048.421-.142.63-.028-1.684.823-3.384,1.319-5.148,1.563Z"/>
    <path class="st21" d="M3.621,81.243c.223,2.351.825,4.647,1.929,6.758.077.147.125.286.25.355l.162.41c-.424-.311-.751-.959-1.016-1.392-.729-1.412-1.147-2.94-1.394-4.54l-.045-1.249c-.008-.229-.043-.47.041-.699.009.002.048.019.073.061v.297Z"/>
    <path class="st112" d="M31.509,98.914l-1.892,1.245-.292.111c-.065.025-.211-.156-.156-.209.86-.837,1.767-1.566,2.744-2.242.109-.075.441.05.467.159-.138.376-.518.704-.872.937Z"/>
    <path class="st25" d="M32.768,37.726l.777-4.644.519-3.569.434-3.51c.214.359.076.831.015,1.271l-.671,4.801-.142,1.008-.743,4.526c-.021.131-.104.15-.19.117Z"/>
    <path class="st93" d="M24.813,53.076c-.1.128-.212.26-.22.421-.171.103-.26.353-.36.516-.09.124-.201.246-.243.401-.186.191-.459.54-.538.795-.131.079-.238.212-.284.357-.369.34-.573.905-1.13,1.169l2.633-3.981c.083-.116.169-.248.258-.367l.571-.761-.687,1.452Z"/>
    <path class="st85" d="M42.459,89.756c-1.828.677-3.777.859-5.843.807.148-.111-.011-.217-.048-.277,2.237.089,4.431-.293,6.518-.92.095-.024.133.103.029.148l-.655.243Z"/>
    <path class="st93" d="M35.273,17.596c-.114.098-.206.231-.276.356-.021.037-.069.085-.053.149-.137.05-.246.186-.288.324-.739.915-1.445,1.874-2.351,2.723-.089-.274.224-.408.22-.561.128-.083.231-.214.291-.345l2.048-2.561.515-.516c.101.225-.11.333-.106.431Z"/>
    <path class="st73" d="M23.829,51.413c-.761,1.374-1.394,2.783-2.604,3.844,1.002-1.684,2.085-3.153,2.967-4.932.133.412-.177.751-.363,1.087Z"/>
    <path class="st97" d="M75.644,79.673c-2.548-1.509-5.366-1.416-8.052-.228-.06-.139.021-.207.157-.254,3.026-1.033,4.691-1.239,7.617.149l.198.094c.086.041.141.126.08.239Z"/>
    <path class="st67" d="M23.705,66.273c-.216.237-.133.583-.166.876l-.135,1.2c-.258,2.292.151,4.624.849,6.744l-.159.016c-.382-1.219-.81-2.461-.809-3.779l.003-3.579c0-.536.231-1.48.231-1.48.042-.019.119-.011.186.002Z"/>
    <path class="st122" d="M41.695,102.665c-1.517,1.372-3.14,2.766-5.006,3.515,1.545-1.119,3.036-2.023,4.448-3.208.143-.12.191-.426.558-.307Z"/>
    <path class="st34" d="M37.397,99.675c-1.4,1.27-2.844,2.413-4.631,3.248l4.631-3.248Z"/>
    <path class="st21" d="M40.291,88.43c.097.003.289-.089.357.126-1.718.251-3.427.1-4.979-.414l1.749.129,1.17.103,1.703.055Z"/>
    <path class="st101" d="M12.925,93.674l.095.269c.163.463-1.767-.012-2.018-1.656.705.456,1.158,1.052,1.923,1.387Z"/>
    <path class="st22" d="M38.313,101.844c-1.224,1.209-2.684,2.046-4.166,2.967.128-.35.465-.458.711-.697l3.455-2.27Z"/>
    <path class="st40" d="M5.799,88.356c-.125-.069-.173-.208-.25-.355-1.104-2.111-1.706-4.406-1.929-6.758.101-.047.207-.032.216.116.152,2.355.786,4.555,1.873,6.606.082.154.155.239.089.39Z"/>
    <path class="st77" d="M35.608,11.899c-.1.112-.207.239-.264.387l-1.133,1.653-.168-.009,2.658-4.286c.045-.073.098-.241.165-.226.088.02.094.132.056.164-.036.03-.075.083-.116.158l-1.198,2.159Z"/>
    <path class="st31" d="M35.51,14.717c-.125.07-.233.206-.277.341l-1.794,2.186c-.052.063-.095.058-.141.015l2.966-4.032.091.079-.845,1.41Z"/>
    <path class="st47" d="M45.852,91.102c0,.102-.097.142-.195.169l-3.055.843-1.885.339-1.069.083c-.252.02-.422.071-.638.075-.133-.391.538-.128,1.738-.34l2.095-.37,3.009-.8Z"/>
    <path class="st68" d="M24.89,65.341c.234-1.649.656-3.262,1.23-4.87l.648-1.815c.115.185.035.339-.035.543-.675,1.957-1.32,3.84-1.66,5.902-.01.06.043.207-.042.236-.047.016-.111.01-.141.005Z"/>
    <path class="st31" d="M50.945,95.1l1.683-1.507,1.586-1.421c-.794,1.255-1.984,2.246-3.269,2.928Z"/>
    <path class="st87" d="M33.068,31.222l-1.26,6.497c-.101-.005-.145-.102-.119-.234l1.143-5.923c.021-.108.009-.276.083-.334.037-.029.128-.017.153-.007Z"/>
    <path class="st77" d="M43.074,104.872c-.222.032-.374.212-.501.389-.34.042-.629.397-.935.536l-.904.345,2.252-1.547,1.606-1.327c-.28.769-1.45,1.347-1.518,1.603Z"/>
    <path class="st54" d="M29.701,94.635c.054.151-.034.181-.162.232-1.296.566-2.614.98-4.028,1.173l-2.604.052c-.045-.095-.034-.173-.034-.22l.241.091c2.313.148,4.545-.386,6.587-1.327Z"/>
    <path class="st119" d="M24.616,71.946c.08-.192-.07-.523-.069-.738l.016-3.267.109-1.172.212-1.324c.218.292.023.69-.013,1.039l-.08.765-.105,1.384c-.048.639-.093,1.361-.01,1.992.061.461.141.948-.06,1.322Z"/>
    <path class="st121" d="M67.908,95.862c.082-.029.244-.004.297.052.032.034-.062.146-.06.182l-2.635-.058c-1.282-.18-2.473-.503-3.677-.96-.137.006-.237-.085-.16-.22,1.248.461,2.512.898,3.913,1.009.805.063,1.593.25,2.322-.006Z"/>
    <path class="st3" d="M43.086,89.366c-2.087.627-4.281,1.01-6.518.92.013-.118.123-.151.248-.099,2.158-.032,4.219-.379,6.225-.945.034.042.039.099.046.124Z"/>
    <path class="st2" d="M46.282,93.352c.071.038.074.126.017.154-1.811.882-3.728,1.503-5.751,1.679-.036-.138.072-.195.095-.253l1.12-.047c1.601-.323,3.098-.83,4.52-1.532Z"/>
    <path class="st69" d="M42.459,89.756c.062.169-.043.189-.161.23l-1.658.433c-.709.185-1.355.221-2.107.243-.388.011-.736.219-1.175-.01l-.742-.09c2.066.052,4.015-.129,5.843-.807Z"/>
    <path class="st59" d="M4.945,87.373c-.064.034-.176.007-.211-.066-.646-1.354-1.087-2.758-1.3-4.243l-.037-1.457c.028-.029.084-.033.108-.023l.045,1.249c.247,1.6.666,3.129,1.394,4.54Z"/>
    <path class="st73" d="M8.735,89.374c-1.106-.486-1.721-1.581-2.106-2.709.703.93,1.29,1.837,2.106,2.709Z"/>
    <path class="st9" d="M27.946,54.472c.816-1.616,1.515-3.108,2.119-4.661-.491,1.567-1.068,3.225-2.119,4.661Z"/>
    <path class="st107" d="M23.194,79.566c-1.501-.747-3.189-1.135-4.916-.977-.053.033-.118.081-.159.087-.003-.048-.012-.129.009-.17.054-.104.256-.03.345-.038,1.664-.148,3.195.172,4.653.916.106-.016.151.113.067.182Z"/>
    <path class="st8" d="M33.441,23.79l-.63.825c-.023-.028-.053-.06-.105-.087l2.235-3.197c-.279.968-.912,1.689-1.5,2.459Z"/>
    <path class="st15" d="M78.83,88.084c.435-1.688.235-3.479-.434-5.071.134-.088.23.027.211.153.758,1.397.616,4.83.389,4.917-.042.016-.129.007-.167.001Z"/>
    <path class="st109" d="M29.964,49.675l.574-1.741.698-2.669c.158.032.163.191.123.291l-.111.282-.475,1.867-.586,1.857c-.041.13-.125.145-.223.112Z"/>
    <path class="st68" d="M40.291,88.43l-1.703-.055-1.17-.103-1.749-.129c.175-.047.06-.2.031-.175-.034.028-.206.019-.145-.142.37.147.74.156,1.082.195l1.138.129,1.301.094c.672.049,1.249.063,1.216.187Z"/>
    <path class="st104" d="M31.109,100.903l.806-.763,1.733-1.502c-.702.887-1.563,1.738-2.539,2.266Z"/>
    <path class="st89" d="M41.335,92.636c.16.201-.328.251-1.1.269l-2.362.055c-.043-.121-.023-.181-.018-.233.179.003.466-.06.645.035.405.215.817,0,1.195-.015.617-.025,1.121-.04,1.64-.112Z"/>
    <path class="st128" d="M53.591,98.463c.07.042.08.146.025.175-1.174.621-2.355,1.19-3.561,1.482,1.201-.525,2.42-.999,3.536-1.658Z"/>
    <path class="st4" d="M24.195,63.587c.03-.652.35-1.276.58-1.932.179-.509.33-.987.64-1.459-.03-.123.062-.242.206-.153-.567,1.136-.972,2.345-1.425,3.544Z"/>
    <path class="st47" d="M77.342,91.511c.675-1.013,1.228-2.118,1.471-3.317.103.004.16.107.125.235-.31,1.134-.773,2.153-1.422,3.118-.035.052-.144.047-.174-.035Z"/>
    <path class="st6" d="M39.715,85.973c-1.209-.336-2.362-.806-3.448-1.429.15-.1.268-.038.421.048,1.305.737,2.992,1.195,3.013,1.223.028.036.016.128.014.158Z"/>
    <path class="st56" d="M26.666,75.744c-.165.07-.193-.027-.24-.149-.415-1.07-.784-2.126-.892-3.26.045-.037.117-.042.131-.035.171,1.186.5,2.356,1,3.444Z"/>
    <path class="st20" d="M29.038,97.502c-.801.74-2.062,1.12-1.999.715.038-.24,1.161-.388,1.999-.715Z"/>
    <path class="st90" d="M44.411,93.82c-1.066.454-2.16.787-3.321.986-.029-.086.009-.231.075-.227l.282.018,1.864-.502c.367-.099.726-.385,1.101-.275Z"/>
    <path class="st127" d="M30.865,42.59l-.753,3.131c.019-.864.647-3.14.601-3.122.045-.017.112-.011.152-.008Z"/>
    <path class="st96" d="M40.516,100.227c-1.008-.139-2-.581-2.987-1.035-.053-.024-.052-.119.013-.152l1.391.6,1.583.587Z"/>
    <path class="st42" d="M25.392,75.193l-.348-1.013-.419-2.093c.084-.06.231-.021.229.048l-.009.281.134.704.412,2.073Z"/>
    <path class="st48" d="M33.767,27.969l-.751,3.133c.024-.832.507-3.033.592-3.121.032-.033.132-.019.158-.012Z"/>
    <path class="st121" d="M74.725,93.945c.054.034.057.131.011.158-.88.51-1.779.891-2.767,1.188-.095.029-.146-.1-.118-.131,1.007-.271,1.953-.715,2.874-1.215Z"/>
    <path class="st47" d="M53.626,89.928l-1.925,1.925,1.729-1.89c.057-.059.153-.031.196-.035Z"/>
    <path class="st43" d="M28.037,77.687l-1.28-2.56c.138-.088.229.021.216.151l1.023,2.019c.075.148.152.248.041.39Z"/>
    <path class="st13" d="M35.107,97.448c-.032.023-.101.049-.183.061l-1.745-1.74.08-.207,1.848,1.886Z"/>
    <path class="st133" d="M12.202,84.6c-.156-.032-.154-.19-.118-.289l.103-.289c.089-.58.584-1.883.896-1.843-.409.771-.735,1.577-.881,2.422Z"/>
    <path class="st114" d="M24.278,63.719c-.09.125-.132.253-.168.425l-.438,2.013c-.221-.182-.052-.538.01-.796l.319-1.338c.018-.076.031-.253.093-.301.037-.029.13-.018.185-.002Z"/>
    <path class="st111" d="M31.373,44.689l.566-2.557c.154.033.153.191.116.289l-.104.283-.35,1.644c-.016.077.015.288-.071.329-.042.02-.123.014-.158.011Z"/>
    <path class="st84" d="M37.806,98.245c-.586-.493-1.172-1.048-1.628-1.647l1.594,1.432c.074.071.092.119.034.215Z"/>
    <path class="st72" d="M29.594,48.277l-.555,2.094c-.13-.005-.162-.101-.132-.179l.105-.271.328-1.337c.018-.073.02-.235.094-.298.035-.03.128-.016.16-.009Z"/>
    <path class="st44" d="M30.185,45.843l-.65,2.315c-.046-.729.351-1.406.426-2.201.013-.136.145-.152.224-.114Z"/>
    <path class="st115" d="M26.196,77.591l-.868-2.277c.094-.03.172-.01.218.115l.595,1.635c.072.197.168.335.055.528Z"/>
    <path class="st59" d="M39.63,86.124c-.189.221-.511.086-.723.02l-1.449-.454c-.129-.037-.225-.075-.147-.23.719.335,1.505.519,2.319.663Z"/>
    <path class="st53" d="M12.848,89.911c-.044.047-.174.032-.175-.03-.003-.248-.797-1.515-.477-2.147.114.759.327,1.477.652,2.177Z"/>
    <path class="st32" d="M77.499,81.4l-1.53-1.525c.052-.019.184-.08.257-.006l1.335,1.345c0,.068-.038.159-.062.186Z"/>
    <path class="st114" d="M26.475,74.391l-.675-2.1c.073-.024.176-.016.217.123l.507,1.711c.013.045.114.121.074.202-.02.039-.049.076-.123.064Z"/>
    <path class="st59" d="M33.272,92.209l-.947-1.878c.138-.092.232.02.214.148l.679,1.326c.075.146.15.248.053.404Z"/>
    <path class="st26" d="M48.102,94.362c-.129.184-.366.269-.582.37l-1.276.511,1.465-.791c.161-.087.293-.059.394-.09Z"/>
    <path class="st6" d="M47.096,92.55l-1.898.936c-.079-.143.035-.225.156-.209l1.325-.68c.153-.078.26-.153.417-.047Z"/>
    <path class="st35" d="M48.484,94.5c.09.136-.005.237-.154.232-.518.243-1.032.468-1.533.591l1.687-.823Z"/>
    <path class="st117" d="M52.736,97.884l.982-1.134c.067-.072.111-.098.197-.052-.316.447-.725.88-1.179,1.185Z"/>
    <path class="st70" d="M52.467,98.059c-.092.257-.357.376-.538.523.046-.253.288-.527.538-.523Z"/>
    <path class="st36" d="M43.074,104.872c-.072.271-.256.359-.501.389.127-.177.279-.358.501-.389Z"/>
    <path class="st98" d="M75.909,93.152c-.132.151-.157.432-.498.392.126-.181.28-.353.498-.392Z"/>
    <path class="st85" d="M49.426,91.216c.078-.14.191-.263.444-.409.069.373-.301.327-.444.409Z"/>
    <path class="st124" d="M36.107,96.451c-.173-.099-.34-.259-.387-.478.2.077.429.214.387.478Z"/>
    <path class="st125" d="M26.502,79.711c-.094,0-.166-.061-.21-.106-.057-.058-.073-.211-.002-.283.158.082.15.291.212.389Z"/>
    <path class="st113" d="M35.234,15.058c.044-.135.152-.272.277-.341.026.083.036.19-.034.266-.06.065-.112.146-.243.075Z"/>
    <path class="st31" d="M50.945,95.1c.024.175-.2.356-.297.272-.032-.174.221-.204.297-.272Z"/>
    <path class="st33" d="M35.289,95.424c-.135-.074-.243-.209-.28-.35.129-.065.18.029.234.081.1.097.037.188.047.269Z"/>
    <path class="st12" d="M34.997,17.952c.07-.125.162-.258.276-.356.033.115.045.192-.029.287-.061.078-.125.144-.247.07Z"/>
    <path class="st75" d="M49.605,93.436c-.077.133-.217.242-.368.262-.02-.107.05-.184.1-.226.1-.084.176-.053.268-.036Z"/>
    <path class="st75" d="M34.656,18.425c.042-.138.15-.274.288-.324.024.097.015.168-.049.246-.062.077-.121.141-.239.078Z"/>
    <path class="st113" d="M32.525,20.587c-.017-.139-.021-.191.043-.275.067-.09.134-.141.248-.069-.06.131-.163.262-.291.345Z"/>
    <path class="st21" d="M5.961,88.765c.067.061.303.161.173.344-.126.019-.191-.236-.173-.344Z"/>
    <path class="st38" d="M35.345,12.286c.057-.148.164-.275.264-.387.048.093.066.203-.013.296-.056.066-.127.129-.251.091Z"/>
    <path class="st78" d="M65.762,80.462c-.11.101-.239.21-.366.265-.093-.142.021-.206.072-.252.084-.075.206-.062.294-.013Z"/>
    <path class="st125" d="M26.762,80.054c-.105.034-.167-.018-.229-.09-.063-.073-.054-.161-.03-.254.06.095.28.148.259.344Z"/>
    <path class="st104" d="M31.109,100.903c-.053.157-.155.396-.32.248-.016-.122.244-.177.32-.248Z"/>
    <path class="st22" d="M38.313,101.844c.026-.101.224-.257.321-.146.037.094-.211.254-.321.146Z"/>
    <path class="st93" d="M25.5,51.624c.059-.079.136-.329.237-.293.142.136-.098.289-.237.293Z"/>
    <path class="st19" d="M24.67,52.753c-.082-.111-.065-.209.005-.297.063-.078.126-.146.253-.071-.089.119-.176.251-.258.367Z"/>
    <path class="st63" d="M24.593,53.497c.008-.161.12-.293.22-.421.038.072.072.219-.005.307-.045.052-.115.112-.215.114Z"/>
    <path class="st132" d="M23.99,54.414c.042-.155.153-.277.243-.401.021.069.09.189-.006.305-.051.061-.148.101-.237.097Z"/>
    <path class="st5" d="M23.167,55.565c.046-.145.153-.278.284-.357-.018.065.061.18-.043.275-.069.063-.13.118-.241.082Z"/>
    <path class="st88" d="M63.454,79.829c.014-.152.124-.296.24-.377.057.101.051.197-.019.277-.052.059-.116.126-.221.1Z"/>
    <path class="st71" d="M53.745,89.935c-.044-.081-.011-.178.055-.225.031-.022.123-.023.171.043.004.005-.072.121-.225.183Z"/>
    <path class="st64" d="M56.075,102.676c.318.814-.645,2.185-1.567,2.156.235-.938.861-1.552,1.567-2.156Z"/>
    <path class="st23" d="M44.979,106.394c.346.158-.156,1.33-1.23,1.685-.191-1.073.869-1.85,1.23-1.685Z"/>
    <path class="st76" d="M69.028,92.895c.059.123.002.223-.078.242l-.229.056c-1.003.397-1.994.744-3.059.757l-3.005.036c-.157.002-.44-.283-.696-.04,1.11.809,2.417,1.224,3.774,1.525l1.083.089.972.14c-2.165.132-4.776-.553-6.407-2.054l1.587.195c2.082.255,4.197-.153,6.059-.945Z"/>
    <path class="st1" d="M76.093,82.819c-.289.022-.53-.432-.723-.542-.351.025-.071.362-.069.489.009.485.098,1.212.078,1.653-.07,1.498-.539,2.839-1.208,4.116-.022.041-.141.029-.17-.022l.536-1.117c.69-1.878,1.092-3.899.1-5.851.637.315,1.059.781,1.456,1.276Z"/>
    <path class="st91" d="M76.671,90.702c-.077-.127-.077-.244-.022-.381.496-1.227.769-2.57.603-3.893-.084-.667-.153-1.293-.438-1.942-.082-.187-.139-.368-.033-.542.95,2.15.855,4.649-.11,6.758Z"/>
    <path class="st118" d="M28.734,94.18c-.016-.127-.083-.186-.159-.187l-3.096-.048c-1.6-.209-3.063-.643-4.447-1.462-.145-.086-.282-.113-.19-.293,2.401,1.455,5.38,2.026,8.307,1.505.034.209-.254.49-.414.483Z"/>
    <path class="st51" d="M14.7,91.165c-1.282-2.358-1.384-5.32-.093-7.749.134-.252.339-.416.505-.561.027.151-.044.209-.139.331-.729.941-.931,2.079-1.089,3.247-.2,1.476.172,2.94.763,4.33.064.15.177.234.053.402Z"/>
    <path class="st41" d="M16.232,85.886c-.39.049-.237-.724-.334-1.158-.172-.771.043-1.886.292-2.818l-1.079.945c-.057-.244.762-.997,1.378-1.303-.568,1.454-.572,2.928-.257,4.334Z"/>
    <path class="st130" d="M28.734,94.18c-1.604,1.087-3.608,1.693-5.623,1.556-.092.053-.23.024-.219-.114,2.115.103,4.079-.499,5.841-1.442Z"/>
    <path class="st103" d="M7.62,76.424c-.251.606-.259,1.327-.796,1.911-.213-.864.151-1.641.403-2.432.176-.552.408-1.087.888-1.369.139.055.173.275.118.409l-.614,1.481Z"/>
    <path class="st86" d="M14.04,71.499c-.084.758-.844,1.159-1.533.948-.062-.358.128-.969.553-1.052.203-.04.57.223.98.104Z"/>
    <path class="st85" d="M16.042,88.642c-.869-1.152-1.27-2.506-.814-3.966.052,1.426.322,2.585.814,3.966Z"/>
    <path class="st131" d="M75.464,88.078l.561-1.621c.199-.576.31-1.106.219-1.746.267.082.257.247.256.468-.003,1.062-.241,2.099-1.036,2.899Z"/>
  </g>
</svg>