<?xml version="1.0" encoding="UTF-8"?>
<svg id="Layer_1" xmlns="http://www.w3.org/2000/svg" version="1.1" viewBox="26 50 100 22">
  <!-- Generator: Adobe Illustrator 30.4.0, SVG Export Plug-In . SVG Version: 2.1.4 Build 226)  -->
  <defs>
    <style>
      .st0 {
        fill: #231f20;
      }
    </style>
  </defs>
  <g>
    <path class="st0" d="M38.582,67.851h-2.625c-.379,0-.649-.085-.812-.255s-.243-.44-.243-.812v-6.457c0-.379.083-.651.249-.817s.435-.249.806-.249h2.783c.41,0,.766.025,1.066.076s.57.148.809.293c.203.121.383.274.539.46s.275.391.357.615.123.462.123.712c0,.859-.43,1.488-1.289,1.887,1.129.359,1.693,1.059,1.693,2.098,0,.48-.123.913-.369,1.298s-.578.669-.996.853c-.262.109-.562.187-.902.231s-.736.067-1.189.067ZM36.643,60.567v2.221h1.594c.434,0,.769-.041,1.005-.123s.417-.238.542-.469c.098-.164.146-.348.146-.551,0-.434-.154-.722-.463-.864s-.779-.214-1.412-.214h-1.412ZM38.453,64.036h-1.811v2.508h1.869c1.176,0,1.764-.424,1.764-1.271,0-.434-.152-.748-.457-.943s-.76-.293-1.365-.293Z"/>
    <path class="st0" d="M53.473,60.157l3.346,5.062v-5.109c0-.332.071-.581.214-.747s.335-.249.577-.249c.25,0,.447.083.592.249s.217.415.217.747v6.756c0,.754-.312,1.131-.938,1.131-.156,0-.297-.022-.422-.067s-.242-.116-.352-.214-.211-.212-.305-.343-.188-.265-.281-.401l-3.264-5.004v5.033c0,.328-.076.576-.229.744s-.348.252-.586.252c-.246,0-.443-.085-.592-.255s-.223-.417-.223-.741v-6.627c0-.281.031-.502.094-.662.074-.176.197-.319.369-.431s.357-.167.557-.167c.156,0,.29.025.401.076s.209.119.293.205.17.197.258.334.179.279.272.428Z"/>
    <path class="st0" d="M62.59,60.157l3.346,5.062v-5.109c0-.332.071-.581.214-.747s.335-.249.577-.249c.25,0,.447.083.592.249s.217.415.217.747v6.756c0,.754-.312,1.131-.938,1.131-.156,0-.297-.022-.422-.067s-.242-.116-.352-.214-.211-.212-.305-.343-.188-.265-.281-.401l-3.264-5.004v5.033c0,.328-.076.576-.229.744s-.348.252-.586.252c-.246,0-.443-.085-.592-.255s-.223-.417-.223-.741v-6.627c0-.281.031-.502.094-.662.074-.176.197-.319.369-.431s.357-.167.557-.167c.156,0,.29.025.401.076s.209.119.293.205.17.197.258.334.179.279.272.428Z"/>
    <path class="st0" d="M71.355,66.937v-2.725l-2.098-3.252c-.184-.293-.313-.521-.39-.686s-.114-.307-.114-.428c0-.199.077-.371.231-.516s.345-.217.571-.217c.238,0,.419.067.542.202s.308.403.554.806l1.605,2.607,1.623-2.607c.098-.16.18-.295.246-.404s.14-.212.22-.308.169-.169.267-.22.217-.076.357-.076c.219,0,.401.071.548.214s.22.308.22.495c0,.152-.037.305-.111.457s-.201.363-.381.633l-2.15,3.299v2.725c0,.355-.082.621-.246.797s-.373.264-.627.264c-.258,0-.467-.087-.627-.261s-.24-.44-.24-.8Z"/>
    <path class="st0" d="M87.784,64.358v1.646c0,.219-.021.394-.064.524s-.121.249-.236.354-.264.207-.443.305c-.52.281-1.02.486-1.5.615s-1.004.193-1.569.193c-.66,0-1.262-.102-1.805-.305s-1.006-.498-1.389-.885-.677-.855-.882-1.406-.308-1.166-.308-1.846c0-.668.1-1.279.299-1.834s.492-1.025.879-1.412.857-.683,1.412-.888,1.184-.308,1.887-.308c.577,0,1.089.077,1.534.231s.807.349,1.084.583.486.482.627.744.211.494.211.697c0,.219-.08.405-.242.56s-.357.231-.584.231c-.125,0-.244-.029-.359-.088s-.213-.141-.291-.246c-.215-.336-.396-.59-.545-.762s-.348-.316-.6-.434-.573-.176-.964-.176c-.402,0-.762.069-1.078.208s-.587.34-.812.604-.396.587-.516.97-.179.807-.179,1.271c0,1.008.231,1.783.694,2.326s1.108.814,1.937.814c.402,0,.78-.053,1.134-.158s.711-.256,1.074-.451v-1.395h-1.348c-.324,0-.568-.049-.734-.146s-.249-.264-.249-.498c0-.191.069-.35.208-.475s.327-.188.564-.188h1.975c.242,0,.447.021.615.064s.305.139.408.287.154.371.154.668Z"/>
    <path class="st0" d="M94.481,66.878l-.41-1.078h-3.492l-.41,1.102c-.16.43-.297.72-.41.87s-.299.226-.557.226c-.219,0-.412-.08-.58-.24s-.252-.342-.252-.545c0-.117.02-.238.059-.363s.104-.299.193-.521l2.197-5.578c.062-.16.138-.353.226-.577s.182-.411.281-.56.23-.269.393-.36.362-.138.601-.138c.242,0,.444.046.606.138s.293.21.393.354.184.3.252.466.155.388.261.665l2.244,5.543c.176.422.264.729.264.92,0,.199-.083.382-.249.548s-.366.249-.601.249c-.137,0-.254-.024-.352-.073s-.18-.115-.246-.199-.138-.213-.214-.387-.142-.327-.196-.46ZM91.036,64.493h2.566l-1.295-3.545-1.271,3.545Z"/>
    <path class="st0" d="M100.517,66.556l-1.377-5.473v5.93c0,.328-.073.574-.22.738s-.341.246-.583.246c-.234,0-.426-.081-.574-.243s-.223-.409-.223-.741v-6.797c0-.375.098-.628.293-.759s.459-.196.791-.196h.539c.324,0,.56.029.706.088s.255.164.325.316.15.4.24.744l1.248,4.705,1.248-4.705c.09-.344.17-.592.24-.744s.179-.258.325-.316.382-.088.706-.088h.539c.332,0,.596.065.791.196s.293.384.293.759v6.797c0,.328-.073.574-.22.738s-.343.246-.589.246c-.23,0-.42-.082-.568-.246s-.223-.41-.223-.738v-5.93l-1.377,5.473c-.09.355-.163.616-.22.782s-.161.317-.313.454-.363.205-.633.205c-.203,0-.375-.044-.516-.132s-.25-.2-.328-.337-.14-.288-.185-.454-.091-.339-.138-.519Z"/>
    <path class="st0" d="M113.272,60.603h-3.92v2.109h3.609c.266,0,.464.06.595.179s.196.276.196.472-.064.354-.193.478-.328.185-.598.185h-3.609v2.443h4.055c.273,0,.479.063.618.19s.208.296.208.507c0,.203-.069.368-.208.495s-.345.19-.618.19h-4.729c-.379,0-.651-.084-.817-.252s-.249-.439-.249-.814v-6.457c0-.25.037-.454.111-.612s.19-.273.349-.346.36-.108.606-.108h4.594c.277,0,.483.062.618.185s.202.284.202.483c0,.203-.067.366-.202.489s-.341.185-.618.185Z"/>
  </g>
  <path d="M50.297,54.58l-.265-.002c-.438.174-.839.435-1.158.845-1.53,1.963-1.763,4.057-1.413,6.37v2.636c0,.734-.141,1.282-.422,1.644-.188.242-.474.395-.84.475-.243-.039-.464-.095-.626-.2-.273-.178-.464-.428-.571-.75s-.161-.724-.161-1.204v-2.339c.411-2.423.229-4.608-1.362-6.649-.319-.409-.72-.671-1.158-.845l-.265.002c-.862.331-.97,1.366-.919,2.367.095,1.855.947,3.528,1.964,5.039v2.33c0,.648.07,1.206.211,1.673s.361.85.662,1.148.689.52,1.166.662c.038.011.084.016.124.026v.014c.057.003.161.021.268.041.295.056.609.096.956.112v-.03c.243-.004.462-.038.688-.149.39-.192.777-.344,1.09-.633.363-.34.61-.734.741-1.184s.196-1.01.196-1.682v-2.239c1.039-1.531,1.918-3.229,2.014-5.114.051-1-.057-2.036-.919-2.367ZM43.706,60.619l-.294.218h-.037c-.558-1.103-1.107-2.362-1.156-3.796-.021-.613.024-1.248.382-1.451h.11c.182.106.349.266.482.517.726,1.373.75,2.85.513,4.512ZM49.012,60.785h-.037l-.294-.218c-.238-1.662-.213-3.139.513-4.512.133-.251.3-.411.482-.518h.11c.359.204.403.839.382,1.452-.05,1.434-.598,2.693-1.156,3.796Z"/>
</svg>