<?xml version="1.0" encoding="UTF-8"?>
<svg id="Layer_1" xmlns="http://www.w3.org/2000/svg" width="1.095in" height=".184in" version="1.1" viewBox="0 0 78.807 13.214">
  <!-- Generator: Adobe Illustrator 30.6.0, SVG Export Plug-In . SVG Version: 2.1.4 Build 109)  -->
  <defs>
    <style>
      .st0 {
        fill: #231f20;
      }
    </style>
  </defs>
  <path class="st0" d="M1.395,2.64L3.75,0h7.095v.24l-3.285,5.25,2.055,2.55-2.355,2.64H0v-.225l3.45-5.265L1.395,2.64ZM4.26,8.19h2.505l-1.29-1.83-1.215,1.83ZM6.765,2.49h-2.43l1.215,1.83,1.215-1.83Z"/>
  <path class="st0" d="M19.739,8.13l-2.1,2.55h-5.4l-2.1-2.55L15.734,0h3.225l-2.415,3.495,3.195,4.635ZM13.41,8.01h3.09l-1.56-2.205-1.53,2.205Z"/>
  <path class="st0" d="M32.114,5.655l-4.14,5.025h-3.9V0h6.27l1.44,2.22-1.5,1.845,1.83,1.59ZM28.289,2.34h-1.605v1.83l1.605-1.83ZM29.684,4.485h-3v3.45l3-3.45Z"/>
  <path class="st0" d="M38.249,10.68v-3.15l-3.675,3.315-1.77-1.89V0h2.595v6.99l2.85-2.55V0h2.594v10.68h-2.594Z"/>
  <path class="st0" d="M49.978,13.214h-.165l-2.43-2.16v-3.525l-2.564-3.03v6.18h-2.596V1.365l-1.005-1.185v-.18h3.061l3.104,3.69V0h2.595v13.214Z"/>
  <path class="st0" d="M59.097,13.214h-.165l-2.43-2.16v-3.525l-2.564-3.03v6.18h-2.596V1.365l-1.005-1.185v-.18h3.061l3.104,3.69V0h2.595v13.214Z"/>
  <path class="st0" d="M62.878,10.68h-2.596V0h2.596v10.68Z"/>
  <path class="st0" d="M69.777,10.68h-4.079l-1.636-2.055V0h5.715v2.67h-3.119v1.095h3.119v2.28h-3.119v1.965h3.119v2.67Z"/>
  <path class="st0" d="M70.212,10.68v-.24l1.5-2.43h3.87l-4.17-5.67,1.305-2.34h5.354v2.67h-3.09l3.825,5.115-2.055,2.895h-6.54Z"/>
</svg>