<?xml version="1.0" encoding="UTF-8"?>
<svg id="Layer_1" xmlns="http://www.w3.org/2000/svg" width=".688in" height=".09in" version="1.1" viewBox="0 0 49.529 6.492">
  <!-- Generator: Adobe Illustrator 30.6.0, SVG Export Plug-In . SVG Version: 2.1.4 Build 109)  -->
  <defs>
    <style>
      .st0 {
        fill: #231f20;
      }
    </style>
  </defs>
  <path class="st0" d="M.047,6.211h.023c.031.004.047.02.047.047v.094c0,.031-.016.047-.047.047-.047-.016-.07-.062-.07-.141.004-.031.02-.047.047-.047ZM.258.234v.023l.047-.023h1.266l.07.047.07-.047.141.07c0-.047.016-.07.047-.07h.07c.059.035.113.098.164.188l.047-.023h.047c.023,0,.055.031.094.094v.234c0,.156.062.234.188.234v.188c-.094.059-.141.098-.141.117v.047c.047.059.07.105.07.141-.051.016-.082.047-.094.094.023,0,.055.031.094.094l-.023.094c.016.031.023.055.023.07-.031.051-.047.098-.047.141,0,.047.039.07.117.07v.914h-.023l-.047-.023c-.031.059-.047.121-.047.188v.047l.117.141v.656c0,.016-.047.086-.141.211v.07c0,.125.047.188.141.188v.211c-.062.07-.094.109-.094.117v.047c.062,0,.094.016.094.047v.211c0,.031-.023.047-.07.047,0,.039.023.109.07.211-.094.031-.141.07-.141.117.016.047.031.07.047.07l-.023.164v.141c-.031.062-.055.094-.07.094.027.121.09.23.188.328v.234c0,.031-.016.047-.047.047h-.586c-.016,0-.023-.008-.023-.023l-.047.023h-.562v-.023c0-.031.039-.047.117-.047,0-.035-.07-.066-.211-.094h-.047c-.02.109-.051.164-.094.164h-.375c-.09-.141-.191-.211-.305-.211-.078,0-.117-.016-.117-.047,0-.047.078-.094.234-.141.094-.086.141-.219.141-.398v-.023l-.094.094h-.023v-.75c.004-.031.02-.047.047-.047l.047.023c.062-.016.094-.062.094-.141v-.141l-.07-.094v-.117h-.047l-.047.023-.023-.047v-.914c0-.031.031-.047.094-.047l-.07-.258c.047-.012.078-.043.094-.094-.078-.02-.117-.043-.117-.07v-.234c.047-.078.094-.117.141-.117v-.141c-.094-.055-.141-.102-.141-.141,0-.016.008-.023.023-.023l-.023-.117v-.375c0-.016.008-.023.023-.023l-.023-.047v-.82h.141v-.047c-.031,0-.047-.008-.047-.023l-.047.023h-.047c0-.16-.133-.27-.398-.328v-.023C.07.391.109.258.188.258c.031-.016.055-.023.07-.023ZM2.438.352h.023c.031.004.047.02.047.047v.07c0,.031-.016.047-.047.047h-.023c-.031,0-.047-.016-.047-.047v-.07c.004-.031.02-.047.047-.047ZM2.391,3.844v.023c0,.023.023.047.07.07v-.094h-.07ZM2.93.234h.07c.035,0,.066.008.094.023.027-.016.059-.023.094-.023h.07c.035,0,.066.008.094.023.027-.016.059-.023.094-.023h.117c0,.078.016.117.047.117h.023l-.023-.117h.117c.094.035.141.059.141.07l.047-.023h.164c.062.031.094.078.094.141h.07v-.07h.07c.039,0,.109.016.211.047,0,.078-.031.117-.094.117v.047h.023c.027-.027.121-.051.281-.07.062.086.094.172.094.258h.047l.07-.047c.066.102.129.18.188.234l-.023.117c.07.062.109.094.117.094h.023l.023-.094h.07c.078.168.133.387.164.656v.07c0,.25-.07.477-.211.68-.082.242-.34.453-.773.633-.02-.078-.043-.117-.07-.117-.043.008-.105.07-.188.188-.031-.07-.062-.109-.094-.117-.02,0-.051.062-.094.188-.062,0-.094.016-.094.047.07,0,.125.047.164.141.215.125.395.188.539.188.016-.027.023-.066.023-.117.086,0,.148.039.188.117-.031.004-.047.02-.047.047.004.031.02.047.047.047.086-.016.148-.023.188-.023l.328.398c0,.102.031.195.094.281,0,.016.008.039.023.07l-.023.141.094.117v.234c0,.188-.055.281-.164.281h-.023l.141.094c-.098.312-.207.469-.328.469h-.07c0,.027-.062.113-.188.258-.113.066-.285.121-.516.164-.062.07-.094.109-.094.117v.023c.105-.047.168-.07.188-.07.031.016.055.023.07.023v.047c-.266.078-.445.117-.539.117-.023-.062-.047-.094-.07-.094h-.023l-.047.023.023.047c0,.047-.102.07-.305.07h-.727c-.031,0-.047-.016-.047-.047v-.398c0-.047.109-.07.328-.07,0,.023.023.047.07.07h.047c0-.082.055-.129.164-.141.031-.051.047-.098.047-.141h-.07l-.047.023v-.047c.047-.062.086-.234.117-.516h.023c-.031-.133-.047-.25-.047-.352,0-.016.008-.039.023-.07-.016-.031-.023-.055-.023-.07,0-.07.047-.133.141-.188v-.094c-.094,0-.141-.023-.141-.07v-.328c.031,0,.047.023.047.07h.023l.023-.117-.047-.023.023-.117v-.023l-.07.047h-.023c-.047,0-.07-.102-.07-.305.016,0,.023-.008.023-.023-.062-.047-.156-.102-.281-.164l-.047.023c-.102-.078-.18-.18-.234-.305v-.047c0-.035.055-.059.164-.07l.141.023.258-.281c.047-.121.07-.207.07-.258v-1.055c0-.383-.164-.609-.492-.68,0-.156-.047-.234-.141-.234v-.234c.004-.031.02-.047.047-.047ZM2.93.609l.023.047v.047c0,.031-.016.047-.047.047l-.023-.047v-.047c.004-.031.02-.047.047-.047ZM3.539,1.172c.016.031.023.055.023.07h.047v-.023c0-.031-.016-.047-.047-.047h-.023ZM3.609,1.758v.023c.004.031.02.047.047.047h.023v-.023c0-.031-.016-.047-.047-.047h-.023ZM4.266,3.328c.027.016.059.023.094.023v.047h-.094c-.031,0-.047-.016-.047-.047l.047-.023ZM4.289.469c.035,0,.066.008.094.023v-.023c0-.031-.016-.047-.047-.047-.031.004-.047.02-.047.047ZM5.086.75c.031.004.047.02.047.047v.023c-.031,0-.047-.016-.047-.047v-.023Z"/>
  <path class="st0" d="M7.887.234h.164v.047c-.266.199-.398.363-.398.492v.023h.023l.047-.023.07.094v.094h-.023l-.07-.047h-.023c-.023,0-.047.023-.07.07v.07l.023.047c.051-.031.09-.047.117-.047l.023.047v.188l-.023.047-.047-.023c-.062,0-.109.133-.141.398.016.227.031.352.047.375l-.023.141v.211l.023.164h-.023c.031.062.047.117.047.164h.047l.047-.023c.031.051.047.098.047.141v.117c-.109.16-.164.262-.164.305.031.109.047.172.047.188-.031.141-.047.242-.047.305v.117c.039.035.086.137.141.305.016,0,.023.008.023.023v.773c-.094.066-.141.145-.141.234.023,0,.047.023.07.07,0,.012-.039.051-.117.117.078.203.133.305.164.305.047,0,.141.062.281.188.109.035.164.066.164.094v.211l-.023.047-.047-.023h-.047l-.07.047-.164-.023c-.023,0-.062.047-.117.141-.117-.031-.188-.047-.211-.047l.023-.117c-.059-.074-.16-.145-.305-.211h-.023l-.141.141c-.234-.152-.422-.301-.562-.445v-.023l.047-.07v-.023c-.047-.098-.133-.207-.258-.328h-.164c-.188-.293-.281-.496-.281-.609-.031,0-.047-.016-.047-.047v-.094c.062,0,.094-.031.094-.094-.02-.203-.051-.305-.094-.305l.023-.117c0-.082-.07-.16-.211-.234-.016-.203-.023-.367-.023-.492v-.234c0-.031.039-.047.117-.047-.016-.184-.039-.309-.07-.375,0-.094.023-.242.07-.445h.047c0,.047.016.07.047.07l.023-.164-.07-.094c.152-.441.277-.699.375-.773l.047.023c.125,0,.188-.07.188-.211-.062,0-.094-.023-.094-.07.395-.402.66-.629.797-.68h.07v.023c-.016.031-.023.055-.023.07h.023c.027-.016.059-.023.094-.023l.094.023.562-.164ZM5.637,3.211v.047c.004.031.02.047.047.047l.023-.047c0-.031-.016-.047-.047-.047h-.023ZM8.098.398c0,.031.023.047.07.047v.07c-.012,0-.059.008-.141.023v-.07c0-.023.023-.047.07-.07ZM8.121,6.422h.023c.031.004.047.02.047.047l-.047.023h-.07v-.023c.004-.031.02-.047.047-.047ZM8.613,0h.023l.234.023c0,.043-.016.09-.047.141l.07.047c.156-.012.234-.059.234-.141.188.027.281.113.281.258h.188v.023h-.047v.023c0,.02.062.074.188.164h.07c.016,0,.078-.016.188-.047.012.078.051.117.117.117l-.023.164c.191.281.355.422.492.422.062.008.094.031.094.07-.062.066-.094.129-.094.188.281.238.422.434.422.586-.016.047-.031.07-.047.07.109.168.164.348.164.539-.031.051-.047.098-.047.141v.047c.062,0,.094.047.094.141v.516c-.109.082-.164.137-.164.164v.023c0,.035.008.066.023.094-.031.051-.047.098-.047.141v.211c-.078.082-.117.145-.117.188s.055.082.164.117c-.062.16-.094.262-.094.305h-.07v-.023l.023-.164-.047-.023h-.023c-.016.129-.039.238-.07.328l.07.117c-.062.188-.156.281-.281.281-.094.047-.141.109-.141.188v.047c.047,0,.07.008.07.023-.023.062-.047.094-.07.094h-.023c0-.062-.016-.094-.047-.094l-.023.047.023.117c-.051,0-.098.055-.141.164-.109.094-.195.141-.258.141v-.023h-.047l-.07.047.023.047v.023c-.414.281-.828.422-1.242.422l-.023-.047v-.375c.062-.043.094-.082.094-.117h.117l.047-.023-.023-.047.188-.328c.062,0,.094-.055.094-.164l.047-.07c-.031,0-.047-.023-.047-.07l-.07.047h-.023v-1.477c.027-.184.059-.293.094-.328v-.047c-.062,0-.094-.016-.094-.047,0-.016.039-.047.117-.094,0-.02-.039-.059-.117-.117v-.328c0-.344.047-.516.141-.516l-.047-.07-.047.023h-.047v-1.195c0-.305-.133-.508-.398-.609-.016,0-.023-.008-.023-.023v-.094c.004-.031.02-.047.047-.047.004.031.02.047.047.047h.023v-.094c-.078-.055-.117-.133-.117-.234.004-.031.02-.047.047-.047Z"/>
  <path class="st0" d="M11.52.234h.305c0,.078.016.117.047.117.047-.016.07-.031.07-.047-.016-.031-.023-.055-.023-.07h.352l-.023.117c.062,0,.117-.039.164-.117h.141c.047,0,.07.008.07.023l.117-.023h.234v.023l-.023.047.047.023h.047c0-.062.016-.094.047-.094h.141c.109.125.266.188.469.188.047.035.07.059.07.07-.082.031-.129.07-.141.117,0,.023.055.102.164.234l.047-.023h.023c.043.027.121.23.234.609-.02,0-.051.039-.094.117v.094c.043.078.113.117.211.117.172.453.289.797.352,1.031.027-.012.121-.285.281-.82.094.02.141.043.141.07v.609c0,.055-.008.125-.023.211.016.027.023.059.023.094-.047.188-.094.328-.141.422l-.117-.023v.047l.094.117c0,.082-.062.145-.188.188,0,.078.023.117.07.117v.023c0,.078-.031.18-.094.305l-.047-.023c-.02,0-.051.039-.094.117v.047l.094.094c0,.016-.031.062-.094.141,0,.035.008.066.023.094-.023.141-.094.211-.211.211l-.023.117c.062.047.094.086.094.117-.023.16-.086.277-.188.352v.07h.047c0,.188-.055.281-.164.281h-.023c.031.109.047.172.047.188l-.234.305h-.188c-.059,0-.152-.258-.281-.773.031-.016.055-.023.07-.023v-.117c-.125-.082-.203-.16-.234-.234-.078-.266-.117-.414-.117-.445.062-.055.094-.102.094-.141l-.047-.023-.117.023v-.094h.117v-.023c-.156,0-.234-.086-.234-.258l-.281-.844v-.047c.047,0,.07-.016.07-.047v-.094h-.07v.094h-.047l-.023-.117c.078-.109.117-.172.117-.188l-.211-.328c-.031.016-.055.023-.07.023-.031-.035-.188-.504-.469-1.406.031,0,.047-.016.047-.047-.004-.051-.059-.113-.164-.188-.078-.125-.188-.188-.328-.188v-.047h.117v-.047h-.188l.023.047h-.047c-.109-.047-.164-.125-.164-.234v-.023c0-.137.102-.215.305-.234ZM11.918,2.461h.047l.328.984-.047-.023-.047.164c.012.078.035.117.07.117.012-.062.027-.094.047-.094l-.023-.047v-.047h.047c.047.141.07.234.07.281v.047h-.047v-.07h-.023c-.016.129-.023.207-.023.234.062.023.094.047.094.07v.961l-.188.211c.039.23.117.402.234.516.031,0,.047-.031.047-.094.094.074.141.176.141.305.059,0,.121.023.188.07,0-.016.008-.039.023-.07.172.078.258.172.258.281l-.023.047-.117-.023h-.047c-.047.047-.133.078-.258.094-.031.07-.062.109-.094.117h-.164c-.102-.078-.188-.117-.258-.117-.031.07-.062.109-.094.117h-.328l-.047-.023.023-.047c-.016-.031-.023-.055-.023-.07-.031.016-.055.023-.07.023l.023.117h-.023l-.117-.094-.141.023c-.023,0-.055-.031-.094-.094v-.07c0-.094.07-.172.211-.234l.094.047c0-.016.008-.023.023-.023,0,.016.008.023.023.023l.117-.141-.047-.07.07-.094.117.023.07-.047c-.016-.031-.023-.055-.023-.07h-.047l-.047.023c0-.016-.008-.023-.023-.023.047-.086.07-.156.07-.211h.023l.07.047c.094-.109.141-.203.141-.281-.012-.141-.074-.211-.188-.211v-.164c0-.043.039-.066.117-.07v-.047c-.078,0-.117-.016-.117-.047v-.773c.078,0,.117-.016.117-.047v-.141c-.078,0-.117-.016-.117-.047v-.539c0-.031.023-.047.07-.047v-.07c-.047,0-.07-.016-.07-.047v-.516ZM12.223,1.828c0,.07-.008.117-.023.141l.07.047c0-.031.016-.086.047-.164l-.047-.023h-.047ZM13.043,6.375v.023c-.016.047-.062.07-.141.07h-.023v-.023c0-.031.055-.055.164-.07ZM13.793.633h.047c0,.035.008.066.023.094l-.047.023h-.047l.023-.117ZM15.082,5.977c0,.016.008.023.023.023-.016.031-.023.055-.023.07h-.07l-.047-.023c0,.062-.023.094-.07.094h-.047v-.047c0-.039.078-.078.234-.117ZM14.941,1.547h.047v.234h-.047c-.031,0-.047-.016-.047-.047.031-.059.047-.121.047-.188ZM15.41.234h.773v.047l-.164.023v.094h.047l.117-.07h.117c0-.062.016-.094.047-.094h.211c0,.035.008.066.023.094.047,0,.07-.031.07-.094h.914c.203.02.305.098.305.234-.031.016-.055.023-.07.023v.023c.016,0,.039.008.07.023-.047.141-.156.211-.328.211h-.164c-.031.004-.047.02-.047.047,0,.023.031.055.094.094l-.023.117v.352c0,.031-.023.047-.07.047v.07l.07.094v.234c0,.016-.008.023-.023.023l.023.047v1.359c-.141.109-.211.273-.211.492.016.176.047.301.094.375-.031.051-.047.098-.047.141l.164.141v1.43c0,.016-.008.023-.023.023.031.125.062.188.094.188.109.094.18.141.211.141.031-.039.047-.078.047-.117h.023c.062,0,.094.055.094.164-.027,0-.074-.016-.141-.047-.027.109-.059.164-.094.164h-.164c0,.109-.023.164-.07.164h-.398c-.055-.07-.133-.117-.234-.141-.016.027-.023.059-.023.094h-.094c-.008,0-.047-.031-.117-.094,0,.023-.062.07-.188.141h-.773c-.023,0-.047-.023-.07-.07v-.023c.047,0,.07-.016.07-.047v-.023l-.117-.023-.094.047c-.027-.016-.059-.023-.094-.023,0,.031-.023.047-.07.047-.102-.039-.156-.078-.164-.117v-.023l.023-.117.117.023h.047c.203-.082.305-.207.305-.375.031,0,.047-.055.047-.164v-.023c-.016,0-.039-.008-.07-.023l-.094.047-.023-.047v-.211c0-.008.047-.062.141-.164-.078-.109-.117-.203-.117-.281l.047-.023-.07-.117v-.047c.016,0,.039-.008.07-.023-.047-.078-.07-.141-.07-.188v-.234l.047-.07v-.023l-.047-.07c0-.023.031-.055.094-.094l-.094-.164v-.188l.023-.047.047.023h.047c.047-.016.07-.062.07-.141v-.07c0-.023-.023-.047-.07-.07-.039,0-.062.031-.07.094h-.047v-.352c.078-.062.125-.141.141-.234-.016-.125-.062-.219-.141-.281v-.445c.008-.039.062-.078.164-.117,0-.102-.055-.156-.164-.164v-.516l.047-.07c-.031,0-.047-.016-.047-.047v-.211c0-.016.047-.086.141-.211v-.07l-.141-.188v-.258c.004-.031.02-.047.047-.047ZM17.848,6.305v.047c-.059.094-.145.141-.258.141,0-.016-.008-.023-.023-.023,0-.094.094-.148.281-.164Z"/>
  <path class="st0" d="M17.941,6.211h.023c.031.004.047.02.047.047v.094c0,.031-.016.047-.047.047-.047-.016-.07-.062-.07-.141.004-.031.02-.047.047-.047ZM18.152.234v.023l.047-.023h1.266l.07.047.07-.047.141.07c0-.047.016-.07.047-.07h.07c.059.035.113.098.164.188l.047-.023h.047c.023,0,.055.031.094.094v.234c0,.156.062.234.188.234v.188c-.094.059-.141.098-.141.117v.047c.047.059.07.105.07.141-.051.016-.082.047-.094.094.023,0,.055.031.094.094l-.023.094c.016.031.023.055.023.07-.031.051-.047.098-.047.141,0,.047.039.07.117.07v.914h-.023l-.047-.023c-.031.059-.047.121-.047.188v.047l.117.141v.656c0,.016-.047.086-.141.211v.07c0,.125.047.188.141.188v.211c-.062.07-.094.109-.094.117v.047c.062,0,.094.016.094.047v.211c0,.031-.023.047-.07.047,0,.039.023.109.07.211-.094.031-.141.07-.141.117.016.047.031.07.047.07l-.023.164v.141c-.031.062-.055.094-.07.094.027.121.09.23.188.328v.234c0,.031-.016.047-.047.047h-.586c-.016,0-.023-.008-.023-.023l-.047.023h-.562v-.023c0-.031.039-.047.117-.047,0-.035-.07-.066-.211-.094h-.047c-.02.109-.051.164-.094.164h-.375c-.09-.141-.191-.211-.305-.211-.078,0-.117-.016-.117-.047,0-.047.078-.094.234-.141.094-.086.141-.219.141-.398v-.023l-.094.094h-.023v-.75c.004-.031.02-.047.047-.047l.047.023c.062-.016.094-.062.094-.141v-.141l-.07-.094v-.117h-.047l-.047.023-.023-.047v-.914c0-.031.031-.047.094-.047l-.07-.258c.047-.012.078-.043.094-.094-.078-.02-.117-.043-.117-.07v-.234c.047-.078.094-.117.141-.117v-.141c-.094-.055-.141-.102-.141-.141,0-.016.008-.023.023-.023l-.023-.117v-.375c0-.016.008-.023.023-.023l-.023-.047v-.82h.141v-.047c-.031,0-.047-.008-.047-.023l-.047.023h-.047c0-.16-.133-.27-.398-.328v-.023c0-.266.039-.398.117-.398.031-.016.055-.023.07-.023ZM20.332.352h.023c.031.004.047.02.047.047v.07c0,.031-.016.047-.047.047h-.023c-.031,0-.047-.016-.047-.047v-.07c.004-.031.02-.047.047-.047ZM20.285,3.844v.023c0,.023.023.047.07.07v-.094h-.07ZM20.824.234h.07c.035,0,.066.008.094.023.027-.016.059-.023.094-.023h.07c.035,0,.066.008.094.023.027-.016.059-.023.094-.023h.117c0,.078.016.117.047.117h.023l-.023-.117h.117c.094.035.141.059.141.07l.047-.023h.164c.062.031.094.078.094.141h.07v-.07h.07c.039,0,.109.016.211.047,0,.078-.031.117-.094.117v.047h.023c.027-.027.121-.051.281-.07.062.086.094.172.094.258h.047l.07-.047c.066.102.129.18.188.234l-.023.117c.07.062.109.094.117.094h.023l.023-.094h.07c.078.168.133.387.164.656v.07c0,.25-.07.477-.211.68-.082.242-.34.453-.773.633-.02-.078-.043-.117-.07-.117-.043.008-.105.07-.188.188-.031-.07-.062-.109-.094-.117-.02,0-.051.062-.094.188-.062,0-.094.016-.094.047.07,0,.125.047.164.141.215.125.395.188.539.188.016-.027.023-.066.023-.117.086,0,.148.039.188.117-.031.004-.047.02-.047.047.004.031.02.047.047.047.086-.016.148-.023.188-.023l.328.398c0,.102.031.195.094.281,0,.016.008.039.023.07l-.023.141.094.117v.234c0,.188-.055.281-.164.281h-.023l.141.094c-.098.312-.207.469-.328.469h-.07c0,.027-.062.113-.188.258-.113.066-.285.121-.516.164-.062.07-.094.109-.094.117v.023c.105-.047.168-.07.188-.07.031.016.055.023.07.023v.047c-.266.078-.445.117-.539.117-.023-.062-.047-.094-.07-.094h-.023l-.047.023.023.047c0,.047-.102.07-.305.07h-.727c-.031,0-.047-.016-.047-.047v-.398c0-.047.109-.07.328-.07,0,.023.023.047.07.07h.047c0-.082.055-.129.164-.141.031-.051.047-.098.047-.141h-.07l-.047.023v-.047c.047-.062.086-.234.117-.516h.023c-.031-.133-.047-.25-.047-.352,0-.016.008-.039.023-.07-.016-.031-.023-.055-.023-.07,0-.07.047-.133.141-.188v-.094c-.094,0-.141-.023-.141-.07v-.328c.031,0,.047.023.047.07h.023l.023-.117-.047-.023.023-.117v-.023l-.07.047h-.023c-.047,0-.07-.102-.07-.305.016,0,.023-.008.023-.023-.062-.047-.156-.102-.281-.164l-.047.023c-.102-.078-.18-.18-.234-.305v-.047c0-.035.055-.059.164-.07l.141.023.258-.281c.047-.121.07-.207.07-.258v-1.055c0-.383-.164-.609-.492-.68,0-.156-.047-.234-.141-.234v-.234c.004-.031.02-.047.047-.047ZM20.824.609l.023.047v.047c0,.031-.016.047-.047.047l-.023-.047v-.047c.004-.031.02-.047.047-.047ZM21.434,1.172c.016.031.023.055.023.07h.047v-.023c0-.031-.016-.047-.047-.047h-.023ZM21.504,1.758v.023c.004.031.02.047.047.047h.023v-.023c0-.031-.016-.047-.047-.047h-.023ZM22.16,3.328c.027.016.059.023.094.023v.047h-.094c-.031,0-.047-.016-.047-.047l.047-.023ZM22.184.469c.035,0,.066.008.094.023v-.023c0-.031-.016-.047-.047-.047-.031.004-.047.02-.047.047ZM22.98.75c.031.004.047.02.047.047v.023c-.031,0-.047-.016-.047-.047v-.023Z"/>
  <path class="st0" d="M27.299.234h.305c0,.078.016.117.047.117.047-.016.07-.031.07-.047-.016-.031-.023-.055-.023-.07h.352l-.023.117c.062,0,.117-.039.164-.117h.141c.047,0,.07.008.07.023l.117-.023h.234v.023l-.023.047.047.023h.047c0-.062.016-.094.047-.094h.141c.109.125.266.188.469.188.047.035.07.059.07.07-.082.031-.129.07-.141.117,0,.023.055.102.164.234l.047-.023h.023c.043.027.121.23.234.609-.02,0-.051.039-.094.117v.094c.043.078.113.117.211.117.172.453.289.797.352,1.031.027-.012.121-.285.281-.82.094.02.141.043.141.07v.609c0,.055-.008.125-.023.211.016.027.023.059.023.094-.047.188-.094.328-.141.422l-.117-.023v.047l.094.117c0,.082-.062.145-.188.188,0,.078.023.117.07.117v.023c0,.078-.031.18-.094.305l-.047-.023c-.02,0-.051.039-.094.117v.047l.094.094c0,.016-.031.062-.094.141,0,.035.008.066.023.094-.023.141-.094.211-.211.211l-.023.117c.062.047.094.086.094.117-.023.16-.086.277-.188.352v.07h.047c0,.188-.055.281-.164.281h-.023c.031.109.047.172.047.188l-.234.305h-.188c-.059,0-.152-.258-.281-.773.031-.016.055-.023.07-.023v-.117c-.125-.082-.203-.16-.234-.234-.078-.266-.117-.414-.117-.445.062-.055.094-.102.094-.141l-.047-.023-.117.023v-.094h.117v-.023c-.156,0-.234-.086-.234-.258l-.281-.844v-.047c.047,0,.07-.016.07-.047v-.094h-.07v.094h-.047l-.023-.117c.078-.109.117-.172.117-.188l-.211-.328c-.031.016-.055.023-.07.023-.031-.035-.188-.504-.469-1.406.031,0,.047-.016.047-.047-.004-.051-.059-.113-.164-.188-.078-.125-.188-.188-.328-.188v-.047h.117v-.047h-.188l.023.047h-.047c-.109-.047-.164-.125-.164-.234v-.023c0-.137.102-.215.305-.234ZM27.697,2.461h.047l.328.984-.047-.023-.047.164c.012.078.035.117.07.117.012-.062.027-.094.047-.094l-.023-.047v-.047h.047c.047.141.07.234.07.281v.047h-.047v-.07h-.023c-.016.129-.023.207-.023.234.062.023.094.047.094.07v.961l-.188.211c.039.23.117.402.234.516.031,0,.047-.031.047-.094.094.074.141.176.141.305.059,0,.121.023.188.07,0-.016.008-.039.023-.07.172.078.258.172.258.281l-.023.047-.117-.023h-.047c-.047.047-.133.078-.258.094-.031.07-.062.109-.094.117h-.164c-.102-.078-.188-.117-.258-.117-.031.07-.062.109-.094.117h-.328l-.047-.023.023-.047c-.016-.031-.023-.055-.023-.07-.031.016-.055.023-.07.023l.023.117h-.023l-.117-.094-.141.023c-.023,0-.055-.031-.094-.094v-.07c0-.094.07-.172.211-.234l.094.047c0-.016.008-.023.023-.023,0,.016.008.023.023.023l.117-.141-.047-.07.07-.094.117.023.07-.047c-.016-.031-.023-.055-.023-.07h-.047l-.047.023c0-.016-.008-.023-.023-.023.047-.086.07-.156.07-.211h.023l.07.047c.094-.109.141-.203.141-.281-.012-.141-.074-.211-.188-.211v-.164c0-.043.039-.066.117-.07v-.047c-.078,0-.117-.016-.117-.047v-.773c.078,0,.117-.016.117-.047v-.141c-.078,0-.117-.016-.117-.047v-.539c0-.031.023-.047.07-.047v-.07c-.047,0-.07-.016-.07-.047v-.516ZM28.002,1.828c0,.07-.008.117-.023.141l.07.047c0-.031.016-.086.047-.164l-.047-.023h-.047ZM28.822,6.375v.023c-.016.047-.062.07-.141.07h-.023v-.023c0-.031.055-.055.164-.07ZM29.572.633h.047c0,.035.008.066.023.094l-.047.023h-.047l.023-.117ZM30.861,5.977c0,.016.008.023.023.023-.016.031-.023.055-.023.07h-.07l-.047-.023c0,.062-.023.094-.07.094h-.047v-.047c0-.039.078-.078.234-.117ZM30.721,1.547h.047v.234h-.047c-.031,0-.047-.016-.047-.047.031-.059.047-.121.047-.188ZM31.189.234h.773v.047l-.164.023v.094h.047l.117-.07h.117c0-.062.016-.094.047-.094h.211c0,.035.008.066.023.094.047,0,.07-.031.07-.094h.914c.203.02.305.098.305.234-.031.016-.055.023-.07.023v.023c.016,0,.039.008.07.023-.047.141-.156.211-.328.211h-.164c-.031.004-.047.02-.047.047,0,.023.031.055.094.094l-.023.117v.352c0,.031-.023.047-.07.047v.07l.07.094v.234c0,.016-.008.023-.023.023l.023.047v1.359c-.141.109-.211.273-.211.492.016.176.047.301.094.375-.031.051-.047.098-.047.141l.164.141v1.43c0,.016-.008.023-.023.023.031.125.062.188.094.188.109.094.18.141.211.141.031-.039.047-.078.047-.117h.023c.062,0,.094.055.094.164-.027,0-.074-.016-.141-.047-.027.109-.059.164-.094.164h-.164c0,.109-.023.164-.07.164h-.398c-.055-.07-.133-.117-.234-.141-.016.027-.023.059-.023.094h-.094c-.008,0-.047-.031-.117-.094,0,.023-.062.07-.188.141h-.773c-.023,0-.047-.023-.07-.07v-.023c.047,0,.07-.016.07-.047v-.023l-.117-.023-.094.047c-.027-.016-.059-.023-.094-.023,0,.031-.023.047-.07.047-.102-.039-.156-.078-.164-.117v-.023l.023-.117.117.023h.047c.203-.082.305-.207.305-.375.031,0,.047-.055.047-.164v-.023c-.016,0-.039-.008-.07-.023l-.094.047-.023-.047v-.211c0-.008.047-.062.141-.164-.078-.109-.117-.203-.117-.281l.047-.023-.07-.117v-.047c.016,0,.039-.008.07-.023-.047-.078-.07-.141-.07-.188v-.234l.047-.07v-.023l-.047-.07c0-.023.031-.055.094-.094l-.094-.164v-.188l.023-.047.047.023h.047c.047-.016.07-.062.07-.141v-.07c0-.023-.023-.047-.07-.07-.039,0-.062.031-.07.094h-.047v-.352c.078-.062.125-.141.141-.234-.016-.125-.062-.219-.141-.281v-.445c.008-.039.062-.078.164-.117,0-.102-.055-.156-.164-.164v-.516l.047-.07c-.031,0-.047-.016-.047-.047v-.211c0-.016.047-.086.141-.211v-.07l-.141-.188v-.258c.004-.031.02-.047.047-.047ZM33.627,6.305v.047c-.059.094-.145.141-.258.141,0-.016-.008-.023-.023-.023,0-.094.094-.148.281-.164Z"/>
  <path class="st0" d="M35.971.234h.164v.047c-.266.199-.398.363-.398.492v.023h.023l.047-.023.07.094v.094h-.023l-.07-.047h-.023c-.023,0-.047.023-.07.07v.07l.023.047c.051-.031.09-.047.117-.047l.023.047v.188l-.023.047-.047-.023c-.062,0-.109.133-.141.398.016.227.031.352.047.375l-.023.141v.211l.023.164h-.023c.031.062.047.117.047.164h.047l.047-.023c.031.051.047.098.047.141v.117c-.109.16-.164.262-.164.305.031.109.047.172.047.188-.031.141-.047.242-.047.305v.117c.039.035.086.137.141.305.016,0,.023.008.023.023v.773c-.094.066-.141.145-.141.234.023,0,.047.023.07.07,0,.012-.039.051-.117.117.078.203.133.305.164.305.047,0,.141.062.281.188.109.035.164.066.164.094v.211l-.023.047-.047-.023h-.047l-.07.047-.164-.023c-.023,0-.062.047-.117.141-.117-.031-.188-.047-.211-.047l.023-.117c-.059-.074-.16-.145-.305-.211h-.023l-.141.141c-.234-.152-.422-.301-.562-.445v-.023l.047-.07v-.023c-.047-.098-.133-.207-.258-.328h-.164c-.188-.293-.281-.496-.281-.609-.031,0-.047-.016-.047-.047v-.094c.062,0,.094-.031.094-.094-.02-.203-.051-.305-.094-.305l.023-.117c0-.082-.07-.16-.211-.234-.016-.203-.023-.367-.023-.492v-.234c0-.031.039-.047.117-.047-.016-.184-.039-.309-.07-.375,0-.094.023-.242.07-.445h.047c0,.047.016.07.047.07l.023-.164-.07-.094c.152-.441.277-.699.375-.773l.047.023c.125,0,.188-.07.188-.211-.062,0-.094-.023-.094-.07.395-.402.66-.629.797-.68h.07v.023c-.016.031-.023.055-.023.07h.023c.027-.016.059-.023.094-.023l.094.023.562-.164ZM33.721,3.211v.047c.004.031.02.047.047.047l.023-.047c0-.031-.016-.047-.047-.047h-.023ZM36.182.398c0,.031.023.047.07.047v.07c-.012,0-.059.008-.141.023v-.07c0-.023.023-.047.07-.07ZM36.205,6.422h.023c.031.004.047.02.047.047l-.047.023h-.07v-.023c.004-.031.02-.047.047-.047ZM36.697,0h.023l.234.023c0,.043-.016.09-.047.141l.07.047c.156-.012.234-.059.234-.141.188.027.281.113.281.258h.188v.023h-.047v.023c0,.02.062.074.188.164h.07c.016,0,.078-.016.188-.047.012.078.051.117.117.117l-.023.164c.191.281.355.422.492.422.062.008.094.031.094.07-.062.066-.094.129-.094.188.281.238.422.434.422.586-.016.047-.031.07-.047.07.109.168.164.348.164.539-.031.051-.047.098-.047.141v.047c.062,0,.094.047.094.141v.516c-.109.082-.164.137-.164.164v.023c0,.035.008.066.023.094-.031.051-.047.098-.047.141v.211c-.078.082-.117.145-.117.188s.055.082.164.117c-.062.16-.094.262-.094.305h-.07v-.023l.023-.164-.047-.023h-.023c-.016.129-.039.238-.07.328l.07.117c-.062.188-.156.281-.281.281-.094.047-.141.109-.141.188v.047c.047,0,.07.008.07.023-.023.062-.047.094-.07.094h-.023c0-.062-.016-.094-.047-.094l-.023.047.023.117c-.051,0-.098.055-.141.164-.109.094-.195.141-.258.141v-.023h-.047l-.07.047.023.047v.023c-.414.281-.828.422-1.242.422l-.023-.047v-.375c.062-.043.094-.082.094-.117h.117l.047-.023-.023-.047.188-.328c.062,0,.094-.055.094-.164l.047-.07c-.031,0-.047-.023-.047-.07l-.07.047h-.023v-1.477c.027-.184.059-.293.094-.328v-.047c-.062,0-.094-.016-.094-.047,0-.016.039-.047.117-.094,0-.02-.039-.059-.117-.117v-.328c0-.344.047-.516.141-.516l-.047-.07-.047.023h-.047v-1.195c0-.305-.133-.508-.398-.609-.016,0-.023-.008-.023-.023v-.094c.004-.031.02-.047.047-.047.004.031.02.047.047.047h.023v-.094c-.078-.055-.117-.133-.117-.234.004-.031.02-.047.047-.047Z"/>
  <path class="st0" d="M39.557.234h.211c.07.047.125.07.164.07,0-.023.023-.047.07-.07h.211c.051.047.09.07.117.07.031-.016.055-.023.07-.023.004.031.02.047.047.047h.023l.094-.094h.141l.094.07c0-.023.023-.047.07-.07h.234c.031.004.047.02.047.047v.023l-.023.047.047.023c.035,0,.066-.008.094-.023.027.016.059.023.094.023l.094-.07h.023l.234.094c-.031.117-.047.188-.047.211.031.07.062.109.094.117,0-.016.008-.023.023-.023l.023.047v.117l-.047.07c.031.004.047.02.047.047v.539l-.164.117v.164l.164.094v.445h-.047l-.047-.023c-.031.039-.047.07-.047.094.016.031.023.055.023.07.051-.031.09-.047.117-.047v.141l-.07.094c.047.059.07.113.07.164v1.289h-.141c-.031.004-.047.02-.047.047v.023c0,.059.039.129.117.211v.234h.07v.867c0,.047-.031.07-.094.07,0,.035.008.066.023.094l-.117.188c.016.137.023.215.023.234l-.023.234c.031.004.047.02.047.047-.031.07-.062.109-.094.117h-.891c-.031,0-.047-.031-.047-.094h-.023l-.094.094h-.023c-.109-.125-.203-.188-.281-.188h-.047l-.305.07c0,.047.031.07.094.07v.047h-.352c-.203-.02-.305-.098-.305-.234v-.023c0-.129.141-.238.422-.328.035-.219.066-.328.094-.328.027.016.059.023.094.023l.023-.047c-.109-.148-.164-.242-.164-.281v-.047c.031-.051.047-.098.047-.141v-.07l-.047-.07v-.141c.004-.031.02-.047.047-.047.031.039.047.078.047.117h.023l.023-.375c-.094,0-.141-.094-.141-.281v-.141l.047-.07c-.031,0-.047-.016-.047-.047v-.188c.004-.031.02-.047.047-.047.027.016.059.023.094.023l.023-.047v-.07c0-.023-.023-.047-.07-.07-.031.016-.055.023-.07.023l-.023-.047v-.094c.094-.062.141-.102.141-.117s-.047-.086-.141-.211v-.586l.117-.023v-.023l-.047-.07c.094-.121.141-.207.141-.258-.008-.262-.055-.449-.141-.562l.023-.094c-.062-.094-.094-.164-.094-.211v-.258c0-.09-.055-.199-.164-.328,0-.078-.031-.117-.094-.117l-.023.117c-.125,0-.188-.07-.188-.211v-.07c.004-.031.02-.047.047-.047h.047c.047.062.086.094.117.094.031-.016.055-.023.07-.023v-.07l-.047.023h-.07v-.047c.062-.059.094-.098.094-.117ZM40.072,6.422c.031.004.047.02.047.047l-.047.023h-.047v-.023c.004-.031.02-.047.047-.047ZM41.713,1.688h.023c.031.004.047.02.047.047h-.07v-.047ZM41.713,6.422h.023c.031.004.047.02.047.047l-.047.023h-.023v-.07ZM42.275.234c.73,0,1.348.297,1.852.891,0,.031-.023.047-.07.047.02.156.113.234.281.234,0,.016.008.039.023.07-.023,0-.047.023-.07.07v.07c.125.109.188.18.188.211-.02.109-.043.164-.07.164,0,.117.094.211.281.281v.094l-.023.047c.094,0,.141.312.141.938v.234c-.125.066-.188.137-.188.211v.188c.031.039.047.07.047.094-.016.031-.023.055-.023.07.023,0,.047.023.07.07-.141.086-.211.195-.211.328l.023.117c-.016.031-.023.055-.023.07.031,0,.047.023.047.07-.148.359-.289.602-.422.727-.031-.016-.055-.023-.07-.023,0,.27-.367.566-1.102.891,0,.016-.078.023-.234.023,0-.039-.031-.07-.094-.094-.031.016-.055.023-.07.023-.109-.016-.172-.023-.188-.023-.012.078-.035.117-.07.117l-.023-.047v-.023c.031-.047.062-.117.094-.211-.062-.023-.094-.047-.094-.07v-.07c.004-.031.02-.047.047-.047h.023c.047,0,.07.031.07.094.094-.035.141-.098.141-.188,0-.051.047-.129.141-.234h.023l.07.047h.023c0-.051.023-.145.07-.281l-.023-.117h-.07l-.023.094h-.047v-.586c0-.027.055-.059.164-.094-.02-.078-.043-.117-.07-.117h-.047v.047h-.047v-.188l.117-.117v-.023c-.039-.027-.078-.184-.117-.469v-1.383l.047-.07c-.031-.051-.047-.098-.047-.141v-.75c0-.406-.133-.648-.398-.727l.023-.117v-.047l-.023-.117h-.047c0,.094-.016.141-.047.141h-.023v-.117c0-.008.047-.062.141-.164h-.141v-.07c0-.031.023-.047.07-.047ZM42.744,5.438l.023.047v.047h-.023c-.031,0-.047-.016-.047-.047.004-.031.02-.047.047-.047ZM44.197,5.203v.023h.094v-.023h-.094Z"/>
  <path class="st0" d="M44.842,6.047c.031.004.047.02.047.047v.023h-.023c-.031-.016-.055-.023-.07-.023.004-.031.02-.047.047-.047ZM45.006.234h.07l.07.047h.023l.117-.023c0,.023.047.07.141.141h.023c.02,0,.059-.055.117-.164h.211c.023,0,.047.039.07.117.047,0,.102.008.164.023.234,0,.352-.047.352-.141h.422c.023,0,.055.039.094.117.059-.031.121-.047.188-.047.059.004.113.074.164.211v.703h-.023c-.023,0-.055-.031-.094-.094v-.023c.035-.043.059-.121.07-.234l-.117-.141-.023.047v.258c.047.062.07.156.07.281l.117-.023v.562c-.094,0-.141.102-.141.305.031.004.047.02.047.047-.031.051-.047.09-.047.117h.141v.773c0,.031-.047.047-.141.047v.07l.023.047.094-.047.023.047v.516c0,.023-.023.047-.07.07l.07.117c-.039.031-.07.047-.094.047,0,.023.016.094.047.211-.094.023-.141.078-.141.164l.047.164h.141v.164c-.047.059-.07.113-.07.164.023,0,.047.023.07.07v.211l-.047.07c.031.004.047.02.047.047v.562l-.047.07c.031.004.047.02.047.047v.492c0,.031-.016.047-.047.047h-.984c-.094-.141-.156-.211-.188-.211-.094,0-.188.07-.281.211h-.258c0-.109-.07-.164-.211-.164-.02,0-.051.039-.094.117h.047v.047h-.047c-.148,0-.234-.094-.258-.281v-.023l.305-.211c.062,0,.094-.023.094-.07v-.281c0-.031-.039-.047-.117-.047v-1.758c.078-.062.117-.133.117-.211-.062-.023-.094-.047-.094-.07l.047-.07v-.023l-.07-.094v-1.242l.023-.141c-.016-.027-.023-.066-.023-.117v-.07c0-.031.023-.047.07-.047l-.023-.117c.047-.023.102-.148.164-.375-.078-.438-.203-.656-.375-.656-.078,0-.117-.062-.117-.188.062-.027.094-.082.094-.164ZM45.24,4.43v.023c.016.031.023.055.023.07h.023v-.094h-.047ZM47.045,1.43c.023.062.047.094.07.094v-.141h-.023c-.031.004-.047.02-.047.047ZM48.475,2.062c.094.008.141.031.141.07-.082.094-.152.141-.211.141v.023c.094,0,.141.086.141.258.016,0,.039.008.07.023.004-.031.02-.047.047-.047h.023v1.336l-.047.07.047.07v.211c0,.234-.062.352-.188.352l-.047-.117-.117.023h-.07l-.188-.562c.031-.016.055-.023.07-.023v-.023c0-.031-.062-.055-.188-.07,0-.031-.102-.109-.305-.234l.047-.07v-.047c-.027-.129-.059-.215-.094-.258v-.117c0-.031.039-.047.117-.047v.07h.047c.039,0,.07-.062.094-.188.125-.098.188-.176.188-.234h.07v.07c.043,0,.09-.016.141-.047-.012-.074-.051-.137-.117-.188.039-.297.148-.445.328-.445ZM47.678.234h1.242l.141.117.188-.117h.188c.031.004.047.02.047.047v.914l-.094.094v.023l.094.094v.07c0,.031-.031.047-.094.047v.023c.062,0,.094.016.094.047v.375c0,.031-.102.07-.305.117,0,.016-.008.023-.023.023h-.023c-.055-.07-.164-.297-.328-.68-.113-.141-.246-.281-.398-.422v-.023c.047,0,.07-.016.07-.047,0-.039-.062-.086-.188-.141l-.211.07c-.297-.059-.445-.105-.445-.141v-.445c.004-.031.02-.047.047-.047ZM49.295,4.547h.07v.023c-.016.031-.023.055-.023.07h.023c.027-.016.059-.023.094-.023.039,0,.062.062.07.188l-.094.164c-.031,0-.047.023-.047.07,0,.078.047.117.141.117v.773l-.023.141c.016.027.023.066.023.117v.258c0,.031-.016.047-.047.047h-.609l-.094-.094h-.047l-.117.094h-.398c-.051,0-.09-.008-.117-.023l-.141.023h-.281c-.031,0-.047-.016-.047-.047v-.398c.004-.031.02-.047.047-.047.023.062.047.094.07.094h.023c.043-.102.191-.188.445-.258,0-.016.039-.039.117-.07.062.016.117.023.164.023.031-.016.055-.023.07-.023v-.023l-.07-.094c.078-.109.156-.164.234-.164,0-.078.047-.117.141-.117v-.047l-.023-.117c.117-.219.188-.328.211-.328h.07v-.023l-.07-.094c.055-.141.133-.211.234-.211ZM49.225,6.352v.07h.07c.023,0,.047-.023.07-.07-.031-.016-.055-.023-.07-.023-.031.016-.055.023-.07.023ZM49.318,1.617h.07v-.047h-.023c-.031.004-.047.02-.047.047Z"/>
</svg>