<?xml version="1.0" encoding="UTF-8"?>
<svg id="Layer_1" xmlns="http://www.w3.org/2000/svg" width="1.291in" height=".394in" version="1.1" viewBox="0 0 92.986 28.404">
  <!-- Generator: Adobe Illustrator 30.6.0, SVG Export Plug-In . SVG Version: 2.1.4 Build 109)  -->
  <defs>
    <style>
      .st0 {
        fill: #231f20;
      }
    </style>
  </defs>
  <g>
    <path class="st0" d="M7.102,20.364c.118.06.225.11.32.151.095.042.184.086.267.133.486.249.895.563,1.227.942.332.379.563.836.693,1.369.166.629.16,1.204-.018,1.725-.178.522-.475,1.002-.889,1.44-.451.498-.958.865-1.521,1.103-.563.237-1.177.38-1.84.427-.427.023-.854.026-1.28.009-.427-.018-.854-.074-1.281-.169-.071-.023-.145-.026-.222-.009s-.151.038-.222.062c-.296.13-.581.124-.854-.019-.273-.142-.469-.349-.587-.622-.06-.131-.106-.267-.142-.408-.036-.143-.071-.285-.107-.427-.166-.901-.288-1.805-.364-2.712-.078-.907-.128-1.823-.151-2.748-.024-.391-.051-.782-.08-1.173-.03-.392-.044-.783-.044-1.174-.012-.379-.009-.753.009-1.12.018-.368.044-.729.08-1.085.059-.415.196-.705.409-.871s.527-.255.942-.267c.071,0,.148-.015.231-.044.083-.029.154-.068.213-.115.534-.415,1.097-.726,1.689-.934s1.221-.341,1.885-.4c.735-.059,1.417.095,2.045.462.32.19.596.424.827.703.231.278.406.586.524.924s.178.697.178,1.076-.06.765-.178,1.156c-.13.415-.311.803-.542,1.165-.231.362-.501.697-.809,1.005-.06.071-.122.14-.187.205s-.139.145-.222.24ZM3.368,19.581c.451-.285.862-.596,1.236-.934s.679-.738.916-1.2c.118-.249.207-.51.267-.783.036-.166.029-.281-.018-.347-.048-.065-.154-.109-.32-.133-.451-.059-.88-.036-1.289.071-.409.106-.786.308-1.129.604.059.451.116.895.169,1.333.053.439.109.901.169,1.387ZM3.315,24.827c.166-.036.326-.065.48-.089.154-.023.302-.047.445-.071.296-.071.589-.14.88-.205s.572-.163.845-.293c.379-.166.578-.4.596-.703.018-.302-.145-.572-.489-.809-.403-.26-.827-.415-1.271-.462-.445-.047-.892-.047-1.343,0-.024.439-.047.872-.071,1.298-.024.427-.048.871-.071,1.333Z"/>
    <path class="st0" d="M18.11,24.151c-.237.416-.495.812-.773,1.191-.279.38-.59.735-.934,1.067-.273.249-.56.459-.862.631-.303.172-.638.287-1.005.347-.522.06-.984.003-1.387-.169s-.771-.448-1.103-.827c-.344-.391-.604-.812-.782-1.263-.178-.45-.314-.924-.409-1.422-.119-.534-.181-1.061-.187-1.583-.006-.521.021-1.049.08-1.583.071-.747.175-1.481.311-2.205s.347-1.435.631-2.134c.071-.166.154-.329.249-.489.095-.16.189-.311.285-.454.166-.237.367-.397.604-.48.237-.083.492-.095.765-.036.26.083.462.21.604.382s.249.395.32.667c.06.308.068.616.027.925-.042.308-.092.616-.151.924-.071.558-.158,1.109-.258,1.654-.101.545-.187,1.097-.258,1.654-.059.403-.089.806-.089,1.209s.027.768.08,1.093c.053.326.136.593.249.8.113.208.264.317.454.329.189.012.42-.098.693-.329.272-.231.587-.619.942-1.165.711-1.043,1.334-2.11,1.867-3.201.534-1.09.984-2.246,1.352-3.467.071-.225.172-.457.302-.693.154-.296.358-.501.613-.614.255-.112.504-.142.747-.089.243.053.45.178.623.374.171.195.246.453.222.773-.071.972-.127,1.923-.169,2.854s-.065,1.853-.071,2.765c-.006.913,0,1.832.018,2.756.018.925.044,1.873.08,2.845.011.262-.033.489-.134.686-.101.195-.258.34-.471.436-.202.095-.421.115-.658.062-.237-.053-.439-.187-.604-.399-.213-.272-.374-.534-.48-.783-.225-.509-.406-1.031-.542-1.564-.137-.533-.193-1.079-.169-1.636,0-.285-.012-.459-.036-.525-.024-.065-.062-.068-.116-.009-.053.06-.119.16-.196.302-.077.143-.169.273-.275.391Z"/>
    <path class="st0" d="M29.188,16.434c.023-.261.062-.521.116-.783.053-.26.136-.495.249-.702.112-.208.267-.376.462-.507.195-.13.447-.202.755-.213.415-.023.765.077,1.049.302.285.226.474.545.569.96.083.427.14.928.169,1.502.03.575.039,1.186.027,1.832-.012.646-.042,1.313-.089,2-.047.688-.11,1.357-.187,2.009-.078.652-.167,1.269-.267,1.85-.101.581-.205,1.084-.311,1.512-.095.45-.264.791-.507,1.022-.243.231-.516.361-.818.391-.302.03-.614-.041-.934-.213-.32-.172-.604-.447-.854-.827-.226-.332-.445-.699-.658-1.103-.213-.403-.412-.797-.596-1.182s-.35-.738-.498-1.058c-.148-.32-.264-.563-.347-.729-.024-.036-.047-.077-.071-.125-.024,0-.06.012-.107.035,0,.083-.003.163-.009.24-.006.077-.009.163-.009.258.012.379.023.756.036,1.129.012.373.018.75.018,1.129,0,.273-.006.549-.018.827-.012.278-.048.554-.107.827-.06.355-.21.635-.454.836-.243.201-.524.313-.844.338-.332.023-.629-.051-.889-.223-.261-.172-.457-.43-.587-.773-.083-.201-.148-.411-.196-.631-.047-.219-.077-.441-.089-.667-.083-1.055-.122-2.104-.116-3.147s.056-2.092.151-3.147c.047-.415.089-.827.125-1.236.036-.409.077-.821.125-1.236.012-.249.089-.51.231-.783.308-.616.812-.907,1.512-.871.32.024.61.139.871.347s.421.483.48.827c.083.498.222,1.049.417,1.654.196.604.406,1.212.631,1.823.225.611.451,1.207.676,1.787.225.581.421,1.091.587,1.529.13-1.079.202-2.19.213-3.334s.042-2.303.089-3.477Z"/>
    <path class="st0" d="M39.75,16.434c.023-.261.062-.521.115-.783.054-.26.137-.495.249-.702.113-.208.267-.376.463-.507.195-.13.447-.202.756-.213.414-.023.765.077,1.049.302.284.226.474.545.569.96.082.427.139.928.169,1.502.029.575.038,1.186.026,1.832-.012.646-.042,1.313-.089,2-.048.688-.109,1.357-.187,2.009-.077.652-.166,1.269-.267,1.85-.102.581-.205,1.084-.312,1.512-.095.45-.264.791-.507,1.022s-.516.361-.818.391c-.302.03-.613-.041-.934-.213-.319-.172-.604-.447-.854-.827-.225-.332-.444-.699-.658-1.103-.213-.403-.412-.797-.595-1.182s-.35-.738-.498-1.058c-.148-.32-.264-.563-.347-.729-.024-.036-.047-.077-.071-.125-.024,0-.06.012-.107.035,0,.083-.003.163-.009.24-.006.077-.009.163-.009.258.012.379.023.756.036,1.129.012.373.018.75.018,1.129,0,.273-.006.549-.018.827-.012.278-.048.554-.107.827-.06.355-.21.635-.454.836-.243.201-.524.313-.844.338-.332.023-.629-.051-.889-.223-.261-.172-.457-.43-.587-.773-.083-.201-.148-.411-.196-.631-.047-.219-.077-.441-.089-.667-.083-1.055-.122-2.104-.116-3.147s.056-2.092.151-3.147c.047-.415.089-.827.125-1.236.036-.409.077-.821.125-1.236.012-.249.089-.51.231-.783.308-.616.812-.907,1.512-.871.32.024.61.139.871.347s.421.483.48.827c.083.498.222,1.049.417,1.654.196.604.406,1.212.631,1.823.225.611.451,1.207.675,1.787.226.581.421,1.091.588,1.529.13-1.079.201-2.19.213-3.334s.041-2.303.089-3.477Z"/>
    <path class="st0" d="M51.184,19.226c-.249.296-.495.593-.737.889-.243.297-.495.587-.756.872-.166.19-.344.376-.534.56-.189.184-.385.347-.586.489-.546.438-1.062.685-1.548.738s-.922-.023-1.307-.231c-.386-.208-.711-.51-.979-.907-.267-.397-.441-.827-.524-1.289-.095-.557-.127-1.105-.098-1.645.029-.539.08-1.082.151-1.627.023-.237.065-.474.124-.711.06-.237.119-.468.179-.693.035-.154.085-.302.15-.445.065-.142.146-.278.24-.409.237-.308.533-.507.89-.596.355-.089.705-.056,1.049.098.344.166.604.412.782.738.178.326.231.679.16,1.058-.06.38-.122.762-.187,1.147-.065.386-.122.768-.169,1.147-.06.545-.042.916.053,1.111.095.196.237.273.427.231s.412-.169.667-.382.513-.459.773-.738c.261-.279.513-.557.756-.836.243-.278.441-.501.596-.667.202-.213.427-.498.676-.854s.516-.669.801-.942c.261-.261.533-.421.817-.48.285-.06.536-.036.756.071.22.107.397.282.533.525.137.243.199.536.188.88-.024.403-.062.797-.116,1.183-.053.385-.092.78-.115,1.183-.024.344-.045.744-.062,1.2-.018.457-.032.922-.044,1.396-.013.474-.021.94-.027,1.396-.006.457-.015.856-.026,1.2-.023.545-.104,1.061-.24,1.547-.136.486-.382.942-.737,1.369-.368.415-.78.744-1.236.986-.456.243-.969.377-1.538.4-.451.023-.904.015-1.36-.026-.457-.042-.904-.14-1.343-.294-.272-.095-.524-.207-.756-.338-.231-.13-.447-.296-.648-.497-.143-.131-.252-.285-.329-.463s-.098-.367-.062-.569c.023-.166.08-.314.169-.445.089-.13.198-.237.329-.32.13-.083.272-.133.427-.151.153-.018.313.003.48.062.509.178.98.255,1.413.231.433-.023.815-.133,1.147-.329.331-.196.602-.465.809-.809s.341-.741.4-1.192c.023-.225.044-.506.062-.844.018-.338.035-.69.053-1.058s.036-.72.054-1.058.038-.62.062-.845c-.024-.012-.06-.018-.107-.018Z"/>
    <path class="st0" d="M66.507,18.111c.023-.036.035-.074.035-.116v-.116c.06-.782.104-1.553.134-2.312.029-.758.067-1.523.115-2.294.023-.308.071-.613.143-.916.07-.303.219-.584.444-.845.189-.213.406-.368.648-.462.243-.095.483-.133.721-.116.237.018.465.095.685.231.219.136.4.329.542.578.226.391.326.824.303,1.298-.06,1.031-.122,2.054-.187,3.067-.065,1.014-.128,2.042-.187,3.085-.048.545-.087,1.082-.116,1.609-.029.528-.057,1.064-.08,1.609-.012.166-.009.32.009.462.019.142.033.296.045.462.023.309-.024.572-.143.791-.118.22-.309.377-.568.472-.249.095-.505.101-.765.018-.262-.083-.475-.243-.641-.48-.237-.379-.409-.771-.516-1.173-.083-.332-.146-.667-.187-1.005-.042-.337-.092-.678-.151-1.022-.024-.095-.039-.192-.045-.293s-.021-.216-.044-.347c-.569.095-1.129.193-1.681.293-.551.101-1.123.199-1.716.293,0,.688.095,1.34.284,1.956.023.119.051.229.08.329s.057.204.08.312c.012.261-.032.488-.133.685-.102.195-.271.347-.507.453-.498.261-.942.225-1.334-.106-.237-.189-.444-.438-.622-.747-.309-.474-.537-.972-.685-1.494-.148-.521-.282-1.049-.4-1.583-.237-1.292-.38-2.582-.427-3.868-.048-1.287-.006-2.582.124-3.886.036-.438.148-.835.338-1.191.166-.332.412-.569.738-.711.326-.142.667-.171,1.022-.089.32.06.604.217.854.471.249.255.392.555.427.898.023.249.029.504.018.765s-.023.516-.035.764v4.268h3.379Z"/>
    <path class="st0" d="M76.536,10.749c.652-.024,1.286.083,1.903.32.616.237,1.167.623,1.653,1.156.486.558.868,1.23,1.147,2.019.278.789.45,1.615.516,2.48.064.866.029,1.734-.107,2.605-.136.871-.37,1.674-.702,2.409-.237.534-.533,1.002-.889,1.405s-.753.741-1.191,1.014c-.439.272-.901.477-1.388.613-.486.136-.978.198-1.476.187-.652-.012-1.233-.131-1.742-.355-.511-.226-.952-.53-1.325-.916s-.688-.83-.942-1.333-.457-1.034-.604-1.592c-.148-.557-.249-1.126-.303-1.707-.053-.581-.068-1.138-.044-1.671.035-.854.181-1.672.436-2.454s.613-1.473,1.075-2.072c.463-.598,1.025-1.084,1.689-1.458s1.429-.59,2.294-.649ZM74.331,17.132c-.213,1.197-.243,2.172-.089,2.925s.406,1.298.756,1.636.75.486,1.2.445c.451-.042.874-.255,1.271-.64s.724-.928.979-1.627c.255-.699.353-1.541.293-2.525-.035-.735-.154-1.354-.355-1.858-.202-.503-.444-.886-.729-1.147-.284-.261-.593-.397-.924-.409-.332-.012-.655.095-.97.32-.314.226-.602.578-.862,1.058s-.45,1.088-.569,1.823Z"/>
    <path class="st0" d="M86.69,12.616c.095-.036.181-.071.258-.107.076-.036.15-.065.222-.089.569-.237,1.145-.385,1.726-.444.58-.06,1.167,0,1.76.178.664.202,1.194.519,1.592.951.397.433.637,1.005.72,1.716.036.32.021.631-.044.933-.065.303-.163.59-.294.863-.248.545-.565,1.028-.951,1.449-.385.421-.826.786-1.324,1.094-.676.451-1.379.809-2.107,1.076-.729.267-1.515.418-2.356.454-.071.486-.121,1.004-.151,1.556-.029.551.033,1.094.188,1.627.142.498.023.901-.356,1.209-.189.131-.402.196-.64.196s-.463-.071-.676-.214c-.237-.154-.433-.385-.587-.693-.154-.308-.275-.64-.364-.996-.089-.355-.157-.708-.205-1.058-.047-.35-.077-.649-.089-.898-.047-.747-.083-1.494-.106-2.241s-.023-1.494,0-2.241c.023-1.481.184-2.934.48-4.356.071-.32.172-.628.302-.925.131-.296.297-.581.498-.854.131-.189.287-.344.472-.462.184-.118.399-.178.648-.178.332-.023.616.056.854.24.237.184.386.436.445.755.035.237.053.471.053.703s.012.483.036.756ZM86.049,18.022c.071-.012.121-.015.151-.009.029.006.056-.003.08-.027.604-.261,1.161-.575,1.671-.942.51-.367.99-.8,1.44-1.298.048-.059.095-.121.143-.187.047-.065.083-.127.106-.187.036-.059.074-.121.116-.187.041-.065.077-.133.106-.205.029-.071.047-.139.054-.205.006-.065-.016-.133-.062-.204-.095-.143-.229-.223-.4-.24s-.341-.015-.507.009c-.521.06-.996.208-1.423.445s-.812.545-1.155.924c-.095.095-.154.213-.178.356-.036.308-.062.625-.08.951-.018.326-.039.661-.062,1.005Z"/>
  </g>
  <path class="st0" d="M28.414,12.962c-.384,0-.769-.147-1.062-.44-.585-.586-.584-1.536.002-2.122C30.103,7.658,37.74,1.169,49.264.139c12.471-1.11,21.542,4.734,24.868,7.301.656.506.777,1.448.271,2.104-.506.657-1.449.778-2.104.271-3.047-2.351-11.37-7.708-22.769-6.688-10.547.942-17.541,6.886-20.058,9.397-.293.292-.676.438-1.06.438Z"/>
</svg>