<?xml version="1.0" encoding="UTF-8"?>
<svg id="Layer_1" xmlns="http://www.w3.org/2000/svg" width="1.321in" height=".181in" version="1.1" viewBox="0 0 95.13 13.018">
  <!-- Generator: Adobe Illustrator 30.6.0, SVG Export Plug-In . SVG Version: 2.1.4 Build 109)  -->
  <defs>
    <style>
      .st0 {
        fill: #231f20;
      }
    </style>
  </defs>
  <path class="st0" d="M.339,3.145c.288-.971.864-1.751,1.655-2.327C4.021-.645,6.659.123,7.835,2.114c.18.288.132.516-.096.756-.503.503-1.007.983-1.499,1.475-.252.216-.372.204-.504-.108-.156-.372-.443-.66-.803-.828-.899-.456-1.283.671-1.379,1.307-.06.408,0,.815.024,1.224,0,.072.012.132.024.204.18.852.816,1.115,1.547.648.18-.132.336-.276.516-.42.276-.24.42-.252.66.036.456.527.912,1.103,1.355,1.691.288.372.264.552-.048.912-1.583,1.775-4.222,2.099-5.937.516C.603,8.602.075,7.403.027,5.964c-.012-.096-.012-.204-.024-.324v-.276c-.024-.768.096-1.5.335-2.219Z"/>
  <path class="st0" d="M12.492,8.362c-.072.456-.12.84-.192,1.248-.036.168-.06.324-.132.443-.072.204-.228.3-.479.3-.924-.012-1.847-.012-2.759-.012-.335,0-.54-.156-.54-.479,0-.384.024-.756.108-1.104.432-2.063.875-4.102,1.319-6.117.12-.576.324-1.104.503-1.643.204-.6.516-.804,1.151-.804,1.056,0,2.099.012,3.13-.012.48-.012.732.216.912.576.072.144.108.312.156.479.312,1.271.612,2.531.9,3.802.288,1.235.503,2.447.743,3.658.06.3.144.576.216.852.024.108.048.228.048.336.012.264-.096.384-.348.396h-.12c-.828.012-1.643.048-2.483.072-.396.012-.54-.096-.624-.48s-.12-.755-.168-1.104c-.036-.168-.048-.3-.072-.408h-1.271ZM12.673,6.228h.839c-.144-1.067-.288-2.075-.42-3.094-.192,1.031-.359,2.051-.419,3.094Z"/>
  <path class="st0" d="M24.479,4.884c.719.336,1.115.912,1.175,1.691.036.432.036.852.024,1.284,0,.384-.192.719-.396,1.031-.503.72-1.187,1.223-2.075,1.367-.42.072-.839.084-1.271.084-.792.012-1.607,0-2.447-.012-.228,0-.456-.024-.696-.048-.372-.036-.492-.144-.528-.552-.012-.18,0-.384-.012-.576-.168-1.943-.192-3.874-.18-5.805,0-.815-.024-1.619-.024-2.411,0-.132,0-.276.012-.42.06-.324.192-.419.503-.419,1.355.048,2.723-.048,4.042.12,1.787.24,2.603,1.379,2.291,3.119-.084.396-.324.792-.492,1.163-.036.084-.096.144-.144.24.084.06.144.096.216.144ZM22.176,3.769c.335-.048.419-.336.24-.6-.084-.132-.192-.252-.336-.3-.324-.096-.66-.048-.971-.012.012.36.036.636.048.983.348-.012.684-.012,1.02-.072ZM22.128,7.559c.312-.024.54-.192.576-.372.024-.216-.168-.492-.468-.6-.024-.012-.072-.024-.12-.024-.288-.024-.576-.024-.875-.024v1.02c.324,0,.6.024.887,0Z"/>
  <path class="st0" d="M32.615,4.884c.72.336,1.115.912,1.175,1.691.036.432.036.852.024,1.284,0,.384-.192.719-.396,1.031-.503.72-1.187,1.223-2.075,1.367-.42.072-.839.084-1.271.084-.792.012-1.607,0-2.446-.012-.228,0-.456-.024-.696-.048-.372-.036-.492-.144-.528-.552-.012-.18,0-.384-.012-.576-.168-1.943-.192-3.874-.18-5.805,0-.815-.024-1.619-.024-2.411,0-.132,0-.276.012-.42.06-.324.192-.419.503-.419,1.355.048,2.723-.048,4.042.12,1.787.24,2.603,1.379,2.291,3.119-.083.396-.324.792-.492,1.163-.036.084-.096.144-.144.24.084.06.144.096.216.144ZM30.313,3.769c.336-.048.419-.336.24-.6-.084-.132-.192-.252-.336-.3-.324-.096-.66-.048-.971-.012.012.36.036.636.048.983.348-.012.684-.012,1.02-.072ZM30.265,7.559c.312-.024.54-.192.575-.372.024-.216-.167-.492-.467-.6-.024-.012-.072-.024-.12-.024-.288-.024-.576-.024-.875-.024v1.02c.324,0,.6.024.888,0Z"/>
  <path class="st0" d="M38.46,8.362c-.072.456-.12.84-.192,1.248-.036.168-.06.324-.132.443-.072.204-.228.3-.479.3-.924-.012-1.847-.012-2.759-.012-.335,0-.54-.156-.54-.479,0-.384.024-.756.108-1.104.432-2.063.875-4.102,1.319-6.117.12-.576.324-1.104.503-1.643.204-.6.516-.804,1.151-.804,1.056,0,2.099.012,3.13-.012.48-.012.732.216.912.576.072.144.108.312.156.479.312,1.271.612,2.531.9,3.802.288,1.235.503,2.447.743,3.658.06.3.144.576.216.852.024.108.048.228.048.336.012.264-.096.384-.348.396h-.12c-.828.012-1.643.048-2.483.072-.396.012-.54-.096-.624-.48s-.12-.755-.168-1.104c-.036-.168-.048-.3-.072-.408h-1.271ZM38.64,6.228h.839c-.144-1.067-.288-2.075-.42-3.094-.192,1.031-.359,2.051-.419,3.094Z"/>
  <path class="st0" d="M48.024,6.54c-.216,0-.312-.096-.3-.3.024-.648.036-1.284.06-1.931,0-.204.096-.312.312-.288,1.067.024,2.111.036,3.167.084.611.083.851.635.815,1.127-.084,1.008.035,1.991-.192,2.962-.288,1.14-1.703,2.303-2.962,2.183-.516-.036-1.164.012-1.691-.012-1.595-.096-3.058-1.559-3.13-2.95-.048-.983-.084-2.003-.108-2.975-.048-2.687,1.799-4.354,4.282-4.438,1.5-.048,3.058.48,3.682,2.303.084.216-.048.372-.288.48-.659.312-1.319.647-1.991.959-.239.12-.323.084-.491-.144-.528-.731-1.271-.647-1.619.108-.372.863-.504,2.807.024,3.586.144.216.503.324.779.276.54-.108.624-.684.48-1.02-.216,0-.576-.012-.828-.012Z"/>
  <path class="st0" d="M55.525,3.997c.731.072,1.463.072,2.183.084.408.012.479.096.516.468.024.564.036,1.092.048,1.667,0,.24-.096.372-.348.408-.239.036-.455.036-.695.036-.552.036-1.079,0-1.644,0v.312c.852.06,1.728.036,2.579.048.323,0,.647.012.947.048.396.048.588.228.588.612.012.696.012,1.391,0,2.087-.012.408-.204.588-.647.588h-5.481c-.527,0-.768-.228-.84-.744-.048-.468-.096-.924-.084-1.403.024-2.267.061-4.558.084-6.848,0-.084,0-.168.024-.264.072-.684.312-.947,1.02-.971,1.031-.012,2.026,0,3.059-.012.443,0,.936-.036,1.391-.036.324,0,.636.024.936.048.252.012.36.18.408.36.048.132.048.3.06.443v1.871c-.012.516-.168.696-.695.696-.996-.012-1.979-.036-2.975-.072h-.432v.576Z"/>
  <path class="st0" d="M62.384,3.705v-.312c.06-.492.228-.647.707-.647.84,0,1.655,0,2.495.024.516.024,1.031.048,1.535.156,1.379.276,2.267,1.151,2.627,2.507.3.995.396,2.039.323,3.106-.06.72-.288,1.451-.623,2.111-.66,1.14-1.607,1.907-2.915,2.207-.407.096-.827.144-1.247.144-.72-.012-1.415-.012-2.123-.012-.504,0-.707-.18-.707-.731-.013-1.463,0-2.854,0-4.246-.013-1.439-.061-2.854-.072-4.306ZM66.606,9.39c.036-.168.084-.348.084-.516,0-.54-.012-1.08-.036-1.619-.012-.24-.036-.479-.12-.731-.12-.432-.312-.732-.827-.6.036,1.223.096,2.663.132,3.91.479.108.672-.144.768-.444Z"/>
  <path class="st0" d="M78.016,11.105c0,.468.036.792.036,1.235-.013.443-.108.624-.528.635-.72.024-1.475.024-2.23,0-.408-.012-.659-.096-.695-.516-.048-.468.012-1.031-.024-1.487,0-.504-.228-.672-.707-.564.012.348.035.564.048.936.012.288.012.6,0,.912-.036.396-.24.647-.647.671-.672.048-1.332.06-2.016.012-.432-.012-.6-.216-.6-.672.024-2.051.024-3.97.036-6.021v-2.699c0-.479.18-.671.647-.684.936-.048,1.848-.072,2.771-.096.468,0,.936,0,1.415.012.552,0,1.08.156,1.56.432.443.264.695.647.888,1.079.443,1.02.636,3.298.216,4.27-.192.432-.504.828-.924,1.188.636.264.756.78.756,1.355ZM75.113,7.087c.012-.384,0-.815-.061-1.223-.06-.42-.323-.6-.755-.516-.204.024-.3.108-.288.324.048.671.107,1.343.156,2.015.552.3.936.048.947-.6Z"/>
  <path class="st0" d="M84.569,12.988c-1.056.072-2.135-.012-3.214.024-1.38.024-2.159-1.355-2.255-2.495-.156-1.475-.145-2.95-.061-4.425.024-.9.229-1.751.828-2.483.611-.755,1.799-.779,2.662-.828.636-.048,1.26-.024,1.907-.024,1.403,0,2.398.936,2.482,2.351.12,1.799.204,3.442.072,5.229-.036.563-.108,1.043-.348,1.511-.468.827-1.212,1.091-2.075,1.139ZM82.398,6.703c.012.732.012,1.463.024,2.219,0,1.559,1.487,1.319,1.487.108.012-.803.012-1.727-.024-2.542-.12-1.127-1.487-.744-1.487.216Z"/>
  <path class="st0" d="M91.517,2.697c.516,0,1.031.024,1.523.156,1.056.264,1.691,1.031,1.919,2.062.168.828.204,1.631.144,2.459-.155,1.979-1.763,3.106-3.729,3.022v.42c-.013.528,0,1.032-.013,1.571-.023.444-.167.563-.611.576-.983,0-1.655.012-2.65.024-.24,0-.359-.084-.396-.324-.024-.3-.048-.624-.048-.923-.024-2.255-.084-5.529-.084-7.784-.024-1.223-.072-1.187,1.319-1.235.875-.024,1.751-.072,2.626-.024ZM91.205,5.888v1.643c1.475.408,1.163-2.075,0-1.643Z"/>
</svg>