<?xml version="1.0" encoding="UTF-8"?>
<svg id="Layer_1" xmlns="http://www.w3.org/2000/svg" width="1.409in" height=".29in" version="1.1" viewBox="0 0 101.423 20.902">
  <!-- Generator: Adobe Illustrator 30.5.1, SVG Export Plug-In . SVG Version: 2.1.4 Build 3)  -->
  <defs>
    <style>
      .st0 {
        fill: #231f20;
      }
    </style>
  </defs>
  <g>
    <path class="st0" d="M23.702,10.321v2.106c0,1.624.351,2.838,1.053,3.644.702.806,1.672,1.208,2.909,1.208,1.108,0,1.971-.292,2.59-.875s.928-1.296.928-2.141h1.653c0,.509-.105,1.021-.314,1.537-.209.516-.516,1.005-.918,1.469-.403.464-.952.836-1.647,1.116-.696.28-1.489.42-2.377.42-1.714,0-3.067-.546-4.059-1.638-.993-1.092-1.489-2.663-1.489-4.711v-2.175c0-2.029.503-3.609,1.508-4.74,1.005-1.131,2.358-1.696,4.059-1.696.851,0,1.617.14,2.3.42.683.28,1.232.656,1.647,1.126.416.471.735.984.957,1.542.222.558.333,1.129.333,1.715h-1.653c0-.856-.322-1.617-.966-2.281-.645-.664-1.518-.995-2.619-.995-1.179,0-2.123.425-2.832,1.275-.709.851-1.063,2.075-1.063,3.673Z"/>
    <path class="st0" d="M44.616,16.98v1.527h-8.389V4.145h1.691v12.834h6.697Z"/>
    <path class="st0" d="M47.389,18.507h-1.729l5.171-14.361h1.633l5.151,14.361h-1.817l-1.488-4.426h-5.432l-1.488,4.426ZM51.632,6.214h-.058l-2.214,6.504h4.484l-2.213-6.504Z"/>
    <path class="st0" d="M59.103,14.66h1.691c.077.767.432,1.395,1.063,1.885.631.49,1.488.734,2.57.734,1.018,0,1.836-.235,2.455-.706.618-.47.928-1.108.928-1.914,0-.599-.192-1.087-.575-1.464-.384-.377-.984-.672-1.803-.884l-2.57-.686c-.967-.251-1.761-.68-2.383-1.286-.621-.605-.933-1.417-.933-2.436,0-.856.237-1.604.711-2.242.474-.638,1.075-1.106,1.807-1.406.731-.3,1.525-.45,2.383-.45.618,0,1.206.081,1.764.242.557.161,1.074.398,1.551.71s.858.738,1.146,1.275c.286.538.442,1.149.469,1.832h-1.691c-.077-.754-.395-1.364-.952-1.832-.558-.467-1.332-.701-2.324-.701-.935,0-1.694.214-2.28.643-.587.428-.88,1.032-.88,1.812,0,1.108.68,1.839,2.039,2.194l2.513.676c1.205.335,2.126.802,2.765,1.401.638.599.956,1.427.956,2.484,0,1.366-.499,2.418-1.498,3.155-.998.738-2.271,1.107-3.817,1.107-.883,0-1.665-.127-2.348-.382-.684-.254-1.213-.59-1.59-1.005s-.662-.855-.855-1.319-.297-.944-.31-1.44Z"/>
    <path class="st0" d="M71.714,14.66h1.691c.077.767.432,1.395,1.063,1.885.631.49,1.488.734,2.57.734,1.018,0,1.836-.235,2.455-.706.618-.47.928-1.108.928-1.914,0-.599-.192-1.087-.575-1.464-.384-.377-.984-.672-1.803-.884l-2.57-.686c-.967-.251-1.761-.68-2.383-1.286-.621-.605-.933-1.417-.933-2.436,0-.856.237-1.604.711-2.242.474-.638,1.075-1.106,1.807-1.406.731-.3,1.525-.45,2.383-.45.618,0,1.206.081,1.764.242.557.161,1.074.398,1.551.71s.858.738,1.146,1.275c.286.538.442,1.149.469,1.832h-1.691c-.077-.754-.395-1.364-.952-1.832-.558-.467-1.332-.701-2.324-.701-.935,0-1.694.214-2.28.643-.587.428-.88,1.032-.88,1.812,0,1.108.68,1.839,2.039,2.194l2.513.676c1.205.335,2.126.802,2.765,1.401.638.599.956,1.427.956,2.484,0,1.366-.499,2.418-1.498,3.155-.998.738-2.271,1.107-3.817,1.107-.883,0-1.665-.127-2.348-.382-.684-.254-1.213-.59-1.59-1.005s-.662-.855-.855-1.319-.297-.944-.31-1.44Z"/>
    <path class="st0" d="M87.12,18.507h-1.691V4.145h1.691v14.361Z"/>
    <path class="st0" d="M92.291,10.321v2.106c0,1.624.352,2.838,1.054,3.644.702.806,1.672,1.208,2.909,1.208,1.108,0,1.972-.292,2.59-.875s.928-1.296.928-2.141h1.652c0,.509-.104,1.021-.313,1.537-.21.516-.516,1.005-.918,1.469-.403.464-.952.836-1.648,1.116-.695.28-1.488.42-2.377.42-1.714,0-3.067-.546-4.06-1.638-.992-1.092-1.488-2.663-1.488-4.711v-2.175c0-2.029.503-3.609,1.508-4.74s2.358-1.696,4.06-1.696c.85,0,1.617.14,2.3.42s1.232.656,1.647,1.126c.416.471.734.984.957,1.542.223.558.333,1.129.333,1.715h-1.652c0-.856-.322-1.617-.967-2.281-.644-.664-1.517-.995-2.618-.995-1.18,0-2.123.425-2.832,1.275-.709.851-1.063,2.075-1.063,3.673Z"/>
  </g>
  <g>
    <polygon points="2.586 16.301 2.586 15.677 .66 15.677 .66 16.301 1.302 16.301 1.302 18.245 1.926 18.245 1.926 16.301 2.586 16.301"/>
    <polygon points="10.38 18.922 5.85 18.922 5.511 18.922 5.19 18.922 5.19 20.171 2.586 20.171 2.586 18.905 5.208 18.905 5.208 18.227 2.515 18.227 2.515 18.245 1.926 18.245 1.926 20.207 2.55 20.207 2.55 20.902 5.19 20.902 5.19 20.224 5.85 20.224 5.85 19.547 9.773 19.547 9.773 20.207 10.398 20.207 10.398 19.261 10.38 19.261 10.38 18.922"/>
    <rect x="10.415" y="20.189" width="2.586" height=".642"/>
    <rect x="10.402" y="15.649" width="1.339" height="1.326"/>
    <rect x="3.888" y="15.677" width="1.284" height="1.288"/>
    <rect x="2.586" y="14.999" width=".642" height=".624"/>
    <rect x="3.228" y="13.073" width=".678" height="1.926"/>
    <path d="M9.773,15.017v-.678h.642v-1.32h-5.226v.464h-.018v.838h.678v.696h3.924ZM5.868,13.697h3.906v.624h-3.906v-.624Z"/>
    <rect x="10.415" y="12.377" width="1.302" height=".642"/>
    <polygon points="13.001 15.659 13.001 14.999 12.359 14.999 12.359 13.037 11.717 13.037 11.717 15.035 12.359 15.035 12.359 15.659 13.001 15.659"/>
    <polygon points="15.623 13.697 14.981 13.697 14.981 15.641 13.037 15.641 13.037 16.319 13.661 16.319 13.661 18.28 13.037 18.28 13.018 18.241 10.414 18.241 10.433 18.922 13.037 18.922 13.037 20.189 13.679 20.189 13.679 18.922 14.285 18.922 14.285 18.655 14.285 18.298 14.285 16.319 14.999 16.319 14.999 15.659 15.623 15.659 15.623 13.697"/>
    <rect x="14.303" y="13.037" width=".66" height=".642"/>
    <rect x="13.001" y="12.377" width="1.302" height=".66"/>
    <polygon points="13.001 11.771 13.001 11.735 13.001 7.812 12.377 7.812 12.377 7.169 11.717 7.169 11.717 5.885 12.377 5.885 12.377 5.243 11.682 5.243 11.682 5.885 11.075 5.885 11.075 7.187 11.699 7.187 11.699 7.829 12.359 7.829 12.359 11.735 11.699 11.735 11.699 12.359 13.001 12.359 13.001 11.771"/>
    <rect x="3.906" y="12.377" width="1.284" height=".642"/>
    <rect y="13.679" width=".642" height="1.98"/>
    <polygon points="1.302 13.037 2.604 13.037 2.604 12.395 1.284 12.395 1.284 13.037 .642 13.037 .642 13.679 1.302 13.679 1.302 13.037"/>
    <polygon points="2.604 7.847 2.604 11.735 2.604 12.145 2.604 12.377 3.888 12.377 3.888 11.735 3.228 11.735 3.228 7.847 2.604 7.847"/>
    <rect x="3.246" y="7.169" width=".642" height=".678"/>
    <rect x="3.906" y="6.527" width=".642" height=".624"/>
    <polygon points="3.228 6.545 3.888 6.545 3.888 5.85 3.246 5.85 3.246 1.338 2.586 1.338 2.586 5.868 3.228 5.868 3.228 6.545"/>
    <rect x="3.228" y=".696" width=".66" height=".624"/>
    <polygon points="5.868 1.302 6.492 1.302 6.492 1.962 7.152 1.962 7.152 5.85 7.776 5.85 7.776 2.604 8.489 2.604 8.489 1.944 7.776 1.944 7.598 1.944 7.169 1.944 7.169 1.302 7.187 1.302 7.187 .66 6.492 .66 6.492 0 3.87 0 3.87 .678 5.868 .678 5.868 1.302"/>
    <polygon points="9.755 .66 11.664 .66 11.664 1.32 12.377 1.32 12.377 .642 11.699 .642 11.699 .018 9.096 .018 9.096 .642 8.454 .642 8.454 1.32 9.755 1.32 9.755 .66"/>
    <rect x="12.413" y="1.32" width=".589" height="3.941"/>
  </g>
</svg>