<?xml version="1.0" encoding="UTF-8"?>
<svg id="Layer_1" xmlns="http://www.w3.org/2000/svg" width="1.726in" height=".302in" version="1.1" viewBox="0 0 124.307 21.713">
  <!-- Generator: Adobe Illustrator 30.5.1, SVG Export Plug-In . SVG Version: 2.1.4 Build 3)  -->
  <defs>
    <style>
      .st0 {
        fill: #231f20;
      }
    </style>
  </defs>
  <path class="st0" d="M97.494,5.056c.153-.245.158-.609.013-.904l-.279-.279-.347-.107c-.867-.085-1.624-.527-2.089-1.268l-.602-.962c-1.06-1.692-3.383-2.053-4.899-.751l-.166.117-.075.1c-.498.549-.837,1.238-.891,2.008l-.074,1.05-.444.021c-.637.078-1.13.617-1.132,1.269l-.008,1.99c-2.399.857-4.198,2.824-4.774,5.367-.504,2.224.079,4.677,1.635,6.466l.719.742c2.685,2.325,6.727,2.414,9.525.136l.404-.365c.023-.021.093-.072.106-.057l.114-.114c-.016-.012.037-.085.061-.111l.386-.424c1.483-1.815,1.973-4.236,1.451-6.386-.61-2.508-2.397-4.413-4.753-5.259l-.006-1.987c-.002-.817-.725-1.387-1.55-1.276l.061-.921c.045-.677.523-1.223,1.167-1.381.628-.154,1.306.092,1.67.666l.651,1.026c.714,1.126,1.886,1.833,3.198,2.002.375.048.711-.061.93-.41ZM86.397,16.84c.334.34.347.852.041,1.193-.302.337-.865.404-1.21.067-2.104-2.059-2.113-5.437-.042-7.521.338-.34.869-.34,1.206-.015.325.314.38.853.015,1.224-1.395,1.418-1.386,3.654-.011,5.053Z"/>
  <path class="st0" d="M10.614,7.425c-.035,0-.086-.018-.155-.052l-.207.155h-.052c0-.104-.035-.155-.104-.155h-.104c-.06,0-.095.034-.104.104v.104c0,.069.052.104.155.104v.052c-.224.173-.379.259-.466.259h-.052c0-.189-.829-.518-2.485-.983-.035,0-.121.121-.259.362v.621c.129.173.216.259.259.259h.104c.069,0,.104-.034.104-.104l.984.828c.518.276.777.432.777.467l-.155.207v.104c.138.207.259.414.362.621.293.155.483.328.569.518v.104c-.061,0-.146.035-.259.104.172.725.293,1.088.362,1.088l.104-.052c0,.155.104.276.311.362.241-.069.362-.225.362-.466.129,0,.215.017.259.052l.052-.104v-2.02c-.121-.138-.207-.362-.259-.673.086-.069.172-.104.259-.104v-1.295l-.362-.207v-.259Z"/>
  <path class="st0" d="M10.821,7.27c0,.077-.018.146-.052.207l.104.052.104-.052-.052-.207h-.104Z"/>
  <path class="st0" d="M10.355,17.055c-.121.208-.259.312-.415.312-.207.561-.432,1.009-.673,1.346,0,.069.034.104.104.104,0,.328-.138.569-.414.725h-.155l-.208-.155c-.026,0-.216.139-.569.414,0-.034-.018-.052-.052-.052h-.052c-.104.294-.345.501-.725.622-.095.189-.233.328-.414.414.052.104.104.155.155.155l-.052.259.052.104c.518,0,1.104-.173,1.76-.518.208-.346.328-.518.363-.518.215-.415.561-.794,1.035-1.14,0-.388.208-.733.622-1.035,0,.034.017.052.052.052h.155l.052-.518c0-.346-.207-.535-.621-.57ZM9.889,18.505h-.104v-.155c0-.061.035-.095.104-.104h.052l-.052.259ZM10.096,18.04c-.052.104-.104.155-.155.155-.104-.052-.155-.104-.155-.155.095-.173.164-.259.207-.259h.104v.259Z"/>
  <rect class="st0" x="5.663" y="21.166" width=".116" height=".116" transform="translate(-8.887 4.799) rotate(-26.565)"/>
  <path class="st0" d="M5.747,6.959c-.69,0-1.036.086-1.036.259l-.259-.052-.104.052c0,.034.017.086.052.155,0,.138-.052.207-.155.207h-.155l-.207-.155h-.052c-.069.069-.242.155-.518.259-.052,0-.155.189-.311.569-.138-.052-.207-.104-.207-.155-.095,0-.354.19-.777.569l.052.259c0,.173-.069.276-.208.312,0-.035-.052-.069-.155-.104-.112,0-.285.208-.518.622l.052.104c0,.034-.035.052-.104.052-.492.664-.803,1.493-.932,2.485l.207.052v.259c-.25,0-.388.396-.414,1.19v.052c.034,0,.086-.017.155-.052.035,0,.086.018.155.052,0,.096-.035.199-.104.311l-.155-.104h-.052v.104c0,.906.069,1.597.207,2.071,0,.389.155.733.466,1.036-.052.104-.104.155-.155.155.069.224.19.5.363.828.207.268.311.44.311.518.034,0,.052-.018.052-.052.311.043.466.13.466.259l-.052.207c0,.337.483.785,1.45,1.347.095,0,.199-.034.311-.104.138,0,.207.034.207.104.595,0,1.044.104,1.346.311.207,0,.311.121.311.362h.155c.034,0,.086-.069.155-.207.026-.241.146-.448.362-.621v-.104c-.552-.432-.828-.69-.828-.777h-.104v.104h-.155c0-.086-.069-.207-.208-.362v-.052c0-.06.035-.095.104-.104l.104.052-.052-.518v-1.812c-.052-.104-.104-.155-.156-.155,0-.034.035-.172.104-.414v-.052c-.173-.207-.259-.328-.259-.362.207-.389.311-.751.311-1.087v-.726c0-.146-.035-.284-.104-.414.069,0,.104-.086.104-.259v-.104c-.242-.13-.363-.216-.363-.259v-.207c.242-.164.363-.319.363-.466v-.104h-.156v-.155h.156v-.104c-.208-.155-.311-.328-.311-.519h.052l.155.104h.104v-.569c-.276-.216-.415-.354-.415-.414,0-.13.069-.268.207-.414.069,0,.104.034.104.104.069,0,.104-.034.104-.104v-.362c0-.225.034-.466.104-.726l-.259.053-.104-.053c.043-.172.095-.259.155-.259h.156v.155h.104v-.155l-.207-.207v-.052c0-.06.034-.095.104-.104h.104l.155.104.104-.052c.06-.345.129-.518.207-.518.104.052.155.104.155.155.242,0,.362-.034.362-.104v-.259c0-.069-.069-.104-.207-.104-.069-.241-.155-.414-.259-.518v-.052h.207l.259.052v-.155c0-.061-.034-.095-.104-.104h-.104ZM4.66,9.652h.052v.259l-.104-.052c.035-.061.052-.13.052-.207Z"/>
  <path class="st0" d="M23.17,13.224v-.104c0-.095.034-.198.104-.311,0-.423-.121-.82-.362-1.191.034,0,.069-.052.104-.155,0-.336-.311-.768-.932-1.294,0-.13.069-.268.207-.414,0-.087-.069-.139-.207-.155-.302,0-.665-.311-1.087-.933l.052-.362c-.146,0-.233-.086-.259-.259-.242.069-.38.104-.414.104h-.155c-.276-.198-.415-.319-.415-.362v-.052h.104v-.052h-.415c0-.319-.207-.509-.621-.569,0,.181-.173.284-.518.311l-.155-.104c.069-.112.104-.216.104-.311l-.518-.052h-.052c-.061,0-.095.034-.104.104,0,.225.086.396.259.518v.207h-.052c-.061,0-.095-.034-.104-.104-.061,0-.095.034-.104.104v.207c0,.034.017.052.052.052.587.225.88.673.88,1.347v2.641h.104l.104-.052.104.155c-.207,0-.311.38-.311,1.139v.725c.172.13.259.216.259.259-.173.104-.259.173-.259.207,0,.069.069.104.207.104v.104c-.078.077-.147.319-.207.725v3.262h.052l.155-.104c0,.104.034.155.104.155l-.104.155c0,.242-.069.362-.207.362l-.415.726.052.104-.104.052h-.259c0,.077-.069.164-.207.259v.828l.052.104c.915,0,1.829-.311,2.744-.932v-.052l-.052-.104.155-.104h.104v.052c.138,0,.328-.104.57-.312.095-.241.198-.362.311-.362l-.052-.259.052-.104c.069,0,.104.069.104.207h.052c.052,0,.104-.068.155-.207,0-.034-.052-.052-.155-.052v-.104c0-.173.104-.311.311-.414.276,0,.483-.207.622-.621l-.156-.259c.069-.199.121-.44.156-.726h.052l.104.052-.052.363v.052h.155c0-.096.069-.319.207-.674-.242-.077-.362-.163-.362-.259,0-.095.086-.232.259-.414v-.466c0-.095.034-.198.104-.311-.035-.061-.052-.13-.052-.207v-.052c0-.061.121-.182.362-.362v-1.14c0-.207-.069-.311-.207-.311Z"/>
  <path class="st0" d="M16.439,7.995v.155c.181-.034.285-.052.311-.052v-.155c-.104,0-.155-.034-.155-.104-.104.052-.155.104-.155.155Z"/>
  <path class="st0" d="M16.646,21.146c-.061,0-.095.034-.104.104v.052h.155l.104-.052c0-.061-.035-.095-.104-.104h-.052Z"/>
  <path class="st0" d="M16.439,20.059c-.311-.276-.518-.415-.621-.415-.069,0-.19-.224-.363-.673.173-.146.259-.232.259-.259-.052-.104-.104-.155-.155-.155,0-.198.104-.371.311-.518v-1.709c0-.034-.018-.052-.052-.052-.121-.371-.225-.596-.311-.673v-.259c0-.138.035-.362.104-.673,0-.035-.034-.173-.104-.415,0-.095.121-.318.363-.673v-.259c0-.095-.035-.198-.104-.311l-.104.052h-.104c0-.104-.034-.225-.104-.362h.052l-.052-.362v-.466l.052-.312c-.035-.052-.069-.327-.104-.828.069-.587.173-.88.311-.88l.104.052.052-.104v-.414l-.052-.104c-.061,0-.147.034-.259.104l-.052-.104v-.156c.052-.104.104-.155.155-.155h.052l.156.104h.052v-.207l-.156-.207-.104.052h-.052v-.052c0-.284.293-.646.88-1.087v-.104h-.362l-1.243.362-.207-.052c-.078,0-.147.018-.207.052h-.052c0-.034.018-.086.052-.155v-.052h-.156c-.302.112-.889.612-1.76,1.501,0,.104.069.156.207.156,0,.311-.138.466-.414.466l-.104-.052c-.216.164-.492.733-.829,1.708l.155.207-.052.363c-.069,0-.104-.052-.104-.156h-.104c-.104.449-.155.777-.155.984.069.146.121.423.155.828-.173,0-.259.035-.259.104v.518c0,.276.017.639.052,1.088.311.164.466.336.466.518l-.052.259c.095,0,.164.225.207.673,0,.139-.069.207-.207.207v.207c0,.069.035.104.104.104,0,.25.208.698.622,1.346h.362c.276.268.466.51.57.725v.052l-.104.155v.052c.311.319.725.647,1.243.984l.311-.311h.052c.319.146.543.302.673.466l-.052.259c.052,0,.207.034.466.104.121-.207.208-.311.259-.311l.362.052.155-.104h.104l.104.052.052-.104v-.466c0-.061-.121-.13-.362-.207ZM11.261,14.259c-.061,0-.095-.034-.104-.104v-.104h.052c.069,0,.104.035.104.104l-.052.104Z"/>
  <path class="st0" d="M33.214,16.486h-.052c-.25,0-.423.173-.518.518l.052.26c-.138.052-.207.104-.207.155,0,.068.052.104.155.104v.104c-.199,0-.354.225-.466.673l.104.207c-.061.034-.13.052-.208.052-.526.725-.958,1.174-1.294,1.346l.052.104v.207c-.207,0-.431.104-.673.311h-.052c0-.155-.069-.276-.207-.362-.061,0-.095.034-.104.104v.259l.052.104.104-.052h.155l-.104.155v.155c0,.077.086.129.259.155l.259-.052.259.311h1.398l.311-.311h.362v.104c-.138.018-.207.069-.207.155v.052h.414c.069,0,.138-.173.207-.518l.415-.311v-.259c-.276-.173-.415-.363-.415-.57.138-.163.207-.336.207-.518l.104.052c.069,0,.104-.034.104-.104v-.673c0-.069-.069-.104-.208-.104v-.104h.208v-1.14c0-.379-.156-.569-.466-.569Z"/>
  <path class="st0" d="M30.056,8.46l.104-.052c-.138-.129-.207-.268-.207-.414,0-.061.034-.095.104-.104h.052l.104.052c0-.207-.121-.345-.362-.414l-.518.259c-.121-.069-.242-.173-.362-.311h-2.071c-.19.276-.328.414-.415.414-.121,0-.276-.138-.466-.414h-1.864c-.449.043-.673.216-.673.518v.052l.104.362c.552.207.829.362.829.466l.259-.052c.06,0,.112.155.155.467-.104.25-.155.439-.155.569l-.104-.052h-.052v3.986c0,.052.069.104.207.155l-.207.207v3.263c0,.043.086.112.259.207,0,.173-.086.311-.259.414v1.501c0,.087-.035.242-.104.467-.622.198-.932.439-.932.725v.052c0,.181.069.302.207.362h.052c0-.138.035-.207.104-.207h.104c.069.241.138.362.207.362h.208l.569-.207.362.104h.052c.147-.241.389-.362.725-.362.518.077.776.232.776.466h1.812c.069,0,.104-.034.104-.104l.155.104c.069,0,.104-.034.104-.104v-1.502h-.311v-.155l.311-.362v-1.656c0-.112-.052-.233-.155-.363.104,0,.155-.034.155-.104v-.414h-.311v-.052c0-.06.034-.095.104-.104h.052l.104.052.052-.104v-.259l-.155-.311c.104-.052.155-.104.155-.155v-.104c0-.061-.035-.095-.104-.104l.104-.155v-.933c0-.318-.018-.768-.052-1.346.034-.061.052-.146.052-.259-.207,0-.345-.173-.414-.518v-.052c.276-.095.414-.164.414-.207v-2.537c0-.069-.069-.104-.207-.104v-.052c0-.069.052-.104.155-.104.146-.346.285-.519.414-.519.311-.043.466-.163.466-.362l.207.104Z"/>
  <path class="st0" d="M45.887,13.224v-.104c0-.095.034-.198.104-.311,0-.423-.121-.82-.362-1.191.034,0,.069-.052.104-.155,0-.336-.311-.768-.932-1.294,0-.13.069-.268.207-.414,0-.087-.069-.139-.207-.155-.302,0-.665-.311-1.087-.933l.052-.362c-.146,0-.233-.086-.259-.259-.242.069-.38.104-.414.104h-.155c-.276-.198-.415-.319-.415-.362v-.052h.104v-.052h-.415c0-.319-.207-.509-.621-.569,0,.181-.173.284-.518.311l-.155-.104c.069-.112.104-.216.104-.311l-.518-.052h-.052c-.061,0-.095.034-.104.104,0,.225.086.396.259.518v.207h-.052c-.061,0-.095-.034-.104-.104-.061,0-.095.034-.104.104v.207c0,.034.017.052.052.052.587.225.88.673.88,1.347v2.641h.104l.104-.052.104.155c-.207,0-.311.38-.311,1.139v.725c.172.13.259.216.259.259-.173.104-.259.173-.259.207,0,.069.069.104.207.104v.104c-.078.077-.147.319-.207.725v3.262h.052l.155-.104c0,.104.034.155.104.155l-.104.155c0,.242-.069.362-.207.362l-.415.726.052.104-.104.052h-.259c0,.077-.069.164-.207.259v.828l.052.104c.915,0,1.829-.311,2.744-.932v-.052l-.052-.104.155-.104h.104v.052c.138,0,.328-.104.57-.312.095-.241.198-.362.311-.362l-.052-.259.052-.104c.069,0,.104.069.104.207h.052c.052,0,.104-.068.155-.207,0-.034-.052-.052-.155-.052v-.104c0-.173.104-.311.311-.414.276,0,.483-.207.622-.621l-.156-.259c.069-.199.121-.44.156-.726h.052l.104.052-.052.363v.052h.155c0-.096.069-.319.207-.674-.242-.077-.362-.163-.362-.259,0-.095.086-.232.259-.414v-.466c0-.095.034-.198.104-.311-.035-.061-.052-.13-.052-.207v-.052c0-.061.121-.182.362-.362v-1.14c0-.207-.069-.311-.207-.311Z"/>
  <path class="st0" d="M39.363,21.146c-.061,0-.095.034-.104.104v.052h.155l.104-.052c0-.061-.035-.095-.104-.104h-.052Z"/>
  <path class="st0" d="M39.156,7.995v.155c.181-.034.285-.052.311-.052v-.155c-.104,0-.155-.034-.155-.104-.104.052-.155.104-.155.155Z"/>
  <path class="st0" d="M39.156,20.059c-.311-.276-.518-.415-.621-.415-.069,0-.19-.224-.363-.673.173-.146.259-.232.259-.259-.052-.104-.104-.155-.155-.155,0-.198.104-.371.311-.518v-1.709c0-.034-.018-.052-.052-.052-.121-.371-.225-.596-.311-.673v-.259c0-.138.035-.362.104-.673,0-.035-.034-.173-.104-.415,0-.095.121-.318.363-.673v-.259c0-.095-.035-.198-.104-.311l-.104.052h-.104c0-.104-.034-.225-.104-.362h.052l-.052-.362v-.466l.052-.312c-.035-.052-.069-.327-.104-.828.069-.587.173-.88.311-.88l.104.052.052-.104v-.414l-.052-.104c-.061,0-.147.034-.259.104l-.052-.104v-.156c.052-.104.104-.155.155-.155h.052l.156.104h.052v-.207l-.156-.207-.104.052h-.052v-.052c0-.284.293-.646.88-1.087v-.104h-.362l-1.243.362-.207-.052c-.078,0-.147.018-.207.052h-.052c0-.034.018-.086.052-.155v-.052h-.156c-.302.112-.889.612-1.76,1.501,0,.104.069.156.207.156,0,.311-.138.466-.414.466l-.104-.052c-.216.164-.492.733-.829,1.708l.155.207-.052.363c-.069,0-.104-.052-.104-.156h-.104c-.104.449-.155.777-.155.984.069.146.121.423.155.828-.173,0-.259.035-.259.104v.518c0,.276.017.639.052,1.088.311.164.466.336.466.518l-.052.259c.095,0,.164.225.207.673,0,.139-.069.207-.207.207v.207c0,.069.035.104.104.104,0,.25.208.698.622,1.346h.362c.276.268.466.51.57.725v.052l-.104.155v.052c.311.319.725.647,1.243.984l.311-.311h.052c.319.146.543.302.673.466l-.052.259c.052,0,.207.034.466.104.121-.207.208-.311.259-.311l.362.052.155-.104h.104l.104.052.052-.104v-.466c0-.061-.121-.13-.362-.207ZM33.979,14.259c-.061,0-.095-.034-.104-.104v-.104h.052c.069,0,.104.035.104.104l-.052.104Z"/>
  <rect class="st0" x="47.233" y="11.67" width=".104" height=".208"/>
  <path class="st0" d="M59.298,19.023v-.052h.104l.104.052v-.052c-.113-.276-.25-.414-.414-.414-.199,0-.459.189-.777.569h-.104c-.104,0-.156-.12-.156-.362l-.258.052c-.061,0-.096-.034-.104-.104l.104-.155-.104-.155v-.259c0-.078.018-.146.051-.207.139,0,.207.034.207.104h.104v-1.347c0-.639-.275-1.156-.828-1.553-.111-.155-.457-.346-1.035-.569h-.052v.052l.052.259c-.034,0-.052.017-.052.052-.129,0-.302-.121-.518-.362l-.155.104h-.104c0-.242-.173-.363-.518-.363v-.052c.095,0,.319-.068.673-.207.241-.414.414-.621.518-.621.069,0,.104.034.104.104v.259c.19,0,.345-.104.466-.311.207,0,.414-.138.621-.414v-.311h.104v.104h.053c.137-.086.207-.155.207-.207v-.104h-.104v-.259c.275-.303.414-.562.414-.777.139-.189.207-.327.207-.414v-.518c0-.448-.104-.673-.311-.673-.043,0-.232-.362-.57-1.088-.207-.224-.311-.379-.311-.466,0-.25-.345-.509-1.035-.776l-.207.207h-.104l-.207-.207h-.104v.104h-.207v-.052c.052-.104.104-.155.155-.155,0-.052-.069-.104-.207-.155-.112.173-.337.276-.673.311-.061-.034-.129-.052-.207-.052s-.147.018-.207.052c-.794-.138-1.191-.276-1.191-.414h-.104c-.061,0-.095.034-.104.104v.776c0,.069.034.104.104.104l.259-.052.052.104c-.104,0-.155.035-.155.104v.104c.587.112.88.526.88,1.243v2.796l.155.259-.104.052c-.259.716-.415,1.079-.466,1.087h-.052c-.061,0-.095-.034-.104-.104-.216,0-.406.035-.569.104,0,.104.017.225.052.362-.035.182-.052.354-.052.519v.104c0,.068.224.155.673.259,0-.078.017-.146.052-.207l.155.104-.052.311c0,.069.035.104.104.104h.104c0-.104.035-.155.104-.155h.052l.052.259c-.078,0-.147.018-.208.052,0,.104.069.259.208.466,0,.052-.035.121-.104.207v.621c0,.069.052.104.155.104v.052c-.104,0-.155.035-.155.104v1.295c0,.846.224,1.502.673,1.968h.466l-.052.259c0,.225.311.396.932.518,0-.207.224-.311.674-.311l.518.052v.104l-.053.259c.096,0,.389-.052.881-.155.215-.173.371-.259.465-.259v-.155c.096-.311.199-.466.312-.466l.311.052c.24,0,.5-.38.775-1.14-.172,0-.258-.052-.258-.155Z"/>
  <path class="st0" d="M52.566,20.266v-.311c-.552-.069-.829-.276-.829-.622-.207-.06-.311-.129-.311-.207,0-.068.104-.189.311-.362v-1.605c-.138,0-.276-.189-.414-.569,0-.172.017-.432.052-.776-.035-.069-.052-.121-.052-.155.069,0,.104-.034.104-.104l.104.052c.138-.086.207-.155.207-.207v-.311c0-.069-.052-.104-.155-.104v-.052l.155-.207v-.933c-.173,0-.259-.052-.259-.155,0-.068.086-.104.259-.104v-4.349c0-.199-.018-.475-.052-.829.034,0,.052-.189.052-.569v-.466c0-.061-.035-.095-.104-.104h-2.796c-.078,0-.147.018-.207.052-.164.276-.596.414-1.294.414-.043-.034-.164-.052-.362-.052h-.156c-.104.052-.155.104-.155.155.026.104.147.189.363.259l-.052.259c.172.303.259.51.259.621.207.078.311.199.311.363l-.311.362v1.604c0,.069.069.104.207.104.043.216.112.389.207.519v.104c0,.198-.138.388-.414.569v2.33c.034,0,.086-.018.155-.052.104,0,.155.034.155.104l-.052.104-.259-.052v.673l.052.104c-.035,0-.052.018-.052.052v1.242c.129,0,.233.035.311.104-.009.199-.112.44-.311.726v1.397c0,.087-.035.242-.104.466-.406.164-.716.406-.932.726v.052c0,.276.19.448.569.518.078,0,.147-.018.208-.052l.311.052h1.76c0-.061-.035-.146-.104-.259,0-.052.069-.104.207-.155l.259.052.208-.104c0,.018.104.104.311.259,0,.034-.018.086-.052.155v.052h.104c.104-.052.155-.104.155-.155l-.104-.155c.276,0,.414-.034.414-.104l.207.104-.052.259v.052h1.036l.155-.104h.104l.155.104h.207c.483,0,.725-.189.725-.569v-.104c-.035,0-.086.017-.155.052-.173-.026-.259-.078-.259-.155ZM47.544,19.178h-.104v-.207h.155c0,.035.017.087.052.155l-.104.052ZM51.427,18.247l.207.052v.207h-.207c0-.034-.018-.086-.052-.155l.052-.104Z"/>
  <path class="st0" d="M53.861,7.477c.069,0,.104-.034.104-.104l-.052-.104-.207.104c0,.069.034.104.104.104h.052Z"/>
  <path class="st0" d="M79.621,16.745c-.035-.068-.052-.12-.052-.155-.139-.189-.208-.396-.208-.621l-.725-.88c-.086,0-.225.018-.414.052-.061,0-.095-.034-.104-.104,0-.061.034-.095.104-.104-.086-.173-.225-.259-.414-.259,0,.111-.018.198-.052.259-.319,0-.717-.139-1.191-.415-.086-.207-.207-.311-.362-.311,0-.068.069-.104.207-.104.095-.275.164-.414.207-.414.069.018.139.104.207.259.182-.259.319-.396.415-.414.06,0,.111.087.155.259.958-.396,1.527-.862,1.708-1.397.311-.449.467-.949.467-1.502v-.155c-.069-.596-.19-1.078-.363-1.449h-.155l-.052.207h-.052c-.018,0-.104-.069-.259-.207l.052-.26c-.129-.12-.268-.293-.414-.518l-.155.104h-.104c0-.189-.069-.379-.207-.569-.354.043-.562.095-.621.155h-.052v-.104c.138,0,.207-.086.207-.259-.225-.069-.38-.104-.466-.104h-.156v.155h-.155c0-.138-.068-.241-.207-.311h-.362l-.104.052c0-.026-.104-.078-.311-.155h-.259l.052.259h-.052c-.069,0-.104-.086-.104-.259h-.259c-.078,0-.147.018-.207.052-.061-.034-.13-.052-.207-.052h-.155c-.078,0-.147.018-.207.052-.061-.034-.13-.052-.208-.052h-.155c-.061,0-.095.034-.104.104v.518c.207,0,.311.173.311.518.726.155,1.088.656,1.088,1.502v2.33c0,.112-.052.302-.155.569l-.569.621-.312-.052c-.241.026-.362.078-.362.155v.104c.121.276.294.501.519.673l.104-.052c.275.139.482.26.621.363,0,.034-.018.052-.052.052,0,.448.052.673.155.673h.052l.155-.104v.052l-.052.259.104.052-.052.259h-.052c0-.104-.034-.155-.104-.155v.725c0,.104.104.155.311.155v.207c-.207.121-.311.26-.311.415,0,.034.017.086.052.155-.035.068-.052.12-.052.155,0,.225.034.483.104.776h-.052c-.069.621-.155,1.001-.259,1.139v.104l.104-.052h.155c0,.096-.035.199-.104.312-.242.025-.362.129-.362.311h-.104c-.104-.052-.155-.104-.155-.155-.483,0-.726.052-.726.155v.88c0,.069.035.104.104.104h1.605c.448,0,.673-.052.673-.155l-.052-.104.104-.052h.052c.052,0,.104.069.155.207.207,0,.604-.086,1.191-.259v-.104c-.035,0-.087-.018-.155-.052-.044,0-.182.052-.414.155v-.052c0-.018.068-.104.207-.259.509-.095.889-.216,1.139-.362.276-.319.414-.51.414-.57h.155c.268,0,.51-.345.726-1.035l-.312-.207h.052c.242,0,.363-.207.363-.621v-.518l-.207-.26.052-.311ZM76.98,7.891c.068,0,.104.034.104.104v.052c-.061-.034-.13-.052-.207-.052,0-.061.034-.095.104-.104ZM75.271,9.704c0-.035-.018-.087-.052-.155h.052c.069,0,.104.034.104.104v.052h-.104ZM75.53,10.998h-.052c-.061,0-.095-.034-.104-.104v-.052h.052c.069,0,.104.035.104.104v.052Z"/>
  <path class="st0" d="M76.72,14.363c0,.069.035.104.104.104h.208v-.104c-.078,0-.147-.017-.208-.052l-.104.052Z"/>
  <path class="st0" d="M78.74,8.719c0-.06-.034-.095-.104-.104v.052c0,.069.034.104.104.104v-.052Z"/>
  <path class="st0" d="M67.504,20.68c-.061,0-.095.034-.104.104,0,.173.052.276.155.311.069,0,.104-.034.104-.104v-.207c0-.061-.034-.095-.104-.104h-.052Z"/>
  <path class="st0" d="M72.786,7.736c-.061,0-.095.034-.104.104v.155c0,.069.034.104.104.104h.052c.069,0,.104-.034.104-.104v-.155c0-.061-.034-.095-.104-.104h-.052Z"/>
  <path class="st0" d="M72.527,8.564v-.518c-.087-.138-.155-.207-.207-.207h-.104l-.104.052c-.112-.198-.233-.337-.362-.414h-.155c-.069,0-.104.052-.104.155l-.312-.155-.155.104-.155-.104h-2.796l-.104.052v-.052c-.034,0-.086.018-.155.052-.173,0-.259.293-.259.88v.052c.587.13.88.371.88.726h.104l.104-.053c0,.035.035.053.104.053v.104h-.311v1.812l.052.104c-.034,0-.052.018-.052.052v.829l.052.259c-.034,0-.052.017-.052.052,0,.086.104.189.311.311v.311c-.104,0-.207.086-.311.259v.518c0,.061.087.112.259.155-.034.112-.104.182-.207.207l.155.57c-.138,0-.207.034-.207.104v2.019l.052.104.104-.052h.104v.259l.156.208v.311c0,.173-.069.276-.208.311l-.104-.052c-.061,0-.095.034-.104.104v1.656h.052l.207-.207v.052c0,.397-.104.69-.311.881-.345.104-.518.207-.518.311,0,.069.086.104.259.104.25,0,.475.155.674.466h.828c.095,0,.164-.121.207-.362h.104c.311.061.466.129.466.207-.173,0-.259.034-.259.104v.052h1.242l.104-.052c0,.034.017.052.052.052h1.294c.069,0,.104-.034.104-.104v-.518c-.216-.216-.354-.457-.414-.725.034,0,.086-.069.155-.208v-.311l.052-.362c-.034,0-.069-.052-.104-.155,0-.104.104-.189.311-.259-.104-.225-.155-.38-.155-.466.104,0,.155-.034.155-.104v-.466c0-.069-.069-.104-.207-.104v-.104c0-.018.069-.104.207-.26v-.466c-.207,0-.311-.138-.311-.414v-.155c.207-.276.311-.432.311-.466v-1.45l-.259-.311v-.104c0-.146.034-.284.104-.414l.104.052h.052v-2.02c-.173,0-.259-.052-.259-.155,0-.095.034-.198.104-.311,0-.034-.018-.086-.052-.155l.052-.207c-.086-.138-.155-.207-.207-.207.025-.104.095-.173.207-.207,0-.078-.052-.182-.155-.311v-.104c0-.043.104-.13.311-.259v-.415c-.276,0-.414-.172-.414-.518ZM72.682,15.451h.155v.207c-.104-.052-.155-.104-.155-.155v-.052Z"/>
  <path class="st0" d="M73.924,8.512v-.104l-.052-.104c-.061,0-.095.035-.104.104v.104l.052.104c.069,0,.104-.034.104-.104Z"/>
  <path class="st0" d="M111.207,21.249c.034,0,.052.018.052.052.25,0,.44-.104.569-.311v-.104c-.414.034-.621.155-.621.362Z"/>
  <path class="st0" d="M105.718,20.37c0-.035.018-.087.052-.155-.034,0-.052-.018-.052-.052-.345.086-.518.172-.518.259v.104h.104c.104,0,.155-.069.155-.207l.104.052h.155Z"/>
  <path class="st0" d="M100.799,20.163c-.034.068-.052.12-.052.155-.146-.104-.284-.155-.414-.155,0-.285-.104-.51-.311-.674,0,.139-.034.207-.104.207-.259-.25-.432-.63-.518-1.139l.414-.466v-2.123c0-.052-.069-.104-.207-.155,0-.061.018-.233.052-.518h.052v.155h.104v-.104c0-.104-.052-.311-.155-.621h-.104v.104l.052.104c-.043,0-.078.068-.104.207-.078,0-.13-.087-.155-.259l.104-.363.104.053-.725-2.175h-.104v1.139c0,.069.052.104.155.104v.155c-.104,0-.155.035-.155.104v1.191c0,.069.086.104.259.104v.311c0,.069-.087.104-.259.104v1.709c0,.068.086.104.259.104v.104c-.173.009-.259.061-.259.155v.362c.25,0,.388.155.414.466,0,.173-.104.38-.311.621l-.155-.104h-.052c0,.121-.052.276-.156.466.035,0,.052.018.052.052l.104-.052h.104c0,.035.017.087.052.155l-.155.104-.26-.052-.155.207.104.156-.259.311c-.034,0-.052-.018-.052-.052-.034,0-.052.017-.052.052l-.207-.104c-.311.138-.466.311-.466.518v.155c.086.138.155.207.207.207l.311-.052.259.207h.052l-.052-.259c.035,0,.087-.018.155-.052,0,.034.018.086.052.155l-.052.104.104.052h.726c.068-.018.138-.104.207-.259.155,0,.345.086.569.259h.362c.069-.018.138-.104.207-.259.276-.034.466-.104.569-.207h.104l.26.052.052-.104c0-.241-.19-.449-.57-.621Z"/>
  <path class="st0" d="M100.851,21.198v.052h.052c.173,0,.276-.052.311-.155v-.052c-.241.034-.362.086-.362.155Z"/>
  <path class="st0" d="M102.922,8.616l.104-.052c-.034-.06-.052-.129-.052-.207h-.104l-.052.259h.104Z"/>
  <path class="st0" d="M104.942,14.363l.259.052c.104-.207.207-.518.311-.932,0-.077-.018-.146-.052-.207.034-.189.052-.345.052-.466v-1.347c0-.06-.104-.111-.311-.155-.354,1.183-.562,1.786-.621,1.812-.139-.518-.397-1.277-.777-2.278-.216,0-.371-.086-.466-.259v-.207c.095-.173.164-.259.207-.259-.25-.837-.423-1.286-.518-1.347h-.052l-.104.052c-.241-.293-.362-.466-.362-.518.025-.104.13-.189.311-.259,0-.025-.052-.077-.155-.155-.449,0-.794-.138-1.035-.414h-.311c-.069,0-.104.069-.104.207h-.104l-.104-.052.052-.104v-.052h-.518l-.259.052c0-.034-.052-.052-.155-.052h-.311c-.104.173-.225.259-.362.259l.052-.259h-.776c0,.034.017.086.052.155,0,.034-.052.069-.155.104-.069,0-.104-.086-.104-.259h-.673c-.448.043-.673.216-.673.518v.052c0,.242.121.414.362.518h.104l-.052-.104h.414v.104h-.259v.104c.311,0,.553.139.725.414.233.164.354.303.363.415,0,.068-.035.104-.104.104.621,1.993.966,3.028,1.035,3.106.034,0,.086-.018.155-.052l.466.725c0,.034-.086.173-.259.414l.052.259h.104v-.207h.155v.207c0,.069-.052.104-.155.104v.104l.621,1.864c0,.38.173.569.519.569v.052h-.26v.207l.26-.052.104.052c0,.087-.069.19-.207.312,0,.068.086.396.259.983.068.164.241.336.518.518v.259c-.035,0-.087.018-.155.052.284,1.14.491,1.709.621,1.709h.414l.518-.673c0-.035-.034-.173-.104-.415h.052c.242,0,.362-.207.362-.621h-.104v-.155c.225-.164.363-.423.415-.776,0-.069-.069-.155-.208-.259l.053-.259c.259,0,.414-.155.466-.467-.035-.06-.052-.129-.052-.207.138-.172.207-.275.207-.311l-.207-.207v-.104c.095-.173.163-.259.207-.259l.104.052c.138-.276.207-.5.207-.673v-.052c-.104,0-.155-.086-.155-.259.276-.095.414-.233.414-.414l-.207-.26v-.104ZM99.505,11.412l-.155-.104c.034-.052.052-.155.052-.311h.104l.104.052c-.069.173-.104.294-.104.362Z"/>
  <path class="st0" d="M105.511,10.894v-.518h-.104c0,.146-.034.285-.104.414,0,.069.034.104.104.104h.104Z"/>
  <path class="st0" d="M111.879,7.995c0-.302-.224-.475-.673-.518h-2.02c0,.138-.052.207-.155.207-.034-.061-.052-.13-.052-.207h-.466c-.069,0-.104.069-.104.207h-.259l-.259.155h-.104v-.207l.362-.052v-.104h-1.709c-.06,0-.095.034-.104.104v.569l.312.414v.155c-.208.276-.312.432-.312.467v.466c0,.069.035.104.104.104l-.104.155v1.139c.242.018.363.139.363.362-.225.087-.346.173-.363.259v.984c.173.138.276.345.312.621-.035.207-.139.38-.312.518v.777h.104c.018-.139.069-.208.155-.208.104.052.156.104.156.155v.156c0,.172-.052.275-.156.311h-.104l-.104-.052-.052.104v.414l.207.362c-.138.086-.207.155-.207.207l.104.155v.052l-.104.155v.518c0,.104.052.242.155.415-.068.034-.12.052-.155.052v.104l.155.259-.104.052c0,.173.087.38.26.621-.208.225-.312.345-.312.362v.466l.052.104.207-.104c.069.035.121.052.156.052v.052c0,.242-.035.362-.104.362,0,.371-.225.647-.674.829h-.104l-.259-.052-.052.259v.052c.018.086.138.173.362.259.104,0,.155-.034.155-.104.078,0,.146.018.207.052l.207-.104.26.052v.052c0,.069-.052.104-.156.104v.052c.053.104.104.155.156.155h1.708c.276-.155.414-.259.414-.311.155.138.242.207.259.207h.208c0-.078.017-.146.052-.207.224.052.396.155.518.311h.88c.104,0,.155-.121.155-.362h.362c.078,0,.146-.121.207-.362.146.069.251.104.311.104,0-.242-.068-.362-.207-.362h-.052c0,.086-.034.173-.104.259-.069,0-.225-.104-.466-.311-.069,0-.138-.139-.207-.415.034,0,.052-.017.052-.052v-3.158l-.362-.311c0-.095.034-.198.104-.311-.104-.164-.173-.44-.207-.828,0-.483.155-.846.466-1.088v-3.003l-.052-.104c.034,0,.052-.017.052-.052v-.518l-.155-.207v-.155c.104,0,.155-.034.155-.104v-.776l.052-.26c-.138-.086-.207-.155-.207-.207,0-.06.034-.095.104-.104h.362c.38,0,.621-.155.725-.466-.068-.034-.12-.052-.155-.052v-.052c.035,0,.087-.018.155-.052Z"/>
  <path class="st0" d="M118.456,8.512v-.104l-.052-.104c-.061,0-.095.035-.104.104v.104l.052.104c.069,0,.104-.034.104-.104Z"/>
  <path class="st0" d="M123.271,8.719c0-.06-.034-.095-.104-.104v.052c0,.069.034.104.104.104v-.052Z"/>
  <path class="st0" d="M121.251,14.363c0,.069.035.104.104.104h.208v-.104c-.078,0-.147-.017-.208-.052l-.104.052Z"/>
  <path class="st0" d="M124.307,17.833v-.518l-.207-.26.052-.311c-.035-.068-.052-.12-.052-.155-.139-.189-.208-.396-.208-.621l-.725-.88c-.086,0-.225.018-.414.052-.061,0-.095-.034-.104-.104,0-.061.034-.095.104-.104-.086-.173-.225-.259-.414-.259,0,.111-.018.198-.052.259-.319,0-.717-.139-1.191-.415-.086-.207-.207-.311-.362-.311,0-.068.069-.104.207-.104.095-.275.164-.414.207-.414.069.018.139.104.207.259.182-.259.319-.396.415-.414.06,0,.111.087.155.259.958-.396,1.527-.862,1.708-1.397.311-.449.467-.949.467-1.502v-.155c-.069-.596-.19-1.078-.363-1.449h-.155l-.052.207h-.052c-.018,0-.104-.069-.259-.207l.052-.26c-.129-.12-.268-.293-.414-.518l-.155.104h-.104c0-.189-.069-.379-.207-.569-.354.043-.562.095-.621.155h-.052v-.104c.138,0,.207-.086.207-.259-.225-.069-.38-.104-.466-.104h-.156v.155h-.155c0-.138-.068-.241-.207-.311h-.362l-.104.052c0-.026-.104-.078-.311-.155h-.259l.052.259h-.052c-.069,0-.104-.086-.104-.259h-.259c-.078,0-.147.018-.207.052-.061-.034-.13-.052-.207-.052h-.155c-.078,0-.147.018-.207.052-.061-.034-.13-.052-.208-.052h-.155c-.061,0-.095.034-.104.104v.518c.207,0,.311.173.311.518.726.155,1.088.656,1.088,1.502v2.33c0,.112-.052.302-.155.569l-.569.621-.312-.052c-.241.026-.362.078-.362.155v.104c.121.276.294.501.519.673l.104-.052c.275.139.482.26.621.363,0,.034-.018.052-.052.052,0,.448.052.673.155.673h.052l.155-.104v.052l-.052.259.104.052-.052.259h-.052c0-.104-.034-.155-.104-.155v.725c0,.104.104.155.311.155v.207c-.207.121-.311.26-.311.415,0,.034.017.086.052.155-.035.068-.052.12-.052.155,0,.225.034.483.104.776h-.052c-.069.621-.155,1.001-.259,1.139v.104l.104-.052h.155c0,.096-.035.199-.104.312-.242.025-.362.129-.362.311h-.104c-.104-.052-.155-.104-.155-.155-.483,0-.726.052-.726.155v.88c0,.069.035.104.104.104h1.605c.448,0,.673-.052.673-.155l-.052-.104.104-.052h.052c.052,0,.104.069.155.207.207,0,.604-.086,1.191-.259v-.104c-.035,0-.087-.018-.155-.052-.044,0-.182.052-.414.155v-.052c0-.018.068-.104.207-.259.509-.095.889-.216,1.139-.362.276-.319.414-.51.414-.57h.155c.268,0,.51-.345.726-1.035l-.312-.207h.052c.242,0,.363-.207.363-.621ZM121.511,7.891c.068,0,.104.034.104.104v.052c-.061-.034-.13-.052-.207-.052,0-.061.034-.095.104-.104ZM119.802,9.704c0-.035-.018-.087-.052-.155h.052c.069,0,.104.034.104.104v.052h-.104ZM120.061,10.998h-.052c-.061,0-.095-.034-.104-.104v-.052h.052c.069,0,.104.035.104.104v.052Z"/>
  <path class="st0" d="M117.317,7.736c-.061,0-.095.034-.104.104v.155c0,.069.034.104.104.104h.052c.069,0,.104-.034.104-.104v-.155c0-.061-.034-.095-.104-.104h-.052Z"/>
  <path class="st0" d="M117.058,8.564v-.518c-.087-.138-.155-.207-.207-.207h-.104l-.104.052c-.112-.198-.233-.337-.362-.414h-.155c-.069,0-.104.052-.104.155l-.312-.155-.155.104-.155-.104h-2.796l-.104.052v-.052c-.034,0-.086.018-.155.052-.173,0-.259.293-.259.88v.052c.587.13.88.371.88.726h.104l.104-.053c0,.035.035.053.104.053v.104h-.311v1.812l.052.104c-.034,0-.052.018-.052.052v.829l.052.259c-.034,0-.052.017-.052.052,0,.086.104.189.311.311v.311c-.104,0-.207.086-.311.259v.518c0,.061.087.112.259.155-.034.112-.104.182-.207.207l.155.57c-.138,0-.207.034-.207.104v2.019l.052.104.104-.052h.104v.259l.156.208v.311c0,.173-.069.276-.208.311l-.104-.052c-.061,0-.095.034-.104.104v1.656h.052l.207-.207v.052c0,.397-.104.69-.311.881-.345.104-.518.207-.518.311,0,.069.086.104.259.104.25,0,.475.155.674.466h.828c.095,0,.164-.121.207-.362h.104c.311.061.466.129.466.207-.173,0-.259.034-.259.104v.052h1.242l.104-.052c0,.034.017.052.052.052h1.294c.069,0,.104-.034.104-.104v-.518c-.216-.216-.354-.457-.414-.725.034,0,.086-.069.155-.208v-.311l.052-.362c-.034,0-.069-.052-.104-.155,0-.104.104-.189.311-.259-.104-.225-.155-.38-.155-.466.104,0,.155-.034.155-.104v-.466c0-.069-.069-.104-.207-.104v-.104c0-.018.069-.104.207-.26v-.466c-.207,0-.311-.138-.311-.414v-.155c.207-.276.311-.432.311-.466v-1.45l-.259-.311v-.104c0-.146.034-.284.104-.414l.104.052h.052v-2.02c-.173,0-.259-.052-.259-.155,0-.095.034-.198.104-.311,0-.034-.018-.086-.052-.155l.052-.207c-.086-.138-.155-.207-.207-.207.025-.104.095-.173.207-.207,0-.078-.052-.182-.155-.311v-.104c0-.043.104-.13.311-.259v-.415c-.276,0-.414-.172-.414-.518ZM117.213,15.451h.155v.207c-.104-.052-.155-.104-.155-.155v-.052Z"/>
  <path class="st0" d="M112.036,20.68c-.061,0-.095.034-.104.104,0,.173.052.276.155.311.069,0,.104-.034.104-.104v-.207c0-.061-.034-.095-.104-.104h-.052Z"/>
</svg>