<?xml version="1.0" encoding="UTF-8"?>
<svg id="Layer_1" xmlns="http://www.w3.org/2000/svg" width="1.516in" height=".315in" version="1.1" viewBox="0 0 109.173 22.687">
  <!-- Generator: Adobe Illustrator 30.5.1, SVG Export Plug-In . SVG Version: 2.1.4 Build 3)  -->
  <defs>
    <style>
      .st0 {
        fill: #e3e3e3;
      }

      .st1 {
        fill: #414042;
      }

      .st2 {
        fill: #aaa;
      }

      .st3 {
        fill: #c9c9c9;
      }

      .st4 {
        fill: #bfbfbf;
      }
    </style>
  </defs>
  <g>
    <path class="st1" d="M6.592,18.122c-.851,0-1.68-.159-2.488-.476-.808-.317-1.536-.799-2.182-1.446-.623-.634-1.099-1.35-1.428-2.146-.329-.796-.494-1.637-.494-2.523,0-.898.165-1.745.494-2.542.329-.796.805-1.505,1.428-2.128.646-.646,1.376-1.131,2.191-1.455s1.644-.485,2.488-.485,1.67.162,2.479.485c.809.323,1.536.808,2.183,1.455l-2.138,2.138c-.347-.347-.743-.608-1.186-.782-.443-.173-.892-.26-1.347-.26s-.901.087-1.338.26c-.437.174-.829.435-1.176.782-.335.347-.593.736-.772,1.167-.18.431-.27.886-.27,1.365s.09.931.27,1.356c.18.425.437.812.772,1.159.347.348.739.608,1.176.781.437.174.883.261,1.338.261s.904-.087,1.347-.261c.443-.173.838-.434,1.186-.781l2.138,2.155c-.647.647-1.372,1.129-2.173,1.446-.803.317-1.635.476-2.497.476Z"/>
    <path class="st1" d="M17.108,4.938c.909,0,1.763.174,2.564.521.801.348,1.501.817,2.099,1.41.598.593,1.07,1.29,1.417,2.092.347.802.521,1.659.521,2.568s-.173,1.767-.521,2.568c-.347.803-.819,1.5-1.417,2.093-.598.593-1.297,1.062-2.099,1.41-.801.348-1.656.521-2.564.521s-1.764-.173-2.565-.521c-.801-.347-1.498-.817-2.089-1.41-.592-.593-1.062-1.29-1.408-2.093-.347-.802-.52-1.658-.52-2.568s.173-1.766.52-2.568.816-1.5,1.408-2.092c.592-.593,1.288-1.062,2.089-1.41.801-.347,1.657-.521,2.565-.521ZM17.117,15.087c.491,0,.952-.093,1.383-.279.431-.185.809-.44,1.132-.763s.578-.701.763-1.131c.186-.431.278-.892.278-1.383s-.093-.952-.278-1.383-.44-.808-.763-1.132c-.323-.323-.701-.577-1.132-.763-.431-.186-.892-.278-1.383-.278s-.952.093-1.383.278c-.431.186-.809.44-1.132.763-.323.324-.578.701-.763,1.132-.186.431-.278.892-.278,1.383s.092.952.278,1.383c.186.431.44.808.763,1.131s.701.578,1.132.763c.431.186.892.279,1.383.279Z"/>
    <path class="st1" d="M24.625,18.14V4.938h3.036v10.166h4.813v3.036h-7.849Z"/>
    <path class="st1" d="M38.643,4.938c.909,0,1.763.174,2.564.521.801.348,1.501.817,2.099,1.41.598.593,1.07,1.29,1.417,2.092.347.802.521,1.659.521,2.568s-.173,1.767-.521,2.568c-.347.803-.819,1.5-1.417,2.093-.598.593-1.297,1.062-2.099,1.41-.801.348-1.656.521-2.564.521s-1.764-.173-2.565-.521c-.801-.347-1.498-.817-2.089-1.41-.592-.593-1.062-1.29-1.408-2.093-.347-.802-.52-1.658-.52-2.568s.173-1.766.52-2.568.816-1.5,1.408-2.092c.592-.593,1.288-1.062,2.089-1.41.801-.347,1.657-.521,2.565-.521ZM38.652,15.087c.491,0,.952-.093,1.383-.279.431-.185.809-.44,1.132-.763s.578-.701.763-1.131c.186-.431.278-.892.278-1.383s-.093-.952-.278-1.383-.44-.808-.763-1.132c-.323-.323-.701-.577-1.132-.763-.431-.186-.892-.278-1.383-.278s-.952.093-1.383.278c-.431.186-.809.44-1.132.763-.323.324-.578.701-.763,1.132-.186.431-.278.892-.278,1.383s.092.952.278,1.383c.186.431.44.808.763,1.131s.701.578,1.132.763c.431.186.892.279,1.383.279Z"/>
    <path class="st1" d="M50.147,14.727c-.156.024-.312.042-.467.054-.156.012-.317.024-.485.036v3.323h-3.036V5.01h3.036c.754.012,1.46.15,2.119.413.659.263,1.236.616,1.733,1.059.497.442.886.957,1.167,1.542.282.586.423,1.213.423,1.883,0,.706-.15,1.36-.449,1.964-.3.604-.719,1.127-1.258,1.569l2.91,4.699h-3.575l-2.12-3.413ZM49.195,11.763c.323-.012.631-.068.925-.17.293-.102.551-.236.772-.404.221-.167.395-.362.521-.583.125-.222.188-.458.188-.709s-.063-.485-.188-.701c-.126-.215-.3-.407-.521-.575-.222-.167-.479-.302-.772-.404-.293-.102-.602-.158-.925-.17v3.718Z"/>
    <path class="st2" d="M72.909,18.14V4.938h3.035v10.166h4.813v3.036h-7.849Z"/>
    <path class="st4" d="M82.555,18.14V4.938h3.035v13.202h-3.035Z"/>
    <path class="st3" d="M98.019,4.956v13.184h-3.287l-4.311-7.688v7.688h-3.035V4.992h3.305l4.293,7.669v-7.706h3.035Z"/>
    <path class="st0" d="M102.851,4.902c.874.048,1.697.257,2.47.628.772.372,1.442.856,2.012,1.455.568.599,1.018,1.293,1.347,2.083.329.79.494,1.634.494,2.532,0,.886-.162,1.715-.485,2.488s-.77,1.452-1.338,2.039c-.568.587-1.236,1.057-2.003,1.41-.766.353-1.598.554-2.496.602h-3.035V4.884h3.035v.018ZM102.851,15.087c.467-.048.9-.171,1.302-.368.401-.198.749-.449,1.042-.754.293-.306.523-.662.691-1.069s.252-.838.252-1.293c0-.467-.084-.913-.252-1.338-.168-.425-.401-.802-.7-1.132-.3-.329-.646-.598-1.042-.808-.395-.209-.826-.338-1.293-.386v7.149Z"/>
  </g>
  <g id="bNO7RD">
    <path d="M66.375.562c2.901.619,4.642,3.418,3.906,6.189-.73,2.749-3.551,4.383-6.409,3.49-.162.754-.162,1.454.002,2.205,2.845-.891,5.688.753,6.41,3.489.732,2.774-1.019,5.571-3.884,6.183-.222.24-.6.555-.864.568-.385.019-.786-.273-1.028-.561-2.101-.471-3.644-2.073-3.983-4.081-.353-2.085.603-4.136,2.515-5.23-.267-.962-.308-1.905.017-2.921-1.837-1.054-2.852-3.043-2.551-5.117s1.86-3.735,4-4.215c.219-.226.599-.542.863-.559.348-.023.737.212,1.007.56Z"/>
  </g>
</svg>