<?xml version="1.0" encoding="UTF-8"?>
<svg id="Layer_1" xmlns="http://www.w3.org/2000/svg" width="1.658in" height=".324in" version="1.1" viewBox="0 0 119.397 23.34">
  <!-- Generator: Adobe Illustrator 30.5.1, SVG Export Plug-In . SVG Version: 2.1.4 Build 3)  -->
  <defs>
    <style>
      .st0 {
        fill: #231f20;
      }
    </style>
  </defs>
  <g>
    <path class="st0" d="M7.828,20.278c-1.21,0-2.299-.202-3.267-.607s-1.789-.985-2.463-1.74c-.675-.755-1.193-1.677-1.555-2.764-.363-1.087-.543-2.309-.543-3.666s.181-2.577.543-3.66c.362-1.083.88-2.002,1.555-2.758.674-.755,1.496-1.335,2.463-1.74s2.056-.607,3.267-.607c.987,0,1.908.156,2.764.468.856.312,1.604.746,2.244,1.301.64.555,1.156,1.214,1.549,1.978s.621,1.6.682,2.509h-3.399c-.085-.478-.239-.914-.463-1.307s-.503-.729-.838-1.006c-.335-.277-.719-.491-1.15-.642s-.895-.226-1.388-.226c-.655,0-1.245.131-1.769.393-.524.262-.971.64-1.341,1.133-.37.494-.653,1.091-.85,1.792-.196.702-.295,1.492-.295,2.371s.099,1.671.295,2.376c.197.706.48,1.303.85,1.792.37.49.817.867,1.341,1.133.524.266,1.118.399,1.781.399.501,0,.967-.071,1.399-.214s.813-.345,1.145-.607c.332-.262.609-.578.833-.948.224-.37.377-.787.462-1.249h3.4c-.069.902-.299,1.727-.688,2.475-.39.748-.902,1.39-1.538,1.925-.636.536-1.382.952-2.237,1.249-.856.297-1.785.445-2.787.445Z"/>
    <path class="st0" d="M21.785,19.85h-3.492V3.164h7.008c.917,0,1.742.124,2.474.37s1.353.601,1.862,1.064c.509.462.9,1.023,1.174,1.682.273.659.411,1.405.411,2.238,0,.532-.068,1.042-.203,1.532-.135.489-.332.94-.59,1.353-.258.413-.576.777-.954,1.093-.378.316-.806.571-1.284.763l3.515,6.591h-3.955l-3.11-6.048h-2.856v6.048ZM21.785,11.119h3.064c.886,0,1.573-.224,2.058-.67.486-.447.729-1.076.729-1.885,0-.394-.065-.75-.196-1.07-.131-.32-.318-.592-.561-.815-.243-.223-.54-.395-.89-.514-.351-.12-.742-.18-1.174-.18h-3.03v5.134Z"/>
    <path class="st0" d="M65.315,3.164c.856,0,1.639.139,2.348.417.709.277,1.318.667,1.827,1.168.509.501.903,1.108,1.186,1.821.281.713.422,1.501.422,2.365,0,.856-.145,1.636-.434,2.342s-.698,1.311-1.226,1.815c-.528.505-1.156.895-1.885,1.168s-1.532.411-2.411.411h-3.296v5.18h-3.492V3.164h6.961ZM61.846,11.836h2.533c1.01,0,1.791-.247,2.342-.74s.827-1.21.827-2.151c0-.956-.274-1.681-.821-2.174-.548-.493-1.326-.74-2.336-.74h-2.544v5.805Z"/>
    <path class="st0" d="M81.272,3.164c.856,0,1.639.139,2.348.417.709.277,1.318.667,1.827,1.168.509.501.903,1.108,1.186,1.821.281.713.422,1.501.422,2.365,0,.856-.145,1.636-.434,2.342s-.698,1.311-1.226,1.815c-.528.505-1.156.895-1.885,1.168s-1.532.411-2.411.411h-3.296v5.18h-3.492V3.164h6.961ZM77.803,11.836h2.532c1.01,0,1.791-.247,2.342-.74s.827-1.21.827-2.151c0-.956-.274-1.681-.821-2.174-.548-.493-1.326-.74-2.336-.74h-2.544v5.805Z"/>
    <path class="st0" d="M101.324,19.85h-11.055V3.164h11.055v2.983h-7.562v3.897h7.135v2.764h-7.135v4.059h7.562v2.983Z"/>
    <path class="st0" d="M111.569,3.152c1.241,0,2.348.184,3.318.549.972.366,1.79.902,2.457,1.607s1.176,1.569,1.526,2.59.526,2.184.526,3.486c0,1.357-.174,2.561-.521,3.613-.347,1.053-.854,1.937-1.521,2.654-.667.717-1.485,1.263-2.457,1.636-.972.374-2.081.561-3.33.561h-6.568V3.152h6.568ZM108.493,16.867h2.521c1.55,0,2.741-.46,3.573-1.382.833-.921,1.249-2.268,1.249-4.042,0-.84-.109-1.59-.329-2.249s-.536-1.216-.948-1.671c-.413-.455-.918-.8-1.515-1.035-.598-.235-1.274-.353-2.03-.353h-2.521v10.731Z"/>
  </g>
  <g id="ON1A6s">
    <g>
      <path d="M52.11,19.93l-.009,2.658c-.002.471-.441.779-.861.75-.45-.031-.767-.396-.766-.855l.003-2.553h-14.066c-.39-.001-.781-.346-.781-.751l-.003-14.098-2.517.006c-.463.001-.837-.279-.889-.738-.045-.402.244-.884.711-.886l2.694-.012.003-2.621c0-.457.376-.787.801-.795.407-.007.824.305.825.76l.007,2.662h13.684s.455-.444.455-.444c.31-.302.808-.262,1.1.022.295.288.36.784.055,1.1l-.449.464v13.694s2.618.003,2.618.003c.47,0,.802.401.794.832-.008.449-.357.802-.831.802h-2.581ZM50.477,18.288V5.084s-13.214.002-13.214.002v12.054c.359-.428.911-.443,1.256-.085.337.348.315.889-.101,1.239l12.058-.006Z"/>
      <path d="M54.371,2.317c-.292.292-.794.201-1.055-.053-.295-.287-.333-.738-.091-1.078l1.026-1.012c.283-.28.784-.196,1.053.061.276.263.367.779.075,1.071l-1.009,1.011Z"/>
      <path d="M48.754,7.93c-.286.285-.779.18-1.041-.07-.264-.252-.375-.767-.094-1.049l1.035-1.038c.279-.28.788-.197,1.051.06.27.264.367.783.08,1.07l-1.031,1.027Z"/>
      <path d="M45.973,10.73c-.338.243-.781.199-1.058-.07-.285-.276-.331-.731-.097-1.067l1.037-1.036c.331-.232.769-.192,1.048.078.287.278.335.725.096,1.067l-1.026,1.028Z"/>
      <path d="M40.368,16.318c-.295.296-.786.195-1.052-.06-.271-.259-.376-.767-.084-1.06l1.015-1.019c.288-.289.788-.206,1.06.055.264.254.37.773.087,1.056l-1.026,1.028Z"/>
      <path d="M43.195,13.499c-.296.298-.805.227-1.081-.039-.273-.264-.365-.781-.078-1.068l1.001-1.005c.286-.288.792-.217,1.069.049.272.261.366.777.078,1.066l-.99.998Z"/>
    </g>
  </g>
</svg>