<?xml version="1.0" encoding="UTF-8"?>
<svg id="Layer_1" xmlns="http://www.w3.org/2000/svg" width="1.221in" height=".181in" version="1.1" viewBox="0 0 87.917 13.052">
  <!-- Generator: Adobe Illustrator 30.5.1, SVG Export Plug-In . SVG Version: 2.1.4 Build 3)  -->
  <defs>
    <style>
      .st0 {
        fill: #231f20;
      }
    </style>
  </defs>
  <path class="st0" d="M1.812,1.813v9.426h8.52v1.632H0V.181h10.333v1.632H1.812Z"/>
  <path class="st0" d="M23.565,12.871h-11.42L13.145.181h1.812l-.738,10.762,7.359-.066L20.752.181h1.813l1,12.689Z"/>
  <path class="st0" d="M37.886,6.979v5.892h-11.783V.181h10.876v5.167h-9.064v1.631h9.97ZM27.916,3.716h7.251v-1.903h-7.251v1.903ZM36.073,8.611h-8.158v2.628h8.158v-2.628Z"/>
  <path class="st0" d="M51.844,11.239v1.632h-4.713v-6.163h-5.438v6.163h-1.812V.181h11.783v6.526h-2.719v4.531h2.901ZM41.692,5.076h8.158V1.813h-8.158v3.263Z"/>
  <path class="st0" d="M59.003,1.813v9.426h4.079v1.632h-9.971v-1.632h4.079V1.813h-4.079V.181h9.971v1.632h-4.079Z"/>
  <path class="st0" d="M66.526,2.813v7.426l8.52-2v1.632l-10.333,3V.181l10.333,3v1.632l-8.52-2Z"/>
  <path class="st0" d="M78.672,5.801v1.359l9.245,3.988v1.903l-9.245-3.988v3.807h-1.813V.181h1.813v3.807l9.245-3.988v1.813l-9.245,3.988Z"/>
</svg>