<?xml version="1.0" encoding="UTF-8"?>
<svg id="Layer_1" xmlns="http://www.w3.org/2000/svg" width="1.116in" height=".265in" version="1.1" viewBox="0 0 80.336 19.044">
  <!-- Generator: Adobe Illustrator 30.5.1, SVG Export Plug-In . SVG Version: 2.1.4 Build 3)  -->
  <polygon points="25.469 .668 22.956 .668 22.956 18.21 30.446 18.21 30.446 15.697 25.469 15.697 25.469 .668"/>
  <path d="M34.856.668l-3.917,17.542h2.513l.739-3.77h3.425l.739,3.77h2.513L36.95.668h-2.094ZM34.634,12.076l1.231-6.356h.049l1.232,6.356h-2.513Z"/>
  <path d="M49.047,1.58c-.411-.345-.867-.607-1.367-.789-.501-.18-1.006-.271-1.516-.271s-1.014.091-1.515.271c-.501.181-.948.444-1.343.789-.411.361-.739.813-.985,1.355-.246.542-.37,1.167-.37,1.873v9.264c0,.739.124,1.372.37,1.897.247.526.575.961.985,1.306.395.361.842.632,1.343.813.501.18,1.006.271,1.515.271s1.014-.091,1.516-.271c.5-.181.957-.452,1.367-.813.394-.345.714-.78.961-1.306.246-.525.37-1.158.37-1.897v-5.519h-4.509v2.217h1.996v3.301c0,.608-.168,1.056-.505,1.343-.337.288-.735.431-1.195.431s-.858-.144-1.195-.431c-.337-.287-.505-.735-.505-1.343V4.808c0-.607.168-1.055.505-1.343.336-.287.735-.431,1.195-.431s.858.144,1.195.431c.336.288.505.735.505,1.343v.887h2.513v-.887c0-.706-.124-1.331-.37-1.873-.247-.542-.567-.994-.961-1.355Z"/>
  <path d="M59.543,1.58c-.411-.345-.867-.607-1.367-.789-.501-.18-1.006-.271-1.516-.271s-1.014.091-1.515.271c-.501.181-.948.444-1.343.789-.411.361-.739.813-.985,1.355-.246.542-.37,1.167-.37,1.873v9.264c0,.739.124,1.372.37,1.897.247.526.575.961.985,1.306.395.361.842.632,1.343.813.501.18,1.006.271,1.515.271s1.014-.091,1.516-.271c.5-.181.957-.452,1.367-.813.394-.345.714-.78.961-1.306.246-.525.37-1.158.37-1.897v-5.519h-4.509v2.217h1.996v3.301c0,.608-.168,1.056-.505,1.343-.337.288-.735.431-1.195.431s-.858-.144-1.195-.431c-.337-.287-.505-.735-.505-1.343V4.808c0-.607.168-1.055.505-1.343.336-.287.735-.431,1.195-.431s.858.144,1.195.431c.336.288.505.735.505,1.343v.887h2.513v-.887c0-.706-.124-1.331-.37-1.873-.247-.542-.567-.994-.961-1.355Z"/>
  <polygon points="63.09 18.21 70.581 18.21 70.581 15.697 65.603 15.697 65.603 10.548 69.94 10.548 69.94 8.183 65.603 8.183 65.603 3.034 70.581 3.034 70.581 .668 63.09 .668 63.09 18.21"/>
  <path d="M79.215,1.851c-.748-.789-1.845-1.183-3.289-1.183h-3.721v17.542h3.498c1.495,0,2.641-.39,3.438-1.17.797-.78,1.195-1.991,1.195-3.634V5.202c0-1.445-.374-2.562-1.121-3.351ZM77.823,13.652c0,.756-.147,1.31-.443,1.663-.296.354-.797.53-1.503.53h-1.158V3.034h1.158c.739,0,1.248.189,1.527.567s.419.912.419,1.601v8.451Z"/>
  <path d="M17.966,9.554c.033.03.047.042.037.033l-.015.042h-.003s-.021.043-.021.043l-.011-.091c.003-.015-.062-.017-.076-.012l-.039.07c.009-.008-.152-.029-.152-.029-2.212.454-4.196-.181-5.976-1.499-.755-.559-1.549-1.029-2.425-1.376-.874-.346-1.797-.572-2.726-.573l-.32-.021C3.853,6.172,1.759,7.261,0,8.821v4.084c1.265-1.126,2.708-2.006,4.347-2.431,2.036-.519,3.99-.206,5.837.758.568.297,1.082.634,1.597,1.014,2.844,2.098,5.901,2.064,8.862.236v-4.082c-.852.526-1.739.915-2.678,1.154ZM11.369,9.808c-.002.008-.028-.033-.032-.043-.003-.008.041.005.04.013l-.007.03Z"/>
  <path d="M.466,6.36c.698-.55,1.421-1.038,2.226-1.421,2.002-.952,4.101-1.145,6.207-.407.976.342,1.876.835,2.708,1.449.667.493,1.354.914,2.126,1.22,2.329.924,4.691.489,6.782-.788.062-.038.124-.076.119-.143-.003-.044.008-.651.008-.651v-3.36c-2.253,1.383-4.698,1.834-7.157.752-.667-.285-1.264-.661-1.848-1.093-.804-.594-1.668-1.077-2.605-1.422C5.725-.722,2.529.416,0,2.681l.007,4.055s.366-.303.458-.376Z"/>
  <path d="M2.528,13.218c-.922.468-1.766,1.063-2.528,1.748l.002,4.079c.842-.746,1.737-1.372,2.757-1.856.857-.401,1.731-.666,2.657-.774v-4.082c-1.032.118-1.979.433-2.888.885Z"/>
</svg>