<?xml version="1.0" encoding="UTF-8"?>
<svg id="Layer_1" xmlns="http://www.w3.org/2000/svg" width="1.488in" height=".588in" version="1.1" viewBox="0 0 107.167 42.33">
  <!-- Generator: Adobe Illustrator 30.5.1, SVG Export Plug-In . SVG Version: 2.1.4 Build 3)  -->
  <defs>
    <style>
      .st0 {
        fill: #fbbf24;
      }
    </style>
  </defs>
  <path class="st0" d="M81.524,38.067c-3.337.128-5.215-.454-5.427-4.619,5.818,1.324,13.538-1.844,13.538-8.584,0-3.457-2.419-6.798-6.97-6.798-6.865,0-11.684,6.054-12.441,12.876-1.987,3.066-4.052,5.089-5.989,6.02,1.612-1.499,2.362-3.803,2.362-6.28.056-4.262-2.938-9.735-4.609-13.134h-6.51c-1.785,6.049-3.802,10.255-7.028,15.093-.073.102-.133.197-.2.295-1.728,2.221-3.394,3.564-4.637,3.564-2.304,0-.518-4.32,4.379-17.858h-6.107c-4.493,12.961-6.567,17.916-9.793,17.916-2.996,0-1.959-5.473,3.399-17.916h-6.049c-7.201,16.706-5.761,23.389.346,23.389,3.226,0,5.818-2.074,7.489-4.667.115,2.939,2.016,4.667,4.493,4.667,2.418,0,4.814-1.586,6.927-3.78,2.09,2.51,5.751,3.836,9.258,3.836,5.964,0,9.83-1.891,12.885-5.52,1.486,3.396,5.091,5.049,9.406,5.463,8.307.797,15.35-9.586,18.058-12.581l-2.421-4.032c-2.015,2.017-8.464,12.422-14.359,12.649ZM82.262,22.848c1.268,0,2.017.921,1.959,2.246-.058,3.054-4.32,5.127-8.007,4.667.748-3.802,3.168-6.913,6.048-6.913ZM56.631,37.25c-1.901,0-3.283-1.095-4.148-2.304,2.016-2.707,4.436-6.797,5.934-11.522,1.267,2.535,2.419,5.474,2.419,8.526,0,2.708-1.498,5.3-4.205,5.3Z"/>
  <path class="st0" d="M107.167,13.57l-1.536-4.673-7.05.149,2.437-6.816-4.335-1.747-1.757,6.34-5.664-6.824-3.149,2.623,4.229,4.686H12.109C6.924,21.826,5.012,27.641,0,42.33h6.51c1.901-5.817,3.86-11.808,5.876-17.858h11.292l1.901-5.588h-11.291c1.843-5.357.472-.746,2.315-5.988h76.035l.012-.035h.421s-2.211,6.489-2.211,6.489l4.31,1.673,1.629-6.213,5.793,7.196,3.4-2.872-5.47-5.966,6.646.402Z"/>
</svg>