<?xml version="1.0" encoding="UTF-8"?>
<svg id="Layer_1" xmlns="http://www.w3.org/2000/svg" width="1.456in" height=".138in" version="1.1" viewBox="0 0 104.838 9.937">
  <!-- Generator: Adobe Illustrator 30.6.0, SVG Export Plug-In . SVG Version: 2.1.4 Build 109)  -->
  <defs>
    <style>
      .st0 {
        fill: #231f20;
      }
    </style>
  </defs>
  <path class="st0" d="M0,8.51v-1l.707-.061V2.109l-.707-.927V.171c.792,0,1.573.048,2.426.048.744,0,1.5-.048,2.365-.048.67,0,1.341.048,2.182.048.768,0,1.524-.037,2.414-.048l.878,1.17v1.024l-.707.049v5.401l.707.939v.938c-.768,0-1.536-.049-2.377-.049-.695,0-1.39.049-2.219.049-.756,0-1.5-.049-2.329-.049-.756,0-1.572.037-2.45.049l-.89-1.183ZM4.487,7.791l-.646-.049v-3.316h1.707v3.316l-.646.049v.415c.512,0,1.695-.049,2.073-.049s1.597.049,2.109.049v-.415l-.707-.049V.939l.707-.049v-.415c-.512,0-1.731.049-2.109.049s-1.561-.049-2.073-.049v.415l.646.049v3.036h-1.707V.939l.646-.049v-.415c-.512,0-1.683.049-2.061.049s-1.609-.049-2.122-.049v.415l.707.049v6.803l-.707.049v.415c.512,0,1.744-.049,2.122-.049s1.548.049,2.061.049v-.415Z"/>
  <path class="st0" d="M12.524,9.644c-.378,0-.768.049-1.231.049h-.585l-.89-1.183v-1.012c.329-.012,1.048,0,1.707-1.756L13.621.219h2.146l.683.915,2.268,6.328.512.037.877,1.17v1.024h-.719c-.463,0-.987-.049-1.743-.049-.915,0-1.866.049-2.951.049-.756,0-1.377-.049-2.17-.049ZM18.924,8.205v-.415l-.877-.061L15.45.5h-1.609l-2.023,5.352c-.731,1.938-1.39,1.926-1.695,1.938v.415h.256c.451,0,.78-.049,1.231-.049.561,0,1.195.049,1.658.049h.244v-.415c-.792,0-1.365-.39-1.365-1.085,0-.183.049-.402.134-.634l.098-.256h2.048l.67,1.914-1.012.061v.415c.817,0,1.987-.049,2.646-.049l2.194.049ZM13.426,2.999h.024l.817,2.365h-1.719l.878-2.365ZM14.669,7.474l-.427-1.17-.451,1.219.877-.049Z"/>
  <path class="st0" d="M22.17.195c.963,0,1.622-.024,2.938-.024,1.329,0,2.244.28,2.792,1.073l.707,1.036c.208.305.33.67.33,1.158,0,.866-.402,1.426-1.073,1.792l.573.78c.427.573.597,1.024.634,1.646l.805,1.061v.951s-.829.146-1.694.146c-1.354,0-2.109-.28-2.5-.805v.683c-.78,0-1.573-.049-2.512-.049-.792,0-1.585.037-2.499.049l-.89-1.183v-1l.731-.061V2.158l-.731-.963V.171c.658,0,1.317.012,2.39.024ZM20.085.476v.415l.731.024v6.827l-.731.049v.415c.512,0,1.658-.049,2.17-.049.78,0,1.755.049,2.243.049v-.415l-.854-.049v-3.279h.037c1.024,0,1.061.756,1.061,1.951,0,1.292.415,1.914,2.524,1.914.805,0,1.426-.11,1.426-.11v-.415s-.11.012-.183.012c-.427,0-.61-.159-.61-1.085,0-2.036-1.377-2.255-2.67-2.426v-.061c1.524-.231,2.524-.768,2.524-2.024,0-1.341-1.122-1.743-2.646-1.743-1.109,0-2.426.024-2.901.024-.463,0-1.585-.024-2.122-.024ZM23.645.89h.183c.951,0,1.012.585,1.012,1.524,0,1.061-.195,1.634-1.17,1.634h-.024V.89Z"/>
  <path class="st0" d="M37.607,4.925l-1.098-1.268v1.195h.902l1.012,1.365-.048,3.475c-1.305,0-2.622-.049-4.17-.049-1.109,0-2.268.049-3.706.049l-.89-1.183v-1l.731-.061V2.109l-.731-.927V.171c1.036,0,2.085.048,3.304.048,1.377,0,2.743-.037,4.267-.048l.877,1.158.159,3.596h-.609ZM29.914,8.205c.561,0,1.829-.049,3.377-.049,1.268,0,2.877.049,3.901.049l.073-3.133h-.438l-.037.183c-.061.329-.939,2.487-3.036,2.487h-.28v-3.34l.085.012c.719.097,1.341,1.061,1.341,1.548h.438v-3.219h-.438c0,.488-.708,1.146-1.341,1.231l-.085.012V.939h.5c1.658,0,2.487,1.938,2.548,2.182l.049.219h.439l-.122-2.865c-.829,0-2.84.049-3.974.049-1.268,0-2.463-.049-3-.049v.415l.731.049v6.803l-.731.049v.415Z"/>
  <path class="st0" d="M49.424.171l.878,1.183.158,3.901h-.938l-.89-1.183-.17-.5c-.049-.146-.159-.427-.293-.744v4.572l.963,1.268v1.024c-.841,0-1.683-.049-2.646-.049-.866,0-1.731.037-2.731.049l-.89-1.183v-1.012l.963-.049v-3.414c-.146.341-.256.634-.292.756-.024.097-.134.378-.158.463h-.951l-.89-1.183.159-3.901c1.219,0,2.438.048,3.877.048,1.256,0,2.511-.048,3.853-.048ZM41.987.476l-.134,3.292h.415l.098-.28c.061-.171.878-2.548,1.707-2.548h.061v6.803l-.963.049v.415c.634,0,1.756-.049,2.402-.049s1.743.049,2.377.049v-.415l-.963-.049V.939h.061c.829,0,1.646,2.365,1.707,2.548l.097.28h.415l-.134-3.292c-1.146,0-2.329.049-3.56.049s-2.438-.049-3.584-.049Z"/>
  <path class="st0" d="M52.876.195c.964,0,1.622-.024,2.938-.024,1.329,0,2.243.28,2.792,1.073l.707,1.036c.207.305.329.67.329,1.158,0,.866-.402,1.426-1.072,1.792l.572.78c.427.573.598,1.024.635,1.646l.805,1.061v.951s-.829.146-1.695.146c-1.354,0-2.109-.28-2.499-.805v.683c-.78,0-1.573-.049-2.512-.049-.792,0-1.585.037-2.499.049l-.89-1.183v-1l.731-.061V2.158l-.731-.963V.171c.658,0,1.316.012,2.389.024ZM50.792.476v.415l.731.024v6.827l-.731.049v.415c.512,0,1.658-.049,2.17-.049.78,0,1.756.049,2.243.049v-.415l-.854-.049v-3.279h.037c1.023,0,1.061.756,1.061,1.951,0,1.292.414,1.914,2.523,1.914.805,0,1.427-.11,1.427-.11v-.415s-.11.012-.184.012c-.427,0-.609-.159-.609-1.085,0-2.036-1.378-2.255-2.67-2.426v-.061c1.524-.231,2.523-.768,2.523-2.024,0-1.341-1.121-1.743-2.646-1.743-1.109,0-2.426.024-2.901.024-.463,0-1.585-.024-2.121-.024ZM54.352.89h.183c.951,0,1.013.585,1.013,1.524,0,1.061-.195,1.634-1.171,1.634h-.024V.89Z"/>
  <path class="st0" d="M60.317,8.51v-1l.707-.061V2.122l-.707-.939V.171c.792,0,1.572.048,2.426.048.768,0,1.536-.037,2.426-.048l.878,1.17v1.024l-.707.049v5.401l.707.939v.938c-.768,0-1.548-.049-2.39-.049-.768,0-1.548.037-2.45.049l-.89-1.183ZM64.864,7.791l-.707-.049V.939l.707-.049v-.415c-.512,0-1.743.049-2.121.049s-1.609-.049-2.121-.049v.415l.707.049v6.803l-.707.049v.415c.512,0,1.743-.049,2.121-.049s1.609.049,2.121.049v-.415Z"/>
  <path class="st0" d="M67.182,7.815c-.671-.768-1.036-1.89-1.036-3.194,0-3.597,2.462-4.621,4.729-4.621.976,0,1.671.305,1.976.305.293,0,.512-.183.512-.183h.854l.878,1.17c0,.658-.024,1.316-.024,2.06,0,.512,0,1.037.024,1.561l.598.792v.951l-.439.024v2.914l-.67.232-.573-.415c-.524.231-1.414.524-2.499.524-1.817,0-2.951-.524-3.683-1.378l-.646-.744ZM73.424,3.865h.487c0-.561-.024-.963-.024-1.731,0-.537.024-1.159.024-1.707h-.438s-.22.183-.622.183c-.415,0-.927-.305-1.976-.305-2.121,0-4.425.951-4.425,4.316,0,2.365,1.146,3.828,4.145,3.828,1.134,0,2.061-.341,2.524-.561l.585.427.365-.134v-2.962l.439-.049v-.415c-.366,0-.878.049-1.743.049-.842,0-1.513-.049-2.024-.049v.415c.549,0,.707.134.707,1.024v1.683c-.183.024-.378.037-.561.037-.927,0-1.365-1.158-1.365-3.45,0-1.524.219-3.633,1.499-3.633,1.634,0,2.219,2.182,2.402,3.036ZM70.303,7.327c0,.012.012.024.024.037l-.024-.037ZM70.754,4.45c.548,0,1.243.048,2.012.048.268,0,.438,0,.646-.012l-.243-.317c-.086-.39-.257-1.048-.537-1.658-.207-.122-.438-.195-.694-.195-.769,0-1.073,1.024-1.183,2.134Z"/>
  <path class="st0" d="M76.829,7.815c-.671-.768-1.036-1.89-1.036-3.194,0-3.597,2.462-4.621,4.729-4.621.976,0,1.671.305,1.976.305.293,0,.512-.183.512-.183h.854l.878,1.17c0,.658-.024,1.316-.024,2.06,0,.512,0,1.037.024,1.561l.598.792v.951l-.439.024v2.914l-.67.232-.573-.415c-.524.231-1.414.524-2.499.524-1.817,0-2.951-.524-3.683-1.378l-.646-.744ZM83.071,3.865h.487c0-.561-.024-.963-.024-1.731,0-.537.024-1.159.024-1.707h-.438s-.22.183-.622.183c-.415,0-.927-.305-1.976-.305-2.121,0-4.425.951-4.425,4.316,0,2.365,1.146,3.828,4.145,3.828,1.134,0,2.061-.341,2.524-.561l.585.427.365-.134v-2.962l.439-.049v-.415c-.366,0-.878.049-1.743.049-.842,0-1.513-.049-2.024-.049v.415c.549,0,.707.134.707,1.024v1.683c-.183.024-.378.037-.561.037-.927,0-1.365-1.158-1.365-3.45,0-1.524.219-3.633,1.499-3.633,1.634,0,2.219,2.182,2.402,3.036ZM79.95,7.327c0,.012.012.024.024.037l-.024-.037ZM80.401,4.45c.548,0,1.243.048,2.012.048.268,0,.438,0,.646-.012l-.243-.317c-.086-.39-.257-1.048-.537-1.658-.207-.122-.438-.195-.694-.195-.769,0-1.073,1.024-1.183,2.134Z"/>
  <path class="st0" d="M93.436,4.925l-1.097-1.268v1.195h.902l1.012,1.365-.049,3.475c-1.305,0-2.621-.049-4.17-.049-1.109,0-2.268.049-3.706.049l-.89-1.183v-1l.731-.061V2.109l-.731-.927V.171c1.036,0,2.084.048,3.304.048,1.378,0,2.743-.037,4.267-.048l.878,1.158.158,3.596h-.609ZM85.744,8.205c.561,0,1.828-.049,3.377-.049,1.268,0,2.877.049,3.901.049l.073-3.133h-.439l-.036.183c-.062.329-.938,2.487-3.036,2.487h-.28v-3.34l.085.012c.72.097,1.342,1.061,1.342,1.548h.438v-3.219h-.438c0,.488-.707,1.146-1.342,1.231l-.085.012V.939h.5c1.658,0,2.487,1.938,2.548,2.182l.049.219h.439l-.122-2.865c-.829,0-2.841.049-3.975.049-1.269,0-2.463-.049-2.999-.049v.415l.731.049v6.803l-.731.049v.415Z"/>
  <path class="st0" d="M97.132.195c.964,0,1.622-.024,2.938-.024,1.329,0,2.243.28,2.792,1.073l.707,1.036c.207.305.329.67.329,1.158,0,.866-.402,1.426-1.072,1.792l.572.78c.427.573.598,1.024.635,1.646l.805,1.061v.951s-.829.146-1.695.146c-1.354,0-2.109-.28-2.499-.805v.683c-.78,0-1.573-.049-2.512-.049-.792,0-1.585.037-2.499.049l-.89-1.183v-1l.731-.061V2.158l-.731-.963V.171c.658,0,1.316.012,2.389.024ZM95.048.476v.415l.731.024v6.827l-.731.049v.415c.512,0,1.658-.049,2.17-.049.78,0,1.756.049,2.243.049v-.415l-.854-.049v-3.279h.037c1.023,0,1.061.756,1.061,1.951,0,1.292.414,1.914,2.523,1.914.805,0,1.427-.11,1.427-.11v-.415s-.11.012-.184.012c-.427,0-.609-.159-.609-1.085,0-2.036-1.378-2.255-2.67-2.426v-.061c1.524-.231,2.523-.768,2.523-2.024,0-1.341-1.121-1.743-2.646-1.743-1.109,0-2.426.024-2.901.024-.463,0-1.585-.024-2.121-.024ZM98.608.89h.183c.951,0,1.013.585,1.013,1.524,0,1.061-.195,1.634-1.171,1.634h-.024V.89Z"/>
</svg>