<?xml version="1.0" encoding="UTF-8"?>
<svg id="Layer_1" xmlns="http://www.w3.org/2000/svg" width="1.146in" height=".175in" version="1.1" viewBox="0 0 82.51 12.613">
  <!-- Generator: Adobe Illustrator 30.6.0, SVG Export Plug-In . SVG Version: 2.1.4 Build 109)  -->
  <defs>
    <style>
      .st0 {
        fill: #231f20;
      }
    </style>
  </defs>
  <path class="st0" d="M9.034,6.647H2.897v4.09c0,.938.17,1.193,1.534,1.364v.341H0v-.341c1.364-.17,1.534-.426,1.534-1.364V2.216c0-.938-.17-1.193-1.534-1.363v-.341h4.432v.341c-1.364.17-1.534.426-1.534,1.363v3.835h6.136v-3.835c0-.938-.17-1.193-1.534-1.363v-.341h4.432v.341c-1.364.17-1.534.426-1.534,1.363v8.522c0,.938.17,1.193,1.534,1.364v.341h-4.432v-.341c1.364-.17,1.534-.426,1.534-1.364v-4.09Z"/>
  <path class="st0" d="M18.922,10.227c-.034,1.364.597,1.278,1.705,1.108v.256c-1.022.682-1.534,1.022-2.045,1.022-.852,0-1.022-.682-1.022-1.363h-.034c-.955.852-1.67,1.363-2.693,1.363-1.006,0-1.875-.886-1.875-2.045,0-1.057.853-1.636,2.216-1.875l2.438-.426.034-1.79c.034-1.364-.767-2.045-1.79-2.045-1.534,0-1.738,1.278-1.278,1.705.716.665-1.005,1.432-1.278.852-.494-1.074,1.023-3.238,3.58-3.238,1.363,0,2.165.852,2.13,2.301l-.085,4.176ZM17.593,8.693l-2.165.511c-.853.205-1.228.716-1.125,1.415.102.75.58,1.057,1.04,1.057.767,0,1.261-.188,2.216-.852l.034-2.13Z"/>
  <path class="st0" d="M27.021,5.284c-.989-.426-1.96,0-2.812.938v4.517c0,.938.17,1.193,1.534,1.364v.341h-4.432v-.341c1.364-.17,1.534-.426,1.534-1.364v-4.602c0-.853-.17-1.108-1.364-1.278v-.341l2.642-.767h.136l-.051,1.96h.034c.647-.938,1.67-1.96,2.693-1.96,1.449,0,.989,1.926.085,1.534Z"/>
  <path class="st0" d="M28.896,8.267c0-2.897,2.045-4.517,4.176-4.517,1.619,0,3.392.852,2.88,3.665h-5.727c-.119,2.352,1.108,4.09,3.102,4.09,1.108,0,1.977-.255,2.727-.682v.511c-.511.426-1.534,1.278-3.153,1.278-2.54,0-4.005-2.045-4.005-4.346ZM30.294,6.818h4.209c.426-1.79-.409-2.557-1.517-2.557-1.466,0-2.438,1.022-2.693,2.557Z"/>
  <path class="st0" d="M47.478,6.204c2.131.528,2.897,1.773,2.897,3.085,0,1.875-1.363,3.153-3.92,3.153h-5.114v-.341c1.363-.17,1.534-.426,1.534-1.364V2.216c0-.938-.171-1.193-1.534-1.363v-.341h4.602c2.557,0,3.921,1.193,3.921,2.897,0,1.363-1.023,2.386-2.387,2.761v.034ZM45.262,5.966c2.404,0,3.154-.92,3.154-2.386,0-1.364-.597-2.472-2.642-2.472h-1.535v4.858h1.022ZM44.239,6.562v5.284h1.875c2.216,0,2.812-1.278,2.812-2.642,0-1.5-.938-2.642-3.325-2.642h-1.363Z"/>
  <path class="st0" d="M57.28,5.284c-.988-.426-1.96,0-2.812.938v4.517c0,.938.17,1.193,1.533,1.364v.341h-4.431v-.341c1.363-.17,1.533-.426,1.533-1.364v-4.602c0-.853-.17-1.108-1.363-1.278v-.341l2.642-.767h.137l-.051,1.96h.034c.647-.938,1.67-1.96,2.692-1.96,1.449,0,.988,1.926.085,1.534Z"/>
  <path class="st0" d="M65.123,10.227c-.034,1.364.597,1.278,1.704,1.108v.256c-1.022.682-1.534,1.022-2.045,1.022-.853,0-1.023-.682-1.023-1.363h-.033c-.955.852-1.671,1.363-2.693,1.363-1.006,0-1.875-.886-1.875-2.045,0-1.057.853-1.636,2.216-1.875l2.438-.426.034-1.79c.034-1.364-.768-2.045-1.79-2.045-1.534,0-1.738,1.278-1.278,1.705.716.665-1.006,1.432-1.278.852-.494-1.074,1.022-3.238,3.579-3.238,1.364,0,2.165.852,2.131,2.301l-.085,4.176ZM63.792,8.693l-2.164.511c-.853.205-1.228.716-1.125,1.415.103.75.579,1.057,1.04,1.057.767,0,1.261-.188,2.215-.852l.034-2.13Z"/>
  <path class="st0" d="M70.409,10.738c0,.938.17,1.193,1.533,1.364v.341h-4.431v-.341c1.363-.17,1.533-.426,1.533-1.364v-4.602c0-.853-.17-1.108-1.363-1.278v-.341l2.557-.767h.171v6.988ZM69.726,0c.562,0,1.023.46,1.023,1.023s-.461,1.022-1.023,1.022-1.022-.46-1.022-1.022.461-1.023,1.022-1.023Z"/>
  <path class="st0" d="M72.625,12.102c1.363-.17,1.533-.426,1.533-1.364v-4.602c0-.853-.17-1.108-1.363-1.278v-.341l2.642-.767h.137l-.051,1.79h.034c.988-.989,2.045-1.79,3.289-1.79,1.142,0,2.131.682,2.131,2.557v4.431c0,.938.17,1.193,1.533,1.364v.341h-4.09v-.341c1.192-.256,1.192-.426,1.192-1.364v-4.431c0-.938-.408-1.534-1.278-1.534s-1.636.29-2.812,1.278v4.687c0,.938.17,1.193,1.533,1.364v.341h-4.431v-.341Z"/>
</svg>