<?xml version="1.0" encoding="UTF-8"?>
<svg id="Layer_1" xmlns="http://www.w3.org/2000/svg" width="1.112in" height=".177in" version="1.1" viewBox="0 0 80.043 12.747">
  <!-- Generator: Adobe Illustrator 30.6.0, SVG Export Plug-In . SVG Version: 2.1.4 Build 109)  -->
  <defs>
    <style>
      .st0 {
        fill: #231f20;
      }

      .st1 {
        fill: #fff;
      }
    </style>
  </defs>
  <g>
    <path class="st0" d="M2.231,2.713v3.155h4.814v-3.155c0-.45.101-.789.304-1.014s.469-.338.799-.338c.335,0,.607.112.815.334.208.223.312.562.312,1.017v8.675c0,.456-.105.796-.315,1.022s-.481.338-.811.338c-.335,0-.603-.114-.804-.342s-.3-.567-.3-1.018v-3.702H2.231v3.702c0,.456-.105.796-.316,1.022-.21.225-.481.338-.811.338-.335,0-.603-.114-.804-.342s-.301-.567-.301-1.018V2.713c0-.45.099-.789.297-1.014.198-.225.467-.338.807-.338.335,0,.607.112.815.334.208.223.312.562.312,1.017Z"/>
    <path class="st0" d="M18.716,11.313l-.526-1.382h-4.476l-.526,1.412c-.205.551-.38.923-.526,1.115-.145.193-.383.289-.713.289-.281,0-.528-.102-.744-.308s-.323-.438-.323-.699c0-.15.025-.305.075-.466.05-.16.133-.383.248-.668l2.816-7.15c.08-.205.176-.452.289-.74.113-.288.233-.527.36-.717.128-.19.295-.344.503-.462.208-.118.464-.177.77-.177.31,0,.57.059.777.177.208.118.376.269.503.454.127.185.235.384.323.597.087.213.199.497.334.852l2.877,7.105c.225.541.338.934.338,1.179,0,.255-.106.489-.319.702-.213.213-.47.319-.77.319-.175,0-.326-.031-.451-.094-.125-.062-.23-.147-.315-.255-.085-.108-.177-.273-.274-.496-.098-.223-.182-.42-.252-.59ZM14.3,8.256h3.29l-1.66-4.544-1.63,4.544Z"/>
    <path class="st0" d="M25.731,7.85h-.781v3.537c0,.466-.102.809-.308,1.029-.205.22-.473.33-.804.33-.356,0-.631-.115-.826-.345-.196-.23-.293-.568-.293-1.014V2.916c0-.481.108-.829.323-1.044s.563-.323,1.044-.323h3.627c.5,0,.929.021,1.284.064.356.043.676.129.961.259.346.145.651.353.916.624.265.27.467.585.605.942.137.358.206.737.206,1.138,0,.821-.232,1.477-.695,1.968-.463.49-1.166.838-2.106,1.044.395.21.773.521,1.134.931.36.411.682.848.965,1.311.282.463.503.882.661,1.255s.237.629.237.77c0,.145-.046.289-.139.432s-.219.255-.379.338-.345.124-.556.124c-.25,0-.461-.059-.631-.176s-.317-.267-.439-.447c-.123-.18-.289-.445-.5-.796l-.894-1.487c-.32-.546-.607-.962-.86-1.247-.253-.286-.51-.481-.77-.586-.26-.105-.588-.158-.984-.158ZM27.008,3.224h-2.058v3.027h1.998c.536,0,.986-.046,1.352-.139.366-.093.645-.25.837-.473.193-.223.289-.529.289-.92,0-.305-.077-.575-.232-.807-.156-.233-.371-.407-.646-.522-.261-.11-.773-.165-1.54-.165Z"/>
    <path class="st0" d="M41.052,3.269h-5.024v2.704h4.626c.34,0,.594.076.762.229.167.152.251.354.251.604s-.083.455-.248.612c-.165.158-.421.237-.766.237h-4.626v3.132h5.197c.351,0,.615.082.793.244.177.163.266.38.266.65,0,.26-.089.472-.266.635-.178.163-.442.244-.793.244h-6.061c-.485,0-.835-.108-1.048-.323s-.319-.563-.319-1.044V2.916c0-.32.048-.582.143-.785.095-.203.244-.35.447-.443.203-.093.462-.139.777-.139h5.888c.356,0,.62.079.793.237s.259.364.259.619c0,.261-.086.47-.259.627s-.437.237-.793.237Z"/>
    <path class="st0" d="M48.077,3.173v7.523h4.245c.338,0,.598.082.778.247.182.165.271.372.271.621,0,.254-.089.459-.268.617-.179.158-.439.236-.782.236h-5.056c-.456,0-.784-.101-.983-.303-.2-.202-.3-.529-.3-.98V3.173c0-.423.095-.74.285-.952s.441-.317.751-.317c.315,0,.57.105.766.314.194.209.292.528.292.955Z"/>
    <path class="st0" d="M54.832,11.317V3.173c0-.423.096-.74.289-.952.192-.211.441-.317.747-.317.315,0,.57.105.766.314.194.209.292.528.292.955v8.144c0,.428-.098.748-.292.959-.195.211-.45.317-.766.317-.301,0-.549-.107-.744-.321-.194-.214-.292-.532-.292-.956Z"/>
    <path class="st0" d="M61.995,3.159l4.026,6.092V3.103c0-.399.086-.699.257-.899.172-.2.403-.3.695-.3.301,0,.538.1.712.3s.261.5.261.899v8.129c0,.907-.376,1.361-1.128,1.361-.188,0-.357-.027-.508-.081-.15-.054-.292-.14-.423-.257-.132-.118-.254-.255-.367-.413-.112-.157-.226-.318-.338-.483l-3.928-6.021v6.057c0,.395-.092.693-.274.896-.184.202-.419.303-.705.303-.297,0-.534-.102-.713-.307s-.268-.502-.268-.892V3.42c0-.338.038-.604.113-.797.089-.211.237-.384.443-.518.207-.134.431-.201.67-.201.188,0,.35.031.483.092s.251.144.353.247c.101.104.204.238.311.402.105.165.215.336.327.515Z"/>
    <path class="st0" d="M77.049,3.695h-4.717v2.538h4.343c.319,0,.558.072.716.215.157.143.236.333.236.567s-.078.427-.233.575c-.154.148-.395.222-.719.222h-4.343v2.94h4.879c.329,0,.576.077.743.229.167.153.251.356.251.61,0,.244-.084.443-.251.596s-.414.229-.743.229h-5.69c-.456,0-.783-.101-.983-.303s-.3-.529-.3-.98V3.364c0-.301.045-.546.134-.737.09-.19.229-.329.42-.416.19-.087.434-.13.729-.13h5.528c.333,0,.581.074.743.222s.243.342.243.582c0,.245-.081.441-.243.589s-.41.222-.743.222Z"/>
  </g>
  <g>
    <path class="st0" d="M49.415,1.767v7.523h4.245c.338,0,.598.082.778.247.182.165.271.372.271.621,0,.254-.089.459-.268.617-.179.158-.439.236-.782.236h-5.056c-.456,0-.784-.101-.983-.303-.2-.202-.3-.529-.3-.98V1.767c0-.423.095-.74.285-.952s.441-.317.751-.317c.315,0,.57.105.766.314.194.209.292.528.292.955Z"/>
    <path class="st1" d="M53.66,11.511h-5.056c-.593,0-1.043-.152-1.339-.453-.294-.297-.444-.744-.444-1.33V1.767c0-.549.139-.981.414-1.286.566-.632,1.676-.629,2.253-.011.284.306.427.741.427,1.297v7.023h3.745c.466,0,.841.127,1.116.378.283.256.434.599.434.989,0,.397-.151.741-.438.992-.272.24-.646.361-1.112.361ZM48.357.999c-.215,0-.315.081-.379.151-.103.114-.157.327-.157.617v7.961c0,.304.055.526.155.628.099.101.322.155.628.155h5.056c.212,0,.369-.039.452-.111.051-.045.098-.105.098-.242,0-.108-.031-.181-.106-.249-.107-.098-.3-.118-.443-.118h-4.745V1.767c0-.291-.055-.503-.158-.614-.066-.071-.173-.154-.399-.154Z"/>
  </g>
  <g>
    <path class="st0" d="M56.17,9.911V1.767c0-.423.096-.74.289-.952.192-.211.441-.317.747-.317.315,0,.57.105.766.314.194.209.292.528.292.955v8.144c0,.428-.098.748-.292.959-.195.211-.45.317-.766.317-.301,0-.549-.107-.744-.321-.194-.214-.292-.532-.292-.956Z"/>
    <path class="st1" d="M57.206,11.687c-.44,0-.825-.167-1.113-.483-.281-.309-.423-.743-.423-1.293V1.767c0-.551.142-.984.42-1.289.572-.631,1.674-.621,2.247-.008.283.306.427.741.427,1.297v8.144c0,.556-.143.992-.424,1.298-.289.313-.681.479-1.134.479ZM57.206.999c-.164,0-.281.047-.377.153-.104.114-.159.326-.159.615v8.144c0,.201.028.473.162.62.099.107.214.156.374.156.225,0,.331-.084.398-.156.104-.113.16-.328.16-.62V1.767c0-.291-.055-.503-.158-.614-.066-.071-.173-.154-.399-.154Z"/>
  </g>
  <g>
    <path class="st0" d="M63.333,1.753l4.026,6.092V1.697c0-.399.086-.699.257-.899.172-.2.403-.3.695-.3.301,0,.538.1.712.3s.261.5.261.899v8.129c0,.907-.376,1.361-1.128,1.361-.188,0-.357-.027-.508-.081-.15-.054-.292-.14-.423-.257-.132-.118-.254-.255-.367-.413-.112-.157-.226-.318-.338-.483l-3.928-6.021v6.057c0,.395-.092.693-.274.896-.184.202-.419.303-.705.303-.297,0-.534-.102-.713-.307s-.268-.502-.268-.892V2.014c0-.338.038-.604.113-.797.089-.211.237-.384.443-.518.207-.134.431-.201.67-.201.188,0,.35.031.483.092s.251.144.353.247c.101.104.204.238.311.402.105.165.215.336.327.515Z"/>
    <path class="st1" d="M68.156,11.687c-.244,0-.472-.037-.676-.11-.212-.075-.409-.195-.589-.355-.159-.143-.308-.309-.439-.494-.115-.16-.23-.324-.344-.491l-3.016-4.622v4.375c0,.521-.136.935-.403,1.23-.566.623-1.63.605-2.166-.011-.259-.295-.391-.706-.391-1.22V2.014c0-.403.048-.724.147-.979.133-.316.346-.566.637-.755.509-.332,1.18-.355,1.635-.145.184.083.353.201.499.349.123.127.248.286.375.481l.326.515,3.107,4.701V1.697c0-.521.127-.932.377-1.224.538-.627,1.633-.614,2.165-.003.254.291.383.704.383,1.227v8.13c0,1.679-1.139,1.86-1.628,1.86ZM62.093,2.251l4.847,7.43c.104.152.216.311.326.465.091.128.188.236.294.332.081.073.168.126.257.158.097.034.211.052.34.052.265,0,.628,0,.628-.86V1.697c0-.266-.049-.468-.138-.569-.052-.061-.137-.129-.335-.129-.184,0-.263.063-.316.126-.087.102-.136.306-.136.572v7.812l-5.274-7.999c-.085-.131-.167-.241-.248-.324-.058-.059-.124-.104-.2-.14-.153-.07-.449-.072-.675.073-.122.08-.205.175-.255.293-.031.08-.074.262-.074.603v7.975c0,.182.025.427.144.562.06.067.145.136.337.136.146,0,.246-.042.335-.139.119-.132.145-.377.145-.56V2.251Z"/>
  </g>
  <g>
    <path class="st0" d="M78.387,2.289h-4.717v2.538h4.343c.319,0,.558.072.716.215.157.143.236.333.236.567s-.078.427-.233.575c-.154.148-.395.222-.719.222h-4.343v2.94h4.879c.329,0,.576.077.743.229.167.153.251.356.251.61,0,.244-.084.443-.251.596s-.414.229-.743.229h-5.69c-.456,0-.783-.101-.983-.303s-.3-.529-.3-.98V1.958c0-.301.045-.546.134-.737.09-.19.229-.329.42-.416.19-.087.434-.13.729-.13h5.528c.333,0,.581.074.743.222s.243.342.243.582c0,.245-.081.441-.243.589s-.41.222-.743.222Z"/>
    <path class="st1" d="M78.549,11.511h-5.69c-.592,0-1.042-.152-1.339-.452-.295-.298-.444-.745-.444-1.331V1.958c0-.377.06-.688.181-.948.143-.301.366-.522.665-.659.256-.116.571-.176.938-.176h5.528c.461,0,.824.119,1.081.354.265.241.405.57.405.95,0,.385-.141.717-.406.959-.256.233-.619.353-1.08.353h-4.217v1.538h3.843c.446,0,.8.116,1.052.345.263.239.4.563.4.938,0,.37-.134.694-.388.937-.25.239-.608.36-1.064.36h-3.843v1.94h4.379c.455,0,.819.121,1.08.359.271.249.414.587.414.979,0,.385-.144.718-.414.965-.26.239-.624.36-1.08.36ZM72.858,1.174c-.219,0-.399.029-.521.086-.083.038-.136.09-.176.174-.056.12-.086.302-.086.523v7.771c0,.304.055.526.155.628.1.1.322.155.628.155h5.69c.192,0,.336-.035.405-.098.047-.043.089-.1.089-.228,0-.142-.045-.201-.089-.242-.068-.062-.213-.097-.405-.097h-5.379v-3.94h4.843c.266,0,.353-.063.373-.083.041-.039.079-.093.079-.214,0-.115-.035-.163-.073-.198-.027-.024-.121-.084-.379-.084h-4.843V1.79h5.217c.276,0,.375-.063.405-.092.043-.038.081-.091.081-.22,0-.122-.038-.174-.08-.211-.031-.029-.13-.093-.406-.093h-5.528Z"/>
  </g>
</svg>