<?xml version="1.0" encoding="UTF-8"?>
<svg id="Layer_1" xmlns="http://www.w3.org/2000/svg" viewBox="50 291 535 93">
  <!-- Generator: Adobe Illustrator 30.4.0, SVG Export Plug-In . SVG Version: 2.1.4 Build 226)  -->
  <defs>
    <style>
      .st0 {
        fill: #231f20;
      }
    </style>
  </defs>
  <g>
    <polygon class="st0" points="435.724 355.608 435.516 299.966 412.705 300.051 412.98 373.871 471.392 373.653 471.324 355.475 435.724 355.608"/>
    <rect class="st0" x="479.533" y="299.748" width="22.861" height="73.82" transform="translate(-1.253 1.834)"/>
    <path class="st0" d="M573.014,305.326c-4.128-3.912-10.319-5.853-18.577-5.823l-37.916.142.275,73.819,22.911-.085-.102-27.393,12.488-.046c9.197-.034,16.03-2.157,20.495-6.371,4.466-4.214,6.685-10.046,6.658-17.499-.027-7.251-2.104-12.833-6.231-16.744ZM554.395,328.685c-1.775,1.534-4.86,2.309-9.257,2.325l-5.589.021-.061-16.466,6.495-.024c4.263-.016,7.17.779,8.722,2.384,1.549,1.606,2.33,3.567,2.338,5.883.009,2.384-.874,4.343-2.647,5.877Z"/>
    <polygon class="st0" points="109.836 326.336 84.613 326.336 84.613 300.196 61.53 300.196 61.53 374.896 84.613 374.896 84.613 344.68 109.836 344.68 109.836 374.896 133.021 374.896 133.021 300.196 109.836 300.196 109.836 326.336"/>
    <polygon class="st0" points="171.441 343.253 207.365 343.253 207.365 328.018 171.441 328.018 171.441 316.145 210.167 316.145 210.167 300.196 148.308 300.196 148.308 374.896 211.289 374.896 211.289 357.979 171.441 357.979 171.441 343.253"/>
    <polygon class="st0" points="295.314 300.196 270.143 300.196 257.276 323.177 244.053 300.196 218.626 300.196 242.05 335.966 216.282 374.896 242.066 374.896 256.817 350.896 271.569 374.896 297.505 374.896 272.063 336.374 295.314 300.196"/>
  </g>
  <polygon class="st0" points="402.642 328.868 374.04 328.975 373.991 316.084 407.477 315.958 407.418 300.097 337.311 300.308 337.311 300.441 337.761 300.441 359.124 337.442 337.944 374.126 374.207 374.041 374.096 343.879 402.697 343.772 402.642 328.868"/>
</svg>