<?xml version="1.0" encoding="UTF-8"?>
<svg id="Layer_1" xmlns="http://www.w3.org/2000/svg" width="1.4in" height=".492in" version="1.1" viewBox="0 0 100.803 35.457">
  <!-- Generator: Adobe Illustrator 30.5.1, SVG Export Plug-In . SVG Version: 2.1.4 Build 3)  -->
  <defs>
    <style>
      .st0 {
        fill: #231f20;
      }
    </style>
  </defs>
  <path class="st0" d="M19.568,16.255c-.248.497-.674.816-1.455,1.136l-.142.035v3.229c-.035,1.775-.071,3.479-.071,3.763-.071.923-.319,1.633-.852,2.271l-.32.354v.853c0,1.1,0,1.064-.177,1.242-.142.177-.355.283-.532.283-.675,0-.746-.709-.746-1.206,0-.604-.071-.746-.71-1.101-.284-.178-.568-.354-.639-.461-.249-.249-.426-.604-.532-1.029-.036-.213-.106-.533-.178-.746-.071-.319-.071-.78-.035-3.62,0-2.981,0-3.301-.071-3.301-.036,0-.426.071-.816.106q-.709.106-1.064.355c-.319.213-.533.319-.746.319-.142,0-.319-.035-.532-.106-.497-.142-.639-.142-1.1-.071-.178,0-.568.071-.852.106q-.781.071-.781.745c0,.391.036.64.106.888.142.391.142.745,0,1.562-.071.568-.071.639,0,1.064.142.604.142.746.036,1.704-.071.532-.071,1.242-.071,2.307,0,1.349,0,1.669-.106,2.378-.248,1.739-.248,2.484-.035,4.047.142.922.106,1.277-.036,1.597-.213.354-.426.497-.71.497-.106,0-.249-.035-.319-.035-.177-.107-.461-.427-.532-.71-.142-.497-.142-1.42,0-2.769.142-1.136.142-1.242.106-3.372-.036-1.242-.071-2.235-.071-2.235-.106,0-.177.213-.213.567,0,.354-.035.497-.142.71-.178.391-.213.745-.107,1.242.142.604.036.994-.248,1.207-.213.142-.426.142-.674,0-.32-.213-.355-.32-.32-1.739,0-1.136,0-1.278-.106-1.526-.248-.71-.39-.958-.674-1.277-.532-.568-.603-.853-.603-2.343,0-.604,0-1.668-.036-2.343l-.036-1.206-.568-.284c-.709-.355-.994-.639-1.136-1.136-.071-.284-.142-.426-.355-.639-.142-.178-.284-.391-.319-.497-.106-.32-.035-.781.213-1.278q.284-.674,1.278-.887c.284-.071.604-.142.71-.178l.213-.071.036-1.065c.035-.568.071-1.526.071-2.129.036-.816.036-1.065,0-1.065-.036.036-.071.249-.071.568,0,1.065-.178,2.981-.355,3.124-.071,0-.106-.284-.142-.994-.071-1.171-.036-5.75.036-6.176,0-.213.071-.746.106-1.207.071-.497.142-1.029.177-1.242.036-.178.071-.533.106-.746.071-.674.249-1.704.284-1.81.106-.142.284-.213.568-.213.532,0,1.136-.249,1.491-.639.319-.32.532-.497.709-.497.142,0,.213.071.32.177.071.106.142.213.142.249s.106.178.213.284.32.319.426.497c.142.178.249.284.319.284s.106.035.106.071c0,.071.177.213.355.284.106.035.106,0,.142-.284.035-.355.071-.461.142-.461q.071,0-.035.604c-.071.568-.071.497.177.923.036.071.071.249.071.39,0,.106.036.284.071.355.036.106.036.284,0,.674-.142,1.029-.178,1.384-.284,2.697-.177,2.165-.426,6.602-.355,6.673,0,0,.32-.036.71-.106.497-.036,5.217-.674,5.253-.71,0,0,.036-.852.071-1.917.106-4.507.213-6.85.426-8.27.071-.32.106-.639.142-.71.071-.213.426-.568.781-.781.391-.284.426-.355.426-.604,0-.497.284-.887.639-.887.249,0,.391.213.426.604.036.603.106.745.426.745.177,0,.284.036.461.213.142.142.319.249.567.319q.426.106.426-.035c0-.071,0-.142.035-.142.036,0,.071.071.071.177s.036.249.071.355c.106.106.106.284.142,1.455.036.71,0,1.562,0,1.881-.106,1.136-.213,3.336-.249,5.537l-.036,1.846.533-.036c.319-.036.639-.071.71-.071.177.035.284.106.284.284v.106l-.036-.106c-.071-.177-.177-.213-.816-.177-.567.035-.709.106-.426.177.284.071.604.249.71.355.071.071.177.142.249.178.071,0,.106.035.106.106,0,.035.106.248.213.426.142.284.177.461.177.604s.036.248.071.284c.071.106-.071.816-.284,1.171Z"/>
  <path class="st0" d="M40.119,16.291c-.887,3.514-2.449,6.957-5.324,9.264-.604.497-.674.639-.781,1.313-.071.603-.106.745-.319.852-.071.071-.142.106-.249.106-.213,0-.461-.178-.746-.497-.142-.178-.284-.319-.355-.319-.106,0-.461.284-.568.497-.035.071-.106.391-.142.674-.106.604-.213.853-.461.994-.213.106-.461.071-.674-.035-.178-.143-.391-.462-.533-.959-.142-.39-.213-.461-.639-.745-.142-.106-.319-.248-.426-.391-.142-.248-.461-.426-1.278-.78-1.917-.745-3.514-2.343-4.721-4.686-.213-.426-.426-.78-.426-.745,0,.071.816,1.811,1.029,2.201.319.532,1.029,1.419,1.491,1.81.497.426.674.639.674.781,0,.142-.177.213-.39.106-.461-.249-1.597-1.455-2.094-2.236-.319-.461-1.065-1.987-1.349-2.732-.639-1.669-.958-3.443-.958-5.644,0-1.491.071-2.201.32-3.159.106-.391.213-.923.248-1.207.036-.249.142-.639.178-.816.071-.142.106-.319.106-.355-.036-.035,0-.071.071-.071.178-.071.319-.284.568-.923.816-2.414,2.378-4.827,4.543-6.175.355-.249.461-.32.674-.639.284-.497.533-.639.994-.639.178,0,.533.036.781.106.497.106,1.207.071,1.597-.036.319-.071.745-.071.958.071.178.071.249.071.461.035.355-.071,1.278.036,1.81.178,1.668.426,3.088,1.774,4.082,3.833.958,1.952,1.171,4.046,1.42,6.176.035.319.106,1.1.106,1.81.035.674.035,1.242.035,1.242.071-.071.178-1.846.178-2.556,0-.852.036-1.029.213-1.029s.249.178.284.958c.071,1.491-.071,3.052-.391,4.365ZM35.044,13.132c-.071-1.455-.213-2.378-.674-3.656-.249-.745-1.313-2.875-2.165-3.052-.32-.035-1.136-.035-1.242.036-.178.106-.213.319-.249,1.349-.036.923-.036,1.029-.142,1.136-.177.178-.319.213-.532.142-.284-.106-.355-.355-.391-1.278-.036-.781-.036-.816-.177-.958-.071-.071-.142-.142-.178-.142-.106,0-.745.639-.781.781-.071.106-.106.319-.106.461,0,.532-.071.816-.355,1.136-.142.142-.284.319-.284.39-.036.071-.071.533-.106,1.065-.071.994-.106,1.1-.426,1.1-.284,0-.354-.142-.39-.745l-.036-.532-.106.354c-.391,1.243-.568,2.343-.568,3.691,0,2.804,1.846,6.424,4.507,7.418.32.142.355.142.426-.071.035-.106.213-.248.355-.391,1.419-1.064,1.987-2.661,2.342-4.365.355-1.739.426-4.649.142-5.927-.178-.709-.461-1.739-.639-2.129-.213-.461-.213-.674-.106-.781.213-.177.533.177.746.745.213.604.603,2.165.674,2.733.071.746.035,3.479-.071,4.401-.142.993-.177,1.349-.355,1.916-.035.284-.106.497-.106.497.106,0,.604-1.562.674-2.129.036-.177.107-.497.142-.674.142-.674.213-1.419.178-2.52ZM30.395,21.792c-1.775-.781-3.194-2.627-4.046-5.289l-.142-.497v.39c.178,1.952,1.704,5.715,4.011,5.715.178,0,.355-.036.497-.071.106-.071.071-.071-.319-.248ZM39.374,9.299c-.036-.177-.107-.639-.178-.994-.745-3.833-2.946-6.495-5.608-6.886-.39-.035-1.242-.035-1.171.036,0,.036.355.142.709.249,3.336,1.1,5.253,4.011,6.069,7.347.106.319.178.568.178.568.035,0,0-.142,0-.319Z"/>
  <path class="st0" d="M60.635,3.229c0,.249-.036.746-.071,1.136-.035.391-.106,1.207-.178,1.846-.035.604-.106,1.775-.178,2.591-.142,1.42-.177,2.023-.426,5.679-.106,1.917-.319,4.294-.426,5.182-.106.745-.284,4.224-.319,5.644,0,.78-.071,1.49-.248,2.058-.106.427-.639,1.136-1.136,1.136-.568,0-.853-.745-.994-1.171-.142-.461-.497-.923-.78-.993-.888-.249-.781-.178-1.42-.853-.355-.354-.745-.71-.888-.816-.284-.213-.426-.426-.567-.852-.071-.178-.355-.639-.604-.994-.568-.815-.71-1.1-.852-1.455-.036-.142-.319-.639-.604-1.136q-.497-.887-.959-1.277c-.745-.568-.922-.816-1.1-1.668-.071-.249-.178-.639-.284-.816-.071-.178-.213-.532-.248-.781-.071-.319-.213-.674-.426-1.136l-.355-.71-.035.391c-.036.568-.071,5.927,0,6.992,0,.461.07,1.064.106,1.313.035.248.106.993.142,1.633.035,1.136.035,1.206-.071,1.419-.142.319-.426.639-.745.816-.354.213-.354.284-.354.888,0,.674-.106.852-.462,1.029-.177.106-.283.142-.39.106-.284-.071-.533-.319-.64-.639-.177-.568-.248-.675-.639-.816-.78-.355-1.136-.71-1.349-1.313-.461-1.526-.568-9.512-.213-15.12.035-.71.071-1.349.071-1.419-.036,0-.178,1.526-.249,2.626-.177,2.343-.212,6.495-.106,8.625.071,1.42.035,2.448-.106,2.448-.355,0-.461-1.597-.461-6.53,0-3.727.035-4.72.248-6.921.106-.994.142-1.419.106-1.881q-.035-.639.178-1.242c.178-.568.178-.639.142-1.1,0-.249-.035-.497-.035-.568-.036-.106.071-.71.178-.888.035-.106.213-.319.354-.497.249-.249.355-.426.497-.746.178-.461.426-.709.816-.923.106-.071.284-.142.354-.213.178-.142.781-.284,1.278-.284.283,0,1.277.249,1.419.39.036,0,.106.071.178.142q.143.142.213.071c.071-.106.143-.071.143.071,0,.036.035.106.035.106.035,0,.071-.178.071-.391,0-.319,0-.354.07-.354.071,0,.143.106.213.213.036.106.427,1.207.816,2.449,1.846,5.608,2.556,7.347,4.473,10.896l.639,1.171.035-.461c.035-.249.071-1.1.106-1.846.035-1.029.355-6.034.462-6.247,0-.071.07-.816.142-1.668.319-3.514.391-3.833,1.101-4.507.354-.355.496-.391,1.277-.497.426-.036.923.071,1.384.284.036.036.106.036.178.036.035,0,.106.071.143.106.035.071.142.142.248.213.106.036.178.142.213.213,0,.071.035.106.035.106.071,0,.106-.39.071-.816,0-.106.035-.178.071-.142.035,0,.035.249,0,.604-.036.461,0,.603.035.709.035.036.106.178.142.284,0,.106.106.249.284.39l.213.249.036.426ZM54.459,16.929l.035-.922-.497-.923c-2.2-4.011-2.945-5.856-5.004-12.245-.213-.639-.426-1.278-.497-1.42l-.106-.284-.035.249c-.106.497-.071.639.142,1.064.106.249.639,1.704,1.136,3.23,1.242,3.797,2.556,7.311,4.578,10.754l.249.497Z"/>
  <path class="st0" d="M80.795,3.939c0,.639-.248,1.278-.639,1.81-.106.178-.355.391-.568.568-.461.319-.532.426-.426,1.065.036.497.036.745-.142,1.136-.178.39-.568.426-.781.036-.142-.249-.319-1.136-.319-1.633,0-.213,0-.426-.035-.461-.036,0-.355.071-.745.213-.391.106-.816.249-.959.249-.319.071-.816,0-1.349-.177l-.426-.142-1.916.213c-1.029.142-2.059.249-2.236.249-.319.035-.391.071-.391.177-.071.355-.319,4.401-.284,4.437,0,.036.497,0,1.065-.071,1.49-.178,2.094-.213,2.413-.106.213.035.426.035,1.029,0,.781-.071.994-.071.994.142q0,.071-.106,0c-.036-.071-.178-.106-.427-.106-.461,0-.922.071-.887.106.035.036.178.106.354.178.178.071.391.177.462.249.035.071.178.142.248.213.106.035.178.142.178.177,0,.036.106.249.213.426.142.284.178.426.178.604,0,.142.035.319.07.391.071.071.071.142.036.142-.036.036-.036.106-.036.178.036.036,0,.142-.035.213,0,.071-.035.213-.071.319-.035.284-.426.816-.78,1.101-.462.354-.816.461-1.598.567-1.774.213-3.407.426-3.442.461-.035,0,0,3.975.035,4.046,0,0,.355-.035.746-.106,1.774-.284,4.046-.497,5.572-.532.922,0,1.1-.036,1.384-.106.284-.106.391-.143.852-.106,1.172.07,1.42.319,1.207,1.1-.035.213-.035.249.142.532.143.249.178.32.178.816.071,1.242.071,1.207-.142,1.633-.249.568-.391.958-.497,1.42-.143.639-.391.888-.816.888-.249,0-.497-.214-.568-.568-.07-.142-.142-.319-.177-.426-.106-.142-.143-.178-.355-.142-.142.035-.674.07-1.171.106-.675.035-.994.07-1.101.142-.248.142-.497.142-.852.071-.284-.106-1.136-.178-1.526-.178-.319,0-.532.071-1.597.426-.213.106-.604.178-.853.178-.39.035-.461,0-.709-.106-.249-.143-.319-.178-.71-.143-.249.036-.426.071-.462.106-.035.036-.106.249-.177.427-.071.319-.107.532-.143,1.525,0,1.207-.035,1.207-.178,1.42-.213.391-.496.497-.815.391-.32-.143-.355-.319-.355-1.526v-1.064l-.142-.213c-.143-.213-.249-.284-.497-.284-.178,0-.355.035-.604.071-.391.106-.71.142-.923.106-.354-.036-1.313-.355-1.455-.462-.178-.142-.745-1.81-.745-2.129,0-.106.071-.249.142-.391.143-.178.178-.284.178-.639.035-.214.071-.497.142-.568.143-.354.888-.816,1.668-1.136l.604-.248v-.71c0-.462.036-.852.071-.994.035-.178.071-.461.035-.993,0-.675-.106-1.242-.354-2.343-.035-.106-.142-.355-.284-.568-.106-.178-.319-.639-.497-.994-.142-.354-.354-.745-.461-.887-.284-.39-.319-.745-.143-1.136.106-.213.427-.355,1.101-.497.284-.036.532-.106.532-.106,0,0,.036-.497.071-1.065s.071-1.384.106-1.81c.071-.746.035-.816-.071-1.136-.035-.178-.106-.355-.142-.355-.035-.036-.178-.071-.354-.106-.427-.106-.568-.249-.746-.639-.106-.178-.283-.497-.426-.675-.284-.319-.497-.781-.497-1.1,0-.106.036-.426.106-.71l.071-.497-.213-.249c-.248-.284-.319-.532-.213-.816.106-.249.461-.39,1.277-.497.143-.036.355-.071.426-.106.106-.071.284-.107.427-.107.142,0,.213-.035.319-.142.07-.071.142-.178.142-.178,0-.071.319-.213.461-.213.071,0,.214.071.355.213l.213.178.284-.071c.177-.071.319-.106.426-.106.213,0,.354.071.639.249l.462.213.39-.106c.284-.071.497-.071.746-.036.248,0,.958-.035,2.732-.248,2.626-.32,5.218-.533,7.844-.533.781,0,.852.036.888.071.106.142.035.177-.071.071-.035-.071-.319-.106-1.029-.071-.497,0-.462.071.035.248.213.107.462.213.532.284.071.106.178.177.249.213s.142.142.178.284c.035.106.142.284.177.354.143.178.249.604.213.71-.035.071,0,.178.036.249.035.071.07.177.035.213Z"/>
  <path class="st0" d="M92.862,18.243c-.035.106-.071.213-.071.249,0,0,.32-.64.675-1.456,1.633-3.584,3.727-7.488,5.644-10.576.816-1.313,1.136-1.668,1.136-1.278,0,.213-.853,1.917-1.882,3.798-2.235,4.01-2.98,5.537-5.679,11.606-1.136,2.591-1.632,3.727-1.81,4.294-.178.533-.426,1.065-.745,1.562-.426.674-.497.852-.497,1.738,0,.391,0,.923.035,1.172q.036.461-.106.639c-.142.178-.284.213-.532.142-.106,0-.213-.106-.284-.177-.248-.284-.319-.64-.319-1.562,0-.532-.035-.923-.071-1.029q-.07-.213-.39-.248c-.462-.035-.64-.106-.816-.319l-.178-.178.035.816c0,.958-.035,1.064-.354,1.064-.354,0-.391-.07-.461-1.029-.036-.745-.071-.887-.178-1.242-.213-.567-.249-.709-.143-1.136.036-.213.071-.567.071-.887,0-.781.213-1.598.888-3.55.532-1.49.852-2.342,1.49-4.01l.106-.249-.106-.071c-.319-.213-1.49-1.739-2.484-3.229-.178-.32-.319-.461-.354-.426,0,.036-.036.355-.071.674-.035.32-.071.639-.071.746-.035.213-.248.355-.426.284-.213-.035-.284-.284-.284-.887,0-.852-.07-1.81-.639-2.484-.426-.461-.567-.781-.923-2.023-.248-.781-.391-1.171-.745-1.846-.213-.497-.532-1.029-.639-1.207-.143-.213-.249-.391-.213-.426,0,0,0-.035-.036-.071-.035-.036-.035,0-.035.036.035.035.035.071,0,.035-.035-.035-.071-.106-.071-.142,0-.071-.035-.32-.142-.568-.106-.355-.142-.497-.142-1.101,0-.923.213-1.49,1.1-1.952.213-.142.497-.355.746-.604.354-.355.39-.391.603-.391.533,0,1.704,1.384,1.704,1.704,0,0,.035.071.106.106.071.036.248.32.461.568.178.284.462.639.604.816.143.142.284.355.355.461.142.178.213.249.283.284.071,0-.887-1.881-1.206-2.414-.106-.249-.213-.426-.213-.461h.035c.035,0,.142.142.745,1.029.319.461.675.887.745.958.106.071.143.142.071.142s-.354-.355-.639-.745c-.142-.213-.213-.319-.248-.319-.036,0,.142.39.496,1.1.746,1.419,1.172,2.165,2.201,3.833.639,1.029,1.597,2.484,1.739,2.662,0,.035.07.106.142.177.071,0,.213-.249.639-1.136,1.384-2.839,2.697-5.075,3.904-6.602.248-.355.567-.781.674-.958.213-.355.675-.816.923-.958.213-.106.497-.142.853-.142.603,0,1.277.106,1.738.568l.214.178.177-.142c.355-.319.462-.213.319.284l-.07.354.248.249c.284.319.354.568.284.887-.071.284-.284.639-.994,1.597-.354.497-.745,1.029-.887,1.242-.106.213-.427.71-.675,1.136-1.313,2.201-3.514,6.637-4.791,9.689-.249.604-.497,1.207-.568,1.349ZM90.804,10.718c-.106-.106-.745-1.064-1.42-2.129-.639-.994-1.668-2.733-2.022-3.336-.143-.284-.284-.533-.319-.533-.071,0-.106.106,0,.178.035.035.07.071.07.142,0,.036.036.142.106.213.106.142.178.39.178.781.071.603.426,1.242.888,1.632.461.355.639.639.78,1.278.106.355.213.532.781,1.42.391.568.674,1.029.71,1.029,0,0,.106-.142.178-.284.106-.284.142-.319.07-.391ZM99.89,1.704c0,.071.213.319.249.319.035,0,.07-.142.106-.284.035-.178.07-.32.035-.355,0-.071-.391.248-.391.319Z"/>
</svg>