<?xml version="1.0" encoding="UTF-8"?>
<svg id="Layer_1" xmlns="http://www.w3.org/2000/svg" width=".875in" height=".6in" version="1.1" viewBox="0 0 62.987 43.209">
  <!-- Generator: Adobe Illustrator 30.6.0, SVG Export Plug-In . SVG Version: 2.1.4 Build 109)  -->
  <defs>
    <style>
      .st0 {
        fill: #231f20;
      }
    </style>
  </defs>
  <path class="st0" d="M0,0h5.903l-1.278,38.219,6.877,1.096v3.895H0V0Z"/>
  <path class="st0" d="M16.31,0h11.137v43.209h-3.53l-1.583-16.918h-3.104l-2.8,16.918h-2.86L16.31,0ZM23.248,23.43c.243,0,.365-.122.365-.365V2.312c0-.243-.122-.365-.365-.365h-2.617c-.243,0-.365.122-.365.365v20.813c0,.204.122.304.365.304h2.617Z"/>
  <path class="st0" d="M30.733,0h3.834l3.651,41.688h.304L42.599.609h4.017l-5.902,42.6h-6.391L30.733,0Z"/>
  <path class="st0" d="M50.876,0h9.615l2.495,43.209h-2.678l-2.191-16.188-4.868,2.312-1.339,13.875h-3.773L50.876,0ZM56.597,25.134c.243-.081.364-.203.364-.365l.365-21.848c0-.244-.121-.365-.365-.365l-2.616.608c-.244.041-.365.244-.365.609v21.422c0,.203.121.304.365.304l2.252-.365Z"/>
</svg>