<?xml version="1.0" encoding="UTF-8"?>
<svg id="Layer_1" xmlns="http://www.w3.org/2000/svg" width="1.319in" height=".505in" version="1.1" viewBox="0 0 94.942 36.326">
  <!-- Generator: Adobe Illustrator 30.6.0, SVG Export Plug-In . SVG Version: 2.1.4 Build 109)  -->
  <defs>
    <style>
      .st0 {
        fill: #231f20;
      }
    </style>
  </defs>
  <path class="st0" d="M23.811,30.976c-.714,1.111-1.692,1.891-2.936,2.339-1.244.447-2.895.672-4.951.672-1.759,0-3.085-.091-3.98-.274-.896-.182-1.501-.505-1.816-.97-.316-.465-.473-1.128-.473-1.99V6.071c0-1.161.215-1.998.647-2.513.431-.514,1.194-.804,2.289-.871l2.538-.199V.995H0v1.493l2.041.199c1.095.1,1.857.398,2.289.896.431.498.647,1.327.647,2.488v24.682c0,1.161-.216,1.99-.647,2.487-.431.498-1.194.797-2.289.896l-2.041.198v1.493h18.71c1.194,0,2.43.024,3.708.074,1.276.05,2.43.125,3.458.225l1.294-9.803h-1.542c-.498,1.99-1.104,3.541-1.816,4.652Z"/>
  <path class="st0" d="M47.222,32.195c-1.095.398-2.223.598-3.384.598-2.058,0-3.84-.506-5.35-1.518s-2.67-2.405-3.483-4.181c-.813-1.773-1.219-3.772-1.219-5.996,0-.238.012-.466.021-.696h17.047l.1-.696c.065-.365.1-.655.1-.871v-.622c0-2.853-.797-5.026-2.389-6.519-1.593-1.493-3.699-2.239-6.32-2.239-2.388,0-4.577.597-6.568,1.792-1.99,1.194-3.575,2.836-4.752,4.926-1.178,2.09-1.767,4.479-1.767,7.165,0,2.456.505,4.661,1.518,6.618,1.012,1.958,2.446,3.509,4.304,4.653,1.857,1.145,4.014,1.717,6.469,1.717,1.924,0,3.699-.407,5.324-1.22s3.234-2.131,4.827-3.956l-.995-.945c-1.228.93-2.389,1.593-3.483,1.99ZM35.852,14.033c1.376-1.758,3.176-2.638,5.398-2.638,1.625,0,2.869.465,3.732,1.394.862.929,1.294,2.223,1.294,3.881,0,.564-.05,1.179-.149,1.842h-12.13c.296-1.773.909-3.27,1.855-4.479Z"/>
  <path class="st0" d="M75.933,30.454l-6.402-8.312,5.059-6.816c.995-1.326,1.932-2.272,2.812-2.836.878-.563,2.031-.912,3.458-1.045v-1.493h-10.947v1.493l1.394.149c.961.1,1.525.49,1.691,1.169.166.68-.133,1.535-.896,2.562l-3.821,5.192-4.19-5.441c-.631-.796-.829-1.55-.597-2.264.231-.713.796-1.12,1.691-1.219l1.244-.149v-1.493h-12.44v1.493c.729.034,1.344.142,1.842.324.497.183,1.011.547,1.542,1.095.53.547,1.211,1.368,2.04,2.463l5.787,7.486-6.085,7.641c-.697.896-1.319,1.601-1.866,2.114-.548.516-1.12.896-1.717,1.145-.598.249-1.344.457-2.239.622v1.493h10.947v-1.493l-1.543-.149c-1.128-.099-1.8-.497-2.015-1.193-.217-.697.091-1.543.92-2.538l4.848-6.025,4.657,6.025c.796,1.028,1.086,1.891.87,2.588-.216.696-.904,1.095-2.064,1.193l-1.244.1v1.493h12.44v-1.493c-1.229-.165-2.198-.597-2.911-1.293-.714-.697-1.468-1.56-2.265-2.588Z"/>
  <path class="st0" d="M88.224,5.822c.796,0,1.476-.274,2.04-.821.563-.547.846-1.252.846-2.115s-.282-1.559-.846-2.09c-.564-.53-1.244-.796-2.04-.796-.83,0-1.526.266-2.09.796-.564.531-.847,1.228-.847,2.09s.282,1.567.847,2.115c.563.547,1.26.821,2.09.821Z"/>
  <path class="st0" d="M93.449,34.086c-.995-.166-1.659-.439-1.99-.821-.332-.381-.498-1.086-.498-2.115V9.654h-.696l-7.663,2.189v1.244c1.658.199,2.72.522,3.185.971.464.448.696,1.203.696,2.264v14.828c0,1.029-.166,1.734-.497,2.115-.332.382-.995.655-1.99.821l-1.493.248v1.493h12.44v-1.493l-1.493-.248Z"/>
</svg>