<?xml version="1.0" encoding="UTF-8"?>
<svg id="Layer_1" xmlns="http://www.w3.org/2000/svg" width="1.233in" height=".281in" version="1.1" viewBox="0 0 88.782 20.253">
  <!-- Generator: Adobe Illustrator 30.5.1, SVG Export Plug-In . SVG Version: 2.1.4 Build 3)  -->
  <defs>
    <style>
      .st0 {
        fill: #231f20;
      }
    </style>
  </defs>
  <path class="st0" d="M34.294,18.49l-2.073-8.898-1.272-5.361-.582-2.227c.262-.092.511-.263.59-.445.118-.27.163-.584-.013-.807C30.393.052,28.11-.042,27.011.013c-.521.026-1.017.145-1.462.397-.317.18-.553.63-.346.961.146.234.472.384.688.535l-.39,1.394-.764,3.372-.993-.153c-.553-.085-1.072.245-1.324.774-.179.376-.278.765-.361,1.153l-.617,2.889c-.145.679.437,1.298,1.109,1.53l.807.279-1.188,5.51c-.622.091-1.234.522-1.111.983.129.484,1.257.625,1.972.615l5.198-.076c1.915.03,3.769.09,5.674.025.669-.023,1.519-.239,1.589-.797.059-.467-.553-.872-1.195-.915ZM23.63,11.869c-.668-.081-1.209-.522-1.137-1.174.102-.919.28-1.755.568-2.609.1-.298.87-.335,1.396-.09l-.828,3.873Z"/>
  <polygon class="st0" points="10.071 13.539 7.3 .053 0 .053 0 3.666 1.485 3.666 1.485 16.532 .049 16.532 .049 20.046 6.83 20.046 6.83 16.532 5.568 16.532 5.568 9.184 8.611 20.046 11.234 20.046 14.327 9.184 14.327 16.532 13.288 16.532 13.288 20.046 19.573 20.046 19.573 16.532 18.385 16.532 18.385 3.666 19.573 3.666 19.573 .053 12.62 .053 10.071 13.539"/>
  <polygon class="st0" points="38.007 .077 36.176 1.834 36.176 9.901 38.056 11.732 44.614 11.732 44.614 16.557 40.061 16.557 40.061 14.132 36.176 14.132 36.176 17.893 38.329 20.022 46.593 20.022 48.499 18.141 48.499 9.975 46.668 8.144 40.085 8.144 40.085 3.641 44.564 3.641 44.564 5.942 48.573 5.942 48.573 2.106 46.519 .077 38.007 .077"/>
  <polygon class="st0" points="51.072 .028 49.414 1.636 49.414 18.141 51.294 20.022 59.88 20.022 61.687 18.215 61.687 13.019 57.777 13.019 57.777 16.532 53.274 16.532 53.274 3.616 57.802 3.616 57.802 5.67 61.687 5.67 61.687 1.81 59.88 .028 51.072 .028"/>
  <path class="st0" d="M64.583.028l-1.905,1.93v16.455l1.609,1.608h8.562l1.831-1.856V1.884l-1.881-1.856h-8.215ZM70.794,16.557h-4.232V3.616h4.232v12.941Z"/>
  <polygon class="st0" points="88.782 5.992 88.782 .127 75.865 .127 75.865 5.992 79.082 5.992 79.082 3.591 80.344 3.591 80.344 16.532 79.032 16.532 79.032 20.022 85.689 20.022 85.689 16.532 84.303 16.532 84.303 3.591 85.566 3.591 85.566 5.992 88.782 5.992"/>
</svg>