<?xml version="1.0" encoding="UTF-8"?>
<svg id="Layer_1" xmlns="http://www.w3.org/2000/svg" width="1.317in" height=".331in" version="1.1" viewBox="0 0 94.806 23.85">
  <!-- Generator: Adobe Illustrator 30.5.1, SVG Export Plug-In . SVG Version: 2.1.4 Build 3)  -->
  <path d="M27.915,2.814c-2.983,0-4.871.944-6.362,3.105h-.061c-.761-2.131-2.496-3.105-5.449-3.105s-4.87.974-6.21,3.105h-.061l-.213-2.496H0v18.874h10.015v-11.689c.396-.183.64-.274.974-.274.761,0,1.035.457,1.035,1.644v10.32h10.015v-11.689c.274-.183.609-.274.944-.274.792,0,1.065.426,1.065,1.644v10.32h10.015v-11.872c0-5.51-1.674-7.61-6.149-7.61Z"/>
  <path d="M76.029,2.814c-2.405,0-4.262.853-5.571,2.618h-.061V.988h-10.167v21.309h7.488l.822-1.461h.061c1.674,1.491,3.318,2.069,5.753,2.069,5.937,0,8.858-3.409,8.858-10.35,0-6.362-2.435-9.741-7.184-9.741ZM71.311,15.387c-.365,0-.67-.092-.913-.274v-4.505c.243-.183.548-.274.913-.274.944,0,1.278.669,1.278,2.526s-.334,2.527-1.278,2.527Z"/>
  <path d="M84.485,8.142v14.155h10.168v-14.155c-1.4.609-3.075.913-5.084.913-1.979,0-3.653-.304-5.084-.913Z"/>
  <path d="M89.569,7.929c3.562,0,5.236-1.218,5.236-3.775s-1.675-3.775-5.236-3.775-5.236,1.218-5.236,3.775,1.675,3.775,5.236,3.775Z"/>
  <path d="M56.023,4.659c-.957-.441-2.043-.32-2.963.191-.401.222-.783.432-1.205.571-.608.201-1.211-.086-1.383-.719-.208-.766.169-1.829-.229-2.886C49.821.691,48.754.005,47.562,0c-1.282-.005-2.342.837-2.675,2.077-.121.451-.24.889-.422,1.317-.336.792-1.113.679-1.872.432-.526-.171-1.088-.253-1.626-.084-.821.258-1.417.949-1.654,1.764-.177.609-.075,1.219.208,1.779l.655,1.298c.205.406.199.975-.158,1.281-.59.506-1.636.414-2.53.943-.807.477-1.229,1.271-1.223,2.2.007,1.084.714,2.075,1.782,2.368l1.55.425c.554.152.951.544,1.165,1.062.217.526.171,1.027.088,1.568-.156,1.022-.117,2.036.214,3.011.492,1.448,1.799,2.421,3.315,2.409,1.041-.009,1.946-.507,2.498-1.384l.834-1.324c.542-.86,1.554-1.063,2.388-.46l.972.702c1.374.992,3.371.375,4.127-1.192.752-1.558,1.467-3.793.489-5.303-.209-.322-.51-.602-.794-.865-.741-.686-.859-1.745-.25-2.558.275-.367.642-.642,1.044-.881.997-.594,1.899-1.33,2.108-2.478.26-1.432-.436-2.833-1.77-3.448Z"/>
</svg>