<?xml version="1.0" encoding="UTF-8"?>
<svg id="Layer_1" xmlns="http://www.w3.org/2000/svg" width="1.49in" height=".309in" version="1.1" viewBox="0 0 107.277 22.213">
  <!-- Generator: Adobe Illustrator 30.5.1, SVG Export Plug-In . SVG Version: 2.1.4 Build 3)  -->
  <defs>
    <style>
      .st0 {
        fill: #ee2c2b;
      }

      .st1 {
        fill: #fff;
      }
    </style>
  </defs>
  <path class="st1" d="M80.919,0h-12.277l-.888,8.026h-.889l-.951-8.026H31.529v.004h-2.344v-.004h-10.627v11.325h-.73l-1.776-11.325H0v22.206h10.627v-11.325h.92l1.777,11.325h15.861V6.952h2.344v15.254h34.163l.952-8.057h.888l.952,8.057h12.53l-2.633-10.88.576-2.57h6.844v13.45h11.864v-13.45h4.505V0h-21.251ZM52.402,19.667v-4.535h-9.009v-1.681h1.551v-4.695h-1.551v-1.681h9.009V2.518l9.961,8.901-9.961,8.248Z"/>
  <circle class="st0" cx="103.803" cy="18.739" r="3.474"/>
</svg>