<?xml version="1.0" encoding="UTF-8"?>
<svg id="Layer_1" xmlns="http://www.w3.org/2000/svg" width="1.276in" height=".242in" version="1.1" viewBox="0 0 91.887 17.417">
  <!-- Generator: Adobe Illustrator 30.5.1, SVG Export Plug-In . SVG Version: 2.1.4 Build 3)  -->
  <defs>
    <style>
      .st0 {
        fill: #231f20;
      }
    </style>
  </defs>
  <path class="st0" d="M0,0v17.417h17.417V0H0ZM15.106,15.376h-3.263l-5.791-7.413v7.413h-3.707V1.863h3.494l5.56,7.143V1.863h3.707v13.513Z"/>
  <path class="st0" d="M37.084,0v17.417h17.417V0h-17.417ZM52.364,15.37h-3.262l-5.792-7.413v7.413h-3.707V1.856h3.494l5.559,7.143V1.856h3.707v13.513Z"/>
  <g>
    <path class="st0" d="M55.745,0v17.417h17.417V0h-17.417ZM70.703,8.112c0,4.402-2.201,7.432-6.235,7.432-2.027,0-3.475-.637-4.73-1.602l1.756-2.587c.946.733,1.834,1.081,2.896,1.081,1.969,0,2.471-1.737,2.567-2.818-.83.772-1.815,1.1-2.877,1.1-2.606,0-4.536-1.641-4.536-4.285v-.039c0-2.973,2.297-4.903,5.386-4.903,1.969,0,3.128.54,4.15,1.564.985.985,1.622,2.529,1.622,5.019v.039Z"/>
    <path class="st0" d="M65.066,4.386c-1.178,0-1.892.792-1.892,1.834v.039c0,1.023.753,1.776,1.93,1.776s1.892-.772,1.892-1.757v-.039c0-1.042-.753-1.853-1.931-1.853Z"/>
  </g>
  <g>
    <path class="st0" d="M83.594,4.984h-2.471v3.263h2.49c1.255,0,2.008-.617,2.008-1.602v-.039c0-1.081-.792-1.622-2.027-1.622Z"/>
    <path class="st0" d="M74.47,0v17.417h17.417V0h-17.417ZM85.505,15.274l-2.722-4.093h-1.66v4.093h-3.745V1.761h6.39c2.066,0,3.494.54,4.402,1.448.791.792,1.197,1.814,1.197,3.147v.039c0,2.084-1.1,3.455-2.78,4.17l3.224,4.71h-4.305Z"/>
  </g>
  <path class="st0" d="M18.518,0v17.417h17.417V0h-17.417ZM33.983,5.509h-4.98v6.303h4.98v3.745h-13.513v-3.745h4.788v-6.303h-4.788V1.764h13.513v3.745Z"/>
</svg>