<?xml version="1.0" encoding="UTF-8"?>
<svg id="Layer_1" xmlns="http://www.w3.org/2000/svg" width="10in" height="10in" version="1.1" viewBox="0 0 720 720">
  <!-- Generator: Adobe Illustrator 30.4.0, SVG Export Plug-In . SVG Version: 2.1.4 Build 226)  -->
  <defs>
    <style>
      .st0 {
        fill: #231f20;
      }
    </style>
  </defs>
  <path class="st0" d="M215.411,245.198h23.371v101.505h-25.307l-33.189-59.188v59.188h-23.371v-101.229h25.445l33.051,59.05v-59.327Z"/>
  <path class="st0" d="M347.337,295.812c0,28.073-22.818,50.752-50.891,50.752s-50.752-22.68-50.752-50.752,22.68-50.753,50.752-50.753,50.891,22.68,50.891,50.753Z"/>
  <path class="st0" d="M452.294,295.812c0,28.073-22.818,50.752-50.891,50.752s-50.753-22.68-50.753-50.752,22.68-50.753,50.753-50.753,50.891,22.68,50.891,50.753Z"/>
  <path class="st0" d="M517.701,245.198h23.371v101.505h-25.307l-33.19-59.188v59.188h-23.371v-101.229h25.446l33.051,59.05v-59.327Z"/>
</svg>