<?xml version="1.0" encoding="UTF-8"?>
<svg id="Layer_1" xmlns="http://www.w3.org/2000/svg" width="1.459in" height=".649in" version="1.1" viewBox="0 0 105.05 46.699">
  <!-- Generator: Adobe Illustrator 30.6.0, SVG Export Plug-In . SVG Version: 2.1.4 Build 109)  -->
  <defs>
    <style>
      .st0 {
        fill: #39FF14;
      }
    </style>
  </defs>
  <path class="st0" d="M2.589.561h10.013c3.683,0,6.416.863,8.2,2.59,2.244,2.115,3.367,4.762,3.367,7.941v7.424c0,2.46-.691,4.014-2.072,4.661-.518.302-1.381.705-2.59,1.208,0,.129-.029.245-.086.345.46.633.691,1.094.691,1.381,0,.82-1.324,1.683-3.971,2.589-.964.23-2.288.345-3.971.345h-2.676v17.091H2.589v-18.559c0-.935-.633-1.712-1.899-2.331-.46-.273-.69-.532-.69-.777,1.669-1.166,2.503-2.086,2.503-2.762.058-.302.086-.59.086-.863V.561ZM9.495,7.639v13.207c0,.59-.086,1.021-.259,1.295h4.316c1.928,0,3.223-1.007,3.885-3.021.057-.489.086-.892.086-1.208v-5.956c0-2.085-.777-3.438-2.331-4.057-.504-.173-1.079-.259-1.726-.259h-3.971Z"/>
  <path class="st0" d="M26.327.561h6.906v20.717c0,1.007-.806,1.899-2.417,2.676l-.173.259v.345c1.727.806,2.59,1.813,2.59,3.021v18.559h-6.906v-18.472c0-1.28-.863-2.316-2.589-3.108v-.518c1.726-.791,2.589-1.827,2.589-3.107V.561Z"/>
  <path class="st0" d="M35.391.561h21.407v6.992h-7.252v13.552c0,1.166-.804,2.115-2.416,2.849l-.174.259v.173c.072.158.59.532,1.555,1.122.691.59,1.035,1.194,1.035,1.813v18.817h-6.904v-18.386c0-1.395-.863-2.46-2.59-3.194v-.345c.057-.144.662-.575,1.812-1.294.518-.547.777-1.237.777-2.072V7.553h-7.251V.561Z"/>
  <path class="st0" d="M68.831,0c4.302,0,7.582,2.043,9.841,6.129.748,1.338,1.122,3.122,1.122,5.352v4.661h-7.165v-5.006c0-1.957-.834-3.28-2.503-3.971-.273-.173-.705-.259-1.295-.259h-.432c-1.654,0-2.834,1.007-3.539,3.021-.058.302-.086.59-.086.863v10.186c0,1.208-.806,2.187-2.417,2.935l-.173.259v.173c.158.187.791.647,1.899,1.381.46.547.69,1.151.69,1.812v8.374c0,1.64.949,2.849,2.849,3.625.316.058.575.086.776.086h.519c1.452,0,2.575-.776,3.366-2.33.229-.475.345-1.021.345-1.641v-6.214h7.165v5.87c0,2.992-.777,5.409-2.331,7.251-2.316,2.762-5.165,4.144-8.545,4.144h-.087c-4.302,0-7.582-2.072-9.84-6.216-.69-1.294-1.036-2.992-1.036-5.093v-7.855c0-1.007-.777-1.841-2.331-2.503,0-.086-.086-.173-.259-.259,0-.201.634-.805,1.899-1.812.461-.489.69-1.151.69-1.985v-9.582c0-5.38,2.618-9.035,7.855-10.962.963-.23,1.971-.374,3.021-.432Z"/>
  <path class="st0" d="M82.952.561h6.905v19.335h8.287V.561h6.905v20.717c0,1.223-.834,2.23-2.503,3.021,0,.115-.058.173-.173.173.101.288.733.777,1.899,1.467.518.69.776,1.208.776,1.554v18.645h-6.905v-18.386l-.087-.863h-8.286l.086.172v19.077h-6.905v-18.386c0-1.179-.748-2.071-2.244-2.676l-.259-.345v-.345c1.669-.964,2.503-2.057,2.503-3.28V.561Z"/>
</svg>