<?xml version="1.0" encoding="UTF-8"?>
<svg id="Layer_1" xmlns="http://www.w3.org/2000/svg" width="1.039in" height=".462in" version="1.1" viewBox="0 0 74.837 33.287">
  <!-- Generator: Adobe Illustrator 30.6.0, SVG Export Plug-In . SVG Version: 2.1.4 Build 109)  -->
  <defs>
    <style>
      .st0 {
        fill: #231f20;
      }

      .st1 {
        fill: #eb2329;
      }
    </style>
  </defs>
  <g>
    <path class="st0" d="M2.167,14.642c0-1.334,0-1.505-.923-2.121l-.308-.205c-.137-.137-.137-.513.034-.616.89-.376,2.498-1.198,3.387-1.848.206,0,.342.068.411.24-.068.616-.137,1.129-.137,1.574,0,.239.068.444.308.444.445-.205,2.6-1.608,4.79-1.608,3.455,0,5.679,2.806,5.679,6.261,0,4.755-3.49,8.176-8.348,8.176-.616,0-1.574-.068-1.881-.137-.308.068-.479.239-.479.958v3.592c0,2.43.068,2.737,1.3,2.908l1.334.171c.239.171.171.753-.068.855-1.642-.068-2.634-.103-3.832-.103-1.232,0-2.258.034-3.216.103-.24-.103-.308-.685-.068-.855l.718-.103c1.266-.171,1.3-.513,1.3-2.977v-14.71ZM4.699,21.005c0,1.095.342,1.505,1.026,2.052.684.513,1.745.753,2.463.753,2.805,0,4.447-2.6,4.447-6.158,0-2.737-1.539-5.508-4.618-5.508-1.471,0-2.532.547-2.908.958-.308.376-.411.89-.411,2.019v5.884Z"/>
    <path class="st0" d="M19.958,14.642c0-1.334,0-1.505-.924-2.121l-.308-.205c-.137-.137-.137-.513.034-.616.787-.274,2.6-1.163,3.455-1.676.171.034.274.103.274.239v1.984c0,.171.034.273.103.308,1.197-.992,2.497-2.053,3.763-2.053.855,0,1.54.548,1.54,1.369,0,1.129-.924,1.574-1.471,1.574-.342,0-.513-.103-.752-.24-.513-.342-1.026-.547-1.505-.547-.547,0-.958.308-1.231.685-.342.479-.445,1.471-.445,2.634v4.653c0,2.463.068,2.874,1.368,2.976l1.231.103c.24.171.171.752-.068.855-1.608-.068-2.6-.103-3.797-.103-1.231,0-2.258.034-3.147.103-.24-.103-.308-.684-.068-.855l.65-.103c1.266-.205,1.3-.513,1.3-2.976v-5.987Z"/>
    <path class="st0" d="M43.188,17.584c0,4.276-2.942,7.355-7.218,7.355-3.934,0-7.013-2.771-7.013-7.047,0-4.311,3.25-7.39,7.287-7.39,3.831,0,6.944,2.874,6.944,7.082ZM35.833,11.529c-2.258,0-3.934,2.155-3.934,5.918,0,3.113,1.402,6.466,4.413,6.466s3.934-3.147,3.934-5.782c0-2.908-1.163-6.603-4.413-6.603Z"/>
    <path class="st0" d="M59.816,17.584c0,4.276-2.942,7.355-7.219,7.355-3.934,0-7.013-2.771-7.013-7.047,0-4.311,3.25-7.39,7.287-7.39,3.831,0,6.944,2.874,6.944,7.082ZM52.461,11.529c-2.258,0-3.934,2.155-3.934,5.918,0,3.113,1.402,6.466,4.413,6.466s3.934-3.147,3.934-5.782c0-2.908-1.163-6.603-4.413-6.603Z"/>
    <path class="st0" d="M67.379,12.418c-.582,0-.582.068-.582.992v7.218c0,2.463.068,2.874,1.3,2.976l1.232.103c.239.171.171.752-.068.855-1.54-.068-2.532-.103-3.729-.103-1.231,0-2.258.034-3.284.103-.239-.103-.308-.684-.068-.855l.787-.103c1.266-.171,1.3-.513,1.3-2.976v-7.218c0-.924,0-.992-.685-.992h-1.197c-.205-.137-.239-.445-.103-.65l1.471-.718c.274-.137.514-.342.514-.685,0-1.984.239-4.105,1.061-6.021.855-1.95,2.771-4.345,6.158-4.345,1.812,0,3.353.821,3.353,2.053,0,.684-.65,1.231-1.301,1.231-.376,0-.581-.137-.82-.41-.65-.753-1.608-1.505-2.737-1.505-1.061,0-1.916.65-2.429,1.881-.616,1.574-.753,4.071-.753,5.782v.992c0,.923,0,.958.582.958h3.899c.377.342.138,1.3-.239,1.437h-3.66Z"/>
  </g>
  <g>
    <path class="st1" d="M40.516,19.427c-.031-.039-.054.379-.066.454.064-.088.074-.562.066-.454Z"/>
    <polygon class="st1" points="41.151 18.525 41.127 18.694 41.243 18.284 41.151 18.525"/>
    <path class="st1" d="M41.668,18.575c.009-.716-.197.099-.269-.161l-.002-.163-.089.569c.12-.081.297-.449.359-.244Z"/>
    <path class="st1" d="M41.822,20.137c.005-.278.079-.234-.058-.092.003.031.004.048.006.071.012-.003.027-.001.052.021Z"/>
    <path class="st1" d="M41.77,20.116c-.057.015.017.236,0,0h0Z"/>
    <path class="st1" d="M42.036,19.978l-.092.242c.002.165.064.207.03.324.085-.13.082-.293.062-.565Z"/>
    <path class="st1" d="M42.145,19.464l-.046.102c.001.069.009.094.046-.102Z"/>
    <path class="st1" d="M42.003,19.78l.097-.215c-.001-.116.016-.347-.043.077.023-.21-.009-.009-.054.138Z"/>
    <path class="st1" d="M41.967,19.668c-.028-.158-.073-.259.019-.5-.146.087-.165.589-.019.5Z"/>
    <path class="st1" d="M41.754,17.842l-.037-.213-.066.235c.033-.116.088.201.103-.022Z"/>
    <path class="st1" d="M42.458,20.381c.016-.151.007-.405.016-.6l-.067.17c.019.106.064.205.05.43Z"/>
    <path class="st1" d="M42.474,19.781l.1-.254c-.069-.036-.091.087-.1.254Z"/>
    <polygon class="st1" points="42.22 18.675 42.047 19.211 42.246 18.669 42.22 18.675"/>
    <polygon class="st1" points="42.762 20.423 42.69 20.77 42.811 20.247 42.762 20.423"/>
    <path class="st1" d="M42.97,20.377c-.055.288.009.495-.04.671.059-.048.125-.294.184-.514-.054.122-.1.086-.144-.156Z"/>
    <path class="st1" d="M43.209,20.213c-.028.068-.06.191-.095.321.029-.065.06-.16.095-.321Z"/>
    <path class="st1" d="M42.704,19.613c0,.092-.007.333.03.437v-.428s-.03-.009-.03-.009Z"/>
    <path class="st1" d="M42.735,19.608v.014c.033.012.056.023.066.029-.008-.005-.028-.018-.066-.043Z"/>
    <path class="st1" d="M42.697,19.61l.008.003c0-.042,0-.056-.008-.003Z"/>
    <path class="st1" d="M42.399,19.076c.065-.234.182-.483.116-.853-.056.289-.018.5-.116.853Z"/>
    <path class="st1" d="M42.698,19.075l-.077-.104c-.007.113-.004.278-.037.394l.114-.29Z"/>
    <polygon class="st1" points="42.75 18.942 42.698 19.075 42.727 19.113 42.75 18.942"/>
    <path class="st1" d="M43.093,19.803c.05-.183.092-.195.139-.221-.042-.087-.089-.137-.137-.139-.017.133-.056.372-.003.361Z"/>
    <path class="st1" d="M42.922,19.671l.01-.024c-.002-.036-.005-.048-.01.024Z"/>
    <path class="st1" d="M43.678,19.616c0-.024-.001-.053-.002-.078l-.007.073.009.005Z"/>
    <path class="st1" d="M43.094,19.362c-.03-.085-.06.017-.09.147.03-.041.061-.066.093-.067.008-.06.011-.1-.002-.08Z"/>
    <path class="st1" d="M43.348,20.023c-.012-.09-.028-.167-.046-.239.009.136.031.349.046.239Z"/>
    <path class="st1" d="M42.936,19.766c-.002.007-.007.019-.007.019.005.092.007.048.007-.019Z"/>
    <path class="st1" d="M42.936,19.766c.023-.06.046-.164.068-.256-.025.032-.049.076-.071.137,0,.031.002.077.003.119Z"/>
    <path class="st1" d="M44.009,16.89c-.035.395-.156.753-.207.324-.102.29-.144,1.593-.126,2.325.015-.172.027-.331.127-.559-.014-.218-.149-.518-.052-.87.125-.196.08.146.119.359-.01-.496.192-.707.219-1.432l-.115.248c.006-.113.054-.29.035-.395Z"/>
    <path class="st1" d="M43.52,19.487l-.038.046c.034.072.051.232.08.545.071-.189.094-.335.107-.466l-.166-.067.016-.058Z"/>
    <path class="st1" d="M43.327,19.524c.059-.428.155-.605.138-1.073-.103.022-.097.354-.171.536.171-.094-.065.236.035.489-.037.071-.068.091-.096.107.026.054.049.121.07.203l-.002-.027h0s0-.005,0-.005c-.003-.054-.003-.087.003-.055,0-.005.004-.009.004-.009.007-.06.013-.112.019-.162.041.092,0,.112-.019.162l-.007.064v.005s.181-.224.181-.224c-.03-.062-.074-.053-.155-.009Z"/>
    <path class="st1" d="M42.673,17.306c.002.038,0,.069-.003.1.015-.052.021-.088.003-.1Z"/>
    <path class="st1" d="M42.72,17.57c-.016.059-.039.23-.074.183-.023-.132.016-.206.025-.347-.032.112-.105.302-.048.516l.016-.058c.054.153.097.695.081.753.011-.388.015-.665,0-1.048Z"/>
    <path class="st1" d="M43.035,18.438l.151-.201-.041-.377-.013.224c-.07-.094-.074.183-.097.354Z"/>
    <polygon class="st1" points="43.678 19.831 43.627 20.284 43.752 19.648 43.678 19.831"/>
    <polygon class="st1" points="43.859 19.789 43.824 20.184 43.888 19.949 43.859 19.789"/>
    <path class="st1" d="M54.008,15.389l.043-.111c-.02.034-.033.071-.043.111Z"/>
    <path class="st1" d="M53.724,15.353l-.013.195c.017-.107.024-.186.013-.195Z"/>
    <path class="st1" d="M48.211,20.017c.039.372.074.948.09.503l.005-.434c-.045.075-.074.025-.095-.069Z"/>
    <path class="st1" d="M51.299,17.569c-.004-.042-.008-.088-.011-.132-.02.148-.039.285-.056.413.021-.088.044-.182.068-.281Z"/>
    <path class="st1" d="M51.413,15.777l.064.283c-.013-.098-.034-.193-.064-.283Z"/>
    <path class="st1" d="M55.572,14.97l.056-.441c-.072,0-.045.224-.056.441Z"/>
    <path class="st1" d="M45.683,19.753c.039.172.075.246.109.269-.045-.252-.07-.629-.109-.269Z"/>
    <path class="st1" d="M53.756,19.987c.027-.078.04-.166.042-.263-.027.073-.044.156-.042.263Z"/>
    <path class="st1" d="M45.937,20.03c-.008-.044-.013-.066-.02-.104-.041.07-.082.126-.125.096.033.188.077.305.146.008Z"/>
    <path class="st1" d="M61.199,15.394c.005.019.007.029.013.052.001-.059-.004-.062-.013-.052Z"/>
    <path class="st1" d="M62.873,19.766c-.016.027-.043.028-.068.034.013.03.033.027.068-.034Z"/>
    <path class="st1" d="M44.558,20.029c-.04.026-.009.047,0,0h0Z"/>
    <path class="st1" d="M44.494,18.304c.011-.048.022-.11.029-.209-.01.104-.02.17-.029.209Z"/>
    <path class="st1" d="M46.477,17.358l.003.002c-.006-.085-.005-.069-.003-.002Z"/>
    <path class="st1" d="M44.515,19.828c.01.054.024.1.039.132-.005-.034-.017-.077-.039-.132Z"/>
    <path class="st1" d="M44.509,20.033c-.013-.019-.021-.032-.03-.044-.01.072-.009.117.03.044Z"/>
    <path class="st1" d="M44.612,20.009c-.022.005-.041-.017-.058-.049.005.03.007.054.004.069.011-.006.028-.014.054-.02Z"/>
    <path class="st1" d="M58.165,16.537c.002.014.004.023.007.041.04-.18.023-.151-.007-.041Z"/>
    <path class="st1" d="M49.412,15.568s-.004.015-.005.021c0,0,.003.011.005.015v-.036Z"/>
    <path class="st1" d="M49.56,15.251c-.083.537-.112.469-.149.353l-.018,1.252.166-1.604Z"/>
    <path class="st1" d="M54.692,15.283l-.082-.392c.13-.638.204-.415.132-.965-.05,1.358-.363.129-.415,1.485l-.053-.287c.017.014.022-.066.039-.052-.1-.654-.117.979-.265.781-.051-.106-.082-.304-.041-.464l-.129.332c-.034-.027-.018-.263.016-.236l-.185.103.003-.04c-.033.212-.102.54-.135.679-.04-.196.028-.143.021-.313l-.111.326c-.03-.353.065-.692.133-.64-.051-1.358-.095.34-.272-.459l.101-.169c-.036-.772-.119-.496-.21-.98.017.252.175,1.217.054,1.552-.027-.104-.066-.154-.135.117.016-.483-.046-.366-.119-.341l.027-.639c-.084.182-.089.507-.145.794-.085-.066-.085-.562-.091-.98-.135-.106.068.797-.101.912-.107-.249-.197.01-.35.387-.073-.223.029-.39.006-.574l-.091.507c-.017-.013-.006-.169,0-.248-.068.196-.029.639-.131.809-.053.703-.156-1.036-.305-.242-.022-.183.029-.391.03-.639-.182.518-.153.375-.314,1.076l-.096-.424c.064.483-.065,1.047-.178,1.51.022.233.041.436.05.534l-.164.337c-.014-.106.01-.325.046-.59-.012.052-.023.104-.034.152-.044-.238,0-.606.052-.962.012.127.025.262.038.396.053-.387.105-.815.112-1.19-.013.073-.034.136-.056.171.014-.105.024-.199.022-.263-.002-.068-.024.073-.055.235l-.004-.714-.02.283-.175-.454c-.169.711-.336,1.762-.571,2.047.078-.52.049-.853.08-1.471.031.658.183-.271.292-.133-.057-.071-.031-.366-.011-.468l-.23.588c.027-.506-.027-.382-.07-.593-.004,1.002-.182.659-.279.962.01-.336.046-.678.143-.593-.077-.758-.198,1.168-.278.523.025-.007.036.045.054-.125-.072.296-.202.053-.155-.238l.025-.006c-.159-.126-.499-.031-.565.818.008-.11.077-1.023.089-1.194l-.434,2.845c.062-.728.049-2.471.206-2.876-.034-.106-.076-.229-.171.024.021.105.014,1.058-.026,1.123-.059-.818-.048-.438-.136-1.137.032.159-.07,1.3-.132,1.26.019-.171.052-1.13.082-1.247l-.215,1.115c.05-.2.056-.951.037-1.271.005.221-.135-.028-.182.081l.053.264c-.168-.179-.259,1.57-.433,1.502.034-.231.129-1.425.047-1.571-.072.573-.332,2.757-.515,3.191l-.012-.33-.142.368c.124-.861.435-2.671.586-3.374-.052-.264.003-.389-.098-.364-.018-.31.08-.465.11-.481l-.219-.211c-.027.672-.214.664-.236,1.223l.29-.682c-.026.67-.251,1.898-.409,1.77-.027-.27.099-1.193.108-1.417-.034.23-.18.432-.186.267l.09-.355c-.077-.258-.2.881-.272.234-.035-.045-.063-.871-.092-.474.017.769-.108,3.139-.183,3.712-.011-.052-.158-.744-.179-1.125-.027-.604.178-1.426.156-1.944-.013.183-.061.407-.08.479-.031-.159.05-.567-.041-.489-.055.68-.172-.068-.075.573-.096.189-.082-.145-.183-.121.005.442-.18,1.491-.277,1.68.016-.173.01-.399.007-.502-.171-.071-.245-.387-.407-.403-.005-.166-.07-.37-.018-.661-.031.119-.067.348-.118.361-.059-.594.117-.084.088-.796-.031.395-.164.537-.251.779-.017.612.157.128.244-.114-.053.842-.234,1.716-.43,2.094-.149.2-.023-.548-.055-.43-.245-.164-.314,1.456-.486.835-.048-.542.068-1.068.075-1.456.124-.196.146.352.223.335l-.075-.26c.047-.176.129-.307.159-.149-.038-.487-.423-.12-.588-.579-.047.177-.12.359-.106.577l.067-.071c.028.437-.158.59-.093.798-.104.298-.231.769-.332.516l.021-.613c-.01.179.051.37.097.186-.068.268-.122-.84-.232-.043l.053.43c-.105.301-.255.943-.346.743.005.607.029-.067.053.645-.002-.884.265.056.227-.875.019.826.107.357.159,1.064.011-.202-.009-.388.072-.283.01-.058.024-.133.032-.176l.005.015-.003-.024c.006-.03.007-.036-.001-.008-.015-.09-.024-.197-.024-.31.076-.46.214-.436.277-.672.045.1-.037.23-.024.447l.095-.354c-.023.449.088.753-.052,1.008l.109.027c.048.256.131.361.199.176.046.1.165-.487.096-.14l.192-.266-.006.112c.168.068.399-.719.544.102.065-.109.133-.244.221-.11l-.005.389c.082-.131.199.401.255,0,.017,1.048.346.249.466.442l.035-.506c.088.034.182-.105.305-.301l.019-.448c.117-.362.228.333.382.296-.02.171-.056.123-.077.019.125,1.022.423-.715.546.031.05-.161.076-.104.099.011,0,0-.008.009-.011.023.004.006.01.007.017.006.014.078.031.168.044.241-.011-.11-.023-.2-.035-.242.032-.008.083-.061.136-.17l-.006.482c.004-.006.007-.005.012-.013.037.18.049-.226.044-.589.028-.078.054-.172.077-.287-.003.778.136-.255.144.576.053-.402.251-.291.319-1.139-.004.111.007.164-.019.17.047.1.094.199.153-.038l-.009.613.155-.817c.051.376.069.594-.023,1.061.202-.716.148-.266.324-.977l-.026.395c.051-.013.157-.539.172-.21.077.757.553.13.811.842-.005-1.167.112.528.163-.374.005.276.039.433-.019.671.16-.265.204.446.339-.311.005.277-.049.403-.041.567.014-.059.057-.238.066-.073.008.165-.031.23-.06.349.154-.04.204-.888.248-1.685.061.38.101.329.178-.192.016.262.049.536-.048.626.051.04.307.395.338-.243.01.163.072.05.089-.023.117.043.125.101.244.045l-.028-.106c.075-.768.103-.168.2-.258l-.006.079c.194.563.102-.263.291.379l.006-.48c.057-1.03.166.615.303.225l-.035-.275c.079-.351.139,1.409.203,1.54.012.09-.028.143-.051.209.157.614.044-.627.181-.769.013.34-.06.86.027.926.036.276.294-1.09.394-.437-.018-.262-.037-.523.031-.718.096-.091.223.994.333.174.01.072.012.14.011.205.078-.21.244-.346.3-.791.019,1.658.468-.792.424.735l.223-.076-.01.156c.139.105.198-.26.257-.626.03.105.003.247-.002.327.198.313.221.248.412-.509l.006.496c.053-.287.281.784.496.211-.003.056-.009.152-.027.222.239-.576.519,1.387.637-.417l.158-.442c-.191-.144.043-.783-.031-1.084.078-.105.186.548.091.639l-.013-.091c-.052.94.235.338.218.978.383-.04.748.488,1.106.532l-.032-.732.124.043c.031.171.037.573-.052.541.042.415.154-.345.158-.505.171.298-.078.852-.025.87l.073-.054-.015-.086c.063-.298.071-.615.178-.578.066.147.03.451.056.48,0,.052.008.076.041.021l.157.064-.057-.578c.073-.284.148.032.081-.623.097,1.011.583.368.646.681.101-.42.197-.413.316-.361-.029-.12-.043-.77.059-.69-.045,1.34.185.583.264,1.547-.072-.64.294-.156.18-1.065.085.109.003.502.067.817.206-.517.451.339.704.163.004-.176-.038-.445.016-.707l.133.879c.05-.086.046-1.015.137-.405-.013-.148-.032-.371.001-.427.498.858,1.007-.704,1.52.903-.071-.34-.025-.374.027-.387-.034-.081-.002-.434-.011-.673l.216.661c.033-.662.226-.046.242-.679l-.066.114c.082-.747-.138-1.658-.133-2.616-.092.849-.268-1.255-.42-.039-.037-.195.028-.309.008-.531-.038.411-.087.497-.179.313l.01-.102c-.256.101-.368-.302-.656-.571l.023.474c-.062-.063-.075-.212-.105-.33-.069.718.174.04.111.832-.085-.964-.437-.014-.494-1.11-.095-.006.028.548-.067.542l-.025-.296-.024.382c-.062-.063-.094-.434-.096-.685.015.03.043-.07.059-.092-.081-.349-.227.119-.255.006l.091.183c-.259.277-.575-.111-.827.489l.018.224c-.193.412-.152-.246-.364-.056l.008-.053c-.043.222-.1.334-.158.309.055-.261-.097-.509-.026-.798-.21.443-.105.348-.248,1.178l-.029-.371c-.049.335-.054.512-.161.608.089-.318-.063-.565.037-.986-.213-.812-.334.816-.425-.371-.111,1.025.185.572.127.791.045.336-.091.766-.159.662-.071-.024-.107-1.314-.284-1.297.018.005.02-.073.037-.068-.063-.262-.134.353-.21-.073-.053.62-.105-.037-.128.755l.165-.181c-.094.206-.192,1.131-.339.68.014-.16.062-.369.094-.486-.042-.234-.088.154-.131-.086.023-.792.2-.17.305-.773-.043-.335-.193.572-.133-.286-.085,1.09-.172-.14-.303.692l.014-.474c-.02.074-.062.298-.097.286l.071-.615c-.104.524-.18-.461-.277-.177.194-.011.035.573.113.92-.25.631-.12-1.243-.391-1.02.037-.066.132.287.072.506-.05-.099-.114-.282-.141-.531-.179.096.019.489-.061.779-.051-.579-.091.234-.173.418l.008-.482c-.197-.313-.071,1.004-.248.627l.089-.668-.098.171.03-.548c-.111.405-.141.299-.24.144.017.34-.03.875-.12.889-.056-.288.043-.458-.086-.391.035-.301.074-.68.12-.234.015-.157.028-.303.043-.457-.059-.331-.164-.078-.21-.074.017.018.038.045.047.114l-.198.664c-.025-.182,0-.327.027-.469-.038.051-.069.272-.125.313.023-.392.028-.796.109-.979l-.185.431c-.008-.171-.08-.47-.054-.614-.092-.233-.255.755-.378.448-.008.076-.024.148-.052.204-.119-.092-.215-.575-.372-.041l-.064-.705c-.117.157.088.888-.107,1.149-.139.221-.034-.601-.075-.798-.075.352-.21,1.07-.316.494.044-.131.073-.026.112-.077ZM53.293,15.553c.03-.1.094-.411.105-.125-.049.551-.064.286-.105.125ZM51.131,16.634c.027-.159.055-.078.082.106-.027.038-.055.019-.082-.106ZM44.996,19.665c.002-.008.003-.013.004-.023.049.192.032.116-.004.023ZM44.883,19.448c-.017.066-.021.133-.02.201.017-.121.046-.128.076-.091,0-.127-.011-.215-.056-.109ZM58.526,19.789l-.023-.127c.057-.138.04-.013.023.127Z"/>
    <path class="st1" d="M51.399,15.985c0,.082,0,.172,0,.262.014-.081.018-.174,0-.262Z"/>
    <polygon class="st1" points="55.562 15.051 55.566 15.057 55.572 14.97 55.562 15.051"/>
    <path class="st1" d="M47.09,15.488c.022.071.031.16.035.251.008-.118.003-.218-.035-.251Z"/>
    <path class="st1" d="M44.154,20.218l.09-.119c-.041.021-.048-.085-.062-.163-.006.113-.002.276-.028.282Z"/>
    <path class="st1" d="M43.664,17.191c-.016.058-.025.005-.041.064l-.013.224c.051-.011.099-.189.055-.287Z"/>
    <path class="st1" d="M44.191,18.614c.022-.405-.038-.271-.1-.2,0,0,.007-.004.01,0-.057.565.017.382.09.2Z"/>
    <path class="st1" d="M44.077,18.426c-.019.018-.037.027-.053.006-.023.226.018.049.053-.006Z"/>
    <path class="st1" d="M44.704,19.705c-.02-.106-.052.517-.056.35-.065.513.223-.611.056-.35Z"/>
    <polygon class="st1" points="44.24 17.277 44.224 17.778 44.285 17.378 44.24 17.277"/>
    <path class="st1" d="M44.66,17.675l-.081-.145c-.004.084-.019.132-.036.169.054.02.109.124.117-.024Z"/>
    <path class="st1" d="M44.543,17.699c-.028-.012-.057-.003-.078.078.016-.004.051-.018.078-.078Z"/>
    <polygon class="st1" points="44.373 17.136 44.393 17.242 44.454 17.283 44.373 17.136"/>
    <path class="st1" d="M45.624,17.836l.108-.137c.021-.171,0-.277-.04-.212-.031.118-.072.182-.068.348Z"/>
    <path class="st1" d="M45.416,16.448c.02.105.014.217.018.383l.044-.62-.062.237Z"/>
    <path class="st1" d="M45.711,16.322c.021-.171.174-.484.047-.453-.021.17-.128.306-.047.453Z"/>
    <polygon class="st1" points="47.142 17.197 47.116 17.203 47.06 18.22 47.142 17.197"/>
    <path class="st1" d="M48.577,14.837c-.102-.25-.061.626-.149.316-.04.239.072.253.033.459.083-.25.112-.105.116-.775Z"/>
    <path class="st1" d="M48.461,15.612c-.011.04-.025.088-.044.153.024-.062.036-.111.044-.153Z"/>
    <polygon class="st1" points="63.155 20.311 63.233 20.523 63.181 20.181 63.155 20.311"/>
    <path class="st1" d="M63.294,19.554l.024.649.04-.588c-.017.029-.05.085-.064-.061Z"/>
    <path class="st1" d="M53.131,14.239l-.011.156c.006.169.023.183.057.21l-.046-.366Z"/>
    <polygon class="st1" points="54.12 14.756 54.103 14.743 54.118 15.33 54.12 14.756"/>
    <path class="st1" d="M54.984,14.032c-.034-.025-.078.105-.111.079.078-.104.102.653.111-.079Z"/>
  </g>
</svg>