<?xml version="1.0" encoding="UTF-8"?>
<svg id="Layer_1" xmlns="http://www.w3.org/2000/svg" width="1.48in" height=".211in" version="1.1" viewBox="0 0 106.583 15.166">
  <!-- Generator: Adobe Illustrator 30.6.0, SVG Export Plug-In . SVG Version: 2.1.4 Build 109)  -->
  <path d="M7.082,2.802c-.452-.37-.899-.614-1.34-.734-.441-.091-.899-.137-1.373-.137H0v12.441h1.824v-4.856h2.78c1.241-.023,2.185-.433,2.83-1.229.628-.756.943-1.595.943-2.517,0-.683-.124-1.274-.372-1.775-.237-.518-.545-.916-.925-1.194ZM6.064,7.091c-.342.423-.853.64-1.532.652H1.824V3.706h2.642c.497-.012.933.105,1.309.351.248.149.441.352.58.609.132.286.199.637.199,1.055,0,.503-.163.96-.489,1.371Z"/>
  <path d="M19.594,5.404c-.033-1.149-.432-2.034-1.195-2.654-.635-.546-1.454-.819-2.458-.819h-4.708v12.441h1.824v-5.317h2.337l2.494,5.317h2.167l-2.789-5.521c1.529-.608,2.305-1.758,2.327-3.447ZM13.057,7.385v-3.782h2.867c.585,0,1.033.128,1.342.385.392.291.594.762.605,1.412,0,.542-.168.998-.505,1.369-.343.399-.856.605-1.542.616h-2.768Z"/>
  <path d="M30.426,4.065c-.281-.574-.738-1.086-1.372-1.536-.639-.455-1.438-.688-2.396-.7-.947.011-1.738.244-2.371.697-.645.448-1.113.958-1.404,1.53-.182.302-.317.698-.405,1.188-.083.49-.124,1.459-.124,2.907,0,1.422.041,2.384.124,2.884.044.268.1.489.166.666.071.171.151.35.239.538.292.575.76,1.081,1.405,1.519.633.455,1.423.694,2.371.717.958-.023,1.757-.262,2.396-.717.633-.438,1.09-.944,1.371-1.519.204-.301.344-.703.421-1.203.072-.5.107-1.462.107-2.884,0-1.445-.036-2.412-.107-2.901-.077-.489-.217-.884-.421-1.186ZM29.006,10.64c-.088.434-.251.784-.488,1.052-.182.257-.425.465-.729.625-.32.188-.698.282-1.134.282-.431,0-.8-.094-1.109-.282-.315-.16-.569-.368-.762-.625-.237-.268-.395-.618-.472-1.052-.088-.433-.132-1.263-.132-2.488s.044-2.061.132-2.505c.078-.422.235-.767.472-1.035.193-.257.447-.47.762-.642.309-.165.679-.253,1.109-.265.436.011.814.1,1.134.265.303.171.546.385.729.642.237.268.4.613.488,1.035.083.445.124,1.28.124,2.505s-.041,2.055-.124,2.488Z"/>
  <polygon points="32.725 3.603 36.028 3.603 36.028 14.373 37.853 14.373 37.853 3.603 41.158 3.603 41.158 1.931 32.725 1.931 32.725 3.603"/>
  <path d="M51.952,5.404c-.033-1.149-.43-2.034-1.193-2.654-.635-.546-1.455-.819-2.458-.819h-4.708v12.441h1.824v-5.317h2.337l2.494,5.317h2.167l-2.789-5.521c1.529-.608,2.305-1.758,2.326-3.447ZM45.417,7.385v-3.782h2.867c.585,0,1.033.128,1.342.385.392.291.594.762.605,1.412,0,.542-.168.998-.505,1.369-.343.399-.856.605-1.542.616h-2.768Z"/>
  <path d="M68.359,4.612c.193-.257.447-.47.762-.642.31-.165.679-.253,1.109-.265.585.011,1.082.185,1.49.521.392.354.662.781.812,1.283h1.937c-.192-1.04-.655-1.912-1.389-2.616-.732-.699-1.681-1.054-2.843-1.065-.948.011-1.738.245-2.372.7-.645.449-1.113.961-1.405,1.536-.182.302-.316.697-.405,1.186-.082.489-.124,1.457-.124,2.901,0,1.422.042,2.384.124,2.884.044.268.1.489.165.666.072.171.151.35.24.538.292.575.76,1.081,1.404,1.519.634.455,1.424.694,2.371.717,1.048,0,1.954-.307,2.721-.92.744-.619,1.248-1.505,1.513-2.658h-1.935c-.508,1.134-1.275,1.702-2.303,1.702-.431,0-.801-.094-1.109-.282-.314-.16-.569-.368-.762-.625-.238-.268-.396-.618-.473-1.052-.088-.433-.132-1.263-.132-2.488s.044-2.061.132-2.505c.077-.422.234-.767.472-1.035Z"/>
  <polygon points="75.678 3.603 78.981 3.603 78.981 14.373 80.805 14.373 80.805 3.603 84.11 3.603 84.11 1.931 75.678 1.931 75.678 3.603"/>
  <path d="M93.89,4.065c-.28-.574-.737-1.086-1.371-1.536-.639-.455-1.438-.688-2.396-.7-.947.011-1.738.244-2.371.697-.645.448-1.112.958-1.404,1.53-.182.302-.317.698-.405,1.188-.082.49-.124,1.459-.124,2.907,0,1.422.042,2.384.124,2.884.044.268.1.489.165.666.072.171.151.35.24.538.292.575.76,1.081,1.404,1.519.633.455,1.424.694,2.371.717.958-.023,1.757-.262,2.396-.717.633-.438,1.091-.944,1.371-1.519.204-.301.345-.703.422-1.203.071-.5.107-1.462.107-2.884,0-1.445-.036-2.412-.107-2.901-.077-.489-.218-.884-.422-1.186ZM92.47,10.64c-.088.434-.251.784-.488,1.052-.183.257-.425.465-.729.625-.32.188-.698.282-1.135.282-.43,0-.8-.094-1.109-.282-.314-.16-.568-.368-.761-.625-.238-.268-.396-.618-.473-1.052-.088-.433-.132-1.263-.132-2.488s.044-2.061.132-2.505c.077-.422.234-.767.473-1.035.192-.257.446-.47.761-.642.31-.165.68-.253,1.109-.265.437.011.814.1,1.135.265.304.171.546.385.729.642.237.268.4.613.488,1.035.083.445.124,1.28.124,2.505s-.041,2.055-.124,2.488Z"/>
  <path d="M103.794,8.852c1.529-.608,2.306-1.758,2.327-3.447-.033-1.149-.431-2.034-1.194-2.654-.635-.546-1.454-.819-2.458-.819h-4.708v12.441h1.824v-5.317h2.337l2.494,5.317h2.167l-2.789-5.521ZM99.585,7.385v-3.782h2.867c.585,0,1.033.128,1.342.385.393.291.595.762.605,1.412,0,.542-.169.998-.506,1.369-.342.399-.856.605-1.541.616h-2.768Z"/>
  <path d="M64.153,10.162h-1.525s-1.434-4.328-1.434-4.328c.7-1.352.04-3.009-1.417-3.491V.8c.009-.442-.332-.791-.762-.8-.392-.009-.788.303-.789.733l-.005,1.609c-1.454.484-2.117,2.138-1.416,3.493l-1.433,4.326-1.498.003c-.233.006-.411.201-.402.41.009.235.199.389.431.388l1.205-.005-.631,1.904c-.218.656.276,1.373.888,1.679l-.088.321c-.044.16.111.301.237.305.187.007.245-.108.297-.275l1.22-3.933h1.028s-.005-.795-.005-.795l-.772-.002.973-3.11c.497.153.995.154,1.492,0l.973,3.11-1.151.002-.005-.504c-.003-.315-.258-.535-.549-.544-.275-.008-.575.199-.575.514l-.002,1.861c0,.311.296.529.575.524.292-.005.549-.246.552-.554l.004-.502h1.401s1.22,3.933,1.22,3.933c.055.178.127.306.326.268.151-.029.254-.183.2-.355l-.082-.262c.602-.297,1.105-1.028.897-1.655l-.637-1.927,1.301-.006c.207,0,.342-.24.333-.406-.011-.204-.16-.357-.373-.385ZM59.188,5.667c-.514.104-1.036-.23-1.16-.751-.124-.526.199-1.082.769-1.199.563-.116,1.067.251,1.178.78.111.533-.243,1.06-.787,1.17Z"/>
</svg>