<?xml version="1.0" encoding="UTF-8"?>
<svg id="Layer_1" xmlns="http://www.w3.org/2000/svg" width="1.183in" height=".195in" version="1.1" viewBox="0 0 85.18 14.014">
  <!-- Generator: Adobe Illustrator 30.5.1, SVG Export Plug-In . SVG Version: 2.1.4 Build 3)  -->
  <defs>
    <style>
      .st0 {
        fill: #ffffff;
      }
    </style>
  </defs>
  <path class="st0" d="M12.511,13.287l-.353-3.666c-.015-.185-.088-.448-.218-.79-.132-.342-.247-.564-.348-.669-.148-.156-.424-.312-.826-.469.641-.133,1.171-.301,1.592-.504.66-.318,1.249-.733,1.765-1.245.516-.512.922-1.121,1.219-1.827.34-.81.432-1.496.276-2.061-.156-.563-.511-.95-1.066-1.158-.555-.208-1.44-.312-2.655-.312h-6.551L0,13.307h3.948l2.17-5.163h.347c.359,0,.638.099.839.295.145.151.245.477.299.981l.467,3.887h8.439l1.502-2.1h4.463l-.247,2.1h4.116l.565-12.721h-4.288l-10.111,12.701ZM9.9,5.566c-.564.116-.935.174-1.115.174h-1.657l1.087-2.586h1.726c.718,0,1.16.11,1.328.33.169.22.166.535-.006.946-.117.278-.303.523-.558.738-.254.214-.523.347-.805.399ZM22.815,8.456h-2.794l3.311-4.573-.517,4.573Z"/>
  <path class="st0" d="M37.106,8.101c-.512.804-1.049,1.417-1.611,1.839-.562.423-1.219.633-1.971.633-.776,0-1.267-.261-1.475-.784s-.016-1.489.576-2.9c.478-1.138,1.008-1.973,1.59-2.505.776-.716,1.609-1.075,2.499-1.075.393,0,.715.081.966.243.249.162.422.394.515.695.057.179.066.463.025.85l3.796-.772c.118-1.342-.145-2.337-.79-2.985-.645-.648-1.768-.972-3.37-.972-2.048,0-3.869.565-5.464,1.695-1.594,1.13-2.834,2.748-3.718,4.852-.664,1.579-.889,2.874-.678,3.885.212,1.012.671,1.718,1.379,2.12.707.402,1.752.603,3.135.603,1.14,0,2.148-.165,3.023-.494.877-.33,1.7-.819,2.469-1.467.77-.648,1.474-1.455,2.111-2.421l-3.008-1.041Z"/>
  <polygon class="st0" points="54.179 3.301 55.32 .586 44.785 .586 39.44 13.307 50.165 13.307 51.376 10.426 44.591 10.426 45.644 7.918 51.761 7.918 52.852 5.323 46.735 5.323 47.585 3.301 54.179 3.301"/>
  <path class="st0" d="M79.189,1.915l.181-.92c-.403-.073-.798-.113-1.198-.118v.942c.348.01.673.045,1.017.096Z"/>
  <path class="st0" d="M74.504,10.679c-.236-.255-.44-.499-.646-.79l-.787.523c.235.336.48.638.768.931l.665-.665Z"/>
  <path class="st0" d="M76.187,11.801c-.321-.141-.598-.29-.898-.481l-.526.785c.35.223.696.419,1.067.564l.357-.868Z"/>
  <path class="st0" d="M81.051,11.319l.525.786c.345-.237.636-.478.934-.763l-.672-.672c-.251.252-.504.457-.787.649Z"/>
  <path class="st0" d="M82.485,9.893l.787.521c.23-.366.406-.689.566-1.062l-.874-.36c-.142.323-.296.606-.48.901Z"/>
  <path class="st0" d="M81.579,1.911c-.34-.222-.675-.399-1.061-.57l-.362.87c.312.14.599.295.9.483l.522-.784Z"/>
  <path class="st0" d="M77.162,1.917l-.186-.924c-.409.09-.768.199-1.152.349l.362.874c.324-.13.638-.222.977-.299Z"/>
  <path class="st0" d="M73.86,4.126l-.784-.525c-.227.349-.412.697-.57,1.065l.876.356c.152-.351.296-.608.479-.896Z"/>
  <path class="st0" d="M79.183,12.098l.183.925c.397-.087.769-.198,1.152-.351l-.359-.869-.977.295Z"/>
  <path class="st0" d="M81.838,3.344c.245.249.445.5.65.782l.783-.523c-.232-.335-.475-.634-.763-.929l-.67.67Z"/>
  <path class="st0" d="M84.186,5.812c-.088-.409-.202-.78-.349-1.152l-.871.359.302.977.918-.184Z"/>
  <path class="st0" d="M73.379,8.991c-.141-.36-.221-.643-.297-.973l-.925.185c.089.403.2.768.35,1.154l.872-.366Z"/>
  <path class="st0" d="M72.158,5.811c-.071.401-.109.787-.118,1.197h.946c.008-.368.039-.669.098-1.013l-.926-.185Z"/>
  <path class="st0" d="M84.303,7.007h-.942s-.1,1.016-.1,1.016l.928.179c.075-.45.107-.795.114-1.195Z"/>
  <path class="st0" d="M75.291,2.695l-.522-.786c-.345.239-.65.485-.93.769l.668.663c.268-.257.505-.452.785-.646Z"/>
  <path class="st0" d="M77.158,12.096l-.185.925c.405.073.786.114,1.2.115l-.002-.942c-.356-.007-.669-.039-1.013-.098Z"/>
  <path class="st0" d="M73.261,12.012c.308.288.613.54.958.785l.451-.673c-.303-.216-.564-.435-.835-.686l-.574.574Z"/>
  <path class="st0" d="M82.602,11.345l.576.565c.316-.331.547-.616.783-.952l-.673-.449-.686.836Z"/>
  <path class="st0" d="M75.736,1.307l-.309-.747c-.391.169-.735.356-1.09.583l.448.672c.312-.193.613-.354.951-.508Z"/>
  <path class="st0" d="M84.623,4.259c-.176-.393-.359-.727-.583-1.088l-.678.453c.203.314.355.614.517.947l.744-.312Z"/>
  <path class="st0" d="M83.928,9.317l.748.309c.153-.402.268-.779.356-1.183l-.792-.157-.313,1.032Z"/>
  <path class="st0" d="M71.723,9.755c.172.384.355.735.585,1.088l.672-.45c-.204-.324-.363-.624-.509-.952l-.748.313Z"/>
  <path class="st0" d="M80.792.508c-.401-.158-.78-.271-1.183-.359l-.158.794c.358.082.688.181,1.03.313l.311-.748Z"/>
  <path class="st0" d="M78.104.805v-.805c-.419.012-.813.048-1.231.119l.158.793c.363-.056.705-.087,1.073-.107Z"/>
  <path class="st0" d="M72.418,4.699l-.748-.308c-.153.4-.269.776-.358,1.184l.795.155c.086-.382.184-.695.311-1.031Z"/>
  <path class="st0" d="M75.554,13.513c.403.152.772.264,1.183.357l.155-.795-1.034-.308-.305.746Z"/>
  <path class="st0" d="M73.738,2.675l-.574-.572c-.292.314-.543.615-.783.955l.672.449c.219-.299.437-.565.684-.832Z"/>
  <path class="st0" d="M80.61,12.709l.308.75c.4-.181.736-.362,1.09-.584l-.451-.675c-.306.192-.6.353-.947.509Z"/>
  <path class="st0" d="M83.079,2.005c-.311-.296-.619-.55-.957-.785l-.448.677c.313.219.572.431.831.681l.574-.573Z"/>
  <path class="st0" d="M78.241,13.207l.002.807c.427-.011.823-.044,1.229-.123l-.159-.789-1.071.104Z"/>
  <path class="st0" d="M71.973,7.08l-.807-.002c.008.419.046.82.119,1.231l.793-.163c-.065-.383-.092-.71-.106-1.067Z"/>
  <path class="st0" d="M84.374,6.937h.806c-.01-.426-.049-.812-.121-1.229l-.793.162.108,1.067Z"/>
  <path class="st0" d="M57.917,11.586c-.015-.086.034-.262.146-.527l.926-2.203h1.312l.734-1.747h-1.312l.994-2.367-2.905,1.225-.479,1.143h-.879l-.734,1.747h.879l-.919,2.188c-.292.694-.435,1.196-.431,1.506.004.311.115.542.333.694.217.152.623.228,1.217.228.512,0,1.089-.063,1.733-.193l.516-1.646c-.359.102-.626.152-.802.152-.195,0-.304-.067-.327-.199Z"/>
  <path class="st0" d="M65.495,6.968c-1.09,0-2.085.308-2.984.923-.899.616-1.548,1.397-1.947,2.348-.428,1.019-.396,1.844.098,2.472.404.508,1.106.762,2.106.762,1.122,0,2.127-.305,3.019-.916s1.538-1.396,1.94-2.353c.358-.852.403-1.568.137-2.151-.334-.722-1.123-1.084-2.369-1.084ZM65.329,10.208c-.243.578-.53.999-.86,1.26-.331.262-.668.393-1.012.393-.34,0-.567-.133-.68-.398s-.053-.676.18-1.23c.23-.546.514-.953.853-1.222.339-.268.683-.401,1.03-.401.328,0,.548.132.66.396.111.264.055.664-.172,1.203Z"/>
  <polygon class="st0" points="75.865 10.568 77.278 10.568 80.248 3.501 78.834 3.501 75.865 10.568"/>
</svg>