<?xml version="1.0" encoding="UTF-8"?>
<svg id="Layer_1" xmlns="http://www.w3.org/2000/svg" width="1.673in" height=".287in" version="1.1" viewBox="0 0 120.452 20.662">
  <!-- Generator: Adobe Illustrator 30.6.0, SVG Export Plug-In . SVG Version: 2.1.4 Build 109)  -->
  <defs>
    <style>
      .st0 {
        fill: #231f20;
      }

      .st1 {
        fill: #fff;
      }
    </style>
  </defs>
  <g>
    <path class="st0" d="M13.259,20.016c.225.394.084.646-.394.646h-1.489c-.562,0-.871-.169-1.152-.646l-4.186-7.135h-3.146v7.022c0,.534-.225.759-.759.759H.758c-.534,0-.758-.225-.758-.759V1.139C0,.605.225.38.758.38h9.86c2.107,0,3.09.478,3.09,2.978v6.545c0,2.5-.983,2.978-3.09,2.978h-1.573l4.214,7.135ZM10.872,9.173v-5.057c0-.814-.169-.983-1.011-.983H2.921v7.023h6.939c.899,0,1.011-.168,1.011-.983Z"/>
    <path class="st0" d="M29.638,19.903c0,.534-.225.759-.758.759h-11.125c-.534,0-.758-.225-.758-.759V1.139c0-.534.225-.759.758-.759h11.125c.534,0,.758.225.758.759v1.236c0,.534-.225.758-.758.758h-8.989v6.012h7.163c.534,0,.759.225.759.759v1.208c0,.534-.225.759-.759.759h-7.163v6.068h8.989c.534,0,.758.225.758.758v1.208Z"/>
    <path class="st0" d="M43.348,20.662h-7.81c-2.106,0-3.09-.478-3.09-2.978V3.358c0-2.5.983-2.978,3.09-2.978h7.81c2.106,0,3.09.478,3.09,2.978v2.303c0,.534-.225.759-.758.759h-1.349c-.534,0-.759-.225-.759-.759v-1.545c0-.814-.168-.983-1.011-.983h-6.208c-.843,0-1.011.169-1.011.983v12.838c0,.814.168.983,1.011.983h6.208c.899,0,1.011-.169,1.011-.983v-1.573c0-.534.225-.758.759-.758h1.349c.533,0,.758.225.758.758v2.304c0,2.5-.983,2.978-3.09,2.978Z"/>
    <path class="st0" d="M63.603,19.903c0,.534-.225.759-.759.759h-1.348c-.534,0-.759-.225-.759-.759v-6.517h-8.23v6.517c0,.534-.226.759-.759.759h-1.377c-.533,0-.758-.225-.758-.759V3.358c0-2.5.983-2.978,3.09-2.978h7.81c2.106,0,3.09.478,3.09,2.978v16.545ZM60.738,10.662v-6.545c0-.814-.169-.983-1.012-.983h-6.208c-.843,0-1.011.169-1.011.983v6.545h8.23Z"/>
    <path class="st0" d="M79.394,19.903c0,.534-.225.759-.759.759h-10.563c-.533,0-.758-.225-.758-.759V1.139c0-.534.225-.759.758-.759h1.377c.533,0,.758.225.758.759v16.799h8.428c.534,0,.759.225.759.758v1.208Z"/>
    <path class="st0" d="M93.608,19.903c0,.534-.225.759-.759.759h-10.562c-.533,0-.758-.225-.758-.759V1.139c0-.534.225-.759.758-.759h1.377c.533,0,.758.225.758.759v16.799h8.428c.534,0,.759.225.759.758v1.208Z"/>
  </g>
  <g id="ZwppKP">
    <g>
      <path class="st1" d="M112.545,10.329l3.403-3.806-5.851-4.64-5.063,5.524-.071-7.407-7.623.023-.021,20.573,6.859-.009,16.275-5.907-2.728-6.165-5.18,1.815Z"/>
      <path d="M112.545,10.329l5.18-1.815,2.728,6.165-16.275,5.907-6.859.009.021-20.573,7.623-.023.071,7.407,5.063-5.524,5.851,4.64-3.403,3.806ZM104.352,5.248l.004-4.602-6.381-.006.002,4.608h6.375ZM111.881,10.05l3.131-3.457-4.831-3.821-3.09,3.368,4.791,3.91ZM104.344,10.51l-.017-4.639-6.342-.002.042,4.671,6.317-.03ZM108.25,14.032l3.169-3.518-4.793-3.899-1.586,1.787-.03,3.336,3.239,2.294ZM114.929,16.011l4.626-1.69-2.197-5.013-4.223,1.53,1.793,5.173ZM109.76,17.895l4.533-1.66-1.779-5.2c-.732.256-1.31.646-1.787,1.196l-2.078,2.397,1.112,3.267ZM104.355,15.838l-.028-4.676-6.345-.004-.004,4.675,6.377.005ZM107.801,14.516l-2.793-1.956.025,4.922,2.768-2.967ZM105.105,19.591l4.033-1.482-1.022-2.949-2.486,2.655c-.486.519-.772,1.171-.525,1.777ZM104.351,19.96l-.049-3.527-6.317.011v3.54s6.366-.025,6.366-.025Z"/>
      <polygon class="st1" points="104.355 15.838 97.979 15.833 97.982 11.158 104.327 11.162 104.355 15.838"/>
      <polygon class="st1" points="104.344 10.51 98.027 10.54 97.985 5.869 104.327 5.871 104.344 10.51"/>
      <rect class="st1" x="97.976" y=".643" width="6.378" height="4.605"/>
      <polygon class="st1" points="111.881 10.05 107.09 6.14 110.181 2.772 115.012 6.593 111.881 10.05"/>
      <polygon class="st1" points="108.25 14.032 105.011 11.738 105.041 8.402 106.627 6.615 111.42 10.515 108.25 14.032"/>
      <polygon class="st1" points="114.929 16.011 113.136 10.838 117.358 9.308 119.555 14.321 114.929 16.011"/>
      <path class="st1" d="M109.76,17.895l-1.112-3.267,2.078-2.397c.477-.55,1.055-.94,1.787-1.196l1.779,5.2-4.533,1.66Z"/>
      <path class="st1" d="M104.351,19.96l-6.367.025v-3.54s6.318-.011,6.318-.011l.049,3.527ZM100.875,17.002c-.848.159-1.248.99-1.052,1.647.204.686.976,1.087,1.796.88.61-.154,1.059-.975.882-1.646-.143-.541-.929-1.011-1.625-.88Z"/>
      <path class="st1" d="M105.105,19.591c-.247-.606.039-1.258.525-1.777l2.486-2.655,1.022,2.949-4.033,1.482Z"/>
      <polygon class="st1" points="107.801 14.516 105.033 17.483 105.008 12.561 107.801 14.516"/>
      <path d="M100.875,17.002c.696-.131,1.482.34,1.625.88.178.672-.272,1.492-.882,1.646-.82.207-1.592-.193-1.796-.88-.195-.657.204-1.488,1.052-1.647Z"/>
    </g>
  </g>
</svg>