<?xml version="1.0" encoding="UTF-8"?>
<svg id="Layer_1" xmlns="http://www.w3.org/2000/svg" width="1.282in" height=".272in" version="1.1" viewBox="0 0 92.328 19.609">
  <!-- Generator: Adobe Illustrator 30.6.0, SVG Export Plug-In . SVG Version: 2.1.4 Build 109)  -->
  <defs>
    <style>
      .st0 {
        fill: none;
      }

      .st1 {
        fill: #aaa;
      }
    </style>
  </defs>
  <path class="st0" d="M84.203,13.731c0,.271.135.406.406.406h.947c.895,0,1.354-.649,1.354-1.977v-2.475h-2.708v4.046Z"/>
  <path class="st0" d="M55.201,14.138h.947c.895,0,1.354-.649,1.354-1.977v-2.475h-2.709v4.046c0,.271.136.406.407.406Z"/>
  <path class="st0" d="M57.502,7.448c0-1.327-.46-1.977-1.354-1.977h-.947c-.271,0-.407.135-.407.406v3.808h2.709v-2.238Z"/>
  <path class="st0" d="M38.817,15.303h1.191c.325,0,.488-.189.379-.515l-.542-1.544c-.136-.352-.244-.541-.434-.541s-.298.189-.433.541l-.542,1.544c-.108.325.054.515.379.515Z"/>
  <path class="st0" d="M85.557,5.471h-.947c-.271,0-.406.135-.406.406v3.808h2.708v-2.238c0-1.327-.46-1.977-1.354-1.977Z"/>
  <path d="M5.317,11.809c1.381.461,2.519.84,2.519,1.869,0,.65-.46,1.11-1.192,1.11-.839,0-1.165-.515-1.327-1.381-.054-.353-.244-.515-.568-.461l-4.252.731c-.352.054-.542.298-.487.65.65,3.737,3.223,5.281,6.635,5.281,4.388,0,6.582-2.654,6.582-6.013,0-1.856-.672-3.059-1.644-3.911H1.495c1.029,1.185,2.536,1.694,3.822,2.123Z"/>
  <path class="st1" d="M5.453,5.904c0-.65.46-1.083,1.191-1.083.84,0,1.165.515,1.327,1.381.054.352.244.514.569.46l4.252-.731c.352-.054.542-.298.487-.65C12.657,1.544,10.03,0,6.644,0,2.419,0,.28,2.33.28,5.958c0,1.724.49,2.892,1.215,3.727h10.088c-1.042-.913-2.43-1.423-3.719-1.886-1.219-.433-2.41-.867-2.41-1.896Z"/>
  <path d="M15.472,18.742c0,.353.19.542.542.542h4.333c.352,0,.542-.189.542-.542v-6.202c0-.271.136-.406.406-.406h2.33c.271,0,.406.136.406.406v6.202c0,.353.216.542.542.542h4.333c.379,0,.542-.189.542-.542v-9.056h-13.976v9.056Z"/>
  <path class="st1" d="M28.906.325h-4.333c-.325,0-.542.189-.542.542v6.473c0,.271-.136.406-.406.406h-2.33c-.271,0-.406-.135-.406-.406V.867c0-.352-.189-.542-.542-.542h-4.333c-.352,0-.542.189-.542.542v8.819h13.976V.867c0-.379-.163-.542-.542-.542Z"/>
  <path d="M31.287,18.553c-.162.406,0,.731.434.731h4.712c.353,0,.542-.162.65-.515l.325-1.002c.108-.325.298-.461.677-.461h2.654c.379,0,.569.136.677.461l.325,1.002c.108.353.298.515.65.515h4.712c.434,0,.596-.325.434-.731l-3.673-8.867h-8.905l-3.673,8.867ZM38.437,14.788l.542-1.544c.135-.352.244-.541.433-.541s.298.189.434.541l.542,1.544c.108.325-.054.515-.379.515h-1.191c-.325,0-.488-.189-.379-.515Z"/>
  <path class="st1" d="M39.412,0c-.352,0-.569.298-.731.704l-3.721,8.982h8.905l-3.721-8.982c-.163-.406-.379-.704-.731-.704Z"/>
  <path d="M57.502,12.161c0,1.327-.46,1.977-1.354,1.977h-.947c-.271,0-.407-.135-.407-.406v-4.046h-5.417v9.056c0,.353.19.542.542.542h6.229c4.145,0,6.771-2.329,6.771-6.934v-2.665h-5.417v2.475Z"/>
  <path class="st1" d="M56.148.325h-6.229c-.352,0-.542.189-.542.542v8.819h5.417v-3.808c0-.271.136-.406.407-.406h.947c.895,0,1.354.65,1.354,1.977v2.238h5.417v-2.427c0-4.604-2.627-6.934-6.771-6.934Z"/>
  <path class="st1" d="M74.292,8.071h-3.25c-.271,0-.406-.135-.406-.406v-1.788c0-.271.135-.406.406-.406h4.767c.352,0,.542-.189.542-.542V.867c0-.352-.19-.542-.542-.542h-10.049c-.352,0-.541.189-.541.542v8.819h9.614v-1.073c0-.352-.189-.542-.541-.542Z"/>
  <path d="M65.219,18.742c0,.353.189.542.541.542h10.049c.352,0,.542-.189.542-.542v-4.062c0-.352-.19-.542-.542-.542h-4.767c-.271,0-.406-.135-.406-.406v-1.896c0-.271.135-.406.406-.406h3.25c.352,0,.541-.189.541-.542v-1.202h-9.614v9.056Z"/>
  <path class="st1" d="M84.203,5.877c0-.271.135-.406.406-.406h.947c.895,0,1.354.65,1.354,1.977v2.238h5.417v-2.427c0-4.604-2.627-6.934-6.771-6.934h-6.229c-.352,0-.541.189-.541.542v8.819h5.417v-3.808Z"/>
  <path d="M86.912,9.686v2.475c0,1.327-.46,1.977-1.354,1.977h-.947c-.271,0-.406-.135-.406-.406v-4.046h-5.417v9.056c0,.353.189.542.541.542h6.229c4.145,0,6.771-2.329,6.771-6.934v-2.665h-5.417Z"/>
</svg>