<?xml version="1.0" encoding="UTF-8"?>
<svg id="Layer_1" xmlns="http://www.w3.org/2000/svg" width="1.429in" height=".325in" version="1.1" viewBox="0 0 102.892 23.385">
  <!-- Generator: Adobe Illustrator 30.6.0, SVG Export Plug-In . SVG Version: 2.1.4 Build 109)  -->
  <defs>
    <style>
      .st0 {
        fill: #231f20;
      }
    </style>
  </defs>
  <path class="st0" d="M4.614.357c.469.008,1.008.031,1.617.07,1.309.059,2.043.074,2.203.047.141-.031.242-.047.305-.047l.117.211c-.008,1.48-.027,2.301-.059,2.461-.047,1.379-.07,2.146-.07,2.303-.004.195.012.453.047.773.031.203.041.402.029.598l-.023.246c0,.031-.016.047-.047.047-.027,0-.09-.016-.188-.047-.461-.031-.844-.07-1.148-.117-.184-.031-.535-.047-1.055-.047-.914,0-1.545.266-1.893.797-.129.336-.176.789-.141,1.359-.016.508.139,1.123.463,1.846.148.281.43.422.844.422.301.012.598.082.891.211.246.086.451.289.615.609.172.516.268,1.281.287,2.297.082,1.504.105,3.262.07,5.273-.02.715-.092,1.289-.217,1.723-.09.309-.195.531-.316.668-.203.344-.592.594-1.166.75-.488.09-1.072.121-1.752.094-.551-.02-1.107-.123-1.67-.311-.688-.191-1.213-.512-1.576-.961-.312-.578-.48-1.111-.504-1.6-.012-.188-.012-.459,0-.814.004-.09.012-.41.023-.961.008-.23-.018-.582-.076-1.055-.016-.133-.031-.271-.047-.416s-.056-.398-.12-.762-.075-.83-.032-1.4c.051-.051.34.018.867.205,1.207.277,2.201.406,2.982.387.266.031.414.047.445.047v.211c-.047.246-.092.512-.135.797-.109.672-.162,1.273-.158,1.805-.004.551.068.988.217,1.312.113.246.363.355.75.328.211,0,.373-.43.486-1.289.066-.676.088-1.402.064-2.18.012-1.078-.031-1.789-.129-2.133-.121-.25-.387-.383-.797-.398-.148-.023-.32-.008-.516.047v-.023c-.297.117-.578.172-.844.164-.523-.066-.859-.152-1.008-.258-.156-.082-.266-.168-.328-.258-.109-.125-.207-.355-.293-.691-.09-.199-.23-.844-.422-1.934-.078-.469-.127-.938-.146-1.406-.039-1.883-.029-3.367.029-4.453.008-.512.076-1.1.205-1.764.141-.789.467-1.498.979-2.127.328-.285.623-.473.885-.562.23-.062.715-.094,1.453-.094Z"/>
  <path class="st0" d="M13.555,1.271c-.188,1.629-.281,2.637-.281,3.023-.027,0-.043.078-.047.234v.234c0,.016-.008.023-.023.023l.023.047c-.047.223-.07.527-.07.914,0,.016-.008.023-.023.023l.023.047v.352c0,.125-.023.273-.07.445l.023.164v.258c0,.035-.008.066-.023.094,0,.016.008.023.023.023-.016.105-.023.191-.023.258,0,1.215-.031,2.145-.094,2.789l.023.211c-.016.031-.023.055-.023.07.016.059.023.121.023.188v.023c0,.016-.008.023-.023.023.027.133.051.305.07.516-.016.086-.023.156-.023.211.047.539.07.891.07,1.055h.023c.031,0,.047-.008.047-.023.121.016.207.039.258.07l.047-.023c.25.051.375.082.375.094.016,0,.023-.008.023-.023.133.031.219.047.258.047l.047-.023c.109.016.164.031.164.047.016,0,.023-.008.023-.023.227.047.602.086,1.125.117.031-.016.055-.023.07-.023v.023l.047-.023h.023l.047.023c.047-.055.07-.195.07-.422,0-.047-.016-.109-.047-.188.047-.52.086-1.191.117-2.016h.023l-.023-.141.023-.281-.023-.047c.031-.098.047-.16.047-.188-.016-.086-.023-.156-.023-.211l.023-.047-.023-.047c0-.016.008-.039.023-.07l-.047-.328c.016-.031.023-.055.023-.07l-.023-.047c0-.016.008-.039.023-.07l-.023-.117.023-.141c-.016-.219-.031-.367-.047-.445l.047-.094c0-.125-.016-.352-.047-.68.016-.027.023-.059.023-.094-.031-.125-.047-.227-.047-.305h.023l-.047-.234c.02-.211.035-.336.047-.375l-.094-.352c.047-.062.078-.156.094-.281-.031-.051-.047-.098-.047-.141,0-.031.008-.047.023-.047l-.023-.117v-.656c0-.055.008-.125.023-.211-.016-.027-.023-.059-.023-.094.016-.211.023-.367.023-.469h.023l-.023-.047v-.281c0-.051.008-.09.023-.117l-.023-.141v-.873c1.031.035,1.719.029,2.062-.018.551-.086.914-.17,1.09-.252.039.195.012.514-.082.955v.094h-.023v.023c0,.086-.016.203-.047.352l.023.047v.07h.023v.047c-.078,0-.117.102-.117.305,0,.012.008.059.023.141-.016.047-.031.07-.047.07,0,.016.008.023.023.023-.016.113-.047.238-.094.375.016.086.023.156.023.211v.211c0,.016-.008.023-.023.023l.023.047c-.031.137-.055.293-.07.469,0,.016.008.023.023.023,0,.016-.039.289-.117.82l.023.047-.164,1.734.023.047c-.02.301-.035.457-.047.469.016.027.023.059.023.094,0,.047-.008.07-.023.07l.023.164v.469c0,.133.016.234.047.305l-.07.492v.047c0,.09.008.215.023.375l-.023.047c.016.027.023.059.023.094,0,.062-.008.125-.023.188.027.125.051.57.07,1.336h-.023c0,.016.008.023.023.023l-.023.164v.023c0,.047.008.07.023.07l-.023.117v.375c0,.016-.008.023-.023.023l.047.188c0,.016-.008.023-.023.023,0,.016.008.039.023.07l-.023.375c.016.227.023.352.023.375h-.023c0,.016.008.023.023.023l-.047.398.023.117c-.031.223-.047.465-.047.727v.562c0,.199.008.418.023.656-.016.062-.023.117-.023.164.016.082.023.129.023.141-.016.086-.023.148-.023.188l.023.164-.047.023c0,.016.008.023.023.023l-.023.094c.047.34.086.52.117.539.02.578.043.867.07.867,0,.016-.008.023-.023.023.031.121.055.277.07.469,0,.016-.008.023-.023.023l.023.164c0,.297-.008.672-.023,1.125l.023.117c0,.016-.008.023-.023.023.055.812.109,1.219.164,1.219v.094c0,.031-.016.047-.047.047h-.281c-.039,0-.109.016-.211.047-.57.016-1.023.023-1.359.023h-.117c-.285.039-.725.076-1.318.111l.006-.205c0-.016.008-.023.023-.023,0-.016-.008-.023-.023-.023l.141-1.312c0-.047-.008-.07-.023-.07l.023-.281v-.328c0-.219.016-.414.047-.586,0-.016-.008-.023-.023-.023.027-.281.051-.422.07-.422l-.023-.047v-.211c0-.051-.008-.09-.023-.117l.047-.305c0-.012-.008-.059-.023-.141.016-.203.023-.367.023-.492h.023c-.016-.035-.031-.152-.047-.352l.023-.047c-.016-.031-.023-.055-.023-.07,0-.031.008-.047.023-.047l-.094-1.055c.016-.031.023-.055.023-.07l-.023-.094.023-.164-.023-.047.023-.047c-.016-.027-.023-.066-.023-.117h-.352l-.141.023c-.016,0-.023-.008-.023-.023-.031,0-.047.008-.047.023-.211-.016-.367-.023-.469-.023h-.352c-.066,0-.152.008-.258.023-.016-.016-.078-.023-.188-.023-.031.051-.047.098-.047.141v.023c0,.191-.008.426-.023.703l.023.094c-.031.18-.047.398-.047.656,0,.016.008.039.023.07-.012.09-.027.285-.047.586l.023.047c-.031.078-.047.133-.047.164.016.047.031.07.047.07l-.047.375c0,.016.008.023.023.023l-.023.094c0,.055.008.125.023.211-.016.137-.023.223-.023.258.016.137.023.215.023.234,0,.016-.008.039-.023.07.027.176.051,1.043.07,2.602.023,0,.039.086.047.258h-.023l.023.047v.094c0,.047-.008.07-.023.07.039.352.061.652.064.902-.324-.211-.689-.387-1.096-.527,0-.031-.125-.055-.375-.07,0-.066-.25-.121-.75-.164-.02,0-.105-.023-.258-.07h-.867c-.367,0-.711.047-1.031.141.078-.34.117-.543.117-.609.109-.863.164-1.402.164-1.617v-.023c0-.035.008-.066.023-.094-.016-.031-.023-.055-.023-.07l.094-.469-.023-.141c.047-.219.086-.508.117-.867l-.023-.141v-.07l.023-.141-.023-.047c0-.09.039-.387.117-.891,0-.016-.008-.023-.023-.023,0-.016.008-.039.023-.07,0-.051-.008-.09-.023-.117.016-.383.047-.695.094-.938l-.023-.211h.023c-.016-.031-.023-.055-.023-.07.023-.203.047-.305.07-.305l-.023-.047c.031-.34.047-.52.047-.539-.016-.031-.023-.055-.023-.07l.023-.047-.023-.141v-.047c0-.016.008-.023.023-.023-.012-.043-.027-.137-.047-.281.031-.328.055-.492.07-.492l-.023-.094c.012-.375.035-.562.07-.562-.016-.113-.023-.176-.023-.188.027-.203.059-.57.094-1.102l-.023-.047c.016-.031.023-.055.023-.07-.031-.117-.047-.18-.047-.188l.07-1.219c-.031-.152-.047-.301-.047-.445h.023l-.023-.047c0-.031-.008-.203-.023-.516.016-.422.031-.648.047-.68-.016-.062-.023-.125-.023-.188,0-.066.008-.129.023-.188l-.047-.398.023-.047-.023-.164c0-.047.008-.102.023-.164-.016-.102-.023-.203-.023-.305,0-.082.008-.152.023-.211-.016-.082-.023-.16-.023-.234v-.07l.023-.141c-.016-.027-.023-.059-.023-.094h.023l-.023-.047.023-.117c0-.016-.008-.023-.023-.023l.023-.117c0-.062-.008-.203-.023-.422.016-.047.031-.07.047-.07-.031-.172-.047-.438-.047-.797v-.164c0-.035.008-.066.023-.094-.016-.027-.023-.059-.023-.094v-.047c0-.047.008-.07.023-.07l-.023-.117v-.891l-.023-.234h.023l-.023-.047v-.398c0-.078-.008-.195-.023-.352h.023c0-.016-.008-.023-.023-.023l.023-.117v-.023c0-.137-.021-.469-.064-.996.664.051,1.277.08,1.84.088.5.004.838-.021,1.014-.076.285-.078.52-.148.703-.211Z"/>
  <path class="st0" d="M23.352,1.248v.023l.047-.023.047.023c.016,0,.039-.008.07-.023.391.02.625.043.703.07l.047-.023c.316.016.535.023.656.023l.047.018.047-.018c.891.086,1.336.16,1.336.223l.047-.023h.094c.066.043.277.088.633.135.277.105.551.189.82.252.004.02.191.102.562.246.371.172.629.367.773.586.234.391.352.963.352,1.717-.035.852-.066,1.408-.094,1.67-.188.941-.352,1.498-.492,1.67-.141.512-.242.768-.305.768l.023.047c-.172.332-.336.678-.492,1.037-.039.016-.078.105-.117.27-.383.504-.711.887-.984,1.148-.195.176-.523.395-.984.656-.184.059-.309.119-.375.182.062.137.305.43.727.879,0,.047.148.258.445.633.09.184.238.455.445.814.109.172.203.434.281.785.039.121.07.182.094.182l-.023.047.234,1.084c-.016.027-.023.057-.023.088.078.223.141.523.188.902h-.023c.016.035.047.148.094.34h-.023l.047.182c-.016.031-.023.053-.023.064l.117.434c0,.012-.008.018-.023.018l.023.117-.023.158c.031.004.047.018.047.041v.158c0,.051.031.254.094.609,0,.016-.008.023-.023.023.047.301.086.561.117.779,0,.016-.008.023-.023.023l.023.111v.744c0,.238-.008.479-.023.721.016.066.023.195.023.387,0,.07-.07.115-.211.135-.098-.031-.238-.055-.422-.07,0,.016-.008.023-.023.023-.016-.043-.031-.064-.047-.064-.051.027-.098.041-.141.041h-.375c-.035,0-.066-.006-.094-.018-.027.012-.059.018-.094.018l-.117-.018c-.027.012-.059.018-.094.018,0-.027-.016-.041-.047-.041-.051.027-.098.041-.141.041h-.398l-.07-.041c-.039.027-.062.041-.07.041-.066,0-.129-.014-.188-.041-.082.043-.191.064-.328.064-.195-.016-.312-.023-.352-.023l-.023.047c-.203-.016-.305-.031-.305-.047l-.047.023h-.094c-.203-.055-.305-.129-.305-.223l.258-1.74c0-.09.008-.135.023-.135-.016-.031-.023-.053-.023-.064.141-.445.211-.826.211-1.143v-.023c0-.016.008-.023.023-.023l-.023-.041c0-.016.008-.023.023-.023,0-.016-.008-.023-.023-.023,0-.031.008-.047.023-.047l-.023-.223v-.047c0-.035.008-.064.023-.088,0-.016-.008-.023-.023-.023l.047-.316c-.031-.453-.055-.738-.07-.855,0-.016.008-.023.023-.023-.031-.215-.047-.365-.047-.451l.023-.205c-.152-1.234-.27-1.852-.352-1.852-.137-.574-.34-1.07-.609-1.488-.105-.223-.324-.494-.656-.814l-.07-.088c-.141,0-.211.121-.211.363,0,.227-.023.436-.07.627.016.145.023.281.023.41v.023c0,.031-.008.061-.023.088.016.031.023.055.023.07,0,.047-.008.174-.023.381l.023.111c-.016.031-.023.055-.023.07.016.082.023.143.023.182,0,.012-.008.018-.023.018.02.207.035.336.047.387-.016.031-.023.055-.023.07l.023.041c0,.016-.008.023-.023.023,0,.016.008.039.023.07.016.492.023.875.023,1.148v.158c0,.016-.008.023-.023.023l.023.047v.451c0,.223.016.402.047.539-.016.031-.023.055-.023.07.047.309.07.518.07.627h-.023l.023.047c.078,2.043.117,3.131.117,3.264l.023.041c0,.016-.008.023-.023.023.031.258.047.461.047.609-.031.07-.062.107-.094.111h-.328c-.035,0-.066.008-.094.023-.031-.016-.055-.023-.07-.023l-.164.023-.047-.023c-.031.016-.055.023-.07.023v-.023c-.027.016-.184.039-.469.07v-.023c-.363.066-.559.111-.586.135l-.047-.023-.398.094c-.016,0-.023-.008-.023-.023-.492.121-.82.211-.984.27-.027-.016-.059-.023-.094-.023-.008.047-.117.1-.328.158,0,.031-.016.047-.047.047h-.141c-.047,0-.07-.15-.07-.451.031-.051.047-.088.047-.111,0-.016-.008-.039-.023-.07.043-.156.082-.77.117-1.84l-.023-.041c.016-.016.031-.16.047-.434l-.023-.041c0-.016.008-.023.023-.023l-.023-.111.023-.141c-.016-.023-.023-.053-.023-.088.016-.031.023-.053.023-.064l-.023-.047c.043-.258.09-.709.141-1.354l-.023-.047c.016-.031.023-.055.023-.07,0-.012-.008-.018-.023-.018l.023-.117v-.316c0-.012.008-.018.023-.018,0-.016-.008-.023-.023-.023,0-.07.008-.168.023-.293-.016-.43-.031-.693-.047-.791.035-.242.059-.363.07-.363l-.023-.041v-.299c0-.094.008-.205.023-.334-.02-.137-.035-.221-.047-.252.016-.223.031-.334.047-.334l-.023-.117c0-.117.008-.328.023-.633-.016-.105-.023-.164-.023-.176.016-.09.023-.211.023-.363h.023c0-.016-.008-.023-.023-.023l.023-.111v-.158c0-.035-.008-.064-.023-.088.031-.078.047-.131.047-.158,0-.016-.008-.023-.023-.023,0-.016.008-.039.023-.07,0-.035-.008-.096-.023-.182.016-.211.023-.414.023-.609h.023l-.023-.041v-.182l-.023-.135c.016-.031.023-.055.023-.07s-.008-.023-.023-.023c0-.016.008-.037.023-.064-.031-.277-.047-.594-.047-.949v-.246c0-.016.008-.023.023-.023l-.023-.047c0-.043.008-.064.023-.064l-.023-.117c0-.047.008-.084.023-.111l-.047-.381c.016-.098.023-.197.023-.299v-.135c0-.012.008-.018.023-.018l-.023-.047v-.41c0-.031-.008-.061-.023-.088l.023-.047c-.016-.164-.023-.307-.023-.428v-.111c0-.016.008-.023.023-.023l-.023-.047v-.041c0-.016.008-.023.023-.023l-.023-.047.023-.047c0-.02-.031-.064-.094-.135h.023l.047.023c.016-.148.031-.223.047-.223l-.023-.047v-.088c0-.281.023-.463.07-.545l-.023-.047c.02-.219.035-.338.047-.357-.031-.078-.047-.236-.047-.475v-.047c0-.07.008-.145.023-.223-.043-.441-.082-1.172-.117-2.191.016-.031.023-.053.023-.064-.016-.031-.023-.055-.023-.07s.008-.023.023-.023c-.062-.598-.094-.943-.094-1.037.016-.082.023-.15.023-.205,0-.035-.016-.125-.047-.27,0-.18.086-.27.258-.27,0-.059.281-.127.844-.205.004-.027.02-.041.047-.041.062.008.094.021.094.041.391-.07.992-.131,1.805-.182,0-.012.07-.025.211-.041v.023c.039-.027.227-.051.562-.07ZM23.205,4.787l.006.064c0,.039.008.059.023.059-.031.504-.053.789-.064.855l.023.041c-.023.148-.051.436-.082.861l.023.088c0,.012-.006.018-.018.018l.023.088c-.008.199-.01.363-.006.492l.018.035c-.012.02-.018.043-.018.07,0,.055.008.088.023.1-.012.082-.016.148-.012.199l.006.369c.004.062,0,.145-.012.246.016.023.023.041.023.053h-.023c0,.012.008.018.023.018l-.035.188c.012.023.018.043.018.059l-.018.035c.012.043.025.064.041.064l-.018.094v.018l.023.1c-.012.027-.018.047-.018.059,0,.008.008.012.023.012l-.018.094v.018c0,.066.049.1.146.1,1.121-.355,1.928-.961,2.42-1.816.387-.598.578-.982.574-1.154l-.023-.088c.039-.016.059-.051.059-.105v-.035l-.023-.105c0-.012.006-.018.018-.018l-.023-.123-.006-.176-.023-.088h.023c-.016-.023-.023-.041-.023-.053-.012-.367-.145-.703-.398-1.008-.23-.188-.463-.293-.697-.316-.051-.059-.301-.117-.75-.176-.004-.012-.039-.023-.105-.035-.027.012-.049.018-.064.018-.195-.043-.473-.059-.832-.047v-.023c-.109.004-.162.111-.158.322.008.199-.016.377-.07.533Z"/>
  <path class="st0" d="M36.723,2.15c.48.598.744.992.791,1.184.18.699.301,1.381.363,2.045.082,1.039.164,2.262.246,3.668-.016.137.002.926.053,2.367.043,1.848.018,3.586-.076,5.215l-.1.979h.029c-.082.824-.182,1.523-.299,2.098-.125.758-.395,1.41-.809,1.957-.582.652-1.457,1.004-2.625,1.055-.91-.043-1.645-.232-2.203-.568-.34-.188-.68-.576-1.02-1.166-.363-.875-.602-1.961-.715-3.258-.082-1.344-.139-3.297-.17-5.859,0-1.645.025-3.051.076-4.219.066-1.805.174-2.951.322-3.439.301-.656.627-1.135.979-1.436.324-.309.75-.604,1.277-.885.438-.195,1.158-.305,2.162-.328.578,0,1.15.197,1.717.592ZM35.246,5.555c-.203-.809-.367-1.213-.492-1.213h-.023c-.023,0-.098.127-.223.381-.234.672-.39,1.324-.468,1.957-.164,1.488-.246,2.455-.246,2.9l-.023,3.258c-.016,0-.031.316-.047.949.016,2.215.057,3.646.123,4.295.246,1.164.508,1.736.785,1.717.156.004.293-.125.41-.387.258-.629.416-2.85.475-6.662-.02-.168-.025-.613-.02-1.336s.012-1.256.02-1.6c-.082-2.156-.172-3.576-.27-4.26Z"/>
  <path class="st0" d="M45.588,2.15c.48.598.744.992.791,1.184.18.699.301,1.381.363,2.045.082,1.039.164,2.262.246,3.668-.016.137.002.926.053,2.367.043,1.848.018,3.586-.076,5.215l-.1.979h.029c-.082.824-.182,1.523-.299,2.098-.125.758-.395,1.41-.809,1.957-.582.652-1.457,1.004-2.625,1.055-.91-.043-1.645-.232-2.203-.568-.34-.188-.68-.576-1.02-1.166-.363-.875-.602-1.961-.715-3.258-.082-1.344-.139-3.297-.17-5.859,0-1.645.025-3.051.076-4.219.066-1.805.174-2.951.322-3.439.301-.656.627-1.135.979-1.436.324-.309.75-.604,1.277-.885.438-.195,1.158-.305,2.162-.328.578,0,1.15.197,1.717.592ZM44.111,5.555c-.203-.809-.367-1.213-.492-1.213h-.023c-.023,0-.098.127-.223.381-.234.672-.391,1.324-.469,1.957-.164,1.488-.246,2.455-.246,2.9l-.023,3.258c-.016,0-.031.316-.047.949.016,2.215.057,3.646.123,4.295.246,1.164.508,1.736.785,1.717.156.004.293-.125.41-.387.258-.629.416-2.85.475-6.662-.02-.168-.026-.613-.021-1.336s.013-1.256.021-1.6c-.082-2.156-.172-3.576-.27-4.26Z"/>
  <path class="st0" d="M56.316.164c1.055.117,1.828.125,2.32.023.238-.082.406-.135.504-.158l.035.035c-.016.105-.031,1.502-.047,4.189-.016,1.23-.041,2.746-.076,4.547.004.59.053,1.904.146,3.943.109,2.105.25,4.297.422,6.574.125,1.105.238,1.904.34,2.396.117.469.184.795.199.979.078.371.117.57.117.598-.016,0-.023.008-.023.023-.391-.238-1.164-.51-2.32-.814-.32-.047-.672-.094-1.055-.141,0-.078.07-.893.211-2.443.047-.664.031-1.971-.047-3.92-.141-2.031-.234-3.227-.281-3.586-.062-.656-.119-1.271-.17-1.846s-.088-.861-.111-.861c-.25.691-.414,1.17-.492,1.436-.172.406-.32.82-.445,1.242-.391,1.188-.818,2.904-1.283,5.15-.113-.535-.287-1.199-.521-1.992-.422-1.609-.711-2.637-.867-3.082-.094-.359-.352-1.229-.773-2.607-.039,0-.094.326-.164.979-.031.438-.084.941-.158,1.512-.074.785-.084,1.732-.029,2.842.141,1.879.27,3.254.387,4.125s.205,1.498.264,1.881c.098.469.154.867.17,1.195-.898-.133-1.867-.229-2.906-.287-.621.012-1.262.043-1.922.094,0-.09.007-.28.021-.571s.05-.978.108-2.06c.215-1.867.383-4.004.504-6.41.047-1.176.094-2.818.141-4.928,0-.121.016-1.252.047-3.393-.062-2.328-.094-3.51-.094-3.545v-.047c0-.094.062-.141.188-.141.469.074.898.121,1.289.141,1.312,0,2.109-.016,2.391-.047.309-.043.477-.059.504-.047.047.066.152.951.316,2.654.223,1.902.403,3.08.542,3.533s.208.695.208.727h.047c0-.047.073-.486.22-1.318s.313-1.953.501-3.363c.051-.387.158-1.512.322-3.375.52.07.961.125,1.324.164Z"/>
  <path class="st0" d="M69.881,0c.164,1.863.271,2.988.322,3.375.188,1.41.354,2.531.501,3.363s.22,1.271.22,1.318h.047c0-.031.069-.273.208-.727s.319-1.631.542-3.533c.164-1.703.27-2.588.316-2.654.027-.012.195.004.504.047.281.031,1.078.047,2.391.047.391-.02.82-.066,1.289-.141.125,0,.188.047.188.141v.047c0,.035-.031,1.217-.094,3.545.031,2.141.047,3.271.047,3.393.047,2.109.094,3.752.141,4.928.121,2.406.289,4.543.504,6.41.059,1.082.095,1.769.108,2.06s.021.481.021.571c-.66-.051-1.301-.082-1.922-.094-1.039.059-2.008.154-2.906.287.016-.328.072-.727.17-1.195.059-.383.146-1.01.264-1.881s.246-2.246.387-4.125c.055-1.109.045-2.057-.029-2.842-.074-.57-.127-1.074-.158-1.512-.07-.652-.125-.979-.164-.979-.422,1.379-.68,2.248-.773,2.607-.156.445-.445,1.473-.867,3.082-.234.793-.408,1.457-.521,1.992-.465-2.246-.893-3.963-1.283-5.15-.125-.422-.273-.836-.445-1.242-.078-.266-.242-.744-.492-1.436-.023,0-.061.287-.111.861s-.107,1.189-.17,1.846c-.047.359-.141,1.555-.281,3.586-.078,1.949-.094,3.256-.047,3.92.141,1.551.211,2.365.211,2.443-.383.047-.734.094-1.055.141-1.156.305-1.93.576-2.32.814,0-.016-.008-.023-.023-.023,0-.027.039-.227.117-.598.016-.184.082-.51.199-.979.102-.492.215-1.291.34-2.396.172-2.277.312-4.469.422-6.574.094-2.039.143-3.354.146-3.943-.035-1.801-.061-3.316-.076-4.547-.016-2.688-.031-4.084-.047-4.189l.035-.035c.098.023.266.076.504.158.492.102,1.266.094,2.32-.023.363-.039.805-.094,1.324-.164Z"/>
  <path class="st0" d="M84.201,2.15c.48.598.744.992.791,1.184.18.699.301,1.381.363,2.045.082,1.039.164,2.262.246,3.668-.016.137.002.926.053,2.367.043,1.848.018,3.586-.076,5.215l-.1.979h.029c-.082.824-.182,1.523-.299,2.098-.125.758-.395,1.41-.809,1.957-.582.652-1.457,1.004-2.625,1.055-.91-.043-1.645-.232-2.203-.568-.34-.188-.68-.576-1.02-1.166-.363-.875-.602-1.961-.715-3.258-.082-1.344-.139-3.297-.17-5.859,0-1.645.025-3.051.076-4.219.066-1.805.174-2.951.322-3.439.301-.656.627-1.135.979-1.436.324-.309.75-.604,1.277-.885.438-.195,1.158-.305,2.162-.328.578,0,1.15.197,1.717.592ZM82.725,5.555c-.203-.809-.367-1.213-.492-1.213h-.023c-.023,0-.098.127-.223.381-.234.672-.391,1.324-.469,1.957-.164,1.488-.246,2.455-.246,2.9l-.023,3.258c-.016,0-.031.316-.047.949.016,2.215.057,3.646.123,4.295.246,1.164.508,1.736.785,1.717.156.004.293-.125.41-.387.258-.629.416-2.85.475-6.662-.02-.168-.026-.613-.021-1.336s.013-1.256.021-1.6c-.082-2.156-.172-3.576-.27-4.26Z"/>
  <path class="st0" d="M86.351,21.562c.141-.746.248-1.994.322-3.744.195-5.086.244-8.787.146-11.104-.066-2.023-.137-3.646-.211-4.869-.062-.664-.102-1.074-.117-1.23,1.516.316,2.695.641,3.539.973,1.727.934,2.789,2.154,3.188,3.662.23.547.379,1.371.445,2.473.035,1.246.012,2.781-.07,4.605.016,1.051-.047,2.41-.188,4.078-.125,1.148-.406,2.049-.844,2.701-.32.426-.859.852-1.617,1.277-1.09.48-1.91.787-2.461.92-.598.156-1.309.242-2.133.258ZM89.937,15.422c.578-.578.914-1.008,1.008-1.289.281-.715.414-1.549.398-2.502.098-1.57.043-2.941-.164-4.113-.379-1.031-.785-1.566-1.219-1.605v.023c.047,1.148.07,2.906.07,5.273-.031,1.48-.07,2.885-.117,4.213h.023Z"/>
  <path class="st0" d="M100.971,22.875c-1.477-.094-2.672-.176-3.586-.246-1.289.023-2.07.049-2.344.076-.043,0-.074-.123-.094-.369.078-2.09.148-4.172.211-6.246.039-1.113.023-3.457-.047-7.031-.051-2.707-.246-5.229-.586-7.564l.047-.029c1.492-.016,2.828-.039,4.008-.07,1.5-.113,2.266-.178,2.297-.193l.75-.123c.227-.035.352-.025.375.029.039.074.029.217-.029.428s-.096.414-.111.609c-.191.816-.254,1.74-.188,2.771.031.477.062.789.094.938-.016,0,.004.111.059.334s.098.482.129.779c.012.082-.129.111-.422.088-.547-.055-.938-.092-1.172-.111-.242-.023-.852-.061-1.828-.111-.055.004-.094.076-.117.217-.02.371-.027.715-.023,1.031-.027.523-.012.898.047,1.125.062.191.352.275.867.252.215,0,.426-.008.633-.023.375-.051.594-.1.656-.146.016,0,.039.008.07.023l-.023.281c-.031.27.012.908.129,1.916.09.617.141.949.152.996l-.07.029c-.051.004-.348.01-.891.018-.277.012-.621.01-1.031-.006-.438.047-.734.098-.891.152-.09.004-.145.133-.164.387-.016.355.008,1.475.07,3.357-.016,0-.023.008-.023.023,0,.125.088.184.264.176,1.238-.004,1.939-.025,2.104-.064.215.008.691-.035,1.43-.129.059-.004.238-.035.539-.094.078.008.117.029.117.064.062.609.094,1.461.094,2.555.023.824.066,1.59.129,2.297.039.539.113.939.223,1.201.047.07.07.188.07.352-.023.047-.047.07-.07.07l-.094.006c-.426.016-1.012.008-1.758-.023Z"/>
</svg>