<?xml version="1.0" encoding="UTF-8"?>
<svg id="Layer_1" xmlns="http://www.w3.org/2000/svg" width="1.343in" height=".37in" version="1.1" viewBox="0 0 96.703 26.671">
  <!-- Generator: Adobe Illustrator 30.6.0, SVG Export Plug-In . SVG Version: 2.1.4 Build 109)  -->
  <defs>
    <style>
      .st0 {
        fill: #662d91;
      }

      .st1 {
        fill: #8dc63f;
      }

      .st2 {
        fill: #ffcd34;
      }

      .st3 {
        fill: #eb2329;
      }

      .st4 {
        fill: #f8991d;
      }
    </style>
  </defs>
  <path class="st3" d="M.071,20.99c-.139-.347-.069-.624.173-.936l4.849-5.888c.555-.693.381-1.386-.173-1.94-1.282-1.316-2.078-3.083-2.078-5.057C2.842,3.221,6.063,0,10.046,0c1.697,0,3.256.588,4.468,1.593.346.277.381.624.104.97l-4.295,5.196c-.693.831-.381,1.42.658,1.731,3.775,1.005,6.72,4.399,6.72,8.417,0,4.849-4.261,8.764-9.075,8.764-3.741,0-7.205-2.39-8.555-5.681Z"/>
  <path class="st2" d="M21.333.346h6.582c.9,0,1.385.485,1.385,1.385v23.207c0,.9-.485,1.386-1.385,1.386h-6.582c-.9,0-1.385-.485-1.385-1.386V1.731c0-.9.485-1.385,1.385-1.385Z"/>
  <path class="st1" d="M32.276.346h20.194c.52,0,.728.346.52.831l-5.265,11.153c-.312.658-.312,1.212,0,1.871l5.265,11.292c.208.484,0,.831-.52.831h-20.194c-.52,0-.728-.347-.52-.831l5.265-11.292c.312-.658.312-1.212,0-1.871L31.757,1.177c-.208-.485,0-.831.52-.831Z"/>
  <path class="st0" d="M67.741,26.324h-6.581c-.9,0-1.386-.485-1.386-1.386V4.295c0-.901-.485-1.386-1.386-1.386h-3.464c-.45,0-.692-.242-.692-.692v-1.178c0-.451.242-.693.692-.693h19.051c.45,0,.693.242.693.693v1.178c0,.45-.243.692-.693.692h-3.464c-.9,0-1.385.485-1.385,1.386v20.644c0,.9-.485,1.386-1.386,1.386Z"/>
  <path class="st4" d="M75.945.346h20.159c.52,0,.728.346.52.831l-5.507,11.673c-.277.589-.382,1.074-.382,1.697v10.391c0,.9-.484,1.386-1.385,1.386h-6.581c-.901,0-1.386-.485-1.386-1.386v-10.252c0-.624-.104-1.108-.381-1.697l-5.577-11.812c-.208-.485,0-.831.52-.831Z"/>
</svg>