<?xml version="1.0" encoding="UTF-8"?>
<svg id="Layer_1" xmlns="http://www.w3.org/2000/svg" width="1.681in" height=".441in" version="1.1" viewBox="0 0 121.04 31.762" fill="#dc2626">
  <!-- Generator: Adobe Illustrator 30.5.1, SVG Export Plug-In . SVG Version: 2.1.4 Build 3)  -->
  <path d="M8.083,8.879c0-1.943,1.37-2.871,3.181-2.827,2.032.044,3.446,1.237,3.578,3.225h8.172C22.706,3.357,18.155,0,11.397,0,4.903,0,.088,3.269.088,9.144c-.088,11,15.417,7.907,15.417,13.65,0,1.812-1.414,2.916-3.622,2.916-2.121,0-3.623-1.149-3.843-3.534H0c.221,6.272,5.433,9.586,12.104,9.586,7.245,0,11.309-4.329,11.309-9.542,0-10.381-15.329-7.951-15.329-13.341Z"/>
  <polygon points="70.317 .442 62.764 .442 62.764 31.452 85.427 31.452 85.427 25.621 70.317 25.621 70.317 .442"/>
  <path d="M27.17,31.462h30.825V.637h-30.825v30.825ZM40.488,13.501l2.352-7.977,2.786,7.835,8.313-.228-6.591,5.071,2.786,7.835-6.859-4.701-6.591,5.071,2.352-7.977-6.859-4.701,8.313-.228Z"/>
  <path d="M90.216.63v30.825h30.825V.63h-30.825ZM113.179,26.03l-6.859-4.701-6.591,5.071,2.352-7.977-6.859-4.701,8.313-.228,2.352-7.977,2.786,7.835,8.313-.228-6.591,5.071,2.786,7.835Z"/>
</svg>