<?xml version="1.0" encoding="UTF-8"?>
<svg id="Layer_1" xmlns="http://www.w3.org/2000/svg" width="1.535in" height=".264in" version="1.1" viewBox="0 0 110.544 19.003">
  <!-- Generator: Adobe Illustrator 30.6.0, SVG Export Plug-In . SVG Version: 2.1.4 Build 109)  -->
  <defs>
    <style>
      .st0 {
        fill: #231f20;
      }
    </style>
  </defs>
  <path class="st0" d="M11.174,8.604c-.296.32-.445.706-.445,1.156v4.479c0,.083.042.125.125.125.095,0,.172.029.231.089.059.059.089.136.089.231-.617,0-1.135.113-1.556.338-.421.225-.762.474-1.022.747-.309.308-.551.664-.729,1.067-.593-.356-1.215-.682-1.867-.978-.557-.237-1.182-.459-1.875-.667-.693-.208-1.389-.311-2.088-.311-.226,0-.406.074-.542.222-.136.148-.204.246-.204.293.201-.237.412-.371.631-.4.219-.029.376-.021.471.027.012,0,.023.006.036.018.32.178.48.441.48.791s-.101.672-.302.969l-.693.764c.095-.213.112-.404.053-.575-.06-.171-.157-.325-.293-.46-.136-.136-.296-.251-.48-.346-.184-.094-.346-.171-.489-.23-.095-.047-.157-.118-.187-.212-.03-.095-.015-.183.044-.266v-.018l.498-.708.942-1.452c.106-.177.278-.283.516-.319.13-.023.26-.035.391-.035h.391c.166,0,.305-.057.417-.17.112-.113.169-.248.169-.402v-1.824l-.818-.697,2.88.924v.302c0,.273.083.506.249.702.166.195.385.311.658.347l-3.751,1.311,1.422-.355c.26.036.598.115,1.013.24.415.124.844.269,1.289.433.444.165.877.35,1.298.555.42.206.767.414,1.04.625l-.498-.533v-3.911l1.511-.035-5.938-1.671c-.391-.094-.696-.121-.916-.08s-.382.104-.489.187c-.13.095-.202.213-.213.355,0-.344.065-.589.196-.738.13-.148.275-.281.436-.4.16-.118.305-.258.436-.417.13-.16.195-.418.195-.773v-2.417c0-.166-.098-.305-.293-.418-.195-.112-.465-.127-.809-.044l.729-.355,3.556-1.828-3.165,1.348.693-.604c-.403-.118-.776-.216-1.12-.293-.344-.077-.652-.115-.924-.115h-.205c-.065,0-.127.006-.187.018-.439.036-.765.237-.978.604-.083.13-.16.261-.231.391s-.142.261-.213.391-.13.267-.178.409c-.024.047-.047.119-.071.213-.024.047-.047.119-.071.213-.012.036-.021.074-.027.116s-.015.08-.026.115c-.024.095-.036.166-.036.213,0,.024-.003.042-.009.053-.006.012-.009.024-.009.036v.107c.012.035.018.071.018.106s.006.065.018.089c.023.106.083.225.178.355.107.107.213.19.32.249.106.06.225.101.355.125.13.024.254.024.373,0,.118-.012.231-.047.338-.107.095-.059.178-.13.249-.213.071-.083.124-.171.16-.267.047-.118.077-.207.089-.267.012-.059.018-.148.018-.267.012-.036.015-.074.009-.116-.006-.041-.009-.074-.009-.098,0-.095-.006-.16-.018-.195,0-.059-.006-.101-.018-.125v-.089l-.018-.018.036-.018.018.036c0,.024.006.047.018.071.012.035.023.08.036.133.012.053.023.115.036.187.012.071.021.148.026.231.006.083.003.178-.009.285,0,.047-.006.095-.018.142-.012.047-.03.101-.054.16-.023.059-.047.115-.071.168-.024.054-.053.104-.089.151-.071.119-.166.213-.285.284-.13.071-.267.125-.409.16-.308.06-.61.018-.907-.125-.071-.036-.139-.077-.204-.125-.065-.047-.128-.101-.187-.16-.059-.071-.109-.143-.151-.213-.042-.071-.074-.154-.098-.249-.06-.166-.077-.338-.054-.516.012-.166.047-.332.107-.498.012-.036.023-.071.036-.107.012-.035.023-.077.035-.124l.107-.213.213-.427c.083-.13.163-.261.24-.391s.157-.261.24-.391c.083-.13.166-.251.249-.364s.166-.222.249-.329c.047-.059.092-.112.133-.16s.08-.095.116-.143c.036-.059.074-.109.115-.151s.08-.086.116-.133c.083-.095.16-.184.231-.267.071-.083.136-.16.196-.231.059-.071.115-.136.169-.196.053-.059.104-.112.151-.16.047-.059.092-.106.133-.142s.074-.065.098-.089c.036-.036.06-.065.071-.089l.018.036c.486,0,1.01.053,1.573.159s1.129.232,1.698.378c.569.147,1.123.294,1.662.44.539.147,1.04.265,1.502.354.462.089.865.13,1.208.125s.604-.092.782-.258l-.48,1.189c-.166.462-.249.923-.249,1.385v1.616l-2.791,1.047.729-.907v-.658c0-.249-.062-.477-.187-.684-.125-.208-.299-.371-.524-.489l-.355-.178c.379.071.72.104,1.022.098s.566-.021.791-.044c.261-.036.492-.083.693-.143-.237.048-.536.051-.897.009-.362-.041-.738-.104-1.129-.187-.391-.083-.773-.171-1.146-.267-.374-.095-.679-.178-.916-.249-.048.154-.071.344-.071.569v2.738l-1.333.444,6.56,1.849Z"/>
  <path class="st0" d="M18,6.417c-.225.261-.338.558-.338.889v5.262c0,.095-.033.178-.098.249-.065.071-.145.113-.24.125-.379.035-.729.095-1.049.178-.32.083-.617.261-.889.533-.202.202-.355.394-.462.578-.107.184-.172.299-.196.347l-.124.302c-.462-.379-.925-.693-1.387-.942-.202-.106-.409-.201-.622-.284s-.427-.145-.64-.187-.427-.054-.64-.036c-.213.018-.409.08-.586.187.106-.166.219-.326.338-.48.095-.13.195-.264.302-.4.106-.136.201-.251.284-.347.237-.261.355-.557.355-.889v-5.049c0-.225.113-.349.338-.373.747-.071,1.393-.379,1.938-.924.202-.202.355-.394.462-.578.106-.184.171-.305.195-.364l.107-.284c.426.332.841.622,1.244.871.344.213.702.406,1.076.578.373.172.696.246.969.222,0,.083-.012.172-.036.267-.047.189-.148.373-.302.551ZM15.6,7.199c0-.071.042-.13.125-.178l1.102-.125h-.071c-.226,0-.468-.038-.729-.115s-.516-.169-.764-.276c-.249-.106-.478-.216-.685-.329-.208-.112-.376-.21-.507-.293v5.707c0,.095-.047.16-.142.195-.213-.047-.433-.053-.658-.018-.202.024-.417.092-.649.204-.231.113-.465.3-.702.56.119-.106.249-.207.391-.302.13-.083.275-.157.436-.222.16-.065.335-.098.524-.098.225,0,.45.039.676.116.225.077.438.168.64.275.202.106.388.216.56.329.172.113.323.211.453.293v-5.724Z"/>
  <path class="st0" d="M25.857,13.421c.012.012.018.029.018.053l-2.098,1.564c-.036-.143-.137-.279-.302-.409-.166-.13-.347-.234-.542-.311-.195-.077-.379-.127-.551-.151-.172-.024-.282-.006-.329.053-.024,0-.036.006-.036.018-.118.166-.189.291-.213.374l-.089.249c-.036.036-.06.036-.071,0-.06-.071-.19-.198-.391-.382-.202-.184-.447-.374-.738-.569-.291-.196-.613-.365-.969-.507s-.723-.201-1.102-.178c-.024,0-.036-.012-.036-.036.012-.059.039-.166.08-.32.042-.154.127-.308.258-.462.225-.26.337-.557.337-.889v-4.853c-.012-.438-.118-.853-.32-1.244-.047-.071-.071-.125-.071-.16-.012-.023-.012-.047,0-.071l2.062-1.227c.023.273.08.528.168.765.089.237.181.451.276.64.118.213.249.415.391.604-.107.083-.208.151-.302.205-.095.053-.193.098-.293.133s-.213.056-.338.062c-.124.006-.275.003-.453-.009l.942.178v5.084c0,.083-.042.143-.125.178l-1.102.142h.071c.213,0,.444.036.693.106.249.071.495.157.738.258.243.101.468.205.675.311.208.107.382.202.524.285.036-.119.054-.249.054-.391v-5.831c-.024-.451-.131-.871-.32-1.262-.047-.071-.071-.125-.071-.16-.012-.023-.012-.047,0-.071l2.062-1.227c.023.273.08.528.169.765.089.237.18.451.275.64.118.213.249.415.391.604-.107.083-.208.151-.302.205-.095.053-.193.098-.293.133s-.213.056-.338.062c-.124.006-.275.003-.453-.009l.942.178v6.08c0,.083-.042.142-.125.178h-.018c-.237.024-.48.065-.729.125-.213.06-.454.133-.72.222s-.524.199-.773.329c.782-.296,1.455-.454,2.018-.471.562-.018,1.051.122,1.466.418Z"/>
  <path class="st0" d="M29.796,13.545c.125-.178.288-.334.488-.471s.432-.228.692-.276c.261-.047.545-.032.854.044.308.077.64.246.995.507l-1.546,1.529c-.154-.107-.302-.213-.444-.32-.142-.107-.288-.199-.436-.276-.148-.077-.304-.133-.466-.169-.163-.035-.35-.047-.563-.035,0-.083.012-.172.035-.267.024-.083.056-.171.098-.267.041-.095.104-.189.187-.284.23-.261.345-.557.345-.889v-5.298c0-.071.041-.13.124-.178l1.633-.018c-.381,0-.724-.033-1.027-.098s-.578-.148-.821-.249c-.244-.101-.458-.205-.643-.311s-.354-.201-.509-.285c-.06.024-.11.051-.152.08-.042.03-.086.057-.134.08-.131.06-.264.098-.4.116-.136.018-.317.021-.542.009l.942.16v6.08c0,.047-.012.092-.036.133-.024.042-.06.056-.107.044-.379-.06-.705-.047-.978.035-.273.083-.498.19-.675.32-.213.154-.385.337-.516.551.13-.178.296-.334.498-.471s.433-.228.693-.276c.261-.047.545-.032.853.044.308.077.64.246.996.507l-1.546,1.529c-.154-.107-.299-.213-.436-.32-.136-.107-.279-.199-.427-.276-.148-.077-.308-.133-.48-.169-.172-.035-.364-.047-.578-.035,0-.083.012-.172.036-.267.023-.083.056-.171.098-.267.042-.095.104-.189.187-.284.237-.261.355-.557.355-.889v-5.777c0-.237-.077-.465-.231-.685-.154-.219-.284-.436-.391-.649-.036-.047-.053-.101-.053-.16v-.053l2.062-1.227c.012.13.044.258.098.382.054.125.119.246.196.364.077.119.154.231.231.338.077.106.139.202.187.284l.162-.16c.204-.202.359-.394.467-.578.107-.184.173-.299.197-.347l.126-.302c.428.332.844.622,1.248.871.345.213.704.406,1.078.578.375.172.698.246.97.222-.012.095-.029.189-.053.284-.024.083-.056.169-.098.258s-.104.181-.187.276c-.107.13-.193.27-.258.417-.065.148-.098.305-.098.471v5.28c0,.047-.009.092-.027.133s-.051.056-.098.044c-.381-.06-.708-.047-.981.035-.274.083-.5.19-.678.32-.214.154-.387.337-.518.551Z"/>
  <path class="st0" d="M39.421,6.417c-.225.261-.338.558-.338.889v5.262c0,.095-.033.178-.098.249-.065.071-.145.113-.24.125-.379.035-.729.095-1.049.178-.32.083-.617.261-.889.533-.202.202-.355.394-.462.578-.107.184-.172.299-.196.347l-.124.302c-.462-.379-.925-.693-1.387-.942-.202-.106-.409-.201-.622-.284s-.427-.145-.64-.187-.427-.054-.64-.036c-.213.018-.409.08-.586.187.106-.166.219-.326.338-.48.095-.13.195-.264.302-.4.106-.136.201-.251.284-.347.237-.261.355-.557.355-.889v-5.049c0-.225.113-.349.338-.373.747-.071,1.393-.379,1.938-.924.202-.202.355-.394.462-.578.106-.184.171-.305.195-.364l.107-.284.16.106c.047.036.104.08.169.133s.139.11.222.169v-1.049c0-.462-.106-.907-.32-1.333-.047-.071-.071-.124-.071-.16-.012-.024-.012-.042,0-.053l2.062-1.227c.023.272.08.527.168.764.089.237.181.451.276.64.118.213.249.415.391.604-.107.083-.208.151-.302.205-.095.053-.193.095-.293.125-.101.03-.213.051-.338.062-.125.012-.275.012-.453,0l.942.16v2.417c.249.095.474.131.676.107,0,.083-.012.172-.036.267-.047.189-.148.373-.302.551ZM38.247,6.897h-.071c-.226,0-.468-.038-.729-.115s-.516-.169-.764-.276c-.249-.106-.478-.216-.685-.329-.208-.112-.376-.21-.507-.293v5.707c0,.095-.047.16-.142.195-.213-.047-.433-.053-.658-.018-.202.024-.417.092-.649.204-.231.113-.465.3-.702.56.119-.106.249-.207.391-.302.13-.083.275-.157.436-.222.16-.065.335-.098.524-.098.225,0,.45.039.676.116.225.077.438.168.64.275.202.106.388.216.56.329.172.113.323.211.453.293v-5.724c0-.071.042-.13.125-.178l1.102-.125Z"/>
  <path class="st0" d="M55.597,14.132c.095-.012.175.012.24.071.065.06.098.136.098.231-.628,0-1.153.112-1.573.337-.421.225-.762.474-1.022.747-.309.308-.551.664-.729,1.067-.593-.355-1.215-.676-1.867-.96-.557-.237-1.182-.459-1.875-.667-.693-.208-1.389-.311-2.088-.311-.107,0-.205.021-.293.062s-.169.092-.24.151c-.071.06-.125.119-.16.178-.036.059-.053.1-.053.124.201-.237.412-.373.631-.409s.376-.03.471.018c.012.012.029.018.053.018.308.178.462.441.462.791s-.101.672-.302.969l-.693.765c.095-.213.112-.406.053-.578-.06-.172-.157-.326-.293-.462-.136-.137-.296-.252-.48-.347-.184-.095-.346-.172-.489-.231-.095-.036-.157-.101-.187-.196-.03-.095-.015-.189.044-.284l.516-.729.924-1.44c.142-.201.314-.308.516-.32.26-.036.521-.054.782-.054.166,0,.305-.053.417-.16.112-.107.169-.243.169-.409v-3.075c.13.06.237.136.32.231.083.095.148.19.196.285.047.119.089.237.125.355,0-.379-.098-.678-.293-.897-.196-.219-.412-.394-.649-.524-.284-.143-.599-.243-.942-.302l1.244-1.156v-2.773c0-.154-.098-.291-.293-.409-.195-.119-.465-.136-.809-.054l.747-.355,3.538-1.831-3.165,1.351.693-.604c-.403-.118-.776-.216-1.12-.293-.344-.077-.652-.116-.924-.116-.071,0-.14.003-.205.009-.065.006-.127.009-.187.009-.202.024-.389.089-.56.196-.172.106-.311.243-.418.409-.083.131-.16.261-.231.391-.071.131-.142.261-.213.391-.024.071-.053.142-.089.213s-.065.142-.089.213c-.024.047-.047.119-.071.213-.024.047-.047.119-.071.213l-.053.213c-.024.095-.036.166-.036.213v.107l-.018.018v.036c0,.012.003.021.009.027.005.006.009.015.009.026,0,.083.006.148.018.196.036.106.101.219.196.337.059.083.16.167.302.249.249.142.491.184.729.125.118-.012.231-.047.338-.106.083-.047.166-.119.249-.213.071-.071.124-.154.16-.249.024-.059.042-.109.053-.151s.024-.086.036-.133.018-.092.018-.134v-.115c.012-.083.012-.16,0-.231v-.178c-.012-.035-.018-.083-.018-.142-.012-.023-.018-.047-.018-.071,0-.012-.006-.024-.018-.036h.036l.018.018c0,.036.006.065.018.089.012.036.023.08.036.133.012.053.023.11.036.169.012.071.021.151.026.24s.003.181-.009.275c0,.106-.018.213-.053.32-.036.119-.095.226-.178.32-.071.106-.166.195-.285.267-.13.095-.261.148-.391.16-.32.071-.622.036-.906-.106-.131-.059-.267-.16-.409-.302-.119-.13-.202-.285-.249-.462-.06-.166-.077-.337-.054-.515.024-.189.06-.35.107-.48.012-.047.023-.089.036-.125l.035-.107c.024-.059.06-.136.107-.231l.213-.427c.083-.13.163-.26.24-.391.077-.13.157-.254.24-.373.095-.13.181-.252.258-.364.077-.113.157-.223.24-.329.047-.059.092-.112.133-.16.042-.047.08-.101.116-.16.047-.047.089-.095.125-.143.035-.047.071-.095.106-.142.154-.178.296-.338.427-.48.059-.071.115-.136.169-.195.053-.059.109-.119.169-.178.047-.047.089-.092.124-.133.036-.042.065-.074.089-.098l.071-.071h.018c.486,0,1.01.053,1.573.16.563.107,1.129.234,1.698.382.569.148,1.123.296,1.662.444.539.148,1.04.267,1.502.355.462.089.865.131,1.208.125.344-.006.604-.091.782-.258l-.48,1.209c-.166.462-.249.924-.249,1.387v10.186c0,.095.042.142.125.142ZM52.344,3.538c.379.071.72.104,1.022.098s.566-.021.791-.044c.261-.036.492-.083.693-.142-.237.047-.536.05-.897.009-.362-.042-.738-.104-1.129-.187s-.771-.172-1.138-.267c-.368-.095-.67-.178-.907-.249-.06.166-.089.355-.089.569v7.501c0,.273.086.507.258.702.172.196.388.311.649.347l-3.573,1.227,1.298-.284c.249.036.575.113.978.231.403.119.824.261,1.262.427s.868.355,1.289.569c.421.213.773.427,1.058.64l-.498-.533V4.889c0-.237-.062-.462-.187-.676s-.293-.373-.507-.48l-.373-.195Z"/>
  <path class="st0" d="M60.344,12.052c0-.166.048-.305.144-.417s.215-.187.359-.222l1.932-.391-.053.035c-.094.071-.168.16-.223.267-.053.106-.079.219-.079.337l-.019.907c0,.225-.112.35-.338.374-.38.035-.728.095-1.043.178s-.609.261-.882.533c-.202.202-.357.394-.464.578s-.172.299-.196.347l-.125.302c-.464-.379-.928-.693-1.391-.942-.202-.106-.411-.201-.625-.284s-.428-.145-.641-.187c-.214-.042-.427-.054-.641-.036-.213.018-.409.08-.586.187.106-.166.219-.326.338-.48.095-.13.195-.264.302-.4.106-.136.201-.251.284-.347.237-.272.355-.569.355-.889v-5.049c0-.225.113-.349.339-.373.737-.071,1.379-.379,1.926-.924.202-.202.356-.394.463-.578.107-.184.172-.305.196-.364l.125-.284c.428.332.844.622,1.248.871.345.213.704.406,1.078.578s.698.246.97.222c-.012.083-.029.172-.053.267-.023.083-.057.172-.098.267-.041.095-.104.189-.188.284-.105.131-.191.27-.258.418-.064.148-.098.305-.098.471v.462c0,.19-.056.359-.168.507-.113.148-.258.252-.436.311l-.125.071-2.862,1.92v1.013c0,.095-.042.16-.124.195-.215-.047-.437-.053-.664-.018-.204.024-.425.092-.664.204-.239.113-.479.3-.717.56.118-.106.249-.207.391-.302.13-.083.275-.157.436-.222.16-.065.34-.098.542-.098.225,0,.447.039.667.116s.43.168.631.275c.201.106.391.216.569.329.178.113.332.211.462.293v-.871ZM61.499,6.897c-.226,0-.468-.038-.729-.115-.261-.077-.514-.169-.76-.276-.246-.106-.475-.216-.686-.329-.211-.112-.381-.21-.51-.293l-.011,3.84,1.345-.907c.129-.106.194-.243.194-.409v-1.209c0-.071.042-.13.125-.178l1.102-.125h-.071Z"/>
  <path class="st0" d="M64.805,7.946c.651.285,1.274.528,1.866.729.249.083.507.163.773.24s.524.136.773.178.482.068.702.08c.22.012.412-.006.578-.053.023-.012.038,0,.044.036s-.003.065-.026.089l-.035.018c-.249.391-.374.836-.374,1.333v1.813c0,.237-.112.368-.338.391-.379.036-.729.098-1.049.187-.319.089-.616.27-.889.542-.201.213-.355.412-.462.596s-.172.305-.195.364l-.106.302c-.32-.344-.658-.646-1.014-.907-.309-.225-.661-.427-1.058-.604-.397-.178-.803-.249-1.218-.213,0-.095.012-.189.035-.284.048-.189.148-.374.303-.551.225-.284.338-.592.338-.924v-.053c0-.438-.19-.765-.569-.978l2.347.515c.189.036.284.154.284.356v.267c0,.095-.041.154-.124.178-.32-.024-.616-.018-.889.018-.237.024-.469.083-.693.178-.226.095-.38.243-.462.444.059-.095.136-.178.23-.249.083-.06.189-.116.32-.169.13-.053.284-.08.462-.08.225,0,.468.039.729.116s.516.172.765.284c.249.113.477.229.685.347.207.119.376.213.507.284v-1.919c0-.178-.057-.338-.169-.48-.113-.143-.252-.231-.418-.267-.498-.225-.972-.409-1.422-.551-.38-.13-.771-.228-1.174-.293-.402-.065-.723-.044-.96.062-.023.012-.038.006-.044-.018-.006-.023-.003-.047.009-.071.035-.047.086-.13.151-.249.064-.118.13-.246.195-.382.065-.136.121-.278.169-.427.047-.148.071-.275.071-.382v-1.671c0-.095.032-.181.098-.258.064-.077.145-.122.24-.133.758-.071,1.404-.385,1.938-.942.201-.213.355-.412.462-.596.106-.184.172-.305.195-.364l.125-.302c.427.344.835.646,1.227.907.344.225.702.424,1.075.596s.696.246.969.222c0,.095-.012.189-.035.284-.024.083-.057.172-.098.267-.042.095-.104.19-.188.285-.237.272-.355.581-.355.924v.64c0,.202-.07.365-.213.489s-.309.175-.498.151l-2.169-.32.534-.089c.188-.047.284-.166.284-.355v-.623c0-.095.047-.16.142-.195l1.085-.142c-.012.012-.036.018-.071.018-.226,0-.465-.038-.72-.116-.255-.077-.507-.171-.756-.284-.249-.112-.479-.228-.693-.347-.213-.118-.385-.213-.516-.284v2.382l-.711.018Z"/>
  <path class="st0" d="M76.022,10.844c-.284.284-.427.634-.427,1.049v.675c0,.225-.113.35-.338.374-.379.035-.729.095-1.049.178s-.616.261-.889.533c-.202.202-.355.394-.462.578-.107.184-.172.299-.196.347l-.124.302c-.249-.355-.545-.646-.889-.871-.143-.095-.306-.184-.489-.267s-.379-.148-.586-.196c-.208-.047-.434-.068-.676-.062-.243.006-.501.05-.773.133.106-.166.219-.326.338-.48.095-.13.195-.264.302-.4.107-.136.207-.251.303-.347.225-.261.338-.557.338-.889v-5.671l-.641-1.902h.641c.26-.012.497-.071.711-.178.189-.095.37-.234.542-.418.172-.184.287-.447.347-.791.023-.118.077-.213.16-.285.082-.071.184-.106.302-.106v1.778h.427l.622,1.902h-2.648l1.6.302v5.458c0,.095-.041.16-.124.195-.226-.047-.451-.053-.676-.018-.201.024-.418.092-.648.204-.231.113-.466.3-.702.56.118-.106.248-.207.391-.302.13-.083.275-.157.436-.222.16-.065.341-.098.542-.098.45,0,.82.116,1.111.347.29.231.536.453.737.667v-.622c0-.189.057-.361.169-.516.113-.154.264-.26.453-.32l1.867-.622Z"/>
  <path class="st0" d="M80.84,4.675c.344.213.702.406,1.075.578s.696.246.969.222c0,.095-.012.189-.035.284-.048.19-.143.368-.285.534-.237.261-.355.557-.355.889v.462c0,.19-.056.359-.169.507-.112.148-.258.252-.436.311l-2.026.569.392-.338c.118-.118.178-.254.178-.409v-1.209c0-.083.047-.142.142-.178l1.085-.124h-.071c-.189,0-.395-.027-.613-.08-.22-.053-.436-.125-.648-.213-.214-.089-.418-.181-.613-.275-.196-.095-.371-.189-.524-.285-.178.13-.351.216-.516.258-.166.042-.397.051-.693.027l.924.178v6.08c0,.047-.012.092-.035.133-.024.042-.054.056-.089.044-.38-.06-.705-.047-.978.035-.273.083-.498.19-.676.32-.213.154-.391.337-.533.551.13-.178.296-.334.498-.471.201-.136.432-.228.692-.276.261-.047.546-.032.854.044.309.077.641.246.996.507l-1.547,1.529c-.154-.107-.3-.213-.436-.32-.137-.107-.278-.199-.427-.276s-.309-.133-.479-.169c-.172-.035-.365-.047-.578-.035,0-.083.012-.172.035-.267.024-.083.057-.171.099-.267.041-.095.109-.189.204-.284.225-.261.338-.557.338-.889v-5.777c0-.237-.065-.468-.196-.693-.13-.225-.248-.438-.355-.64-.047-.071-.07-.125-.07-.16-.013-.023-.013-.041,0-.053l2.079-1.227c.024.273.092.533.205.782.112.249.233.468.364.658.047-.036.092-.071.133-.106.042-.036.08-.077.116-.125.201-.202.355-.394.462-.578s.172-.299.195-.347l.125-.302c.427.332.835.622,1.227.871Z"/>
  <path class="st0" d="M89.105,6.417c-.226.261-.338.558-.338.889v5.262c0,.095-.032.178-.098.249-.065.071-.146.113-.24.125-.379.035-.729.095-1.049.178-.319.083-.616.261-.889.533-.201.202-.355.394-.462.578s-.172.299-.195.347l-.125.302c-.462-.379-.924-.693-1.387-.942-.201-.106-.408-.201-.622-.284-.213-.083-.427-.145-.64-.187s-.427-.054-.64-.036c-.214.018-.409.08-.587.187.106-.166.219-.326.338-.48.095-.13.195-.264.302-.4.107-.136.202-.251.285-.347.236-.261.355-.557.355-.889v-5.049c0-.225.112-.349.337-.373.747-.071,1.393-.379,1.938-.924.201-.202.355-.394.462-.578.106-.184.172-.305.195-.364l.106-.284c.427.332.842.622,1.245.871.343.213.702.406,1.075.578s.696.246.969.222c0,.083-.012.172-.035.267-.048.189-.148.373-.303.551ZM86.706,7.199c0-.071.041-.13.124-.178l1.103-.125h-.071c-.226,0-.469-.038-.729-.115-.262-.077-.516-.169-.765-.276-.249-.106-.478-.216-.685-.329-.207-.112-.376-.21-.507-.293v5.707c0,.095-.047.16-.142.195-.214-.047-.434-.053-.658-.018-.201.024-.418.092-.648.204-.231.113-.466.3-.702.56.118-.106.248-.207.391-.302.13-.083.275-.157.436-.222.16-.065.335-.098.524-.098.225,0,.45.039.676.116.225.077.438.168.64.275.201.106.388.216.56.329.172.113.323.211.454.293v-5.724Z"/>
  <path class="st0" d="M95.896,16.692c0,.095-.032.175-.098.24-.065.065-.146.104-.24.115-.379.036-.729.095-1.049.178-.319.083-.616.261-.889.534-.201.213-.355.409-.462.586s-.172.296-.195.355l-.125.302c-.462-.379-.924-.693-1.387-.942-.201-.107-.408-.205-.622-.293-.213-.089-.427-.154-.64-.196s-.427-.053-.64-.035c-.214.018-.409.08-.587.187.261-.355.533-.676.817-.96.237-.237.507-.457.81-.658.302-.202.606-.302.915-.302.225,0,.45.05.676.151.225.101.438.216.64.347s.388.267.56.409c.172.142.323.249.454.32v-3.484c-.119.095-.229.196-.329.302-.101.107-.198.231-.293.374,0-.012-.013-.006-.036.018-.106.178-.172.302-.195.374l-.106.249c0,.012-.007.021-.019.027s-.023-.003-.035-.027c-.06-.071-.189-.198-.391-.382-.202-.184-.448-.374-.738-.569-.29-.196-.613-.365-.969-.507s-.723-.201-1.102-.178c-.048,0-.06-.012-.036-.036,0-.059.021-.166.062-.32.041-.154.127-.308.258-.462.236-.272.355-.569.355-.889v-4.853c-.012-.415-.125-.829-.338-1.244-.035-.047-.054-.101-.054-.16v-.071l2.077-1.227c.023.273.077.528.161.765.083.237.173.451.269.64.118.213.249.415.391.604-.106.083-.207.151-.302.205-.096.053-.193.098-.295.133s-.212.056-.332.062c-.119.006-.269.003-.447-.009l.95.178-.019,5.084c0,.083-.041.143-.124.178l-1.112.142h.071c.213,0,.443.036.691.106.248.071.493.157.735.258.242.101.467.205.673.311.207.107.382.202.523.285.012-.036.021-.068.026-.098.006-.03.015-.062.027-.098v-5.955c0-.474-.107-.918-.32-1.333,0-.012-.003-.021-.009-.027-.006-.006-.009-.015-.009-.027-.036-.047-.054-.089-.054-.124v-.054l2.08-1.227c.023.273.077.528.16.765.083.237.172.451.267.64.118.213.249.415.391.604-.106.083-.207.151-.302.205s-.193.098-.294.133-.21.056-.328.062c-.119.006-.267.003-.444-.009l.924.178v10.15Z"/>
  <path class="st0" d="M100.731,12.052c0-.166.048-.305.143-.417.096-.113.216-.187.359-.222l1.933-.391-.053.035c-.095.071-.169.16-.223.267-.053.106-.08.219-.08.337l-.018.907c0,.225-.113.35-.339.374-.38.035-.729.095-1.043.178-.315.083-.609.261-.883.533-.202.202-.356.394-.464.578-.106.184-.172.299-.195.347l-.125.302c-.464-.379-.928-.693-1.392-.942-.202-.106-.41-.201-.624-.284s-.428-.145-.642-.187c-.213-.042-.427-.054-.64-.036-.214.018-.409.08-.587.187.106-.166.219-.326.338-.48.095-.13.195-.264.302-.4.107-.136.202-.251.285-.347.236-.272.355-.569.355-.889v-5.049c0-.225.112-.349.339-.373.736-.071,1.379-.379,1.926-.924.202-.202.356-.394.464-.578.106-.184.172-.305.195-.364l.125-.284c.428.332.844.622,1.249.871.344.213.704.406,1.078.578s.697.246.97.222c-.012.083-.029.172-.053.267-.024.083-.057.172-.099.267-.041.095-.104.189-.187.284-.106.131-.192.27-.258.418-.064.148-.098.305-.098.471v.462c0,.19-.057.359-.169.507-.112.148-.258.252-.436.311l-.124.071-2.862,1.92v1.013c0,.095-.041.16-.124.195-.216-.047-.437-.053-.664-.018-.203.024-.424.092-.663.204-.239.113-.479.3-.718.56.119-.106.249-.207.392-.302.13-.083.275-.157.436-.222.16-.065.341-.098.542-.098.225,0,.447.039.667.116.219.077.429.168.631.275.201.106.391.216.568.329.178.113.332.211.463.293v-.871ZM101.886,6.897c-.226,0-.468-.038-.729-.115s-.514-.169-.76-.276c-.246-.106-.475-.216-.687-.329-.211-.112-.381-.21-.51-.293l-.011,3.84,1.345-.907c.13-.106.195-.243.195-.409v-1.209c0-.071.041-.13.124-.178l1.103-.125h-.071Z"/>
  <path class="st0" d="M108.5,4.675c.344.213.702.406,1.075.578s.696.246.969.222c0,.095-.012.189-.035.284-.048.19-.143.368-.285.534-.237.261-.355.557-.355.889v.462c0,.19-.056.359-.169.507-.112.148-.258.252-.436.311l-2.026.569.392-.338c.118-.118.178-.254.178-.409v-1.209c0-.083.047-.142.142-.178l1.085-.124h-.071c-.189,0-.395-.027-.613-.08-.22-.053-.436-.125-.648-.213-.214-.089-.418-.181-.613-.275-.196-.095-.371-.189-.524-.285-.178.13-.351.216-.516.258-.166.042-.397.051-.693.027l.924.178v6.08c0,.047-.012.092-.035.133-.024.042-.054.056-.089.044-.38-.06-.705-.047-.978.035-.273.083-.498.19-.676.32-.213.154-.391.337-.533.551.13-.178.296-.334.498-.471.201-.136.432-.228.692-.276.261-.047.546-.032.854.044.309.077.641.246.996.507l-1.547,1.529c-.154-.107-.3-.213-.436-.32-.137-.107-.278-.199-.427-.276s-.309-.133-.479-.169c-.172-.035-.365-.047-.578-.035,0-.083.012-.172.035-.267.024-.083.057-.171.099-.267.041-.095.109-.189.204-.284.225-.261.338-.557.338-.889v-5.777c0-.237-.065-.468-.196-.693-.13-.225-.248-.438-.355-.64-.047-.071-.07-.125-.07-.16-.013-.023-.013-.041,0-.053l2.079-1.227c.024.273.092.533.205.782.112.249.233.468.364.658.047-.036.092-.071.133-.106.042-.036.08-.077.116-.125.201-.202.355-.394.462-.578s.172-.299.195-.347l.125-.302c.427.332.835.622,1.227.871Z"/>
</svg>