<?xml version="1.0" encoding="UTF-8"?>
<svg id="Layer_1" xmlns="http://www.w3.org/2000/svg" width="1.383in" height=".178in" version="1.1" viewBox="0 0 99.54 12.819">
  <!-- Generator: Adobe Illustrator 30.6.0, SVG Export Plug-In . SVG Version: 2.1.4 Build 109)  -->
  <defs>
    <style>
      .st0 {
        fill: #662d91;
      }

      .st1 {
        fill: #8dc63f;
      }

      .st2 {
        fill: #ed1c24;
      }

      .st3 {
        fill: #2b3990;
      }

      .st4 {
        fill: #f9ed32;
      }

      .st5 {
        fill: #27aae1;
      }

      .st6 {
        fill: #f7941d;
      }

      .st7 {
        fill: #ef4136;
      }
    </style>
  </defs>
  <path class="st2" d="M0,10.742l1.901-2.272c1.233.969,2.571,1.479,3.998,1.479.933,0,1.426-.317,1.426-.845v-.035c0-.528-.405-.792-2.096-1.198-2.624-.599-4.648-1.338-4.648-3.856v-.035C.581,1.69,2.395.036,5.353.036c2.095,0,3.733.563,5.071,1.637l-1.708,2.413c-1.127-.81-2.36-1.215-3.452-1.215-.828,0-1.232.334-1.232.792v.035c0,.563.422.81,2.148,1.198,2.817.616,4.579,1.532,4.579,3.838v.035c0,2.518-1.99,4.015-4.983,4.015-2.184,0-4.244-.687-5.775-2.042Z"/>
  <path class="st7" d="M12.414.247h5.3c3.099,0,5.106,1.603,5.106,4.314v.035c0,2.923-2.236,4.455-5.283,4.455h-1.708v3.521h-3.416V.247ZM17.467,6.375c1.197,0,1.955-.651,1.955-1.62v-.035c0-1.057-.757-1.603-1.972-1.603h-1.62v3.258h1.638Z"/>
  <path class="st6" d="M24.264.247h9.914v2.888h-6.533v1.884h5.917v2.694h-5.917v1.955h6.621v2.905h-10.001V.247Z"/>
  <path class="st4" d="M35.534,6.445v-.035c0-3.592,2.747-6.41,6.48-6.41,2.518,0,4.138,1.057,5.229,2.553l-2.571,1.99c-.704-.863-1.514-1.444-2.693-1.444-1.726,0-2.941,1.479-2.941,3.275v.035c0,1.849,1.216,3.293,2.941,3.293,1.285,0,2.042-.599,2.782-1.497l2.57,1.832c-1.162,1.603-2.729,2.782-5.441,2.782-3.521,0-6.356-2.694-6.356-6.375Z"/>
  <path class="st1" d="M51.821,3.24h-3.679V.247h10.793v2.994h-3.698v9.333h-3.416V3.24Z"/>
  <path class="st5" d="M60.432.247h5.828c1.885,0,3.188.493,4.015,1.321.723.722,1.092,1.655,1.092,2.87v.035c0,1.902-1.003,3.152-2.535,3.804l2.94,4.296h-3.927l-2.482-3.733h-1.515v3.733h-3.416V.247ZM66.119,6.163c1.145,0,1.831-.563,1.831-1.461v-.035c0-.986-.722-1.479-1.849-1.479h-2.254v2.976h2.271Z"/>
  <path class="st3" d="M72.951,7.167V.247h3.451v6.85c0,1.778.897,2.624,2.271,2.624,1.391,0,2.289-.81,2.289-2.536V.247h3.451v6.832c0,3.962-2.271,5.723-5.775,5.723-3.486,0-5.688-1.779-5.688-5.635Z"/>
  <path class="st0" d="M86.439.247h3.609l2.941,4.772,2.94-4.772h3.609v12.326h-3.398v-7.079l-3.151,4.825h-.071l-3.134-4.807v7.061h-3.346V.247Z"/>
</svg>