<?xml version="1.0" encoding="UTF-8"?>
<svg id="Layer_1" xmlns="http://www.w3.org/2000/svg" width="1.724in" height=".31in" version="1.1" viewBox="0 0 124.16 22.345">
  <!-- Generator: Adobe Illustrator 30.6.0, SVG Export Plug-In . SVG Version: 2.1.4 Build 109)  -->
  <defs>
    <style>
      .st0 {
        fill: #231f20;
      }
    </style>
  </defs>
  <path class="st0" d="M124.04,19.229c-.21-1.198-.509-1.438-1.108-1.288-.329.09-.629.15-1.048.15-.749,0-.839-.629-.839-1.647,0-3.685.12-10.724.21-14.617.06-1.588-.749-1.827-2.517-1.827-1.737,0-2.726.359-2.756,1.737-.029,1.228-.06,2.905-.09,4.792-.539-.15-1.138-.24-1.887-.24-4.193,0-6.919,2.875-6.919,7.997,0,.452.021.876.051,1.288-1.211,1.037-3.288,2.276-5.801,2.276-.929,0-1.647-.27-2.127-.838,3.295-1.139,5.512-3.176,5.512-6.56,0-2.786-1.768-4.523-4.553-4.523-3.954,0-6.77,3.115-6.77,7.817,0,.74.06,1.43.167,2.078-.706,1.102-1.602,2.236-2.562,2.236-.599,0-.629-.539-.629-1.827,0-3.654.21-10.573.3-14.407.06-1.588-.749-1.827-2.517-1.827-1.737,0-2.726.359-2.756,1.737-.029,1.228-.09,2.875-.119,4.792-.539-.15-1.139-.24-1.857-.24-4.193,0-6.919,2.995-6.919,8.297,0,.546.028,1.055.073,1.54-.641.99-1.488,1.935-2.468,1.935-.6,0-.629-.719-.629-2.426,0-2.097.239-6.021.389-8.237.09-1.588-.749-1.827-2.516-1.827-1.617,0-2.517.329-2.726,1.498-.6-.419-1.378-.689-2.396-.689-3.924,0-6.47,2.786-6.47,7.728,0,.515.024.996.06,1.46-1.209,1.038-3.291,2.284-5.81,2.284-.929,0-1.647-.27-2.127-.838,3.295-1.139,5.512-3.176,5.512-6.56,0-2.786-1.768-4.523-4.553-4.523-3.954,0-6.77,3.115-6.77,7.817,0,.732.059,1.415.163,2.058-.699,1.059-1.6,2.226-2.469,2.226-.39,0-.629-.329-.629-1.198,0-1.348.149-3.834.149-5.84,0-2.936-1.587-4.553-4.373-4.553-.689,0-1.318.03-1.917.06-.18-1.498-.838-2.187-2.815-2.187-1.857,0-2.815.929-2.815,2.965,0,1.977.479,2.996,1.168,3.445-.12,1.168-.299,2.276-.629,3.294-.244.773-.571,1.501-.985,2.152-.278.399-.577.789-.892,1.111-.025.025-.049.052-.075.077-.408.4-.834.674-1.253.674-.449,0-.719-.329-.719-1.198,0-1.168.15-3.414.15-5.182,0-3.384-1.348-5.242-3.834-5.242-1.708,0-2.936.689-3.984,1.827.06-2.126.15-4.073.27-5.871.09-1.797-.629-2.396-2.576-2.336-1.827.06-2.516.599-2.576,2.067-.249,5.595-.413,9.442-.478,13.447-1.12,1.693-1.811,2.787-3.955,2.787-1.468,0-2.786-.868-2.786-3.804v-4.014c1.198-.03,2.247-.06,2.965-.06,1.468,0,1.528-.659,1.528-2.097,0-1.528-.09-2.127-1.258-2.157-.719,0-1.887,0-3.205.03.03-1.378.03-2.606.06-3.534.03-.929-.09-1.528-2.486-1.528-1.857,0-2.606.39-2.636,1.318-.06,1.019-.09,2.366-.12,3.924-.659.03-1.258.09-1.737.12C.4,6.62-.079,7.069.011,8.566c.12,1.917.27,2.307,1.378,2.247.479-.03,1.019-.03,1.617-.06-.03,1.258-.03,2.546-.03,3.774,0,6.229,3.175,7.817,7.219,7.817,2.015,0,3.599-.692,4.855-1.701.269,1.036,1.017,1.432,2.513,1.432,2.067,0,2.576-.539,2.576-2.815,0-2.786.03-5.271.09-7.548.539-.569,1.078-.959,1.707-.959.809,0,.989.449.989,2.066,0,.959-.06,3.205-.06,4.644,0,3.294,1.318,4.762,4.373,4.762.303,0,.594-.029.88-.071,2.641-.252,6.338-1.829,7.836-6.158.629-1.798.869-3.654.989-5.302h.18c.629,0,1.018.24,1.018,1.168,0,1.168-.06,3.864-.06,5.602,0,3.294,1.168,4.762,4.223,4.762,2.326,0,4.153-1.313,5.42-2.733,1.258,1.661,3.178,2.553,5.572,2.553,3.254,0,5.774-1.244,7.469-2.633.923,1.852,2.447,2.753,4.421,2.753,1.678,0,2.876-.659,3.834-1.647.659,1.229,1.798,1.737,3.535,1.737,1.978,0,3.771-.972,5.148-2.312.925,1.493,2.352,2.222,4.167,2.222,1.707,0,2.995-.688,3.954-1.707.688,1.258,1.917,1.767,3.834,1.767,2.133,0,4.009-1.193,5.38-2.745,1.258,1.669,3.181,2.565,5.582,2.565,3.258,0,5.782-1.248,7.476-2.639.96,1.858,2.564,2.759,4.654,2.759,1.797,0,3.025-.719,3.953-1.737.749,1.168,2.037,1.737,3.834,1.737,1.259,0,2.247-.3,2.906-.599.688-.3.868-.719.599-2.337ZM50.958,13.119c0-2.156.659-3.145,1.678-3.145.509,0,.868.359.868,1.108,0,.989-.719,1.917-2.516,2.875-.03-.27-.03-.539-.03-.839ZM68.271,17.193c-.42.329-.869.599-1.378.599-1.229,0-1.888-.869-1.888-3.864,0-2.187.869-3.294,2.157-3.294.509,0,.898.15,1.198.389-.061,1.558-.12,3.265-.12,4.973,0,.419,0,.809.03,1.198ZM85.133,16.594v.659c-.389.329-.898.569-1.468.569-1.228,0-1.917-1.079-1.917-3.715,0-2.246.779-3.654,2.456-3.654.39,0,.689.03.989.09-.03,1.977-.061,4.013-.061,6.05ZM98.282,13.119c0-2.156.659-3.145,1.678-3.145.509,0,.868.359.868,1.108,0,.989-.719,1.917-2.516,2.875-.03-.27-.03-.539-.03-.839ZM115.833,16.594v.569c-.419.39-.959.659-1.588.659-1.228,0-1.917-1.079-1.917-3.715,0-2.246.779-3.654,2.456-3.654.42,0,.779.03,1.079.12-.03,1.947-.03,3.983-.03,6.021Z"/>
</svg>