<?xml version="1.0" encoding="UTF-8"?>
<svg id="Layer_1" xmlns="http://www.w3.org/2000/svg" width="1.796in" height=".434in" version="1.1" viewBox="0 0 129.345 31.226">
  <!-- Generator: Adobe Illustrator 30.6.0, SVG Export Plug-In . SVG Version: 2.1.4 Build 109)  -->
  <defs>
    <style>
      .st0 {
        fill: #231f20;
      }
    </style>
  </defs>
  <path class="st0" d="M24.237,6.208l.119-.22V1.645c-.226-.214-.379-.52-.458-.916l.119-.237c0-.113-.079-.266-.237-.458-.169,0-.322.04-.458.119-.136-.079-.288-.119-.458-.119H3.782C2.979.034,1.758.074.119.152c0,.08-.04.119-.119.119,0,.169.04.322.119.458-.079.136-.119.289-.119.458v.119c0,.147.153.221.458.221v4.342c0,.159.079.238.237.238h6.615l.577.102c0-.068.04-.102.119-.102.305.125.458.351.458.678v1.832l-.119.577c.079,0,.119.074.119.22l-.119,1.035h-.577l-.458.56h-1.018c-.136,0-.215.079-.237.237,0,.147.079.22.237.22h1.018c.158,0,.238.08.238.238v1.492c0,.147.192.221.577.221v.458h-1.035c-.125,0-.198.074-.221.221v6.869c-.09,0-.209.04-.356.119l-.56-.119c-.135,0-.215.074-.237.22v.119h1.035l.221-.119c0,.159.345.311,1.035.458v6.174c0,.655.039,1.685.119,3.087,1.515.078,2.657.118,3.426.118h4.58c.147,0,.221-.073.221-.221v-9.04c0-.102-.227-.254-.679-.458h-1.73v-.119c.769-.09,1.153-.243,1.153-.458v-6.733c.916-.079,1.374-.192,1.374-.339l-.695-.458v-1.034l.119-.577-.221-.119h-1.153c-.125,0-.198-.073-.22-.22,0-.125.073-.204.22-.237h1.035c.147,0,.221-.147.221-.441.61-.079.916-.197.916-.356v-4.003h1.153l.56-.102c0,.068.04.102.119.102l.237-.102c.17,0,.322.034.458.102l.797-.102c.249,0,.435.034.56.102l.695-.102h2.392l.577.102ZM8.125,20.268h-.119v-.22h.119v.22Z"/>
  <path class="st0" d="M5.038,11.008h-.238c-.125,0-.198.079-.22.237,0,.147.073.22.22.22h.238c.146,0,.22-.073.22-.22,0-.125-.074-.204-.22-.237Z"/>
  <path class="st0" d="M36.669,18.437h-.119c-.125,0-.198.074-.22.221v.339c0,.147.073.221.22.221h.119c.147,0,.221-.074.221-.221v-.339c0-.125-.074-.198-.221-.221Z"/>
  <path class="st0" d="M23.626,20.438h.339l.322-.221-.102-.56h-.678l-.221.119c.079.441.192.662.339.662Z"/>
  <path class="st0" d="M24.288,16.537c0-.125-.074-.198-.221-.221h-1.221v.339h1.221l.221-.119Z"/>
  <path class="st0" d="M75.629,8.989c.158,0,.237-.073.237-.221v-.119c0-.124-.079-.204-.237-.237h-.118c-.125,0-.198.079-.221.237.113.227.226.339.339.339Z"/>
  <path class="st0" d="M55.344,8.65c0-.124-.079-.204-.237-.237h-.221c-.136,0-.215.079-.237.237v.119l.119.221c.384-.057.576-.169.576-.339Z"/>
  <path class="st0" d="M129.124,25.119h-8.65l-1.153-.119c0,.08-.073.119-.22.119-.136,0-.216-.079-.238-.237v-6.903c0-.124-.266-.243-.797-.356l.102-.221V5.411c0-.125-.073-.198-.22-.221h-1.272v-.237c0-.125.079-.198.237-.221h1.035l.915-.695V1.611c0-.147-.192-.221-.576-.221-.079-.927-.192-1.391-.339-1.391h-7.955c-.125,0-.198.079-.221.237v1.035c.531,0,.797.226.797.678v2.086c0,.147-.112.221-.339.221-.521.441-1.137.673-1.849.695v.119c.927.079,1.391.192,1.391.339v12.11c0,.091.266.283.797.577v5.459c-1.685-5.191-2.687-7.875-3.001-8.038h-.103l-.695.102c-.464-.045-.695-.271-.695-.679v-.119h2.646l.237-.119-.814-2.29c-1.628-4.749-2.544-7.203-2.748-7.361h-1.153l-.339-.22c-1.097-3.189-1.713-4.794-1.849-4.817h-6.768l-1.374.102c-.655,1.334-1.271,2.979-1.849,4.936v.119h.577v.119l-1.611,4.715c-1.108,3.11-1.72,4.676-1.832,4.698-2.148,0-3.172.057-3.07.169-.102-.214-.073.034.085.747h1.153v.119l-1.271,3.681c-.634,1.899-1.019,2.855-1.153,2.866-.09.573-.216,1.013-.374,1.333v-.4l-.102-.814c.452-.204.679-.356.679-.458v-4.46l.813-.458v-7.802c-.124-.226-.243-.339-.355-.339h-.679v-.356h.679c.237-.113.355-.226.355-.339v-1.611c-.045-.226-.316-.339-.813-.339V.288c0-.136-.074-.214-.221-.237l-.237.119c0-.079-.04-.119-.119-.119h-4.121c-.77,0-1.917.04-3.443.119l-.118.221v5.733c0,.158.231.237.695.237v2.052h-.798c-.136,0-.215.079-.237.237v.119c0,.147.079.221.237.221l.221-.102c0,.067.192.102.577.102v6.089c0,.249.112.515.339.797-.079,0-.192.04-.339.119,0,.169.191.548.576,1.136,0,.08-.192.159-.576.238.463.61.695,1.142.695,1.594v.577l-.119.577c-.328-.249-1.018-1.165-2.069-2.748l.577-.238c-3.528-5.133-5.744-8.305-6.649-9.515l.119-.22.221.102h.695l.679-.102c.136.068.288.102.458.102.181,0,.333-.034.457-.102.136.068.289.102.458.102h.356c.146,0,.221-.073.221-.22,0-.136-.074-.215-.221-.238h-3.681c-.542-.531-.961-.797-1.255-.797-.306-.125-1.798-2.148-4.478-6.072-2.623-.079-4.303-.119-5.037-.119-.656,0-1.804.04-3.443.119l-.119.221v5.631c0,.227.231.339.695.339,0,.532.379.797,1.137.797.497,0,.995-.039,1.492-.119.283.08.707.119,1.272.119h.102v.238c-1.142.068-1.979.102-2.51.102h-1.035c-.158,0-.271.305-.339.916l.102.237-.102.238c.067,1.594.102,2.889.102,3.884v.458l-.102.814c.067,0,.102.153.102.458v.221l-.102.577c.067,0,.102.04.102.119l-.008.035-.195.084c0-.068-.035-.102-.102-.102h-1.119c-.125,0-.199-.074-.221-.221,0-1.413-.148-2.12-.441-2.12h-.221c-.248,0-.436.034-.561.102-.168-.067-.803-.102-1.898-.102v-.119h2.68l.322-.221c-.838-3.177-2.098-5.704-3.783-7.582v-.102c.249,0,.435-.04.56-.119,0,.079.033.119.102.119h.56c.147,0,.221-.073.221-.221v-.119l-.543-.119h-1.238c-.452-.294-.899-.441-1.34-.441-1.798-1.414-2.833-2.12-3.104-2.12v-.221c.158,0,.305-.034.441-.102-1.821-1.12-4.048-1.679-6.683-1.679-3.811,0-6.711.594-8.701,1.781h-1.221c-1.526.927-2.567,1.634-3.121,2.12,0,.147.146.221.441.221l-.102.22.102.221.56-.102h.119c.192,0,.413.073.662.22,0,.227-.481.339-1.442.339-.542,0-1.142.447-1.798,1.34-1.708,2.612-2.668,5.207-2.883,7.785,0,.079.034.192.102.339.079,0,.192-.034.339-.102.147.068.26.102.339.102v.441c-.6.079-.899.192-.899.339s.073.22.221.22h1.899c.283.521.469.78.56.78h4.003c.147,0,.221.074.221.221v.119h-1.663c-.52,0-1.34.04-2.459.119,0-.079-.034-.119-.102-.119l-.119.22v.339c.113,1.821.747,3.828,1.9,6.021l-.56.102h-1.441c-.159,0-.238.113-.238.34h-1.102v.221h1c.169,0,.316.039.441.118.871,1.232,2.024,2.454,3.46,3.664,1.854,1.605,4.416,2.685,7.684,3.239.079,0,.192-.04.339-.119.316.158.91.237,1.781.237h1.221c1.436,0,3.036-.226,4.8-.678,3.618-1.38,6.292-3.494,8.022-6.344,0-.079-.406-.118-1.221-.118,0-.125.074-.198.221-.221h1.103l.458-.34h2.119l.221-.102c.139-.247.265-.493.391-.739v1.519l-.56.458v.458l.56.458v4.936l.119.221c-.079,0-.119.039-.119.118v.119l.119.221c1.413.079,2.448.118,3.104.118h5.038l.237-.118-.119-.577c0-.169.04-.322.119-.458l-.119-.678v-3.901l-.576-.458v-.695c.282,0,.514-.073.695-.221l-.119-.577v-3.442l.119-1.374h1.136c.227-.113.34-.226.34-.339v-.339c0-.136-.074-.215-.221-.238h-1.255v-.22l.678-.458v-6.089h.119c.837,1.097,1.255,1.86,1.255,2.29v1.611l1.611,2.29c0,.08-.192.159-.576.238l3.205,4.579v.238h-.339c0,.192.576,1.029,1.729,2.51.407.848.786,1.271,1.137,1.271.339.113,1.561,1.793,3.664,5.038,1.537.079,2.685.118,3.442.118h2.087v.018h8.734l1.493-4.495v-.102c0-.136-.079-.215-.237-.237h-1.951l-.221-.119c.091-.61.356-.916.798-.916h6.665c.452.69.719,1.035.798,1.035h1.034c-.067-.543-.102-.849-.102-.916v-.119h.916c.361.69.588,1.035.679,1.035h2.307l.339.237c0,.147-.074.221-.221.221h-3.681c-.655,0-1.69.039-3.104.118,0,.079-.04.119-.119.119,0,.146.079.221.237.221.17,0,.322-.034.458-.103.136.068.289.103.458.103h6.089c.792,2.611,1.25,3.918,1.374,3.918h6.523c1.084.055,1.911.085,2.45.085h15.332c.159,0,.238-.08.238-.238v-1.034l-.119-.221-.695.102c-.407-.067-.639-.102-.695-.102v-.237c.26,0,.452-.04.576-.119l.695.119c.159,0,.238-.073.238-.221v-3.46l.102-.576-.221-.119ZM49.136,16.656c0,.215-.22,1.068-.661,2.561-1.143,2.126-2.442,3.5-3.901,4.121-.079,0-.192-.033-.339-.102-.125.068-.271.102-.441.102h-1.119c-.961.227-1.481.34-1.561.34h-1.221v.221h.56c.147,0,.221.073.221.22-.984.227-1.69.34-2.12.34-.453,0-1.34-.187-2.663-.56h-1.34v-.221h.662v-.119l-.102-.221h1.56l.221-.102c0-.102-.413-.435-1.238-1-1.493-1.458-2.42-3.098-2.782-4.919v-.542c1.809-.079,2.85-.119,3.121-.119l.56.119c0-.079.04-.119.119-.119s.187.04.322.119c.147,0,.221-.079.221-.237v-.221h-.882c-.78,0-1.968-.034-3.562-.102-.102-.52-.215-.78-.339-.78h-2.001v-.339h.543c.158,0,.237-.073.237-.221v-.22l-.678-.458v-.221c0-.396.26-1.249.78-2.561,1.944-3.188,4.472-4.783,7.582-4.783,1.062,0,2.437.52,4.122,1.56,1.526,1.063,2.64,2.584,3.341,4.562v.119h-1.663c-.52,0-1.34.034-2.459.102v.22h3.799l.542.119c0,1.481.153,2.222.458,2.222h.78l.22-.102c.735.09,1.103.198,1.103.322v.899ZM50.476,16.876c-.147,0-.22.074-.22.221h-.102v-.102l.102-.22h.22v.102ZM57.057,18.284c0,.118-.065.176-.167.199.047-.226.085-.452.12-.678.025.038.047.078.047.14v.339ZM78.614,16.672c-.136,0-.215-.073-.237-.22h.237v.22ZM78.953,17.029h-.118v-.237h.118v.237ZM100.8,19.302c0,.158-.385.271-1.153.339,0-.068-.04-.102-.119-.102h-1.95l-.577.102c0-.068-.034-.102-.102-.102l-.695.102c-.079,0-.192-.034-.339-.102l-.814.102-.577-.102c0-.09.385-1.317,1.153-3.681,0-.181-.226-.294-.678-.339h-.695c.078-.463.191-.695.339-.695h2.646c.328,0,.905-1.605,1.73-4.817h.221c.61,1.73,1.107,3.296,1.492,4.698h-1.95c-.125,0-.204.079-.237.237.158.192.237.385.237.577.689.057,1.034.283,1.034.679.407,1.481.752,2.476,1.035,2.985v.119ZM108.602,24.237h.576l.814.118c0-.078.034-.118.102-.118.045,0,.198.04.458.118l.017-.008v1.959h-1.391c-.124,0-.39-.61-.797-1.832,0-.136.073-.215.221-.237ZM104.7,27.002l.119-.237.797.118h2.408c.182,0,.34-.039.476-.118.124.079.276.118.458.118h1.61v.34h-5.631c-.135,0-.215-.074-.237-.221Z"/>
</svg>