<?xml version="1.0" encoding="UTF-8"?>
<svg id="Layer_1" xmlns="http://www.w3.org/2000/svg" width="1.473in" height=".258in" version="1.1" viewBox="0 0 106.077 18.595">
  <!-- Generator: Adobe Illustrator 30.6.0, SVG Export Plug-In . SVG Version: 2.1.4 Build 109)  -->
  <defs>
    <style>
      .st0 {
        fill: #231f20;
      }

      .st1 {
        fill: #fff;
      }
    </style>
  </defs>
  <g>
    <path class="st0" d="M0,.358h1.865l6.258,15.632h.153l4.086-10.115L10.14.358h1.865l6.232,15.581h.153L23.55.358h1.865l-7.356,18.237h-.562l-4.776-11.877-4.802,11.877h-.562L0,.358Z"/>
    <path class="st0" d="M25.849,18.237L32.72.358h1.583l6.871,17.879h-1.864l-3.167-8.378h-5.798l-2.631,8.378h-1.865ZM32.899,1.686l-2.375,7.561h5.389l-2.86-7.561h-.153Z"/>
    <path class="st0" d="M45.312.358h3.423c1.805,0,3.205.379,4.202,1.136.996.758,1.494,1.818,1.494,3.18,0,1.056-.312,1.933-.933,2.631-.622.698-1.52,1.167-2.695,1.405v.153c1.125.222,2.043.75,2.758,1.583.716.834,1.252,1.865,1.609,3.091.323,1.124.643,1.997.958,2.618.314.622.664,1.069,1.047,1.341.384.272.839.469,1.367.587v.153h-1.048c-.749,0-1.366-.136-1.852-.409-.485-.272-.898-.732-1.239-1.379-.341-.647-.664-1.541-.97-2.682-.494-1.754-1.149-2.997-1.968-3.729-.817-.732-1.813-1.098-2.988-1.098h-.153v-.46h.153c2.742,0,4.112-1.26,4.112-3.78,0-2.486-1.286-3.729-3.856-3.729h-1.686v17.267h-1.737V.358Z"/>
    <path class="st0" d="M73.941,18.237h-1.737V.971s-1.686,0-1.686,0c-2.571,0-3.856,1.243-3.856,3.729,0,2.521,1.37,3.78,4.112,3.78h.152v.46h-.152c-1.176,0-2.172.366-2.989,1.098-.817.732-1.473,1.976-1.967,3.729-.306,1.141-.629,2.035-.97,2.682-.341.647-.754,1.107-1.239,1.379-.485.272-1.103.409-1.852.409h-1.048v-.153c.528-.119.983-.315,1.367-.587.383-.272.732-.719,1.047-1.341.315-.622.635-1.494.958-2.618.357-1.226.894-2.256,1.609-3.091.715-.834,1.635-1.362,2.758-1.583v-.153c-1.175-.238-2.072-.707-2.694-1.405-.621-.698-.933-1.575-.933-2.631,0-1.362.498-2.422,1.494-3.18.996-.757,2.397-1.136,4.202-1.136h3.423v17.879Z"/>
    <path class="st0" d="M78.108,18.237V.358h7.791v1.251l-4.471-.587c-.783-.103-1.312-.153-1.583-.153v7.791c.221,0,.749-.026,1.583-.077l4.189-.256v1.175l-4.189-.255c-.834-.051-1.362-.077-1.583-.077v8.557c.307,0,.843-.051,1.609-.153l4.521-.587v1.251h-7.867Z"/>
    <path class="st0" d="M90.956,18.237l.639-18.237h.307l12.848,15.53h.153l-.562-15.172h1.737l-.639,18.237h-.307l-12.848-15.53h-.153l.562,15.172h-1.736Z"/>
  </g>
  <g>
    <polygon class="st1" points="60.703 8.418 60.703 8.137 61.186 8.137 61.186 7.856 61.451 7.856 61.451 6.235 61.186 6.235 61.186 6.001 60.952 6.001 60.952 5.751 60.952 5.596 60.952 5.44 61.233 5.44 61.233 5.19 61.482 5.19 61.482 3.553 61.186 3.553 61.186 3.257 60.406 3.257 60.406 3.553 59.861 3.553 59.861 4.083 59.58 4.083 59.58 5.362 59.331 5.362 59.331 3.584 58.847 3.584 58.847 3.288 57.974 3.288 57.974 3.584 57.647 3.584 57.647 5.471 57.99 5.471 57.99 5.751 58.255 5.751 58.255 6.001 57.974 6.001 57.974 6.235 57.662 6.235 57.662 7.856 57.974 7.856 57.974 8.122 57.444 8.122 57.444 8.418 56.914 8.418 56.914 8.652 56.602 8.652 56.602 9.478 57.444 9.478 57.444 9.229 57.693 9.229 57.693 8.433 57.974 8.433 57.974 8.137 58.504 8.137 58.504 8.418 60.703 8.418"/>
    <rect class="st1" x="58.8" y="8.683" width="1.606" height=".296"/>
    <rect class="st1" x="61.233" y="8.137" width=".515" height=".281"/>
    <polygon class="st1" points="62.262 8.699 62.262 8.433 61.467 8.433 61.467 9.213 61.748 9.213 61.748 9.494 62.574 9.494 62.574 8.699 62.262 8.699"/>
    <rect class="st1" x="57.428" y="10.819" width="1.076" height=".593"/>
    <rect class="st1" x="60.656" y="10.85" width="1.138" height=".546"/>
  </g>
  <g>
    <polygon points="57.443 9.772 57.443 9.514 56.646 9.514 56.646 9.772 56.912 9.772 56.912 10.577 57.17 10.577 57.17 9.772 57.443 9.772"/>
    <polygon points="60.669 10.857 58.794 10.857 58.654 10.857 58.521 10.857 58.521 11.374 57.443 11.374 57.443 10.85 58.528 10.85 58.528 10.569 57.414 10.569 57.414 10.577 57.17 10.577 57.17 11.389 57.428 11.389 57.428 11.676 58.521 11.676 58.521 11.396 58.794 11.396 58.794 11.115 60.418 11.115 60.418 11.389 60.676 11.389 60.676 10.997 60.669 10.997 60.669 10.857"/>
    <rect x="60.683" y="11.381" width="1.07" height=".266"/>
    <rect x="57.443" y="9.233" width=".266" height=".258"/>
    <rect x="57.709" y="8.436" width=".28" height=".797"/>
    <path d="M60.418,9.241v-.28h.266v-.546h-2.163v.192h-.007v.347h.28v.288h1.624ZM58.801,8.694h1.616v.258h-1.616v-.258Z"/>
    <rect x="60.683" y="8.148" width=".539" height=".266"/>
    <polygon points="61.754 9.506 61.754 9.233 61.488 9.233 61.488 8.421 61.222 8.421 61.222 9.248 61.488 9.248 61.488 9.506 61.754 9.506"/>
    <polygon points="62.839 8.694 62.573 8.694 62.573 9.499 61.768 9.499 61.768 9.779 62.027 9.779 62.027 10.591 61.768 10.591 61.76 10.575 60.683 10.575 60.691 10.857 61.768 10.857 61.768 11.381 62.034 11.381 62.034 10.857 62.285 10.857 62.285 10.746 62.285 10.599 62.285 9.779 62.58 9.779 62.58 9.506 62.839 9.506 62.839 8.694"/>
    <rect x="62.292" y="8.421" width=".273" height=".266"/>
    <rect x="61.754" y="8.148" width=".539" height=".273"/>
    <polygon points="61.754 7.897 61.754 7.882 61.754 6.259 61.495 6.259 61.495 5.993 61.222 5.993 61.222 5.462 61.495 5.462 61.495 5.196 61.207 5.196 61.207 5.462 60.956 5.462 60.956 6 61.215 6 61.215 6.266 61.488 6.266 61.488 7.882 61.215 7.882 61.215 8.141 61.754 8.141 61.754 7.897"/>
    <rect x="57.989" y="8.148" width=".531" height=".266"/>
    <rect x="56.373" y="8.687" width=".266" height=".819"/>
    <polygon points="56.912 8.421 57.45 8.421 57.45 8.156 56.904 8.156 56.904 8.421 56.639 8.421 56.639 8.687 56.912 8.687 56.912 8.421"/>
    <polygon points="57.45 6.273 57.45 7.882 57.45 8.052 57.45 8.148 57.982 8.148 57.982 7.882 57.709 7.882 57.709 6.273 57.45 6.273"/>
    <rect x="57.716" y="5.993" width=".266" height=".28"/>
    <rect x="57.989" y="5.727" width=".266" height=".258"/>
    <polygon points="57.709 5.735 57.982 5.735 57.982 5.447 57.716 5.447 57.716 3.579 57.443 3.579 57.443 5.454 57.709 5.454 57.709 5.735"/>
    <rect x="57.709" y="3.314" width=".273" height=".258"/>
    <polygon points="58.801 3.565 59.06 3.565 59.06 3.838 59.333 3.838 59.333 5.447 59.591 5.447 59.591 4.103 59.886 4.103 59.886 3.83 59.591 3.83 59.517 3.83 59.34 3.83 59.34 3.565 59.347 3.565 59.347 3.299 59.06 3.299 59.06 3.026 57.975 3.026 57.975 3.306 58.801 3.306 58.801 3.565"/>
    <polygon points="60.41 3.299 61.2 3.299 61.2 3.572 61.495 3.572 61.495 3.291 61.215 3.291 61.215 3.033 60.137 3.033 60.137 3.291 59.871 3.291 59.871 3.572 60.41 3.572 60.41 3.299"/>
    <rect x="61.51" y="3.572" width=".244" height="1.631"/>
  </g>
</svg>