<?xml version="1.0" encoding="UTF-8"?>
<svg id="Layer_1" xmlns="http://www.w3.org/2000/svg" width="1.046in" height=".342in" version="1.1" viewBox="0 0 75.286 24.621">
  <!-- Generator: Adobe Illustrator 30.5.1, SVG Export Plug-In . SVG Version: 2.1.4 Build 3)  -->
  <defs>
    <style>
      .st0 {
        fill: #231f20;
      }
    </style>
  </defs>
  <path class="st0" d="M29.109,1.907c-1.134.064-2.214.227-3.302.539l-2.629.754c-.1.015-.195.043-.285.082l-.375.107c-1.245.357-2.503.481-3.786.387-.477-.035-.792-.468-.8-.913C17.903,1.212,16.623.016,14.988,0c-1.979-.018-3.883.204-5.837.61-2.252.468-4.453.993-6.729,1.226,0,0-.446.046-.515.051v-.006c-.572.062-1.661.347-1.907,1.598v18.507c.201.315.75.694,2.227.679,1.327-.104,2.602-.293,3.904-.568l4.167-.881c1.647-.278,3.255-.451,4.919-.366.473.024.797.473.804.923.025,1.496,1.155,2.727,2.666,2.823,1.713.109,3.349-.173,4.993-.645l3.236-.928c1.7-.488,3.28.053,3.279-1.274V2.879c0-.617-.523-1.003-1.086-.972ZM24.623,21.679l-2.917.808-1.915.216-.996-.019c-.503-.01-.857-.448-.865-.925-.011-.63-.465-1.927-.465-2.071v-7.565c0-.638-.522-1.159-1.159-1.159s-1.159.522-1.159,1.159v6.791c-.053-.002-.106-.007-.16-.006-1.999-.041-3.935.204-5.902.616l-3.402.712-1.91.324-1.866.212-.002-16.981c1.443-.095,2.821-.296,4.225-.591l1.543-.324v7.205c0,.638.522,1.159,1.159,1.159s1.159-.522,1.159-1.159V2.514c0-.042-.003-.084-.007-.125l.452-.095c1.58-.264,3.117-.409,4.716-.352.376.013.674.253.8.583,0,0-.47,3.558,3.862,3.192.031-.003.06-.005.091-.008.5-.019.997-.063,1.495-.137.273-.029.358-.045.323-.052.156-.027.313-.057.47-.091v6.481c0,.638.522,1.159,1.159,1.159s1.159-.522,1.159-1.159v-7.108c1.228-.371,2.451-.753,3.778-.926l.002,16.975c-1.266.147-2.451.491-3.669.828Z"/>
  <path class="st0" d="M42.266,7.044c-.193-.507-.352-.913-.477-1.216s-.279-.587-.461-.852c-.182-.264-.422-.48-.718-.648-.296-.167-.666-.252-1.109-.252-.436,0-.802.084-1.099.252-.296.168-.536.388-.718.659s-.354.613-.514,1.023c-.161.411-.298.763-.413,1.056l-4.019,10.203c-.165.407-.282.726-.354.954-.072.229-.107.45-.107.665,0,.372.154.704.461.997s.661.439,1.061.439c.472,0,.811-.138,1.018-.413.207-.275.457-.806.75-1.592l.75-2.015h6.387l.75,1.972c.1.243.22.523.359.841.139.318.27.554.391.708.122.154.271.275.45.364s.393.134.643.134c.429,0,.795-.152,1.099-.456.303-.304.455-.638.455-1.002,0-.35-.161-.911-.482-1.683l-4.105-10.139ZM37.154,13.914l2.326-6.484,2.368,6.484h-4.694Z"/>
  <path class="st0" d="M60.042,4.279c-.232-.135-.484-.204-.756-.204-.371,0-.664.088-.879.263-.215.175-.369.372-.461.589-.094.218-.232.605-.418,1.163l-3.568,10.61-3.559-10.535c-.236-.729-.466-1.259-.691-1.591s-.609-.499-1.152-.499c-.443,0-.811.15-1.104.45-.293.3-.439.632-.439.997,0,.143.023.318.07.525.046.208.103.4.171.579.068.179.134.361.198.547l3.74,10.181c.136.393.271.765.407,1.115s.295.663.478.938c.182.275.42.497.717.665s.66.252,1.088.252.791-.086,1.088-.257.535-.391.713-.659.336-.579.473-.932c.135-.354.271-.727.406-1.12l3.805-10.267c.064-.186.129-.366.193-.541.064-.175.117-.354.16-.536s.064-.352.064-.509c0-.229-.066-.456-.199-.681-.131-.225-.314-.405-.545-.542Z"/>
  <path class="st0" d="M74.905,17.874c-.253-.232-.63-.348-1.13-.348h-7.417v-4.469h6.603c.492,0,.856-.112,1.093-.337.235-.225.354-.516.354-.874s-.12-.645-.359-.863c-.239-.218-.602-.327-1.087-.327h-6.603v-3.858h7.17c.508,0,.885-.112,1.131-.337s.37-.523.37-.895c0-.364-.124-.659-.37-.884-.246-.225-.623-.338-1.131-.338h-8.402c-.45,0-.819.066-1.109.198-.289.132-.502.343-.638.632-.136.29-.203.663-.203,1.12v11.81c0,.686.151,1.183.455,1.49.304.308.803.461,1.495.461h8.649c.5,0,.877-.116,1.13-.348.254-.232.381-.534.381-.906,0-.386-.127-.695-.381-.927Z"/>
</svg>