<?xml version="1.0" encoding="UTF-8"?>
<svg id="Layer_1" xmlns="http://www.w3.org/2000/svg" width="1.541in" height=".226in" version="1.1" viewBox="0 0 110.964 16.257">
  <!-- Generator: Adobe Illustrator 30.6.0, SVG Export Plug-In . SVG Version: 2.1.4 Build 109)  -->
  <polygon points="22.521 9.772 19.426 1.736 16.293 9.817 13.775 1.736 11.91 1.736 16.122 15.251 19.422 6.709 22.692 15.262 26.887 1.736 25.004 1.736 22.521 9.772"/>
  <polygon points="35.656 6.989 29.978 6.989 29.978 1.736 28.178 1.736 28.178 14.041 29.978 14.041 29.978 8.789 35.656 8.789 35.656 14.041 37.439 14.041 37.439 1.736 35.656 1.736 35.656 6.989"/>
  <rect x="40.004" y="1.736" width="1.783" height="12.305"/>
  <path d="M46.357,3.99c.251-.193.557-.344.907-.448.727-.214,1.547-.214,2.262,0,.35.105.661.258.92.451.237.18.418.376.541.585.115.196.175.394.184.602l.033.813,1.768-.986-.061-.35c-.138-.797-.6-1.499-1.385-2.095-.895-.639-1.946-.963-3.125-.963-.581,0-1.145.083-1.678.249-.537.167-1.025.407-1.453.718-.45.331-.804.72-1.051,1.155-.257.452-.388.941-.388,1.457,0,.638.195,1.235.579,1.775.371.525.885.951,1.529,1.266.402.194.885.338,1.435.426.511.082.807.129.899.142,1.148.135,1.657.302,1.872.413.337.183.6.403.781.653.165.228.245.462.245.716,0,.45-.235.842-.721,1.199-.554.413-1.224.614-2.049.614-.403,0-.788-.054-1.144-.162-.345-.104-.648-.254-.922-.463-.46-.316-.697-.702-.722-1.18l-.043-.8-1.765.985.07.356c.163.831.632,1.537,1.397,2.1.427.31.915.551,1.451.717.533.165,1.098.249,1.678.249,1.18,0,2.232-.324,3.131-.967.452-.333.805-.731,1.048-1.184.247-.458.372-.951.372-1.463,0-.599-.178-1.165-.529-1.681-.336-.496-.811-.919-1.411-1.259l-.004-.002c-.244-.135-.539-.25-.878-.341-.321-.086-.652-.154-.999-.204l-.618-.088c-.453-.057-.825-.11-1.113-.161-.25-.044-.479-.115-.672-.207-.328-.164-.595-.386-.816-.68-.201-.266-.299-.518-.299-.769,0-.2.057-.393.173-.588.126-.212.315-.411.57-.598Z"/>
  <polygon points="64.741 1.736 62.511 1.736 56.674 9.761 56.674 1.736 54.892 1.736 54.892 15.267 59.072 9.534 62.863 14.041 65.214 14.041 60.148 8.023 64.741 1.736"/>
  <polygon points="66.179 14.041 74.501 14.041 74.501 12.224 67.961 12.224 67.961 8.789 73.057 8.789 73.057 6.989 67.961 6.989 67.961 3.536 74.501 3.536 74.501 1.736 66.179 1.736 66.179 14.041"/>
  <path d="M81.756,9.02c.391-.046.794-.163,1.188-.34.601-.253,1.125-.672,1.561-1.246.447-.59.675-1.268.675-2.015,0-.479-.106-.948-.317-1.395-.207-.441-.507-.84-.891-1.186-.395-.355-.859-.631-1.383-.82-.517-.187-1.077-.282-1.665-.282h-4.448v12.305h1.782v-6.269l5.16,6.269h2.34l-4.128-5.007c.042-.004.084-.009.126-.014ZM78.258,7.337v-3.818h2.666c.508,0,.957.099,1.336.293.375.192.663.437.856.728.189.285.281.572.281.88,0,.341-.108.648-.331.938-.239.311-.522.545-.82.687-.471.194-1.108.292-1.896.292h-2.092Z"/>
  <path d="M89.332,3.99c.251-.193.557-.344.907-.448.727-.214,1.545-.215,2.262,0,.351.105.661.258.92.451.237.18.419.376.541.585.115.196.176.394.184.602l.033.813,1.768-.986-.06-.35c-.139-.797-.601-1.499-1.385-2.095-.895-.639-1.946-.963-3.126-.963-.58,0-1.145.083-1.678.249-.538.167-1.026.407-1.453.718-.45.331-.804.72-1.052,1.155-.257.452-.388.941-.388,1.457,0,.638.195,1.235.579,1.775.371.525.885.951,1.529,1.266.402.194.885.338,1.435.426.512.082.807.129.899.142,1.147.135,1.656.302,1.872.413.337.183.6.403.781.653.164.228.244.462.244.716,0,.45-.235.842-.721,1.199-.554.413-1.224.614-2.049.614-.403,0-.787-.054-1.144-.162-.346-.104-.648-.254-.922-.463-.461-.316-.697-.702-.723-1.18l-.043-.8-1.765.985.07.356c.162.831.632,1.537,1.396,2.1.427.31.915.551,1.451.717.533.165,1.098.249,1.678.249,1.181,0,2.231-.324,3.131-.967.453-.333.806-.731,1.049-1.184.247-.458.372-.951.372-1.463,0-.599-.178-1.164-.529-1.681-.336-.496-.812-.919-1.415-1.261-.243-.135-.539-.25-.878-.341-.32-.086-.652-.154-.998-.204l-.618-.088c-.453-.057-.824-.11-1.113-.161-.25-.044-.479-.115-.672-.207-.328-.164-.596-.386-.816-.68-.201-.266-.299-.518-.299-.769,0-.2.057-.393.173-.588.126-.212.315-.411.57-.598Z"/>
  <polygon points=".567 1.134 0 3.403 11.153 6.994 .567 1.134"/>
  <polygon points="1.89 16.257 11.909 10.775 .567 14.367 1.89 16.257"/>
  <polygon points="110.397 0 99.811 5.86 110.964 2.268 110.397 0"/>
  <polygon points="109.074 15.123 110.397 13.232 99.055 9.641 109.074 15.123"/>
</svg>