<?xml version="1.0" encoding="UTF-8"?>
<svg id="Layer_1" xmlns="http://www.w3.org/2000/svg" width="1.661in" height=".265in" version="1.1" viewBox="0 0 119.562 19.088">
  <!-- Generator: Adobe Illustrator 30.5.1, SVG Export Plug-In . SVG Version: 2.1.4 Build 3)  -->
  <defs>
    <style>
      .st0 {
        fill: #231f20;
      }
    </style>
  </defs>
  <path class="st0" d="M.622.247h22.745c.471,0,.768.446.569.891l-7.672,17.152c-.495,1.064-1.336,1.064-1.807,0l-1.732-3.96c-.372-.842-1.064-.842-1.436,0l-1.757,3.96c-.47,1.064-1.336,1.064-1.807,0L.053,1.138C-.121.693.152.247.622.247Z"/>
  <path class="st0" d="M23.391,9.528c0-5.197,3.886-9.528,9.578-9.528s9.578,4.331,9.578,9.528-3.886,9.529-9.578,9.529-9.578-4.331-9.578-9.529Z"/>
  <path class="st0" d="M54.056,12.548l2.599,5.42c.371.742-.099,1.188-.842.792l-8.761-4.752c-.347-.198-.594-.025-.594.346v3.96c0,.322-.173.495-.495.495h-.94c-.322,0-.495-.173-.495-.495V1.237c0-.644.347-.99.99-.99h4.529c3.614,0,6.534,2.945,6.534,6.559,0,2.029-.916,3.861-2.376,5.074-.223.198-.272.396-.148.668Z"/>
  <path class="st0" d="M58.387,17.819V1.237c0-.644.347-.99.99-.99h4.653c5.544,0,9.33,4.208,9.33,9.281s-3.786,9.281-9.33,9.281h-4.653c-.644,0-.99-.347-.99-.99Z"/>
  <path class="st0" d="M84.003.247h12.201c.644,0,.99.347.99.99v10.717c0,3.935-3.193,7.103-7.079,7.103-3.91,0-7.103-3.168-7.103-7.103V1.237c0-.644.347-.99.99-.99Z"/>
  <path class="st0" d="M99.421,18.314V1.237c0-.644.347-.99.99-.99h4.529c3.613,0,6.534,2.945,6.534,6.559,0,3.638-2.921,6.559-6.534,6.559h-2.599c-.644,0-.99.346-.99.99v3.96c0,.322-.173.495-.495.495h-.94c-.321,0-.495-.173-.495-.495Z"/>
  <path class="st0" d="M113.232.247h5.42c.693,0,1.039.396.866,1.089l-2.747,11.533c-.248,1.089-1.386,1.064-1.634,0l-2.771-11.533c-.174-.693.173-1.089.866-1.089ZM115.954,18.958c1.138,0,2.104-.965,2.104-2.104s-.966-2.079-2.104-2.079-2.104.94-2.104,2.079.966,2.104,2.104,2.104Z"/>
</svg>