<?xml version="1.0" encoding="UTF-8"?>
<svg id="Layer_1" xmlns="http://www.w3.org/2000/svg" width="2in" height="2in" version="1.1" viewBox="0 0 144 144">
  <!-- Generator: Adobe Illustrator 30.4.0, SVG Export Plug-In . SVG Version: 2.1.4 Build 226)  -->
  <defs>
    <style>
      .st0 {
        fill: #be1e2d;
      }

      .st1 {
        fill: #fff;
      }

      .st2 {
        fill: #488fcd;
      }
    </style>
  </defs>
  <g>
    <polygon class="st1" points="87.638 88.966 87.638 84.769 94.864 84.769 94.864 80.575 98.827 80.575 98.827 56.333 94.864 56.333 94.864 52.834 91.368 52.834 91.368 49.106 91.368 46.776 91.368 44.443 95.563 44.443 95.563 40.715 99.293 40.715 99.293 16.238 94.864 16.238 94.864 11.809 83.209 11.809 83.209 16.238 75.052 16.238 75.052 24.163 70.855 24.163 70.855 43.277 67.127 43.277 67.127 16.705 59.9 16.705 59.9 12.276 46.847 12.276 46.847 16.705 41.951 16.705 41.951 44.909 47.079 44.909 47.079 49.106 51.042 49.106 51.042 52.834 46.847 52.834 46.847 56.333 42.184 56.333 42.184 80.575 46.847 80.575 46.847 84.537 38.922 84.537 38.922 88.966 30.995 88.966 30.995 92.462 26.333 92.462 26.333 104.816 38.922 104.816 38.922 101.086 42.65 101.086 42.65 89.198 46.847 89.198 46.847 84.769 54.772 84.769 54.772 88.966 87.638 88.966"/>
    <rect class="st1" x="59.201" y="92.929" width="24.01" height="4.429"/>
    <rect class="st1" x="95.563" y="84.769" width="7.693" height="4.195"/>
    <polygon class="st1" points="110.949 93.161 110.949 89.198 99.061 89.198 99.061 100.854 103.256 100.854 103.256 105.049 115.61 105.049 115.61 93.161 110.949 93.161"/>
    <rect class="st1" x="38.688" y="124.864" width="16.085" height="8.858"/>
    <rect class="st1" x="86.939" y="125.33" width="17.015" height="8.157"/>
  </g>
  <g>
    <rect class="st0" x="54.84" y="64.687" width="8.12" height="8.389"/>
    <rect class="st0" x="79.446" y="64.736" width="8.12" height="8.389"/>
    <polygon class="st0" points="79.082 85.14 63.23 85.14 63.23 81.196 58.899 81.196 58.899 85.524 63.014 85.524 63.014 89.105 79.082 89.105 79.082 85.245 83.361 85.245 83.361 80.966 79.082 80.966 79.082 85.14"/>
  </g>
  <path class="st2" d="M103.5,109.349v-4.07h-4.174v-3.965h-3.965v-12.209h-8.035v7.93h-4.07v4.279h-24.104v-4.174h-4.279v-8.035h-7.827v12.209h-3.862v3.895h-4.174v4.138h-4.07v12h11.374v.103h8.661v3.965h32.348v-3.965h15.339v-.103h4.696v-12h-3.862l.002.002ZM46.946,113.208v-7.827h8.035v7.827s-8.035,0-8.035,0ZM87.326,105.384h8.347v7.827h-8.347v-7.827Z"/>
  <g>
    <polygon points="38.91 109.21 38.91 105.349 26.992 105.349 26.992 109.21 30.967 109.21 30.967 121.236 34.828 121.236 34.828 109.21 38.91 109.21"/>
    <polygon points="87.127 125.429 59.103 125.429 57.004 125.429 55.018 125.429 55.018 133.152 38.91 133.152 38.91 125.319 55.129 125.319 55.129 121.126 38.47 121.126 38.47 121.236 34.828 121.236 34.828 133.373 38.69 133.373 38.69 137.677 55.018 137.677 55.018 133.485 59.103 133.485 59.103 129.29 83.375 129.29 83.375 133.373 87.239 133.373 87.239 127.525 87.127 127.525 87.127 125.429"/>
    <rect x="87.35" y="133.262" width="15.998" height="3.972"/>
    <rect x="87.268" y="105.178" width="8.284" height="8.204"/>
    <rect x="46.964" y="105.349" width="7.944" height="7.967"/>
    <rect x="38.91" y="101.154" width="3.972" height="3.862"/>
    <rect x="42.882" y="89.238" width="4.192" height="11.916"/>
    <path d="M83.375,101.264v-4.192h3.972v-8.164h-32.329v2.87h-.11v5.186h4.192v4.303h24.275v-.002ZM59.213,93.1h24.165v3.862h-24.165v-3.862Z"/>
    <rect x="87.35" y="84.936" width="8.054" height="3.972"/>
    <polygon points="103.347 105.236 103.347 101.154 99.376 101.154 99.376 89.018 95.404 89.018 95.404 101.374 99.376 101.374 99.376 105.236 103.347 105.236"/>
    <polygon points="119.568 93.1 115.596 93.1 115.596 105.126 103.568 105.126 103.568 109.321 107.43 109.321 107.43 121.457 103.568 121.457 103.451 121.213 87.34 121.213 87.46 125.429 103.568 125.429 103.568 133.262 107.54 133.262 107.54 125.429 111.291 125.429 111.291 123.773 111.291 121.567 111.291 109.321 115.706 109.321 115.706 105.236 119.568 105.236 119.568 93.1"/>
    <rect x="111.402" y="89.018" width="4.082" height="3.972"/>
    <rect x="103.347" y="84.936" width="8.054" height="4.082"/>
    <polygon points="103.347 81.184 103.347 80.964 103.347 56.689 99.486 56.689 99.486 52.717 95.404 52.717 95.404 44.771 99.486 44.771 99.486 40.799 95.183 40.799 95.183 44.771 91.432 44.771 91.432 52.827 95.293 52.827 95.293 56.799 99.376 56.799 99.376 80.964 95.293 80.964 95.293 84.826 103.347 84.826 103.347 81.184"/>
    <rect x="47.075" y="84.936" width="7.944" height="3.972"/>
    <rect x="22.91" y="92.99" width="3.972" height="12.249"/>
    <polygon points="30.967 89.018 39.021 89.018 39.021 85.046 30.856 85.046 30.856 89.018 26.882 89.018 26.882 92.99 30.967 92.99 30.967 89.018"/>
    <polygon points="39.021 56.91 39.021 80.964 39.021 83.501 39.021 84.936 46.964 84.936 46.964 80.964 42.882 80.964 42.882 56.91 39.021 56.91"/>
    <rect x="42.992" y="52.717" width="3.972" height="4.192"/>
    <rect x="47.075" y="48.743" width="3.972" height="3.862"/>
    <polygon points="42.882 48.853 46.964 48.853 46.964 44.551 42.992 44.551 42.992 16.635 38.91 16.635 38.91 44.661 42.882 44.661 42.882 48.853"/>
    <rect x="42.882" y="12.663" width="4.082" height="3.862"/>
    <polygon points="59.213 16.414 63.075 16.414 63.075 20.496 67.157 20.496 67.157 44.551 71.019 44.551 71.019 24.471 75.431 24.471 75.431 20.386 71.019 20.386 69.914 20.386 67.267 20.386 67.267 16.414 67.377 16.414 67.377 12.442 63.075 12.442 63.075 8.36 46.854 8.36 46.854 12.552 59.213 12.552 59.213 16.414"/>
    <polygon points="83.265 12.442 95.073 12.442 95.073 16.524 99.486 16.524 99.486 12.332 95.293 12.332 95.293 8.47 79.183 8.47 79.183 12.332 75.211 12.332 75.211 16.524 83.265 16.524 83.265 12.442"/>
    <rect x="99.706" y="16.524" width="3.641" height="24.385"/>
  </g>
</svg>