<?xml version="1.0" encoding="UTF-8"?>
<svg id="Layer_1" xmlns="http://www.w3.org/2000/svg" width="2in" height="2in" version="1.1" viewBox="0 0 144 144">
  <!-- Generator: Adobe Illustrator 30.4.0, SVG Export Plug-In . SVG Version: 2.1.4 Build 226)  -->
  <defs>
    <style>
      .st0 {
        fill: #fff;
      }

      .st1 {
        fill: #6abd45;
      }
    </style>
  </defs>
  <polygon points="133.89 62.193 130.168 62.193 130.168 43.873 125.589 43.873 125.589 30.991 121.008 30.991 121.008 26.983 116.141 26.983 116.141 22.116 111.848 22.116 111.848 17.823 107.555 17.823 107.555 12.956 98.966 12.956 98.966 8.948 80.646 8.948 80.646 12.956 73.201 12.956 73.201 8.375 67.764 8.375 67.764 12.956 54.881 12.956 54.881 17.823 50.015 17.823 50.015 12.956 36.561 12.956 36.561 17.823 31.98 17.823 31.98 22.116 28.258 22.116 28.258 26.983 23.965 26.983 23.965 30.991 18.813 30.991 18.813 35.857 14.519 35.857 14.519 43.873 10.224 43.873 10.224 83.376 14.519 83.376 14.519 101.698 18.813 101.698 18.813 114.58 27.973 114.58 27.973 119.733 32.554 119.733 32.554 129.178 49.729 129.178 49.729 132.327 54.596 132.327 54.596 136.908 103.262 136.908 103.262 129.178 103.262 124.312 103.262 123.452 120.149 123.452 120.149 119.733 125.016 119.733 125.016 114.58 125.016 114.007 125.016 105.992 129.311 105.992 129.311 92.824 133.89 92.824 133.89 62.193"/>
  <g>
    <rect class="st1" x="58.316" y="119.445" width="40.65" height="13.453"/>
    <rect class="st1" x="93.813" y="12.956" width="5.152" height="4.293"/>
    <rect class="st1" x="89.52" y="17.535" width="4.293" height="4.581"/>
    <path class="st1" d="M129.311,57.326v4.008h-4.581v-13.168h-4.293v-8.589h-4.581v-8.874h-4.293v-4.293h-4.867v-4.008h-3.722v-4.867h-4.581v4.867h-4.293v8.589h4.008v3.722h8.301v.286h-3.722v18.034h-8.589v-4.581h.574v-.286h3.149v-8.301h-3.149v-5.152h-5.152v-4.008h-.286v-4.293h-3.149v-4.581h-4.867v-4.293h-4.867v4.293h-4.008v-4.008h-8.874v4.008h-4.867v4.581h-8.874v-4.293h-4.293v-4.581h-4.581v4.581h-4.867v4.581h-4.293v4.293h-4.293v8.874h-3.722v11.164h-4.008v-2.289h-5.152v21.757h3.722v26.909h5.152v8.874h4.293v8.301h8.589v8.874h2.004v.286h7.156v-.286h8.301v-4.008h-3.722v-4.867h52.673v5.152h9.446v-5.152h8.589v-12.882h4.581v-17.749h4.008v-21.469h4.867v-5.152h-4.867l.003-.005ZM102.688,57.9v3.434h-4.867v8.874h-3.434v-9.16h-.286v-3.149h8.589-.003ZM49.729,66.774v26.05h4.293v12.023h-4.293v-9.16h-4.293v-24.905h-4.008v-19.753h-.574v-2.577h4.293v18.32h4.581v.003ZM41.428,26.983h4.008v3.722h-4.008v-3.722ZM36.273,31.562h4.581v3.149h-.286v13.453h-4.293v-16.604l-.003.003Z"/>
  </g>
  <g>
    <polygon class="st0" points="49.444 97.976 45.148 97.976 45.148 93.683 40.569 93.683 40.569 93.109 36.847 93.109 36.847 66.2 32.266 66.2 32.266 62.193 36.273 62.193 36.273 49.025 32.266 49.025 31.407 49.025 27.687 49.025 27.687 79.656 32.266 79.656 32.266 101.41 36.273 101.41 36.273 106.565 39.996 106.565 39.996 119.733 45.148 119.733 45.148 114.866 49.444 114.866 49.444 106.277 53.737 106.277 53.737 101.698 49.444 101.698 49.444 97.976"/>
    <rect class="st0" x="32.266" y="39.577" width="4.008" height="5.438"/>
    <polygon class="st0" points="76.638 40.436 76.638 37.002 76.638 35.284 67.478 35.284 67.478 40.436 72.057 40.436 72.057 44.158 76.638 44.158 76.638 40.436"/>
    <rect class="st0" x="67.478" y="44.158" width="4.581" height="4.867"/>
    <path class="st0" d="M98.966,104.847h-.574v-3.149h13.168v-26.623h-4.581v4.581h-4.293v8.589h-4.293v9.16h-4.867v7.442h-4.008v-3.149h-21.757v-3.149h4.293v-9.734h8.301v3.722h-3.722v4.867h9.16v-4.581h3.149v-4.293h-8.015v-14.027h-4.293v-12.309h-2.863v-.574h-1.718v-4.008h4.293v-4.867h-4.581v4.867h-4.293v4.008h-4.867v4.867h-4.581v5.438h5.152v-5.438h4.293v26.05h-4.293v-8.589h-4.581v8.589h4.293v9.16h-4.581v8.874h-4.293v4.867h9.16v8.589h-4.293v9.446h6.011v-.574h2.289v-2.863h4.581v3.149h8.874v-3.149h4.008v3.149h13.741v-3.149h.286v-10.305h-13.168v-4.867h13.453v-3.722h4.293v-5.152h-4.293v-1.145h.01ZM72.057,79.656v-4.581h4.293v4.581h-4.293ZM67.19,115.437v-8.874h-3.434v-4.581h3.722v4.867h8.589v4.008h-4.008v8.874h-4.867v-4.293h-.003ZM80.646,119.733h-4.581v-4.867h4.581v4.867Z"/>
    <polygon class="st0" points="84.939 83.664 89.806 83.664 89.806 61.907 84.939 61.907 84.939 66.2 80.931 66.2 80.931 71.641 84.939 71.641 84.939 83.664"/>
    <rect class="st0" x="89.232" y="48.74" width="4.867" height="9.16"/>
    <rect class="st0" x="106.696" y="48.74" width="5.152" height="5.438"/>
    <polygon class="st0" points="116.429 57.614 106.696 57.614 106.696 62.478 111.848 62.478 111.848 79.942 116.715 79.942 116.715 59.044 116.429 59.044 116.429 57.614"/>
    <rect class="st0" x="106.981" y="110.573" width="4.581" height="9.16"/>
    <rect class="st0" x="111.562" y="105.992" width="4.867" height="4.581"/>
    <rect class="st0" x="120.437" y="88.243" width="4.293" height="14.027"/>
  </g>
</svg>