<?xml version="1.0" encoding="UTF-8"?>
<svg id="Layer_1" xmlns="http://www.w3.org/2000/svg" width="2in" height="2in" version="1.1" viewBox="0 0 144 144">
  <!-- Generator: Adobe Illustrator 30.4.0, SVG Export Plug-In . SVG Version: 2.1.4 Build 226)  -->
  <defs>
    <style>
      .st0 {
        fill: #f26739;
      }

      .st1 {
        fill: #6abd45;
      }
    </style>
  </defs>
  <polygon points="136.981 59.058 136.981 41.718 132.081 41.718 132.081 37.004 127.181 37.004 127.181 46.054 122.845 46.054 122.845 23.622 118.134 23.622 118.134 18.722 108.898 18.722 108.898 46.054 54.805 46.054 54.805 50.386 50.091 50.386 50.091 55.287 45.756 55.287 45.756 59.058 41.234 59.058 41.234 63.958 36.52 63.958 36.52 68.104 32.187 68.104 32.187 73.383 27.473 73.383 27.473 77.905 23.327 77.905 23.327 86.954 18.805 86.954 18.805 91.1 14.28 91.1 14.28 101.465 9.758 101.465 9.758 109.004 5.234 109.004 5.234 122.765 9.758 122.765 9.758 127.476 36.709 127.476 36.709 122.765 55.37 122.765 55.37 118.24 68.374 118.24 68.374 113.905 77.798 113.905 77.798 109.383 87.788 109.383 87.788 104.858 96.081 104.858 96.081 100.333 104.563 100.333 104.563 91.1 109.087 91.1 109.087 82.429 109.274 82.429 109.274 74.136 136.416 74.136 136.416 68.669 140.563 68.669 140.563 65.276 140.563 63.958 140.563 59.058 136.981 59.058"/>
  <path class="st1" d="M135.285,58.679h-8.671v-4.146h4.711v-13.947h-14.136v-13.382h-4.525v-4.525h-8.671v4.9h-4.336v4.146h-4.9v4.711h-4.525v4.711h-4.336v9.047h4.336v4.336h4.525v4.525h9.236v3.957h4.336v5.278h23.561v-4.9h3.393v-4.711h.003ZM116.813,40.775v4.711h-8.293v-4.336h4.146v-.378h4.146v.003ZM94.952,54.533v-4.711h8.858v-4.146h4.336v3.957h-4.146v4.9h-9.047ZM117.38,59.058v-4.525h4.336v4.146h-3.957v4.146h-9.236v-3.768s8.858,0,8.858,0Z"/>
  <path class="st0" d="M103.62,86.011v-18.847h-4.525v-3.957h-9.236v-4.336h-4.525v-4.525h-3.957v-4.711h-27.14v4.711h-5.089v4.525h-3.957v4.525h-.189v-.189h-5.278v4.336h-4.336v4.711h-4.146v4.525h-4.711v8.858h-4.525v4.525h-4.146v9.236h-4.525v8.858h-3.957v13.76h17.151v.189h9.047v-4.525h9.425v-9.236h-4.525v-3.768h4.525v-.565h.189v4.9h4.336v3.957h18.471v-4.711h8.671v-4.525h-9.236v-4.146h-4.9v-4.9h-4.336v-4.711h-4.146v-8.671h4.146v8.482h4.9v5.089h4.9v4.336h26.575v-4.336h4.146v-6.786h-13.004v-2.075h17.907v-.003ZM39.726,103.915h-4.146v-8.482h4.146v8.482ZM72.334,76.586v-4.146h3.957v4.146h-3.957ZM76.48,81.486v-4.9h4.525v4.9h-4.525ZM81.191,86.011v-4.525h3.957v4.525h-3.957Z"/>
</svg>