<?xml version="1.0" encoding="UTF-8"?>
<svg id="Layer_1" xmlns="http://www.w3.org/2000/svg" width="1.746in" height="1.866in" version="1.1" viewBox="0 0 125.679 134.36">
  <!-- Generator: Adobe Illustrator 30.6.0, SVG Export Plug-In . SVG Version: 2.1.4 Build 109)  -->
  <defs>
    <style>
      .st0 {
        fill: #00FFFF;
      }

      .st1 {
        fill: #00E5E5;
      }
    </style>
  </defs>
  <g id="Generative_Object">
    <path class="st0" d="M35.245,40.968l.082,1.35c-.025.014-.075.054-.073.109s.054.093.075.109l-.065,1.274,3.338-.033,3.215-.021c.021.075.101.071.14.096l-.016,1.71v.139l.005,1.671h3.199s2.926,0,2.926,0c-.024.07.029.14.076.139l.205-.002v1.396l-.039.142-.046,1.364,3.426.025h3.203l.003-2.925-.003-.14c-.011-.559.098-1.134-.112-1.666-.119-.005-.106-.177.028-.127.144-.565.066-1.126.081-1.691l.002-.116,1.538.007,1.682-.023c.104,0,.154-.072.129-.147l-.003-.098.134-.039c-.002.15.042.265.08.368-.141.503-.053,1.199-.075,1.719-.004.104.045.143.136.143-.249.459-.109,1.013-.131,1.519-.003.06-.006.154.134.154l6.123-.003.008-1.671v-.139l.002-1.689c.84-.107,1.704-.099,2.654-.119.228-.005.482.07.577-.144.043-.004,0-.112-.002-.154l-.028-.956.056-.153.06-1.375,3.528-.085c-.058-.131.138-.144.121-.013l3.211.09c.005.48-.124.98.131,1.388-.16-.027-.171.172.002.151-.236.371-.129.824-.14,1.249-.002.093.037.141.136.143-.209.5-.22,1.16-.007,1.662-.144-.023-.163.163,0,.15-.205.509-.214,1.156,0,1.661-.137-.026-.172.164.007.15-.247.415-.121.918-.134,1.384l-.004.143v1.254l.005.144c.014.417-.105.884.132,1.247-.096.002-.136.045-.136.139l.003,2.075-3.203.022-.038,3.308-3.586.037.05,3.251c-.067.019-.14.035-.17.076l-3.087.013h-.14l-2.585-.021c-.068,0-.161-.138-.203-.128-.071.017-.192.008-.276.008v-1.532l-.006-1.672-3.258.018c-.15-.538-.074-1.126-.077-1.689l-.009-1.672h-3.339l-.14-.004-6.485.022.035,2.886c-.059-.018-.117.024-.097.091l.055.183,6.493.031c.078-.018.153.04.139.126v4.332l.002,1.929.417.027,2.924-.112c.018.146.154.121.181.023.551.149,1.095-.004,1.684.023.464.021,1.034.181,1.475-.066.032-.129.193-.071.121.049h2.971c-.035-.154.124-.055.122-.057.392.187.859.211,1.244-.014-.036.146.157.185.151.013.508.219,1.151.187,1.661.018.027-.142.188-.081.129.034l3.282.069c.065,0,.213-.187.216-.129-.013.093.044.145.14.139v1.811l.012,1.228c.032.034.099.04.127.027h3.205l-.004,3.35c0,.118.087.149.143.134h3.344v12.402c-.093-.023-.163.052-.142.139l-3.34.003.048,3.205c-.079-.016-.095.07-.058.112l-.138.011c-1.043.075-2.078.152-3.195,0l-.005,3.358c-.088-.023-.161.05-.139.138l-3.479.002-.004,3.201c-.086.003-.165.037-.147.132l-3.054.012.019,2.969c-.021.043-.075.088-.113.116l-2.973-.023h-10.031l-.279.003-3.188-.012-.016-2.08-.01-.975-3.048-.005c-.058-.111-.104-.165-.106-.272l-.046-3.064-3.082-.008c-.042,0-.133-.049-.144-.089l.025-1.718v-8.192c-.111-.049-.21-.024-.265-.023l-2.914.054.048,3.014c-.084-.005-.092.08-.071.124l-.004,4.884v3.9l.013,1.228c.033.031.097.029.127.028l.139-.002h3.066v6.156c-.04-.012-.11.019-.154.107l-2.076.006h-1.114l-.02-.16-.066-1.668c-.142.025-.054-.126-.043-.125.163-.274.135-.578.115-1.074l-1.798-.037h-4.866l-.01,1.114v.139l-.005,1.673v.415l-.145.007c0-.04-.013-.081.012-.128.051-.022.051-.121-.009-.148l-3.053-.005-.039,4.459.021,5.003,1.407.009h1.669c-.022.089.052.162.141.141v3.062l.006,3.14,5.133.03c.498.003.997.086,1.405-.099.003.086.043.149.142.14l.004,3.055,3.304.04.038,3.03.02.28c-.034,0-.135.02-.156-.006-.029-.037-.159.079-.187.144h-18.889l.005,1.286c-.218.545-.039,1.249-.087,1.942l3.84.046-.011,2.995h3.335l.007-1.252.002-.14.056-1.606,2.169-.041,1.594.052-.024,3.01,5.01-.006h3.176l.142-.003,3.059.007c.033-.034.131-.051.148.038l3.059-.041,3.196.036.01-1.304v-8.383l-3.209.014-.03-3.161-3.031-.036-.169.006c-.037-1.081.136-2.155-.011-3.191l-3.152.028-.012-3.112.003-.139.066-2.932,1.472-.033c.522-.013,1.178.213,1.687-.105-.04.084,0,.176.102.174l.015,1.503v1.394l.032,3.205,3.122.028.035,2.907c.002.146.009.259.159.261l3.029.011.109,1.387c-.098.022-.094.119.004.133l-.03,1.548,3.155-.007h20.054s.007-3.063.007-3.063l-3.334-.003-.068-1.741c.075-.464.165-1.026-.068-1.454.206-.376.126-.826.124-1.261l.004-.148-.067-1.613c.014-.018.083-.049.065-.124-.015-.064-.093-.082-.14-.075-.024-.044.14-.181.139-.256l-.024-2.809c.219-.017.419.06.643.09.939.128,1.887.048,2.865-.002l.002,6.187.006,3.135,3.427.049.044,1.407c.002.035.02.123-.063.147.1.46.071.966.071,1.529l2.925.003,3.46-.003,3.367.002.253-.017c-.012.046-.016.102-.011.157.004.038-.028.107-.1.159l-.003,2.906v.188l-3.019.085c-.075-.137-.223-.194-.329-.069-.046.055-.132.108-.134.214l-.055,3.207-3.29.002v6.257l6.659.061.028-1.585v-4.867l.14-.007c.047-.002.139.004.169.137h3.034l.248-.008-.082,2.923c-.011.063-.048.113.048.169l.065,3.185h3.484l.005-4.735-.005-1.531c.091.019.158-.053.14-.14.456.215,1.04.191,1.587.061.504.13,1.113.118,1.618-.014.04.033.139.099.139.23v4.599l.009,1.534,6.646-.007c.036,0,.064-.103.039-.131l-.006-1.396v-.139l.004-4.592-3.218-.062.005-3.435c-1.369.255-2.736-.183-3.483.146l.003-.139v-.139l-.004-3.061-3.342-.006c.017-.098-.046-.139-.132-.139l-.006-4.526c.024-.048.068-.071.1-.076.049.398.102.78.006,1.397l3.381.133.005-3.056-.006-.139.032-9.192-.034-.281.002-1.394c0-.045.007-.095-.016-.148.232-.538.194-1.138.043-1.673-.012-.041-.029-.081-.028-.129v-1.811l-.008-1.113-3.202-.004c-.121,0-.139.084-.133.144h-.143l.004-.143.047-6.397c-.047-.04-.045-.125,0-.165l-.05-3.192-3.464-.023-.018-6.523.011-.135c.003-.041.005-.079.002-.121.245-.089.523.092.804.091l6.129-.03.026-3.009-.004-.146,3.481.008c0-.505.034-.926-.163-1.315.309-.465.185-1.181.055-1.739.027.017.072.032.111.006.05-.034.1-.006.139-.006l3.065-.002.14.002,3.113-.004c.076-.36.06-.777.005-1.096.026-.007.108-.054.083-.099l-.07-.128.03-2.127c1.08-.05,2.13-.102,3.368.064l.003-6.192c0-.632-.012-1.281-.008-1.917l.006-1.076-3.325.02v-.143c.09-.006.143-.031.14-.134.006-.058.148.125.209.124l3.021-.028c.048-.068.081-.039.105-.007.073.094.17-.009.149-.066.956.239,1.997.061,3.057.114l.006-3.067v-.277l3.366.043.046-3.349,3.294-.042.034-1.928c-.091-.011-.094-.159.014-.165-.082-.402-.077-.819-.064-1.248-.014-.035-.039-.133.068-.149-.101-.417-.101-.817,0-1.233-.115-.017-.078-.13-.032-.157l-.004-1.504.01-4.904-.052-1.531-3.336-.015.025-3.144-3.22-.065c-.004-.033-.025-.112-.147-.145l-.002-1.642-.009-1.114h-6.65c-.036.073-.032.119-.029.139l-.002,2.784,3.336.011.053,1.397c.019.51-.223,1.166.112,1.659-.117,0-.155.046-.156.138l-.003,2.843v.085l-3.171.003c-.036.072-.032.118-.029.138v3.344l-.01.142-3.3-.069c.052-.239-.218-.239-.18-.035-1.034.224-2.117.08-3.182.086.007-.09-.014-.192-.057-.268l.039-3.495.002-1.369-.009-1.417-3.6.077-3.211-.059-.007,1.392v5.012s3.204.004,3.204.004c-.023.093.052.162.138.141l.052,3.966,3.131-.026c.058.13.162.099.229.116.082.02.107.189.066.261l.002,1.823c.043.08.146.155.102.252-.169.51-.173,1.18.029,1.682-.143-.02-.163.17.011.151-.237.368-.13.821-.133,1.243,0,.058.031.185-.023.296l-3.46-.009-.02-5.662-3.303-.07-.061-3.429-3.449-.041.011-7.066,3.416-.038.057-2.927,6.851.003-.022,2.864,3.339.052.006,4.408,3.179-.018-.026-7.419-3.149-.04-.003-5.969,9.881-.006.028,2.769,3.438.049.023,3.031,3.347-.006.012,3.199,3.303.035.028,12.94-3.335.002-.044,4.174-3.311.005-.04,2.509-3.4.017.016,9.449-3.38-.005v3.212l-3.408-.016.036,3.09-6.513.022-.019,4.285-3.365.012.015,1.943-3.624.043.02,3.286,3.611.053-.012,6.55,3.344.029-.006-3.146,9.878.016.036,3.171,3.326.02.006,3.075,3.2.019-.014,10.29-3.18.013-.007,3.508-3.328.088-.022,2.108-6.523.021-.038,1.223h-3.325l-.004,4.923,3.326.003.017,3.243,3.084.029.016,13.16-30.544-.003.008-9.833,3.334.006-.009-3.292-26.602.015-.003,6.661-3.415.002-.006,2.93-35.161-.008.017-6.341,2.871.007.07-3.368,3.248-.014.011-3.203,9.368.02-.006-2.967-3.285-.034.006-4.571-3.253-.022.009-11.501,3.228-.02.037-3.09,3.275-.002.011-3.191,3.333-.015-.002-6.453-12.772-.006-.003-3.439-3.246.007v-3.202l-3.204-.005-.005-3.059h-3.188l.005-3.064-3.225-.069.048-6.619h-3.172l-.01-5.966-3.126-.045-.017-6.643-3.337-.013.008-10.031,3.313-.049.061-2.857,3.105-.039-.008-3.22,3.319.005c-.031-1.095-.069-2.11-.025-3.201l9.558.021.05,3.159,3.33.022-.033,3.178-3.309.038v6.415l3.146-.035c-.058-1.211-.08-2.306.002-3.465l3.12.009.016,3.469,3.189.013.025,6.378,3.03-.006.017-12.768,3.33-.013v-.003ZM9.894,40.965v2.92l.003,3.565,3.074-.056.057,1.461c-.018.016-.081.056-.067.123.01.051.086.096.153.074-.371.421-.024,1.016-.088,1.444-.067.451-.154.85.056,1.194.137.029.078.186-.038.126-.161.68-.06,1.356-.088,2.078l-3.058.008c0-.048-.027-.121-.143-.151l-.004-3.307-3.148-.003-.061-6.544-3.192-.003.046,1.69-.06,6.111.008.14.004,1.949,3.205-.002v.127l-.008,6.424c0,.125.086.153.142.139h3.206v.14l-.004,5.853c0,.123.085.152.141.14h2.648l.278-.002.002,6.559,3.061-.013c.013.084-.053.258.12.309l.021,1.505.002.139.008,1.113,2.915.005.133.015c0,.083.046.131.122.134l-.011,3.011c.959-.013,2.069.115,2.941-.066.067.071.147.121.297.107l.003.139.003,2.924,2.923.002,9.667-.002-.019-2.916c-.011-.037-.052-.108-.037-.153.028,0,.075-.02.11-.005.068.029.128-.007.181-.007l3.101-.041.007-3.015c-.065-.017-.067-.089-.024-.122.057-.363-.002-.77-.006-1.132v-.131l-.057-1.407-2.757-.036c-.107.005-.296.267-.319.301.052.236.055.625.042.79-.026.059-.078.075-.091.074l-.074-1.234c-.02-.331-.095-.58-.088-1.001l.034-2.223h-9.531l-.248.004.043-3.512-3.244-.089.029-2.949-3.129-.003v-2.089l.004-.975.008-.157,3.057.015.044-1.369c-.087-.017-.093-.168.028-.171-.129-.933-.005-2.067-.033-3.209l-.043-1.794-5.992-.003c.015-.096-.046-.144-.138-.144l.009-1.945.003-.141-.003-1.252,3.076-.004-.015-2.946-3.007-.047.008-1.716c.032-.012.077-.06.066-.097-.018-.06-.092-.087-.137-.067v-1.673c0-.042.013-.1-.019-.153.171-.402.278-.858.016-1.236-.035-.051.043-.128.057-.162.026-.364-.056-.973-.052-1.367l.002-.147c.006-.051.144.126.19.126l2.919.019-.04-1.677-.013-1.529-2.919-.012h-.142l-3.064.009h-.139l-2.924.002-.002,3.202.003-.003ZM67.996,47.374c-.086-.015-.121.046-.124.116l-3.057-.024-.02,6.286c-.091.03-.153.079-.145.171l-2.922.003.002,3.2,2.914.061c.022-.088.122-.073.153-.025l3.124.044-.005-1.469c-.076-.028-.075-.118.003-.143l.003-1.809,3.552-.007-.059-1.885c.015-.021.079-.051.062-.129-.012-.057-.084-.092-.14-.075.211-.322.141-.859.072-1.194.01-.021.082-.042.068-.125-.011-.058-.085-.091-.137-.071.194-.373.196-.871,0-1.245.145.031.179-.164.002-.15.251-.473.124-1.033.03-1.527.188-.499.169-1.159-.007-1.669-.149-.024-.081-.184.028-.125.135-.54.079-1.072.068-1.683l-3.463-.012-.002,3.489v-.003ZM35.388,48.903c-.147-.027-.172.164,0,.156-.213.366-.214.868.004,1.235-.145-.03-.181.162-.003.158-.205.373-.187.855.003,1.237-.129-.026-.19.12-.074.188l-.056,1.903,3.3.038.039,3.317c2.165.1,4.242.053,6.382-.018.099-1.088.097-2.085.051-3.224l-3.21-.008.034-2.04c-.043-.021-.055-.084.006-.123-.032-.451-.086-.864.011-1.263-.077-.015-.079-.094-.016-.131-.025-.442-.073-.85.014-1.243-.097-.014-.097-.11-.025-.148l-.044-1.457-3.17-.022-.139.003-3.187-.029c-.063.522-.132,1.04.079,1.472h0ZM25.422,53.771l-.069-6.253h-2.778v6.261s2.848-.008,2.848-.008h-.001ZM48.201,53.782l-.008-3.342-3.066.034-.01,3.307h3.084ZM61.612,53.781l-.004-3.34h-3.244l.009,3.34h3.24,0ZM31.909,57.128v.138l.078,3.205c-.102-.011-.108.092-.076.137v1.116s0,1.811,0,1.811v1.811l.003,1.225,3.289.024c.058-.415.117-.878-.089-1.245.141.025.184-.126.065-.179l.075-1.358.025-.298c.507.008,1.038.073,1.524-.089.489.192,1.148.167,1.651-.004.028-.142.189-.08.131.035l3.022.063c.05,0,.21-.188.205-.097,1.026.179,2.312.175,3.332.002l.259.1,2.533.018c.157,0,.297-.094.437-.191.099.093-.054.439.04.175l2.449.006.409-.003c.024,0,.099.011.138-.023l.01-1.785v-.139l-.031-1.049-3.094.127-.079-1.725-.005-1.671h-3.057l-.026,3.195c-.069-.034-.151.019-.141.1l-3.046.004c-.025.071-.091.048-.122.046l-3.066-.028c-.262-.498-.141-1.097-.144-1.641l-.012-1.674h-3.338c.089-.172-.075-.345-.082-.46l.023-2.9-3.284-.002v3.222h-.005ZM25.638,63.395l.005,3.249,2.979-.005-.007-9.362-2.963.002-.044,3.33-3.261.031.033,2.749,3.258.006ZM45.002,72.037c0-.049.029-.11.054-.147l-.006-1.664c-.02-.032-.047-.098.003-.146l-.006-3.449c-.147-.048-.261-.026-.313-.026l-2.797-.005c-.091,0-.142.043-.142.141-.008.043-.138-.11-.184-.111l-3.009-.021-.006,6.572,3.229.015-.002,3.13,3.239.022s-.06-4.311-.06-4.311ZM51.413,70.085l.004-3.445-3.155.022.005,3.406s3.146.017,3.146.017ZM58.238,70.046l-.027-3.397-3.314-.031.002,3.468,3.338-.04h0ZM66.279,76.283c.317.136.684.061,1.019.07.205.005.417.038.655-.058l-.029-9.637c-1.135-.005-2.164-.141-3.098.022-.008-.027-.051-.086-.107-.075-.068.014-.079.079-.066.113-.913-.174-1.857-.078-2.908-.082l-.023,6.548,3.068.019.003,3.143,1.486-.061v-.002ZM48.252,82.652l-3.165-.021.032,6.679,3.086.004.005-1.671.002-.139.013-1.567,3.189.031.007-6.525-3.14.033-.029,3.177h0ZM58.466,80.803c.008.445-.05.926-.077,1.404l-.008.14v.28h-3.481s.007,3.333.007,3.333l3.335.01h6.407l.002-5.156-.007-1.396c-1.026.053-1.986-.111-2.916.102.018.116-.171.127-.125-.015-.581-.121-1.179-.037-1.793-.033l-1.367.009s.023,1.322.023,1.322ZM71.475,84.639l-.017-2.122.04-3.034-3.502-.059v6.544h3.342c.24-.43.14-.901.136-1.329h0ZM64.931,89.314l2.983-.002.019-3.301-1.768-.018-1.217.011c-.025-.026-.075-.052-.155-.01v3.29c.072.036.118.032.138.029h0ZM64.584,92.576l.068-3.118-2.927-.005h-10.169l-3.379.004c.205.393.199.708.14,1.112-.125.861.104,1.473-.093,1.878-.019.039.105.135.142.157.056.034.169-.201.235.05l6.059-.055c.627.072,1.301.047,1.91.039l1.515-.018c1.104-.013,2.236,0,3.41-.012l3.09-.033h0ZM102.271,93.907v6.692l-.003.139.004,6.27.01,1.393h6.538l3.315.003.071-3.012,3.292.04-.019-8.439.019-1.133-3.197.003c.021-.082-.035-.141-.111-.136l-.026-1.956-.012-.975h-3.334l-3.204-.002-3.335.002-.01,1.11h.002ZM19.258,124.845l-.015,2.64c-.024.021-.025.104.01.138l3.179.005.049-1.549-.049-1.375-3.177.007c-.037.035-.033.114.004.134h0Z"/>
    <path class="st1" d="M98.794,57.269l-.006,1.809v1.398c.052.092-.082.196-.142.085-.938.057-1.945.12-3.036-.022l-.061,2.586c-.017.726-.253,1.455.026,2.079-.166-.012-.144.18.011.153-.212.289-.217.756-.022,1.057-.086.059-.137.144-.133.192l-.127-.004v-1.393l.007-1.395c.024-.077-.03-.141-.137-.141l-3.353.004h-3.476l-.006,1.533.013,2.985-.051,1.984-2.017.052-1.428.005-.002,3.056c-.051.019-.106-.027-.145-.03l-1.369-.08c-.087-.044-.162-.008-.161.107-.48-.029-.928-.084-1.409.051-.009-.039-.06-.065-.109-.049-.035-.06-.137-.137-.115-.218.202-.358.131-.744-.041-1.028.146.035.188-.157.014-.154.341-.653-.041-1.41.125-1.831.465.023.969.092,1.426-.044.069.016.047,0,.078.025.07.053.195.02.217-.023.429.115.955.072,1.485.054l.017-3.314-.005-1.712-.006-1.228.002-.417c.038-.013.125-.024.15.056,1.026-.129,2.066-.011,3.185.084l.007-1.813v-4.597l.006-3.181-3.284-.007c.185.707-.052,1.213.209,1.681-.232.012-.169,0-.414,0,.174-.55.13-1.139.132-1.694l.009-3.487-.002-.139v-1.393l-.008-1.414-1.521-.011-.145.005-1.396.012c-.091.008-.148-.024-.136-.126-.005-.563.058-1.123-.086-1.688-.109.057-.175-.103-.026-.125.189-.515.162-1.143.02-1.655l.096-2.8c.011-.059-.019-.138-.136-.138l-3.236.002-.064-3.477c.187-.447.06-.938.087-1.4l.002-.141-.004-1.223.161.039,3.053.012.023-1.751-.003-.143v-1.418c-.78.005-1.472.13-2.113-.066l2.122-.077,3.303.022.005-1.943v-3.204l-.006-.161-.041-1.783,3.392.139v-6.556c.201.115.18.431.087.69l3.535.006v-3.188l.004-12.418-13.527.009.011,3.301c-.041.05-.077.035-.113.034l-3.097-.02c-.024-.002-.106.017-.131.052l-.008,3.731v5.434h-.139l-3.202.002-.003,3.063v7.663l.002.14-.017,8.192-3.608.03-.139-.002h-9.614l-10.052-.002c.006-.515.131-1.068-.115-1.525.162.021.158-.172,0-.15.22-.415.209-.963-.002-1.381.137.035.184-.149.014-.15.21-.602.178-1.339.018-1.942-.146-.007-.101-.181.019-.126.146-.553.074-1.104.086-1.657.009-.438.037-.866-.087-1.302-.113.056-.176-.104-.027-.127.187-.511.175-1.151,0-1.664-.144-.024-.079-.187.033-.123l.082-2.666-3.053.008c.016-.061-.031-.139-.105-.152l-.022-2.921-.002-.143-.009-1.81-.022-1.252-2.913.071c-.019-.086-.135-.157-.267-.107l-.016-1.498v-.139l-.006-1.671h-3.203c-.083.001-.148-.031-.145-.142l.009-1.81v-.139l-.006-1.532-3.198-.002-.135-.005c.024-1.038.114-2.062-.069-3.045l-3.14-.015h-9.15c-.058-.229-.325-.169-.325-.027v8.525s.009,1.258.009,1.258l3.055.033c0,.072.052.105.14.104l.005,3.2,2.928.003c-.027.092.048.162.135.14v2.918l1.391-.042c.019.038.083.072.142.048h1.532l.141.005v2.781s0,.139,0,.139l.002,3.342,3.338.002c.039.064.013.209.013.281l-.021,3.199,3.216.003h.139v3.48s3.065.003,3.065.003h.278v2.786c-.092-.022-.162.053-.141.14l-3.201.003-.002,3.065c-.091-.025-.163.049-.141.138l-3.21.002-.061-3.232,3.412-.021-.035-2.863-3.431-.027-.014-3.337-3.209.003-.034-3.45-3.258-.059-.037-6.235-3.215.002v-3.033l-2.981.041v-3.394l-3.292.037V2.14l16.015.01.012,3.146,3.324.017.051,3.046,3.292.019.018,3.713,3.311.052c.054.513-.032.987-.015,1.491l.052,1.624,3.046-.011.049,6.461,3.17.035.002,9.748,16.712-.008.007-16.222,3.451.006.016-8.99,3.254-.026.098-3.315,3.248-.013.024-2.914,13.671-.009.02,2.925,3.386-.002.01,15.745-3.462.025-.03,5.885-3.598.055-.029,6.853-3.262.011.023,3.325-3.347.018-.033,2.885,3.363.023.058,6.274,3.202.003.003,9.676,3.637.016-.002,6.656,3.622-.01-.013-3.095,3.348.003v-.003Z"/>
  </g>
</svg>