<?xml version="1.0" encoding="UTF-8"?>
<svg id="Layer_1" xmlns="http://www.w3.org/2000/svg" width="2in" height="2in" version="1.1" viewBox="0 0 144 144">
  <!-- Generator: Adobe Illustrator 30.4.0, SVG Export Plug-In . SVG Version: 2.1.4 Build 226)  -->
  <defs>
    <style>
      .st0 {
        fill: #986828;
      }

      .st1 {
        fill: #fff;
      }

      .st2 {
        fill: #ffcd05;
      }
    </style>
  </defs>
  <polygon points="133.577 56.087 129.399 56.087 129.399 47.456 121.047 47.456 121.047 38.546 116.869 38.546 116.869 34.371 111.857 34.371 111.857 30.192 107.682 30.192 107.682 26.294 103.506 26.294 103.506 21.005 99.05 21.005 99.05 17.385 90.696 17.385 90.696 12.931 83.458 12.931 83.458 8.753 51.993 8.753 51.993 12.931 47.817 12.931 47.817 17.385 43.364 17.385 43.364 21.005 38.63 21.005 38.63 26.294 35.01 26.294 35.01 30.192 30.834 30.192 30.834 34.371 25.823 34.371 25.823 38.546 21.644 38.546 21.644 47.456 17.746 47.456 17.746 89.221 21.644 89.221 21.644 94.232 38.908 94.232 38.908 98.411 47.54 98.411 47.54 129.595 51.993 129.595 51.993 133.771 56.449 133.771 56.449 137.669 99.886 137.669 99.886 129.595 100.441 129.595 100.441 124.861 104.061 124.861 104.061 103.422 100.441 103.422 100.441 98.411 113.806 98.411 113.806 94.232 116.869 94.232 116.869 89.221 129.399 89.221 129.399 81.425 133.577 81.425 133.577 56.087"/>
  <polygon class="st2" points="99.608 108.156 94.874 108.156 94.874 95.068 90.696 95.068 90.696 86.716 86.242 86.716 86.242 82.26 80.951 82.26 80.951 78.64 61.183 78.64 61.183 86.716 57.007 86.716 57.007 99.524 52.273 99.524 52.273 125.697 57.007 125.697 57.007 129.595 61.183 129.595 61.183 134.048 80.951 134.048 80.951 133.771 94.874 133.771 94.874 120.683 99.608 120.683 99.608 108.156"/>
  <polygon class="st0" points="125.501 52.747 121.602 52.747 121.602 48.014 116.591 48.014 116.591 38.824 112.415 38.824 112.415 35.484 108.237 35.484 108.237 31.586 104.061 31.586 104.061 26.852 94.594 26.852 94.594 21.841 85.684 21.841 85.684 17.943 78.724 17.943 78.724 14.045 57.563 14.045 57.563 17.385 48.375 17.385 48.375 21.841 44.477 21.841 44.477 26.016 39.466 26.016 39.466 29.915 35.01 29.915 35.01 34.926 30.834 34.926 30.834 39.66 26.1 39.66 26.1 52.747 22.48 52.747 22.48 68.059 22.202 68.059 22.202 90.892 38.072 90.892 38.072 85.601 47.54 85.601 47.54 82.538 56.449 82.538 56.449 75.02 86.242 75.02 86.242 78.64 95.43 78.64 95.43 82.816 108.517 82.816 108.517 86.158 124.945 86.158 124.945 75.02 125.501 75.02 125.501 52.747"/>
  <g>
    <polygon class="st1" points="47.54 91.448 39.466 91.448 39.466 95.904 52.273 95.904 52.273 92.006 55.894 92.006 55.894 87.55 47.54 87.55 47.54 91.448"/>
    <polygon class="st1" points="99.328 86.716 99.328 86.994 95.71 86.994 95.71 82.26 91.254 82.26 91.254 87.55 95.152 87.55 95.152 90.334 99.328 90.334 99.328 95.346 108.237 95.346 108.237 86.716 99.328 86.716"/>
  </g>
</svg>