<?xml version="1.0" encoding="UTF-8"?>
<svg id="Layer_1" xmlns="http://www.w3.org/2000/svg" width="2in" height="2in" version="1.1" viewBox="0 0 144 144">
  <!-- Generator: Adobe Illustrator 30.4.0, SVG Export Plug-In . SVG Version: 2.1.4 Build 226)  -->
  <defs>
    <style>
      .st0 {
        fill: #ec2027;
      }

      .st1 {
        fill: #fff;
      }
    </style>
  </defs>
  <polygon points="137.968 84.075 137.299 84.075 137.299 78.038 132.828 78.038 132.828 62.392 132.828 50.993 132.828 46.524 128.803 46.524 128.803 42.052 100.642 42.052 100.642 46.524 96.618 46.524 96.618 50.993 91.702 50.993 91.702 41.83 87.455 41.83 87.455 37.584 78.066 37.584 78.066 23.5 68.679 23.5 68.679 18.807 64.432 18.807 64.432 13.667 55.492 13.667 55.492 18.807 45.88 18.807 45.88 23.5 42.305 23.5 42.305 18.807 38.952 18.807 38.952 14.338 17.941 14.338 17.941 18.807 13.025 18.807 13.025 23.5 9.226 23.5 9.226 57.252 13.025 57.252 13.025 60.382 17.941 60.382 17.941 78.038 17.719 78.038 17.719 101.508 17.941 101.508 17.941 101.955 22.412 101.955 22.412 110.448 31.799 110.448 31.799 115.589 41.186 115.589 41.186 120.507 45.433 120.507 45.433 125.2 54.82 125.2 54.82 129.225 59.516 129.225 59.516 134.141 100.642 134.141 100.642 129.225 115.616 129.225 115.616 125.2 119.641 125.2 119.641 120.507 123.441 120.507 123.441 115.589 128.581 115.589 128.581 110.448 132.828 110.448 132.828 106.426 137.968 106.426 137.968 84.075"/>
  <g>
    <polygon class="st1" points="109.807 87.65 91.477 87.65 91.477 92.343 87.008 92.343 87.008 105.98 91.477 105.98 91.477 110.448 104.664 110.448 109.807 110.448 114.723 110.448 114.723 92.343 109.807 92.343 109.807 87.65"/>
    <polygon class="st1" points="123.663 50.993 123.663 46.077 100.642 46.077 100.642 55.464 109.807 55.464 109.807 60.382 118.969 60.382 118.969 65.076 128.356 65.076 128.356 50.993 123.663 50.993"/>
    <path class="st1" d="M82.09,41.383h-4.694v8.94h-4.471v-22.574h-4.471v-4.694h-4.471v-4.247h-9.165v4.247h-9.612v13.858h-4.694v-9.387h-4.247v-4.025h-4.694v-4.918h-14.081v4.918h-4.247v31.964h4.694v4.918h4.471v13.634l-1.836-.527v23.021l6.082.527v9.387h5.365v4.022h8.94v-18.327h-8.046v-3.575h8.046v3.575h8.94v5.14h19.221v-4.025h8.493v-28.833h-4.247v-4.022h-4.247v-9.165h3.575v4.022h14.081v-9.612h-4.694v-4.247l.005.003ZM26.881,96.59v-3.8h5.14v3.8h-5.14ZM45.658,63.064v-25.705h4.471v11.175h-.222v14.527h-4.247l-.003.003Z"/>
  </g>
  <g>
    <polygon class="st0" points="132.156 79.156 131.934 79.156 131.934 78.709 127.687 78.709 127.687 69.098 118.747 69.098 118.747 64.629 109.135 64.629 109.135 60.382 77.397 60.382 77.397 65.745 81.643 65.745 81.643 92.121 86.115 92.121 86.115 87.65 90.361 87.65 90.361 82.956 108.688 82.956 108.688 87.874 113.607 87.874 113.607 92.343 118.3 92.343 118.3 106.426 118.747 106.426 118.747 110.673 114.054 110.673 114.054 115.367 91.255 115.367 91.255 110.895 86.784 110.895 86.784 106.202 81.865 106.202 81.865 101.73 81.643 101.73 81.643 97.261 81.196 97.261 81.196 92.121 76.95 92.121 76.95 97.261 72.703 97.261 72.703 101.73 51.245 101.73 51.245 97.484 40.071 97.484 40.071 115.813 44.764 115.813 44.764 120.06 54.151 120.06 54.151 124.754 58.173 124.754 58.173 130.119 99.97 130.119 99.97 124.754 114.276 124.754 114.276 120.06 118.969 120.06 118.969 115.589 122.994 115.589 122.994 111.12 127.687 111.12 127.687 106.426 132.156 106.426 132.156 79.156"/>
    <rect class="st0" x="49.458" y="83.181" width="9.612" height="8.94"/>
    <rect class="st0" x="67.785" y="74.016" width="9.387" height="9.612"/>
  </g>
</svg>